<svg xmlns="http://www.w3.org/2000/svg" width="400" height="204" fill="none" viewBox="0 0 400 204"><g id="cinema-items-icons" fill="#333" clip-path="url(#clip0_42_219)"><g id="3d-glasses"><path id="XMLID_9218_" d="m250.25 77.86 50.92 30.6c.57.34 1.13.33 1.6.13q.56-.17.95-.77c2.06-3.26 7.68-9.41 12.16-6.89 4.55 2.57 2.15 11.02.27 14.36a1.7 1.7 0 0 0-.13 1.54q.16.59.77 1.01c16.29 10.73 32.96 21.03 50.2 30.17q.35.17.68.21c.68.16 1.43-.05 1.88-.85 5.94-10.47 13.37-20.05 18.59-30.93l.1-.27c.28-.48.36-1.1.03-1.75-7.25-14.32-16.14-28.8-27.73-40.07-10.29-10.02-19.67-.9-25.3 9.4l-13.38-7.96c6.46-9.8 10.16-22.42-3.54-26.81-15.4-4.93-32.36-6-48.4-5.67-.97.02-1.55.64-1.75 1.38q-.34.21-.58.7l-.42.85a2 2 0 0 0-.3.6c-5 9.95-12.5 18.36-17.26 28.47q-.12.27-.16.54a1.7 1.7 0 0 0 .8 2m69.9 37.73c2.48-5.58 3.5-14.35-2.35-17.85-5.8-3.46-12.6 1.88-16.2 6.63l-47.97-28.82c4.58-9.01 11.18-16.79 15.88-25.72C308.2 71.12 345.38 95 384.1 116.25c-4.88 9.65-11.38 18.35-16.84 27.67-16.14-8.64-31.8-18.28-47.1-28.33m-20.08-52.66a68 68 0 0 1 7.92-1.7c3.37-.46 7.83-.04 8.07 4.35.1 2.04-.83 3.98-1.83 5.68q-7.07-4.2-14.16-8.33m45.01 26.66c2.59-2.74 5.94-5.61 9.16-1.68 1.84 2.24 2.56 5.66 2.96 8.8q-6.07-3.55-12.12-7.12m-.83-12.14c3.82-3 10.53-2.45 14.38.26 3.56 2.5 6.78 7.65 9.4 11.05 5.4 7 10.06 14.48 14.24 22.24A1265 1265 0 0 1 361.17 99c-.55-5.41-1.53-12.93-6.6-15.89-4.57-2.65-9.04.57-12.15 3.87q-.33.36-.44.76l-3.55-2.1c1.5-2.76 3.38-6.28 5.82-8.2m-28-25.2c11.57 4.44 7.06 14.6 2.41 21.64l-1.24-.73c2.58-4.38 3.85-10.79-1-14.18-5.77-4.05-14.87-.17-20.9 1.25l-.05.02A1239 1239 0 0 0 272.09 47c10.05-.1 20.06.45 29.99 2.13 4.6.78 9.79 1.43 14.17 3.11"/><path id="XMLID_9227_" d="M308.26 78.02 273.82 56.8c-1.23-.76-2.42.1-2.71 1.2q-.3.2-.52.57l-9.23 15.35c-.57.94-.2 1.86.5 2.37q.2.3.6.53l.39.22q.12.67.83 1.12l17.02 10.22q1.14.84 2.26 1.71c4.5 3.5 8.58 6.94 14.37 7.86q.49.08.9-.06a1.6 1.6 0 0 0 1.52-.9q4.35-8 8.73-16c.8-.76 1-2.2-.22-2.97m-14.66 6.74q-.39-.48-.84-.95.08-.72.1-1.43.37-.16.6-.55a15 15 0 0 0 1.94 2.3l-.31.18q-.62.4-.8.97-.33-.27-.69-.52m-4.84-8.08q.06.33.12.64a81 81 0 0 1-1.8-4.65l3.04 1.82c-.87.22-1.6 1.01-1.36 2.2m-6.65-7q.15 1.13.2 2.24a82 82 0 0 1-1.44-2.98zm-5.53-1.28c.3 1.84.04 2.93-1.57 1.51-1.26-1.11-1.94-4.01-2.41-5.94q2.28 1.36 4.55 2.73a2 2 0 0 0-.57 1.7m-3.92 5.44.08.12-.25-.11zm25.23 13.78-.78 1.53q-.22-.75-.6-1.4.18-.06.36-.17l.66-.03q.18.06.36.07m1.7-3.6-.8-4.31 2.08 1.25q-.6 1.55-1.27 3.06m-31.2-11.9-.79-.33q-.28-.11-.54-.13l2.08-3.46a16 16 0 0 1-.76 3.91m10.67 8.9q-.46.62-.4 1.31-4.44-3-9.05-5.7 4.8 2.05 9.45 4.4m13.66 9.89q1.1.52 2.22 1 .3.13.6.12l-.4.7q-1.46-.9-2.94-1.77.27-.01.52-.05"/><path id="XMLID_9241_" d="m373.01 116.93-34.43-21.22c-1.24-.76-2.42.1-2.71 1.2q-.3.2-.53.57l-9.22 15.35c-.57.94-.2 1.86.49 2.37q.21.3.6.53l.4.22c.08.42.34.83.83 1.12l17.01 10.22q1.14.84 2.27 1.71c4.5 3.5 8.58 6.94 14.36 7.86q.5.07.9-.06a1.6 1.6 0 0 0 1.52-.9l8.73-16c.8-.76 1.01-2.2-.22-2.97m-14.65 6.74q-.39-.48-.84-.95.07-.72.1-1.43.36-.17.6-.55a15 15 0 0 0 1.93 2.3l-.3.18q-.63.4-.8.97zm-4.85-8.08q.07.33.13.64a81 81 0 0 1-1.8-4.65l3.03 1.82c-.87.22-1.59 1.01-1.36 2.2m-6.65-7q.16 1.13.22 2.24-.75-1.48-1.45-2.98zm-5.53-1.28c.31 1.84.05 2.93-1.56 1.5-1.27-1.1-1.95-4-2.41-5.93l4.55 2.73a2 2 0 0 0-.58 1.7m-3.91 5.44.07.11-.25-.1zm25.23 13.78-.79 1.53q-.21-.75-.6-1.4.2-.06.37-.17l.66-.03q.18.06.36.07m1.7-3.6-.8-4.31 2.08 1.25a85 85 0 0 1-1.28 3.06m-31.21-11.91-.78-.32q-.3-.11-.54-.13 1.04-1.72 2.07-3.46a16 16 0 0 1-.75 3.91m10.68 8.91q-.47.62-.4 1.31-4.44-3-9.05-5.7 4.8 2.04 9.45 4.4m13.65 9.89q1.1.51 2.22 1 .3.13.6.12l-.39.7-2.94-1.77q.25-.01.51-.05"/></g><g id="clapperboard"><path id="XMLID_9093_" d="M30.57 97.32c-1.07-1-2.94-.76-3.59.61-.39.83-.21 1.82.52 2.37a1.7 1.7 0 0 0 1.98.78c1.59-.41 2.36-2.56 1.09-3.76"/><g id="XMLID_7999_"><path id="XMLID_8004_" d="M142.73 38.91c-.7-1.13-2-1.04-2.8-.38q-.52-.07-1.1.23c-29.05 15.92-57.35 33.11-85.5 50.55l-4.47-2.32 65.36-75.7c.72-.82.54-1.8 0-2.45a2 2 0 0 0-.51-.8q-5.47-5.1-11.4-9.67a2 2 0 0 0-1.16-.4c-.67-.56-1.66-.69-2.42.15-29.2 32.21-58.34 64.58-83.25 100.3-.39.56-.4 1.1-.18 1.54.07.5.33.97.84 1.31l5.8 3.9q.5.3.94.3l2.07 2.84q.05.26.18.5c-.17.45-.16.98.19 1.52a1714 1714 0 0 1 52.12 88.17c.24.44.58.7.94.81-.23 1.33 1.23 2.89 2.8 2.02 38.63-21.37 75.85-45.17 114.47-66.56q.37-.21.58-.5c1.1-.25 2.05-1.47 1.32-2.76a3076 3076 0 0 0-54.82-92.6m-11.81 8.5c0 .34.1.7.32 1l-1.14-.55zm-4.2 2.36c.1.41.4.8.92 1.04 4.17 1.95 8.36 4.24 12.7 5.95a944 944 0 0 0-10.24 5.6 79 79 0 0 1-13.72-6.31 2 2 0 0 0-.36-.17 1344 1344 0 0 1 10.7-6.11m15.59 20.08.24-.17.07.25zm33.1 54.86 1.8 3.23-.7.35a4 4 0 0 0-.31-1.95zm-67.68-40.76-.63-.13a3.9 3.9 0 0 0-4.56 3.34 650 650 0 0 1-45.7 25.5q40.1-24.08 80.2-48.18a649 649 0 0 1-29.3 19.47m28.37-9.76q.1.31.26.61a3 3 0 0 0-1.56.28zm-2.56 1.76q-.45.46-.77 1.04l-.54-.14zm-39.92 25.2q-.12.65.01 1.29-.87-.15-1.75-.27zm-10.39 6.8-1.26-.2.57-.3q.3.27.69.5m-11.37 9.5c-.5.46-.87 1.07-1.07 1.74l-3.69-1.45c-3.12-1.23-5.77 1.36-5.45 3.87-2.4-.28-4.1 2.4-3.74 4.64l-5.88-2.35q-.34-.14-.7-.2 8.4-4.1 16.65-8.41.41.46 1.06.78zm41.9-60.26a1.8 1.8 0 0 0 .21 1.56l-1.6-.75zm-4.35 2.54c0 .57.29 1.12.98 1.45q4.55 2.15 9.11 4.26c1.09.5 2.14.8 3.2 1.05a1258 1258 0 0 0-11.3 6.45 2 2 0 0 0-.88-.6 79 79 0 0 1-12.75-5.75q5.8-3.46 11.64-6.86M90.44 70.97l.18.1c4.38 2.06 8.77 4.47 13.34 6.2q-5.82 3.41-11.61 6.85-.29-.28-.73-.43a79 79 0 0 1-12.72-5.73q5.76-3.51 11.54-6.99M71.64 82.4l.08.04c4.33 2.03 8.67 4.4 13.18 6.14q-5.74 3.42-11.47 6.88a2 2 0 0 0-.7-.4q-6.5-2.27-12.52-5.63 5.7-3.53 11.44-7.03M53.02 93.88c4.27 2 8.55 4.34 13 6.04l-11.46 6.9a2 2 0 0 0-.72-.42 79 79 0 0 1-12.2-5.45zm-7.54-8.66-2.43-1.26q2.19-.47 4.36-.98zm36-41.69q-.11-.45-.42-.82l1.25-.13zm19.05-41.85q3.34 2.6 6.52 5.38l-12.38 1.1zM88.9 14.55h.14c6.22-.76 12.51-.4 18.68-1.4l-8.73 10.1q-10.3 1.2-20.5 2.93 5.18-5.83 10.4-11.63M75.44 29.6q.2.2.45.34l-.9.16zm-4.1 4.65q.43.16.97.08l20.16-3.54-6.91 8q-.39-.2-.94-.17a89 89 0 0 0-20.6 4.04q3.65-4.22 7.32-8.4M56.5 51.5q11.4-3.37 23.03-5.72L69.85 57c-.36-.2-.8-.31-1.3-.22a272 272 0 0 0-20.15 4.47 881 881 0 0 1 8.1-9.74M41.75 69.49c.35.19.8.27 1.3.14l20.25-5.05-9.51 11.01a2 2 0 0 0-1.35-.27 149 149 0 0 0-18.58 4.26 691 691 0 0 1 7.89-10.1M28.54 86.63q.21 0 .46-.02 3.3-.53 6.56-1.14-5.25 2.9-10.46 5.85zm12.1.28 9 4.68-22.22 13.81-5.73-7.87q9.42-5.4 18.95-10.62m-11.48 22.55q.26-.41.24-.91l5.07-3.15c4.15 1.97 8.33 4.23 12.66 5.88q-6.12 3.67-12.24 7.3-2.85-4.57-5.73-9.12m22.12 35.58-.04.37q-2.6-4.36-5.24-8.7 2.7 4.13 5.28 8.33m-13.03-21.2v.17l-.08-.12zm23.56 39.51q-4.05-6.95-8.15-13.88l.52.38a360 360 0 0 1 7.63 13.5m15.74 14.99-.55-1.18q.52.3 1.03.6a4 4 0 0 0-.48.58M66.4 139.62c.1-.4.36-.79.82-1.06L84.78 128c2.05-1.23 3.97 1.96 1.91 3.2l-17 10.2q1.22.66 2.43 1.33l-2.62-1.2-.35.2c-1.44.87-2.8-.44-2.8-1.72q-2.69-1.35-5.33-2.8L55 133.64a409 409 0 0 1 11.41 5.98m24.5-1.4-17.55 10.54c-2.05 1.24-3.96-1.95-1.91-3.19l17.54-10.54c2.06-1.23 3.97 1.96 1.92 3.2m4.5 7.2a29 29 0 0 0 3.45 3.97l-.9.23-4.26-2.7q1.07-.56 1.72-1.5m-13.67 23.06 23.28-14-10-16.65-.08.33c-.7.52-1.21 1.3-1.43 2.15l-1.1-.84a4.1 4.1 0 0 0 1.52-3.24l.16.06-8.23-13.7-23.29 14c-2.05 1.23-3.97-1.96-1.92-3.2l85.17-51.17c2.06-1.24 3.97 1.95 1.92 3.19l-30.3 18.2 19.16 31.9 30.3-18.2c2.06-1.24 3.98 1.95 1.92 3.19l-53.32 32.04a43 43 0 0 0 5.37 1.4c-.61.8-1.37 1.5-2.2 2.06-1.4-.7-2.95-1.16-4.53-1.38l-.6-.06q.24-.47.33-1.04l-30.21 18.15c-2.06 1.24-3.97-1.96-1.92-3.19m44.48-60.5-.25-.27c.73-1.28.78-2.88-.28-4.04l2.75.57 1.22 3.12 19.79-11.89a1.9 1.9 0 0 1 2.55.64l9.4 15.63c.28.47.32.94.21 1.34v.06q-.02.03-.03.08c-.1.4-.36.8-.82 1.07l-21.06 12.65c-.86.52-2.03.23-2.55-.63l-9.4-15.63a1.9 1.9 0 0 1 .65-2.56l1.14-.69a3.3 3.3 0 0 0-3.32.55m13.48-12.37c.59-.75.91-1.69.87-2.61l1.54.4q.38.1.72.1l2.26 4.5c-1.2-.5-2.5-.32-3.52.32l-1.76-2.58zm31.66 36.14-1.17.76a4 4 0 0 0 .15-1.69l.1.13q.45.51.92.8m-4.77 3.1-3.81 2.47q.89-1.13 1.3-2.2 1.25-.11 2.51-.27m-9.5 6.18-2.18 1.41a6 6 0 0 0-.32-.94q1.3-.15 2.5-.47m-12.84 2.62c-.59-.1-1.22-.22-1.8-.28l-.91-.12-.02-.03a4 4 0 0 0-.28-1.14l-.68-1.55.07.01 1.28.19 1.82 2.38q.24.3.52.54m-10.9 11.11q-1.99 1.17-3.96 2.36.54-.98.9-2.1 1.55-.02 3.06-.26m-18.5 10.7c-1.28 1.08-3.81 1.5-5.9 1.53q-.11-.48-.37-.92c2.1-.07 4.22-.27 6.28-.62m-6.01 15.79 47.3-30.74a500 500 0 0 1 29.97-14.67c-26.02 14.68-51.49 30.32-77.27 45.4m75.6-52.75-2.02.9-.01-.02a4 4 0 0 0 1.53-1.87zm-27.48-44.78q-.96-1.77-1.84-3.57a4 4 0 0 0 1.48-.94q1.38 2.26 2.75 4.53c-.76-.3-1.6-.27-2.4-.02m-9.1-17.84.21-.15.26.4q-.23-.15-.47-.25m-3.06-11.5a50 50 0 0 1-6.47-2.51c2.26.83 4.57 1.55 6.87 2.3zm48.6 77.38-.55.3q.18-.38.27-.8zm-59.58-85.98 6.53-3.62 5.01 8.16c-3.95-1.28-7.89-2.5-11.54-4.54"/><path id="XMLID_8061_" d="m138.1 120.65 1.28 2.14 3.09-1.85c-1.5.04-2.93-.05-4.38-.3"/><path id="XMLID_8062_" d="M144.63 118.98q-.01.4-.2.79l1-.6z"/><path id="XMLID_8063_" d="m151.23 115.68-5.66-1.61q1.4 1.08 2.75 2.22.43.37.55.8z"/><path id="XMLID_8129_" d="M121.05 116.84q-.6-.72-1.16-1.44c-1.58-1.97-3.72-1.37-5 .14a2.8 2.8 0 0 0-1.25-2.5l4.67.71q.45.07.88.02l-4.94-8.24-25.2 15.14 19.17 31.9 25.2-15.14zm-14.71 13.9-2.05-.5a4 4 0 0 0-1.53-.07c1.34-1.1 1.93-3.11 1.19-4.65l1.12.3q.56 2.48 1.27 4.92m8.45 2.07-.1-.3 1.15.56zm-.66-12.8.14.3-1.75-1.24q.73-.4 1.28-1a3.7 3.7 0 0 0 .33 1.94"/><path id="XMLID_8133_" d="m136.46 117-.9-.58.51.86q.18-.16.39-.28"/><path id="XMLID_8134_" d="m151.79 102.97-.08-.13v.08z"/><path id="XMLID_8135_" d="M150.34 101.12q.22.04.4.12l-.97-1.62-1.72 1.03z"/><path id="XMLID_8136_" d="M138.87 108.3q-.96-.5-1.92-.97l-.47.28z"/><path id="XMLID_8137_" d="M156.63 111.03c-.31.82-1.1 1.42-2.1 1.06q-1.17-.4-2.32-.78 1.28.75 2.53 1.55.29.19.47.43l2.04-1.23z"/><path id="XMLID_8138_" d="m131.9 110.35 1.65 2.73c.45-.73 1.4-1.2 2.46-.77q.72.3 1.46.57a83 83 0 0 0-3.56-2.18 1.8 1.8 0 0 1-.84-1.04z"/><path id="XMLID_8139_" d="M142.86 104.73q-.02-.58.22-1.1l-1.36.83z"/></g></g></g><defs><clipPath id="clip0_42_219"><path fill="#fff" d="M0 0h400v204H0z"/></clipPath></defs></svg>