<svg width="113" height="39" viewBox="0 0 113 39" fill="none" xmlns="http://www.w3.org/2000/svg">
<g id="couple-main-logo" clip-path="url(#clip0_1_3)">
<g id="Group">
<path id="heart-2" d="M103.428 25.138L102.061 23.8938C97.2038 19.4922 93.997 16.5801 93.997 13.0263C93.997 10.1139 96.2794 7.84239 99.1841 7.84239C100.825 7.84239 102.4 8.60577 103.428 9.80257C104.456 8.60577 106.031 7.84239 107.672 7.84239C110.577 7.84239 112.86 10.1139 112.86 13.0263C112.86 16.5797 109.653 19.4922 104.796 23.8938L103.428 25.138Z" fill="#7E8C54"/>
<path id="heart-1" d="M9.43126 25.138L8.06372 23.8938C3.20676 19.4922 0 16.5801 0 13.0263C0 10.1139 2.2824 7.84239 5.18714 7.84239C6.82819 7.84239 8.4034 8.60577 9.43126 9.80257C10.4595 8.60577 12.034 7.84239 13.6754 7.84239C16.5801 7.84239 18.8625 10.1139 18.8625 13.0263C18.8625 16.5797 15.6558 19.4922 10.7988 23.8938L9.43126 25.138Z" fill="#7E8C54"/>
<path id="couple-initials" d="M68.9924 0.0423889H68.9025C69.082 0.696232 68.2021 0.826458 67.5519 0.826458H57.5065C57.4464 0.826458 57.3735 0.831545 57.3066 0.831545C51.9338 1.03197 49.8914 10.0064 48.2493 18.3741C46.4396 27.6357 44.2672 37.7188 37.6432 38.4628C33.8009 38.8857 31.5684 36.485 31.5684 33.1765C31.5684 30.8025 33.0608 28.726 35.2316 28.726C36.6721 28.726 38.0128 29.4969 38.0128 31.2671C37.9629 31.7304 37.7831 32.2018 37.4122 32.3422L37.4522 32.4324C38.1523 32.2018 38.3837 31.4981 38.3837 31.0352C38.3837 29.0838 36.4824 28.5707 35.2316 28.5707C32.4999 28.5707 30.5405 30.5953 30.5405 33.0696C30.5405 36.5084 33.4317 39.0397 37.6833 38.667C41.2962 38.3458 43.6183 36.3965 45.0989 33.2402C46.7705 29.6505 48.2493 22.4267 48.8913 17.8623C48.9914 17.4896 49.1709 17.4127 49.4519 17.4127L56.8159 17.3492C57.1369 17.3492 57.4166 17.8023 57.4166 18.0529V24.3394C57.4166 24.7124 57.2269 24.9831 56.856 24.9831H56.445V25.0834H62.5983V24.9831H61.6284C61.3471 24.9831 61.1177 24.7124 61.1177 24.3794V12.05C61.1177 11.3459 61.3987 11.0885 62.0492 11.0885H66.5421C67.0928 11.0885 68.2937 11.488 68.2937 12.4227H68.3935V9.53702H68.2937C68.2937 10.4615 67.0928 10.8712 66.5421 10.8712H62.0492C61.3987 10.8712 61.1177 10.6036 61.1177 9.91007V1.59561C61.1177 1.27275 61.3471 1.05537 61.6284 1.05537H67.3721C69.1736 1.05537 70.1533 2.83784 70.1533 2.83784H70.2432L68.9924 0.0423889ZM56.8142 17.1552H49.6301C49.2592 17.1552 49.0793 16.8477 49.1194 16.5652L49.5401 14.1912C50.8412 7.30317 53.0618 1.09573 57.3249 1.09573V1.0686L57.4149 16.515C57.4149 16.8477 57.1356 17.1552 56.8142 17.1552ZM60.0963 24.3794C60.0963 24.7104 59.8669 24.9831 59.5856 24.9831H59.0352C58.7057 24.9831 58.4746 24.7118 58.4746 24.339V1.68582C58.4746 1.31277 58.704 1.09573 59.0352 1.09573H59.5758C59.7655 1.08555 60.0963 1.27275 60.0963 1.59561V24.3794Z" fill="#3E3E2C"/>
</g>
</g>
<defs>
<clipPath id="clip0_1_3">
<rect width="113" height="39" fill="white"/>
</clipPath>
</defs>
</svg>
