<svg xmlns="http://www.w3.org/2000/svg" id="Camada_1" viewBox="0 0 1000 1000">
                <defs>
                  <style>.cls-2{fill:#febc92}.cls-3{fill:#565b44}.cls-4{fill:#fff}.cls-5{fill:#69352c}.cls-6{fill:#2d1304}.cls-7{fill:#f2b185}.cls-9{fill:#333}.cls-10{fill:#999}.cls-12{fill:#392f2d}</style>
                </defs>
                <ellipse cx="276.4" cy="912.8" class="cls-10" rx="145.5" ry="29.5"/>
                <ellipse cx="657.9" cy="924.8" class="cls-10" rx="221" ry="37.5"/>
                <path d="m810.3 378.2-3.4-13c-2.8-12-2.5-24-2.1-36.7q.3-9.1.1-18.4-1-27.1-5.9-51.7c-6.8-33.5-22.8-79.1-60.5-106.5a130 130 0 0 0-79.6-24.2c-27.7.6-56 9.4-79.9 24.9a142 142 0 0 0-58.5 81 255 255 0 0 0-7.3 100.8 347 347 0 0 1 .2 66.6v1.2c-2 21.6-3.9 44 .2 64.2a72 72 0 0 0 37.1 51.3 2 2 0 0 0 2.3-.3 2 2 0 0 0 .6-2.2q-6-14.8-9.3-30 4.5 15.4 12 29.3.5 1 1.3 1a2 2 0 0 0 1.7-.3c35.1-26.6 84.3-32.7 122.4-15.2q6 2.8 12.4 6c14.6 7.5 29.6 15 45.2 15h3.3q.8 0 1.3-.7 5-5.1 9-10.7l.2.1a2 2 0 0 0 2.4.4 77 77 0 0 0 37.7-47 123 123 0 0 0 5.3-35.9 97 97 0 0 1 0 27.6 2 2 0 0 0 3.4 1.6c9.7-11.8 15-27 15-42.9 0-11.8-3.4-23.8-6.6-35.3m-13.8 23.6a2 2 0 0 0-3.9 1c3.4 21.8 6.4 73.7-32.5 99.9a105 105 0 0 0 11.3-41.3 2 2 0 0 0-4-.3 93 93 0 0 1-25.8 56c-15.5.7-30.8-7-45.6-14.6q-6.4-3.2-12.6-6.2a117 117 0 0 0-65.2-9.2c-21.6 2.8-42.2 11-59.5 23.5a155 155 0 0 1-15.7-88.7q.1-1.7-1.6-2.3a2 2 0 0 0-2.3 1.7 176 176 0 0 0 8.6 89.8c-37.6-24.7-34-67.3-30.4-108.6l.1-1.2c2.1-24.3 2-47.6-.2-67.4-4.3-38.3-6.6-132.2 64-178 49.3-32 111.5-32.2 155-.7 36.6 26.5 52.2 71.2 58.9 104q5 24.3 5.8 51 .2 9.1-.1 18.2c-.4 12.4-.8 25.2 2.2 37.7q1.6 6.5 3.5 13.1c3 11.4 6.3 23 6.4 34.4 0 12-3.4 24.1-9.7 34.2 1-14.4-1.3-30.1-6.7-46"/>
                <path d="M803.2 447.8c1-14.4-1.3-30.1-6.7-46a2 2 0 0 0-3.9 1c3.4 21.8 6.4 73.7-32.5 99.9a105 105 0 0 0 11.3-41.3 2 2 0 0 0-4-.3 93 93 0 0 1-25.8 56c-15.5.7-30.8-7-45.6-14.6q-6.4-3.2-12.6-6.2a117 117 0 0 0-65.2-9.2c-21.6 2.8-42.2 11-59.5 23.5a155 155 0 0 1-15.7-88.7q.1-1.7-1.6-2.3a2 2 0 0 0-2.3 1.7 176 176 0 0 0 8.6 89.8c-37.6-24.7-34-67.3-30.4-108.6l.1-1.2c2.1-24.3 2-47.6-.2-67.4-4.3-38.3-6.6-132.2 64-178 49.3-32 111.5-32.2 155-.7 36.6 26.5 52.2 71.2 58.9 104q5 24.3 5.8 51 .2 9.1-.1 18.2c-.4 12.4-.8 25.2 2.2 37.7q1.6 6.5 3.5 13.1c3 11.4 6.3 23 6.4 34.4 0 12-3.4 24.1-9.7 34.2" style="fill:#dc7937"/>
                <path d="M862 908.5c-5.4 11.2-19.8 14.7-25.9 15.7s-12.4 1.1-18.5 1.2q-8.2 0-16.4 1c-8.6 1-17.3 2.6-23 7l-.9.6c-6.3 4.8-10.5 8-18.8 9.3a76 76 0 0 1-34.9-.7c-8.2-2.8-24-7-36.4-4q-7.6 2-14.9 5.2c-5.4 2.2-11 4.5-16.9 5.6q-16.8 3.2-26-5.6a36 36 0 0 0-25.3-9.3l-4.2.2c-7 .6-13.8 2.4-20.4 4.2q-7.6 2.2-15.6 3.6c-12.6 2-22.2.2-30-5.4a63 63 0 0 0-34.9-11.7q-6 0-11.7.5c-4.7.3-9.6.7-14.4.3a46 46 0 0 1-33.2-19.2c19-21.2 34.5-46.5 45-73.5a932 932 0 0 0 30-96.2c6-22 13.3-44 20.4-65.4l7-21.2c4.2-13 11-25.2 19.6-35.3s20.7-22 36.3-25.9a148 148 0 0 0 98.8-1.3c27.2 5.7 44 34.2 54.3 55.3 11.8 24 21.8 51 32.6 87.2q4.3 14.3 9.1 28.1c4.4 13 9 26.5 12.4 40 3.7 14.3 9.4 28.2 15.4 42.4l1.7 4c9.7 23 19.8 47 39.7 63.3" class="cls-4"/>
                <path d="M709.9 514.3a154 154 0 0 1-2.7 19q-2.9 14.5-6.8 28.6-3.1 11.3-5.6 22.8a144 144 0 0 1-95.4 1q-6.5-19-11-34.9-4.5-16.4-6.8-30.5c-2.7-15.6 12-29.8 27-34a42 42 0 0 1 38 8.2 2 2 0 0 0 2.4.2 46 46 0 0 1 31.1-7c10 1 25.9 6.6 29.2 17.2 1 3 .8 6.2.6 9.4" class="cls-4"/>
                <path d="M774.8 343a16 16 0 0 1-12.5 3 2 2 0 0 0-2.2 1c-9.3 21-24.3 39.5-42.3 52a121 121 0 0 1-57 21.2c-36.7 3.6-85-6.7-110.5-46.6a113 113 0 0 1-17.2-67.8v-.2a203 203 0 0 0 53.1-95q2.6 10.6 7.3 20.6a102 102 0 0 0 83.1 57.6q1 0 1.6-.4a192 192 0 0 0 79 29.2 15 15 0 0 0-4 6.6 2 2 0 1 0 3.8 1c1.5-5.3 7.3-9 13-8.4 5.4.7 10.4 5.5 11.3 11.2 1 5.5-1.7 11.7-6.5 15" class="cls-2"/>
                <path d="M767 337.9h-.5a6 6 0 0 1-4.5-4.8l-1.5-1.8a2 2 0 0 1 2.8-2.8 6 6 0 0 1 5.4-2 2 2 0 1 1-.7 4q-1.4-.1-2 1.1l2.5 3q.8 1 .2 2.3-.6 1-1.7 1Z"/>
                <path d="M641.2 354.3a35 35 0 0 1-26-12.8 2 2 0 0 1 3.2-2.4 30 30 0 0 0 24.3 11.2 30 30 0 0 0 21-11.2 2 2 0 1 1 3.2 2.4 33 33 0 0 1-25.8 12.8" class="cls-5"/>
                <ellipse cx="589.9" cy="319.8" rx="7" ry="8.9"/>
                <ellipse cx="695.1" cy="321.5" rx="7" ry="8.9"/>
                <path d="M865.7 906.4c-20-15.8-30-39.7-39.7-62.7l-1.7-4c-6-14-11.6-27.8-15.2-42-3.5-13.5-8-27-12.5-40.2-3-9.1-6.3-18.6-9-28a556 556 0 0 0-33-87.8c-10.4-21.4-27.6-50.5-55.7-57.1a609 609 0 0 1 5.4-21.7q3.1-11.7 5.8-23.7a441 441 0 0 0 44.4 65.6q9 11.7 17.6 23.3a2 2 0 0 0 2.8.5 2 2 0 0 0 .4-2.8l-1.5-2q-8-10.9-16.1-21.4c-17-22-34.4-44.8-46.3-69.6q1.8-9 2.5-18.3a29 29 0 0 0-.8-10.8c-4.2-13.4-23.1-19-32.5-20-12-1.4-23.2 1-32.6 6.8-11.2-9-26.6-12-40.4-8.1-16.8 4.7-33 20.8-30 38.6l1.3 6.5q-6.4 10.5-12.4 21c-8.9 15.5-18.1 31.4-28.5 45.8a672 672 0 0 1-45.8 55.5c-4.6 5.1-9.9 11-16.5 13.9-5.8 2.6-14 2.5-18.5-2.6-4.8-5.5-3.1-14.3 1-19.8 2-2.9 5.2-4.3 8.5-5.7 3.4-1.5 7-3.1 9.7-6.4a403 403 0 0 0 36.1-47.9 999 999 0 0 0 25.4-44.2l3.7-6.7q6-11.2 11.2-22.6c5-10.6 10-21.6 16.5-31.5l1.5-2.3c4.9-7.7 10.5-16.4 18.8-19l5-1.6c5.9-1.6 11.8-3.2 16.6-7.2 7-5.7 9.7-15.6 7.3-24.1a145 145 0 0 0 51.8.9q-.5 5.1.4 10.2c1 5 3.6 9.1 7.2 11.4 2.2 1.4 4.6 2 6.8 2.6q2.2.7 4.3 1c5 1.3 9.8 2.4 13.4 5.3 4.6 3.7 8.7 8.8 12 13.2 6.1 8.2 10.2 17.8 14 27.1q3.7 8.7 7.8 17c13 24.6 27.2 49.4 43.7 76l.5.9a2 2 0 0 0 2.8.6l.7-.7q.3-.7.2-1.4l-.3-.7-3-4.7c-15.3-25-28.8-48.6-41-71.8q-4.2-8.3-7.6-16.7a130 130 0 0 0-14.6-28c-3.5-4.6-7.7-10-12.7-14-4.3-3.4-9.7-4.7-15-6q-2-.4-4.2-1-3.1-.6-5.6-2a13 13 0 0 1-5.5-8.9q-.7-5-.3-10.2a125 125 0 0 0 88.8-72.1c4.6.5 9.6-.8 14-3.7a20 20 0 0 0 8.2-19.1 18 18 0 0 0-14.9-14.4q-4.4-.5-8.4 1.4a3 3 0 0 0-2-1.4 188 188 0 0 1-67.1-20.4 179 179 0 0 1-60.4-51.7c-1.2-1.5-3.3.2-2.3 1.7a187 187 0 0 0 40.2 40.5 97 97 0 0 1-81.5-86c-.3-3-4.4-3-5-.2A200 200 0 0 1 529.3 305l-8.6 8.2c-.6.6-.6 1.6 0 2.2q1 1 2 .1 3.2-2.7 6.3-5.6c-.7 23.3 5.6 46.6 18 66a107 107 0 0 0 67 45.3c3.1 7.3 1 17-5.2 22-4.2 3.4-9.5 5-15 6.5l-5.4 1.5c-9.6 3.1-15.6 12.5-20.9 20.7l-1.5 2.3c-6.6 10.2-11.7 21.3-16.8 32-3.4 7.4-7 15.1-11 22.3l-3.7 6.8c-8 14.6-16.4 29.7-25.3 44a400 400 0 0 1-35.7 47.4c-2.3 2.6-5.2 4-8.4 5.3a23 23 0 0 0-10 7c-5 6.8-7 17.8-.8 24.9 3.5 4 8.5 5.6 13.4 5.6q5.4-.1 9.7-2c7.4-3.3 13-9.5 17.9-15 14.3-15.9 31-35 46-55.7C551.7 582 561 566 570 550.5l10-17.2a472 472 0 0 0 15.3 52.8c-15.9 4.5-27.9 16.6-36.6 26.7-9 10.4-16 23.1-20.4 36.7l-7 21.1c-7 21.4-14.4 43.5-20.4 65.7-9.4 34.6-18 65.6-29.9 95.8a239 239 0 0 1-45.3 73.3 2 2 0 0 0-.2 2.5c8 12.5 22.2 21 37 22.3 5.1.4 10.2 0 15.1-.3q5.6-.5 11.3-.4c11.5.2 23.1 4.1 32.6 10.9 8.8 6.2 19.3 8.1 33 6q8.3-1.3 16-3.6c6.5-1.7 13.1-3.5 19.7-4 10.6-1 20 1.8 26.4 8a28 28 0 0 0 20.2 7.5q4.4 0 9.3-1c6.3-1.1 12-3.5 17.7-5.8q7.2-3.1 14.3-5c11.5-2.7 26.4 1.3 34.2 3.9a80 80 0 0 0 36.8.9 40 40 0 0 0 20.7-10.1l.8-.7a48 48 0 0 1 21-6.2q8-.9 16-.9 9.5.2 19.2-1.3c14.8-2.4 25.6-9.5 29.5-19.4a2 2 0 0 0-.6-2.3M614.2 417c-24.5-6-48.4-19.3-64-43.5a113 113 0 0 1-17.1-67.8v-.2a203 203 0 0 0 53.1-95q2.6 10.6 7.3 20.6a102 102 0 0 0 83.1 57.6q1 0 1.6-.4a192 192 0 0 0 79 29.2 15 15 0 0 0-4 6.6 2 2 0 1 0 3.8 1c1.5-5.3 7.3-9 13-8.3 5.4.6 10.4 5.4 11.3 11s-1.7 11.8-6.5 15.2a16 16 0 0 1-12.5 2.8 2 2 0 0 0-2.2 1.2c-9.3 21-24.3 39.4-42.3 52a121 121 0 0 1-57 21.1 142 142 0 0 1-46.6-3.1m-25.7 133.7q-4.5-16.4-7-30.5c-2.6-15.6 12-29.8 27.2-34a42 42 0 0 1 38 8.2 2 2 0 0 0 2.3.2 46 46 0 0 1 31.1-7c10 1 25.9 6.6 29.2 17.2 1 3 .8 6.2.6 9.4a154 154 0 0 1-2.7 19q-2.9 14.5-6.8 28.6-3.1 11.3-5.6 22.8a144 144 0 0 1-95.4 1q-6.5-19-11-34.9M836 924.2c-6 1-12.4 1.1-18.5 1.2q-8.2 0-16.4 1c-8.6 1-17.3 2.6-23 7l-.9.6c-6.3 4.9-10.5 8-18.8 9.3a76 76 0 0 1-34.9-.7c-8.2-2.8-24-7-36.4-4-5.1 1.2-10 3.2-14.9 5.2-5.4 2.2-11 4.5-16.9 5.6q-16.8 3.2-26-5.6a36 36 0 0 0-25.3-9.3l-4.2.2c-7 .6-13.8 2.5-20.4 4.2q-7.6 2.3-15.6 3.6c-12.6 2-22.2.2-30-5.4a63 63 0 0 0-34.9-11.7q-6 0-11.7.5c-4.7.3-9.6.7-14.4.3a46 46 0 0 1-33.2-19.2c19-21.2 34.5-46.5 45-73.4a932 932 0 0 0 30-96.3c6-22 13.3-44 20.4-65.4l7-21.2c4.2-13 11-25.2 19.6-35.3s20.7-22 36.3-25.9a148 148 0 0 0 98.8-1.3c27.2 5.7 44 34.2 54.3 55.3 11.8 24 21.8 51 32.6 87.2q4.3 14.3 9.1 28.1c4.4 13 9 26.5 12.4 40 3.7 14.3 9.4 28.2 15.4 42.4l1.7 4c9.7 23 19.8 47 39.7 63.3-5.4 11.2-19.8 14.7-25.9 15.7"/>
                <path d="M894.8 567.9a110 110 0 0 0-73.3-55.6c-9.4-1.8-23.4-1.3-31.9 6l-.7 1.4c-2.4 20-5 40.7-8 61l-.6 3.7-.4 2.5-2.3 13.7-3.8 23.2-.1 1.3-.7 3.8q0 .5-.2 1c-1.7 9.9-4.1 23.2 4.4 29.3q4.4 3 10.4 3a24 24 0 0 0 7.2-1 49 49 0 0 0 14.8-8.8c8.9-6.9 17-14.8 24.8-22.4q8.9-8.6 18.2-17 22.9-19.6 42-42.9a2 2 0 0 0 .2-2.2M850 610a406 406 0 0 0-18.4 17.1 307 307 0 0 1-24.5 22.2c-3.9 3-8.5 6.4-13.5 8a16 16 0 0 1-14.1-1.4c-6.5-4.6-4.3-16.5-2.7-25.2l.8-5q1.8-12.4 4-24.5l2.2-13.6.3-1.4.2-1.2c3.3-21.3 6-43 8.5-64 7.5-6 19.6-6.4 28-4.8a106 106 0 0 1 69.8 52.4Q872 591.2 850 610"/>
                <path d="M890.6 568.6Q872 591.2 850 610a406 406 0 0 0-18.4 17.1 307 307 0 0 1-24.5 22.2c-3.9 3-8.5 6.4-13.5 8a16 16 0 0 1-14.1-1.4c-6.5-4.6-4.3-16.5-2.7-25.2l.8-5q1.8-12.4 4-24.5l2.2-13.6.3-1.4.2-1.2c3.3-21.3 6-43 8.5-64 7.5-6 19.6-6.4 28-4.8a106 106 0 0 1 69.8 52.4" style="fill:#f0888b"/>
                <path d="m780 586.9-2.4 13.7q-2 11.4-3.8 23.2-8-10.9-16.1-21.4c-17-22-34.4-44.8-46.3-69.6q1.8-9 2.5-18.3a29 29 0 0 0-.8-10.8c-4.2-13.4-23.1-19-32.5-20-12-1.4-23.2 1-32.6 6.8-11.2-9-26.6-12-40.4-8.1-16.8 4.7-33 20.8-30 38.6l1.3 6.5q-6.4 10.5-12.4 21c-8.9 15.5-18.1 31.4-28.5 45.8a672 672 0 0 1-45.8 55.5c-4.6 5.1-9.9 11-16.5 13.9-5.8 2.6-14 2.5-18.5-2.6-4.8-5.5-3.1-14.3 1-19.8 2-2.9 5.2-4.3 8.5-5.7 3.4-1.5 7-3.1 9.7-6.4a403 403 0 0 0 36.1-47.9 999 999 0 0 0 25.4-44.2l3.7-6.7q6-11.2 11.2-22.6c5-10.6 10-21.6 16.5-31.5l1.5-2.3c4.9-7.7 10.5-16.4 18.8-19l5-1.6c5.9-1.6 11.8-3.2 16.6-7.2 7-5.7 9.7-15.6 7.3-24.1a145 145 0 0 0 51.8.9q-.5 5.1.4 10.2c1 5 3.6 9.1 7.2 11.4q3.4 1.9 6.8 2.6 2.2.6 4.3 1c5 1.3 9.8 2.4 13.4 5.3 4.6 3.7 8.7 8.8 12 13.2 6.1 8.2 10.2 17.8 14 27.1q3.7 8.7 7.8 17c13 24.5 27.2 49.4 43.7 76" class="cls-2"/>
                <path d="M935.7 526.7a14 14 0 0 0-8.9-10.6 26 26 0 0 0 3.5-18.7 21 21 0 0 0-8.7-13.4c-3.9-2.5-9.3-4.3-14-2.8a20 20 0 0 0-8.5-11.3 19 19 0 0 0-14.3-2.7 22.9 22.9 0 0 0-40 .2c-4.6-3.7-11.2-5-16.8-3a18 18 0 0 0-11.4 13q-3.8-1.2-8-.1c-3.7 1-6.8 3.4-8.4 6.7-2 3.9-1.8 8.2-.8 12.4a14 14 0 0 0-10.5-1.4c-5.7 1.9-9.7 8-9 14 .7 5.6 5.2 11.8 11 12.8 4 6.5 13 11.1 21 10.8.4 4.5 2.9 9 7 12a25 25 0 0 0 15 4h1.4q6 .1 12-1a44 44 0 0 0 38.7 20.6 18 18 0 0 0 16.6 7 17 17 0 0 0 13.7-10c5.5.3 11.2-2.4 14-7.1 3-4.9 3.2-11.4.6-16 4-3.9 6-10 4.8-15.4m-9 16.2c2.6 3.3 2.7 9 .2 13a11 11 0 0 1-11.5 5 2 2 0 0 0-2.4 1.4 13 13 0 0 1-10.9 9 14 14 0 0 1-13.4-6.2 2 2 0 0 0-1.7-1h-.2a40 40 0 0 1-36.8-19.7 2 2 0 0 0-2.2-1c-4 1-8.2 1.1-12.6 1.2h-1.4c-3.5 0-8.5-.4-12.6-3.3a12 12 0 0 1-5.2-10.7 2 2 0 0 0-2.3-2.2 21 21 0 0 1-19.9-9.4 2 2 0 0 0-1.6-1c-4-.3-7.8-5.3-8.3-9.4a9.5 9.5 0 0 1 6.3-9.8c3.7-1.2 9.6 1.5 11.7 5.3a2 2 0 0 0 2.6.8 2 2 0 0 0 1-2.5c-2.2-5.8-4.2-11.8-1.8-16.6a9 9 0 0 1 6-4.6q4.2-1.1 7.5 1a2 2 0 0 0 3-1.8c0-5 4-10.3 9.2-12.2 5-1.9 11.1-.2 14.5 4a2 2 0 0 0 3.4-.6 18.6 18.6 0 0 1 34.6-1.2 2 2 0 0 0 2.4 1c4-1.3 8.6-.7 12.7 1.9 4 2.4 6.6 6.5 7.2 11a2 2 0 0 0 1.2 1.5 2 2 0 0 0 2-.1c3.4-2.2 8.6-.5 12 1.6q5.4 3.6 7 11c1.2 6-.5 12.8-4.4 17.7a2 2 0 0 0-.4 1.9 2 2 0 0 0 1.5 1.3q7.1 1.6 8.7 8.3c1 4.6-1 9.8-4.8 12.6a2 2 0 0 0-.4 2.9"/>
                <path d="M926.7 543c2.6 3.2 2.7 9 .2 13a11 11 0 0 1-11.5 5 2 2 0 0 0-2.4 1.3 13 13 0 0 1-10.9 9 14 14 0 0 1-13.4-6.2 2 2 0 0 0-1.7-1h-.2a40 40 0 0 1-36.8-19.7 2 2 0 0 0-2.2-1c-4 1-8.2 1.1-12.6 1.2h-1.4c-3.5 0-8.5-.4-12.6-3.3a12 12 0 0 1-5.2-10.7 2 2 0 0 0-2.3-2.2 21 21 0 0 1-19.9-9.4 2 2 0 0 0-1.6-1c-4-.3-7.8-5.3-8.3-9.4a9.5 9.5 0 0 1 6.3-9.8c3.7-1.2 9.6 1.5 11.7 5.3a2 2 0 0 0 2.6.8 2 2 0 0 0 1-2.5c-2.2-5.8-4.2-11.8-1.8-16.6a9 9 0 0 1 6-4.6q4.2-1.1 7.5 1a2 2 0 0 0 3-1.8c0-5 4-10.3 9.2-12.2 5-1.9 11.1-.2 14.5 4a2 2 0 0 0 3.4-.6 18.6 18.6 0 0 1 34.6-1.2 2 2 0 0 0 2.4 1c4-1.3 8.6-.7 12.7 1.9 4 2.4 6.6 6.5 7.2 11a2 2 0 0 0 1.2 1.5 2 2 0 0 0 2-.1c3.4-2.2 8.6-.5 12 1.6q5.4 3.6 7 11c1.2 6-.5 12.8-4.4 17.7a2 2 0 0 0-.4 1.9 2 2 0 0 0 1.5 1.3q7.1 1.6 8.7 8.3c1 4.6-1 9.8-4.8 12.6a2 2 0 0 0-.4 2.9" style="fill:#e6383d"/>
                <path d="m852.2 529.1-1-.2a2 2 0 0 1-.8-2.7q3.4-6.5 3.1-11.2c-.2-3.8-2.4-7.2-5.3-8.3a6 6 0 0 0-5 .6c-.7.5-1.9 1.4-2.2 2.8v.4a2 2 0 0 1-4-.6v-.4q.4-3-1.7-5.8a8 8 0 0 0-5.5-3q-3.1-.1-5.8 2.3a8 8 0 0 0-2.5 5.8 2 2 0 0 1-1.9 2 2 2 0 0 1-2-1.8q-.2-5 3.6-8.8c3.8-3.8 5.7-3.7 8.9-3.5q5 .4 8.3 4.6 1.2 1.5 1.9 3.1l.7-.5a10 10 0 0 1 8.5-1c4.5 1.7 7.7 6.4 8 12q.3 5.8-3.6 13.1-.6 1-1.8 1.1ZM872.6 493.5a2 2 0 0 1-1.6-3.1q1.2-2 .5-4.6t-2.8-3.6q-2-.9-4.6 0-2.4 1.3-3 3.4a2 2 0 0 1-2 1.5 2 2 0 0 1-1.9-1.3c-1.1-3-4.6-5-7.7-4.4a7 7 0 0 0-5.7 6.8 2 2 0 1 1-4 0c0-5 4-9.8 9-10.7 3.8-.7 7.7.8 10.2 3.7q1.5-1.6 3.5-2.6 4-1.8 8 0c4 1.8 4.1 3.3 4.9 6.1q1.1 4.4-1.2 7.9a2 2 0 0 1-1.6.8ZM915.2 524.8h-.1a2 2 0 0 1-1.9-2.2c.2-3-1.3-6.2-3.9-7.8a8 8 0 0 0-4.8-1.4q-1.3.2-2.9 1.7l-.9.8a2 2 0 0 1-3-.6l-.5-.8c-.8-1.7-1.1-2.4-2.3-3q-3.1-1.7-5.8-1a8 8 0 0 0-6.3 8.3 2 2 0 0 1-4 .3 12.4 12.4 0 0 1 9.5-12.6q4-.9 8.4 1.4 2.4 1.4 3.3 3.3 1.6-1.4 4.1-1.8c2.4-.2 5.2.6 7.4 2 3.8 2.5 6 7 5.7 11.5 0 1-1 1.9-2 1.9ZM903.1 554.4l-.7-.1a2 2 0 0 1-1.1-2.7c1-2.2 0-5-2-6.4-2-1.3-5-1-6.7.7a2 2 0 0 1-3.3-.6 8 8 0 0 0-7.4-4.3c-3 .3-5.7 2.8-6.4 5.7a2 2 0 1 1-3.9-.9c1-4.6 5.2-8.3 10-8.8 3.8-.3 7.8 1.5 10.1 4.6 3-1.7 6.9-1.7 9.8.2a9.5 9.5 0 0 1 3.5 11.3 2 2 0 0 1-1.9 1.3ZM840.2 625.3a15 15 0 0 0-8-12.4c-4.6-2.3-10.7-1.6-16 1.8a10 10 0 0 0-3.8 4.8l-1.2 2.3q-1.9 2.8-5 4.1l-1.2.5-2.7 1.2q-2.6 1.5-3.7 4.6c-1.4 3.5-1 7.8-.3 10.7 1.5 6 5 10.7 9.2 12.6q3.3 1.5 7.1 1.5 6 0 11.4-3.5a32 32 0 0 0 11.5-14.4q3.5-7.5 2.7-13.9m-6.4 12.2q-3.8 8.7-10 12.7c-4.6 3-10.3 3.6-14.7 1.7-3.7-1.7-6-6.3-7-10-.6-2.3-.7-5.8.2-8.3q.7-1.8 2-2.5l2-1 1.6-.5a16 16 0 0 0 8.1-8.4c.6-1.4 1-2.2 2.4-3.1a15 15 0 0 1 7.9-2.6q2.1 0 4.2 1c3 1.5 5.3 5.1 5.7 9.2q.6 5.1-2.4 11.8"/>
                <path d="M833.8 637.5q-3.8 8.7-10 12.7c-4.6 3-10.3 3.6-14.7 1.7-3.7-1.7-6-6.3-7-10-.6-2.3-.7-5.8.2-8.3q.7-1.8 2-2.5l2-1 1.6-.5a16 16 0 0 0 8.1-8.4c.6-1.4 1-2.2 2.4-3.1a15 15 0 0 1 7.9-2.6q2.1 0 4.2 1c3 1.5 5.3 5.1 5.7 9.2q.6 5.1-2.4 11.8" class="cls-2"/>
                <path d="M399.6 287.8c-2.8-1-5-1-7.6-.4-.6.2-6.1 3.2-6.7 1.2a738 738 0 0 1-8.7-36.3 93 93 0 0 0-15.6-37.7c-15.3-20.2-40.1-18.4-57.4-15.2q-8.6 1.6-16.7 3.5c-16.1 3.7-31.4 7.2-48 3.7l-9.9-2.3c-18.8-4.6-42.2-10.5-55 5.8-10.7 13.9-11.6 26.5-12.7 42.6l-3.3 49q-1-1-2.4-1.7-3.5-2-7.8-2.1l-.1-.2a116 116 0 0 1-16.4-68c3.5-47.2 38.6-94.6 83.4-112.7a141 141 0 0 1 137.2 17.7c44 34.3 61.4 90.1 47.7 153Z" class="cls-12"/>
                <path d="m381.4 289.6.6 2.6a2 2 0 0 0 3.1 1.1q1.9-1.5 4-2zm-224 18.3.2.7a2 2 0 0 0 4-.2V307zm0 0 .2.7a2 2 0 0 0 4-.2V307zm89.5 93.8-2 1.3 2 .3zm134.5-112.1.6 2.6a2 2 0 0 0 3.1 1.1q1.9-1.5 4-2z"/>
                <path d="m312.4 459.6 14 15.4a80 80 0 0 1-53.1 34.5 270 270 0 0 0 23.6-103.3l2.5 2a93 93 0 0 1 27 36.5l-13.9 12a2 2 0 0 0-.6 1.4q0 .9.5 1.5M264.6 509.2a90 90 0 0 1-27.5-12.5 72 72 0 0 1-17.2-18.5 5 5 0 0 1 0-5.6l7.7-12.6q.7-1.5-.5-2.6l-13.7-10.7 14.3-29.6a2 2 0 0 0 0-1.6q7.4-5.8 15.3-11.2a303 303 0 0 0 21.6 104.9" class="cls-3"/>
                <path d="M468.4 616.2a72 72 0 0 1-27.9 22.6l-91.3-121.1q-1.6-16-3.3-31.7a2 2 0 0 0-4 .5 1948 1948 0 0 1 12 192 232 232 0 0 1-80.1-1.5 3 3 0 0 1-2.4-2.4l-1.5-8.4 1-151.5-.2.4a2 2 0 0 1-1.8 1.2 2 2 0 0 1-1.9-1.2l-.1-.4-1 151.5v6c0 2.1-2 4.4-4 4.8a215 215 0 0 1-82 .6q1.5-31.1 4-62.2 0-2.5.3-5v-.3c3.6-44.2 8.5-88.7 14.6-132.6a2 2 0 1 0-4-.5c-6 43.9-11 88.5-14.5 132.7a157 157 0 0 1-20.5 53.4 77 77 0 0 1-26.8-9 1026 1026 0 0 1 37.3-172.5q2.5-7.7 7-14a270 270 0 0 1 44.3-47.1l-12.5 25.9a2 2 0 0 0 .5 2.4l13.6 10.6-6.8 11c-1.8 3-1.8 7 .2 10a76 76 0 0 0 18 19.5 99 99 0 0 0 32 14l-2-4.7 3.6 1 5-.7-2 4.3a83 83 0 0 0 59.3-38 2 2 0 0 0-.2-2.4l-13.6-15 13.5-11.6a2 2 0 0 0 .5-2.3 97 97 0 0 0-15.5-26.2l28.6 18.2q6.6 4.2 11 10.8z" class="cls-3"/>
                <path d="M404.7 318.1c-4.6 5.6-13 7.7-21.4 5.5a2 2 0 0 0-2.5 1.4c-9.9 33.5-49.5 61.2-81.8 70.3-35.9 10-73.3 4.7-100.2-14.4a93 93 0 0 1-35.5-50.3 2 2 0 0 0-2-1.4l-.9.2c-5 2.8-11.5 3-16.3.7-5-2.5-8.6-7.7-9.3-13.2-.8-6 2.2-12 7-14q1.8-.9 3.9-1a15 15 0 0 1 8 1.6l.3.2a7 7 0 0 1 3.6 4.9 2 2 0 0 0 4-.2V307l.3-4.3 3.4-49.7c1-16 1.9-27.5 12-40.4 11-14.2 33-8.8 50.8-4.4l10 2.4c17.5 3.6 33.2 0 49.8-3.8q8-1.9 16.4-3.5c25.9-4.7 42.9-.3 53.6 13.8a89 89 0 0 1 14.8 36 1008 1008 0 0 0 9.3 39 2 2 0 0 0 3.1 1.1q1.9-1.2 4-1.9a16 16 0 0 1 12 1.5q2.6 1.5 4.4 3.7a18 18 0 0 1-.8 21.6" class="cls-7"/>
                <path d="M489 642.8c-3-7.7-9.3-13.1-15.4-18.4l-3.9-3.4q1.5-1.6 2.8-3.6a2 2 0 0 0 0-2.3l-114.3-170a42 42 0 0 0-12.3-12l-44-28-4.9-3.8V400l3.1-.9c33.5-9.4 72.8-36.8 84-71.2 9.3 1.8 18.4-.9 23.7-7.2a22 22 0 0 0 1-26.6q-2.5-3-5.5-4.7l.2-.7c6.6-30.2 6-60-1.4-86.2a135 135 0 0 0-100.7-96 49 49 0 0 0 7.4-18.6c1.4-8.4.4-17-3-23.9a37.5 37.5 0 0 0-38.2-20.6q-3.7.2-7.2 0c-4-.2-7-1.3-10-2.4-4.5-1.6-9.1-3.2-16.2-2a45 45 0 0 0-31.5 22.6 44 44 0 0 0-1.7 35.9 22 22 0 0 1-18.9-10 2 2 0 0 0-3.5 1.8 44 44 0 0 0 28.6 26.6c-20 9.4-38.6 24.7-52.8 43.8A136 136 0 0 0 127 238c0 21 5.7 42 16.3 60.2q-1.5.3-3 1c-6.5 2.7-10.5 10.4-9.5 18.2.9 6.9 5.3 13.1 11.5 16.2 5.3 2.7 12 2.8 17.8.4a97 97 0 0 0 36.4 50.2 109 109 0 0 0 42.7 17.8 275 275 0 0 0-65 63.2q-5.1 6.8-7.7 15.2A1032 1032 0 0 0 129 655a2 2 0 0 0 1 2l.4.2q-6.8 19.5-7.3 40c0 5 .3 10.6 4 14.6 2.3 2.5 5.9 4 9.6 4q2.8 0 5.4-1.1c4.5-1.8 8.3-5.8 10.4-11q1.9-4.4 2.3-8.7a7 7 0 0 0 4 .9c3-.3 5.8-2.7 7-6q1.2-3.4.2-8.5a57 57 0 0 0-5.3-14.2h.3a2 2 0 0 0 1.7-.9 162 162 0 0 0 16-34.2 2140 2140 0 0 0-2.7 47 2 2 0 0 0 1.6 2.1q6.5 1.3 13 2.2a2500 2500 0 0 0 .1 189.3l-22.9 22.6c-4.5 4.6-9 10-7.4 16.3q2.3 8.5 16.2 10.4a139 139 0 0 0 62.2-6.6c3.3-1.2 7-2.6 9.9-5.2 4.1-3.9 6.3-10 6-16.8-.2-5-1.6-9.6-3.1-14.2h.4a2 2 0 0 0 2-1.8l15.8-171.8 2.4-.2 16.4 172a2 2 0 0 0 2.1 1.9h.6q-1.2 7-.8 14.6c.3 4.7 1.8 11.5 6.5 16.8 5.8 6.4 14.4 8.5 22.1 9.8a152 152 0 0 0 24.3 2q12.8 0 24.2-2.6c8.3-2 13.1-6 13.6-11.4.5-6.4-5.3-10.5-9.9-13.8l-.7-.5a52 52 0 0 1-17.5-22 1999 1999 0 0 0 0-189.5l3.2-.5a2 2 0 0 0 1.7-2 1947 1947 0 0 0-8-155l88.4 117.3a2 2 0 0 0 2.3.6l4.8-2.2a17 17 0 0 0 9.1 15.6 10 10 0 0 0 6.4 1.2q1.6-.4 2.8-1.3a29 29 0 0 0 3.7 4.9c2.6 2.9 6.1 4.7 9.5 4.8h.5c5 0 9.9-3.4 12-8.5 1.8-4.3 1.7-9.6-.4-14.8M188.3 98.5q1.8 1 4 1.7a26 26 0 0 0 11.9 1 2 2 0 0 0 1.5-2.7 40 40 0 0 1 .5-35A41 41 0 0 1 235 43c6-1 9.8.4 14.1 1.9a39 39 0 0 0 18.8 2.6q3.4-.3 6.8-.1c11.5.6 22.6 8 27.6 18.4 3 6.3 4 14 2.7 21.6a41 41 0 0 1-7.8 18.3c-27.5-5.5-57-3.2-83.9 7.7q-.2 0-.4.2a2 2 0 0 0-1.1-.7c-9.2-1.7-17.6-7-23.4-14.3m-57 131.3c3.5-47.3 38.6-94.7 83.4-112.8a141 141 0 0 1 137.2 17.7c44 34.3 61.4 90.1 47.7 153a20 20 0 0 0-14.4.9l-.6-2.4a1030 1030 0 0 1-8-33.9 93 93 0 0 0-15.6-37.7c-15.3-20.2-40.1-18.4-57.4-15.2q-8.6 1.6-16.6 3.5c-16.2 3.7-31.5 7.2-48.1 3.7q-4.6-1-9.8-2.3c-18.9-4.6-42.3-10.5-55 5.8-10.8 13.9-11.7 26.6-12.8 42.6l-3.3 49q-1-1-2.4-1.7-3.5-2-7.8-2.1v-.2a116 116 0 0 1-16.5-68m67.5 151.1a93 93 0 0 1-35.5-50.3 2 2 0 0 0-2-1.4l-.9.2c-5 2.8-11.5 3-16.3.7-5-2.5-8.6-7.7-9.3-13.2-.8-6 2.2-12 7-14q1.8-.9 3.9-1a15 15 0 0 1 8 1.6l.3.2c1.3.8 2.9 2.1 3.4 4.2q2-.1 4.2-1l.3-4.2 3.4-49.7c1-16 1.9-27.5 12-40.4 11-14.2 33-8.8 50.8-4.4l10 2.4c17.5 3.6 33.1 0 49.8-3.8q8-1.9 16.4-3.5c25.9-4.7 42.9-.3 53.6 13.8a89 89 0 0 1 14.8 36 1008 1008 0 0 0 8.7 36.5l7.7 1.7a16 16 0 0 1 12 1.5q2.6 1.5 4.4 3.7a18 18 0 0 1-.8 21.6c-4.6 5.6-13 7.7-21.4 5.5a2 2 0 0 0-2.5 1.4c-9.9 33.5-49.5 61.2-81.8 70.3a134 134 0 0 1-55 3.5 106 106 0 0 1-45.2-17.9m94.3 20q-.2 13.5-1.6 26.7l-.1 1a102 102 0 0 1-1.2 9l-1.6 9.5-1 5.5-.6 2.4-.4 1.7-2.7 11.2-.1.4a189 189 0 0 1-5 16.4 214 214 0 0 1-5.6 14.7l-.9 2.2-1 2.2-1 2.5-1.3 3a290 290 0 0 1-6.7-17.9l-.1-.5-.9-2.5-.2-.7-.8-2.7-.9-2.7-.8-2.8-2.7-10.2-.7-2.7-1-4-.4-2.2a240 240 0 0 1-2.9-14.8l-.4-2.4v-.6l-.5-3-.3-2.3a292 292 0 0 1-2.7-34l-2-.3 2-1.3v1.6a129 129 0 0 0 46-2.4M161.9 682.3q.9 3.8 0 6.3c-.6 1.8-2.1 3.2-3.7 3.3-.7 0-1.8-.4-2.5-1a2 2 0 0 1-.6-1.2v-.3a2 2 0 0 0-4-.2v.4a36 36 0 0 1-2.3 12.6 16 16 0 0 1-8.3 8.8c-3.7 1.5-8.2.7-10.6-2-2.7-2.8-3-7.5-2.9-11.7q.5-19.6 6.8-38.1a80 80 0 0 0 21.8 7.3l.1.5c2.6 4.9 5.1 10 6.2 15.3m84 225a25 25 0 0 1-8.5 4.3c-19 6.8-39.8 9-60.4 6.4-4.2-.5-11.5-2.2-12.8-7.4-1.1-4.3 2.6-8.7 6.4-12.4l23.1-23 53.4 3.7c1.7 4.8 3.3 9.7 3.5 14.7.3 5.6-1.4 10.6-4.7 13.6m30-204.2a2 2 0 0 0-2.2-1.8l-6 .5a2 2 0 0 0-1.8 1.8L250.1 875l-55-3.7h-.5v-.5a2482 2482 0 0 1 0-187 217 217 0 0 0 68-3 9 9 0 0 0 5.5-3.6 7 7 0 0 0 4.9 3.7 237 237 0 0 0 76 2.3 1981 1981 0 0 1 0 189h-.3l-54 2.8h-2.3zm92.3 194.4.7.5c4 2.8 8.5 6 8.2 10.2-.4 4.9-7.5 7-10.5 7.8-13.8 3.2-29.1 3.4-47 .5-7-1.1-14.8-3-19.7-8.5-4-4.4-5.2-10.3-5.5-14.4-.4-4.8.2-9.8.8-14.6l55.2-2.7a56 56 0 0 0 17.8 21.2m72.3-258.7-91.3-121.1q-1.6-16-3.4-31.7a2 2 0 0 0-4 .5 1948 1948 0 0 1 12 192 232 232 0 0 1-80-1.5 3 3 0 0 1-2.4-2.4l-1.5-8.4 1-151.5-.2.4a2 2 0 0 1-1.8 1.2 2 2 0 0 1-1.9-1.2l-.1-.4-1 151.5v6c0 2.1-2 4.4-4 4.8a215 215 0 0 1-82 .6q1.6-31.1 4-62.2 0-2.5.3-5v-.3c3.6-44.2 8.5-88.7 14.6-132.6a2 2 0 1 0-4-.5c-6 43.9-11 88.5-14.5 132.7a157 157 0 0 1-20.5 53.4 77 77 0 0 1-25.4-8.1l-1.4-.8a1025 1025 0 0 1 37.3-172.6q2.5-7.7 7-14a270 270 0 0 1 44.3-47.1l-12.5 25.9a2 2 0 0 0 .5 2.4l13.6 10.6-6.8 11c-1.8 3-1.8 7 .2 10a76 76 0 0 0 18 19.5 99 99 0 0 0 32 14l-2-4.7a90 90 0 0 1-27.5-12.5 72 72 0 0 1-17.2-18.5 5 5 0 0 1 0-5.6l7.7-12.6q.7-1.5-.5-2.6l-13.7-10.7 14.3-29.6a2 2 0 0 0 0-1.6q7.4-5.8 15.3-11.2a303 303 0 0 0 21.6 104.9l3.6 1 5-.7A270 270 0 0 0 297 406.2l2.5 2a93 93 0 0 1 27 36.5l-13.9 12a2 2 0 0 0-.6 1.4q0 .9.5 1.5l14 15.4a80 80 0 0 1-53.1 34.5l-2 4.3a83 83 0 0 0 59.2-38 2 2 0 0 0-.2-2.4l-13.6-15 13.5-11.6a2 2 0 0 0 .5-2.3 97 97 0 0 0-15.5-26.2l28.6 18.2q6.6 4.2 11 10.8l113.6 169a72 72 0 0 1-27.9 22.5m45.2 17.3c-1.5 3.6-5.1 6.2-8.6 6q-3.7-.2-6.8-3.5t-4.5-7.2a2 2 0 0 0-3.9.7q-.1 1.2-1.8 1.7-2 .1-3.8-.8a13 13 0 0 1-6.8-13.7v-.7a76 76 0 0 0 17.7-14.5l3.8 3.4c5.7 4.9 11.6 10 14.3 16.8 1.7 4.1 1.8 8.4.4 11.8"/>
                <path d="M304.9 87.3a41 41 0 0 1-7.8 18.3c-27.5-5.5-57-3.2-83.9 7.7l-.4.1a2 2 0 0 0-1.1-.6c-9.2-1.7-17.6-7-23.4-14.3q1.8 1 4 1.7a26 26 0 0 0 11.9 1 2 2 0 0 0 1.5-2.7 40 40 0 0 1 .5-35A41 41 0 0 1 235 43c6-1 9.8.4 14.1 1.9a39 39 0 0 0 18.8 2.6q3.4-.3 6.8-.1c11.5.6 22.6 8 27.6 18.4 3 6.3 4 14 2.7 21.6" class="cls-12"/>
                <path d="M251.4 47a41 41 0 0 0-9.8 55.2 2 2 0 1 1-3.4 2.1 44 44 0 0 1 12.2-58.8c.9-.6 2 .8 1 1.5ZM268.2 47.2A38.4 38.4 0 0 1 275 102c-.7 1-2 1-2.8.4a2 2 0 0 1-.3-3 34.3 34.3 0 0 0 4.1-39.6q-3.4-6.2-9-11c-1-.8.2-2.4 1.3-1.6ZM195.2 201.3a49.4 49.4 0 0 1-5.6-64.6c.5-.5 1.5 0 1 .7a47 47 0 0 0 7.3 61c2 1.8-.8 4.7-2.8 2.9M230 207.8a59 59 0 0 1-5-78.6q.2-.1.4 0t.1.4a57 57 0 0 0 7.3 75.3c2 1.8-.8 4.7-2.8 2.9M253.1 121.7c-9.7 25-9 53.2 1.6 77.7.3.6-.6 1-.9.5a87 87 0 0 1-2-78.9c.3-.8 1.7-.3 1.3.6M280.8 108.6a32 32 0 0 1 16.2 31.2c-1 8.2-5.8 15.3-9 22.6a33 33 0 0 0 3.7 32.6 1.6 1.6 0 1 1-2.4 2 35 35 0 0 1-5.8-29.9c1.6-5.9 4.9-11.2 7.5-16.6 7.8-14.4 3.2-32-11.2-40.1-1.1-.6-.2-2.4 1-1.8M329 122.8a76 76 0 0 1-10.4 75.6c-1.6 2-4.7-.5-3-2.6a73 73 0 0 0 12-72.4c-.4-.9 1-1.6 1.4-.6ZM342.7 200.2a53 53 0 0 0 8.7-37.4c-.1-.7 1-1 1.2-.2 2.8 13.3.6 27.7-6.5 39.7-1.4 2.3-4.9.2-3.4-2.1M367.6 223.7c13.1-14 17-36.2 9.3-54-.3-.8 1-1.4 1.4-.6a54 54 0 0 1-7.8 57.2c-1.8 2-4.8-.6-3-2.6M378.1 262.2c8.6-3 14.7-12.4 14.2-21.6 0-1 1.5-1.2 1.6-.1 1.3 10.3-4.7 21-14.3 25.4-2.5 1-4-2.7-1.5-3.7M162.3 211.6c-1.1 4.6.2 9.7 3 13 1.8 2.3-1.7 4.8-3.2 2.3-3-4.9-3.4-10.9-1.4-15.8.4-1 1.8-.5 1.6.5M135 223.7a71 71 0 0 0 20.3 50.3c.6.6-.3 1.6-1 1a74 74 0 0 1-23.2-51.2c0-2.7 4-2.8 4 0"/>
                <ellipse cx="218.4" cy="292.8" rx="7.5" ry="9.5"/>
                <ellipse cx="327.4" cy="282.8" rx="7.5" ry="9.5"/>
                <path d="M394.1 316.3a2 2 0 0 1-1.6-3.2 9 9 0 0 0 1.8-5.3l-.1-.3-.3-.1h-6.1c-1 .1-2-.8-2-1.9q.1-1.8 2-2l6-.1q1.9 0 3.2 1.3c1.3 1.3 1.3 2 1.3 3.2q-.1 4.2-2.6 7.6a2 2 0 0 1-1.6.8M153 321.8a2 2 0 0 1-1.3-.5c-1.2-1-3.1-2.7-3.3-5.1v-.2H145a2 2 0 0 1 0-4h5.9q2-1 3.7.5 1 .9.6 2.2a2 2 0 0 1-1.9 1.3h-1q.3 1.1 1.9 2.2a2 2 0 0 1-1.3 3.6Z"/>
                <path d="M273.8 342.4c-9.2 0-15.7-4.5-18.2-6.6a2 2 0 0 1 2.5-3 25 25 0 0 0 17.6 5.5 25 25 0 0 0 15.7-7.4 2 2 0 0 1 2.9 2.8 29 29 0 0 1-20.5 8.7Z" class="cls-5"/>
                <path d="M293 401q0 13.4-1.5 26.6a68 68 0 0 1-17.2 14.3q-1.5 1-3.2 1h-1.6a8 8 0 0 1-3.5-1.2 81 81 0 0 1-17.6-15.4q-1.2-11.6-1.4-23a129 129 0 0 0 46-2.4" class="cls-7"/>
                <path d="M280 481.1a377 377 0 0 1-6.8 18.3l-.9 2.2-1 2.2-1 2.5-1.3 3a290 290 0 0 1-6.7-17.9l-.1-.5-.9-2.5-.2-.7-.8-2.7v-.2l6.7-12.5h6.7z" class="cls-9"/>
                <path d="M280.7 437.7q-3 2.2-6.4 4.2-1.5 1-3.2 1h-1.6a8 8 0 0 1-3.5-1.2 81 81 0 0 1-17.6-15.4l1.6 13.3.4 3 .1.6.4 2.4 2.9 14.8.4 2.1 1 4.1a266 266 0 0 0 5 18.4l.1-.2 6.7-12.5h6.7l6.2 8.8a156 156 0 0 0 3.9-12.8v-.4l2.8-11.2.4-1.7.5-2.4 1-5.4a347 347 0 0 0 2.8-18.6l.2-1q-5 5.7-10.8 10m-11 9.5.2-.2.5-.2.4.1.2.2 9.8 11.6q.5.6 0 1.1L274 468q-.2.3-.6.3h-6.2l-.3-.1q-.3-.1-.3-.2l-5.8-7.3a1 1 0 0 1 0-1z" class="cls-4"/>
                <path d="m247 403.3-2-.3 2-1.3zM273.3 509.5l-2 4.4-.4.8-.2.4a2 2 0 0 1-1.8 1.2 2 2 0 0 1-1.9-1.2l-.1-.4-.4-.8-1.9-4.7 3.6 1zM295 429.6a71 71 0 0 1-19.8 16.3q-2.2 1-4.4 1h-.9a12 12 0 0 1-6-1.8 87 87 0 0 1-19.1-16.8 2 2 0 0 1 3-2.6l.6.6a82 82 0 0 0 17.6 15.4 8 8 0 0 0 5 1.2q1.8 0 3.3-1a68 68 0 0 0 17.2-14.3l.5-.6c.7-.8 2-1 2.8-.2.8.7 1 2 .2 2.8"/>
                <path d="m283.9 456.2-8.7-10.3-1.1-1.3a5 5 0 0 0-3.8-1.7h-.8q-2 .4-3.1 2l-.8 1-8.1 11.5a5 5 0 0 0 .1 5.8l5.8 7.2q1.5 1.8 3.6 1.9h6.7q2-.2 3.4-1.8l.1-.1 6.7-8a5 5 0 0 0 0-6.2m-3 3.6L274 468q-.2.3-.6.3h-6.2l-.3-.1q-.3-.1-.3-.2l-5.8-7.3a1 1 0 0 1 0-1l8.8-12.5.3-.2.5-.1h.4l.2.2 9.8 11.7q.4.5 0 1"/>
                <path d="M280.8 459.8 274 468q-.2.3-.6.3h-6.2l-.3-.1q-.3-.1-.3-.2l-5.8-7.3a1 1 0 0 1 0-1l8.8-12.5.3-.2.5-.1h.4l.2.2 9.8 11.7q.4.5 0 1" class="cls-9"/>
                <path d="m267.7 470.9-.7 1.4-6.7 12.5v.2a2 2 0 0 1-2.7.7 2 2 0 0 1-.8-2.7l1.8-3.5 4.8-9 .8-1.5a2 2 0 0 1 2.6-.8h.1a2 2 0 0 1 .8 2.7M284.1 481.2l-.1.4-.7.8a2 2 0 0 1-1.2.4 2 2 0 0 1-1.6-.9l-.6-.8-6.2-8.8-.6-.9a2 2 0 0 1 3.3-2.3l.8 1.3 4.2 6 2.4 3.2q.4.8.3 1.6"/>
                <path d="M161.9 688.6c-.6 1.8-2.1 3.2-3.6 3.3q-1.4 0-2.6-1a2 2 0 0 1-.6-1.2v-.3a2 2 0 0 0-4-.2v.4a36 36 0 0 1-2.3 12.6 16 16 0 0 1-8.3 8.8c-3.7 1.5-8.2.7-10.6-2-2.7-2.8-3-7.5-2.9-11.7q.5-19.6 6.8-38.1a80 80 0 0 0 21.8 7.3l.1.5c2.6 4.9 5.1 10 6.2 15.3q.9 3.8 0 6.3M485.7 656c-1.5 3.7-5.1 6.3-8.6 6.1q-3.7-.2-6.8-3.5t-4.5-7.2a2 2 0 0 0-3.9.7q-.1 1.2-1.8 1.7-2 .1-3.8-.8a13 13 0 0 1-6.8-13.7v-.7a76 76 0 0 0 17.7-14.5l3.8 3.4c5.7 4.9 11.6 10 14.3 16.8 1.7 4.1 1.8 8.4.4 11.8" class="cls-7"/>
                <path d="M377 908.2c-.3 4.9-7.4 7-10.4 7.8-13.8 3.2-29.1 3.4-47 .5-7-1.1-14.8-3-19.7-8.5-4-4.4-5.2-10.3-5.5-14.4-.4-4.8.2-9.8.8-14.6l55.2-2.7a56 56 0 0 0 17.8 21.2l.7.4c4 2.9 8.5 6.1 8.2 10.2M245.9 907.2a25 25 0 0 1-8.5 4.4c-19 6.8-39.8 9-60.4 6.4-4.2-.5-11.5-2.2-12.8-7.4-1.1-4.3 2.6-8.7 6.4-12.4l23.1-23 53.4 3.7c1.7 4.8 3.3 9.7 3.5 14.7.3 5.6-1.4 10.6-4.7 13.6" class="cls-6"/>
                <path d="M350.9 815.2a2005 2005 0 0 1-2 57.2h-.2l-54 2.7-.9-.3q-.8-.2-1.4.3l-16.5-172a2 2 0 0 0-2.2-1.8l-6 .5a2 2 0 0 0-1.8 1.8L250.1 875l-55-3.8h-.2q0-.3-.3-.4a2482 2482 0 0 1 0-187 217 217 0 0 0 68-3 9 9 0 0 0 5.5-3.6 7 7 0 0 0 4.9 3.6 237 237 0 0 0 76 2.4c2 43.8 2.7 88.2 1.9 132" class="cls-3"/>
                <path d="M195 871.4h-.4v-.5zM294.6 875l-2.3.2a2 2 0 0 1 2.3-.1M134.4 655l-1.4-.8h.5q.6.3 1 .8M239.1 342.2a2 2 0 0 1-1.7-1l-5.2-9.4a2 2 0 0 1 2.7-2.8l2.3 1.3a2 2 0 0 1 2.5-2.4l9.5 3-1.2-5.6a2 2 0 0 1 3.2-2l6.8 5.3 2.8-5.6q.5-1 1.6-1.2a2 2 0 0 1 1.8.8l2.8 4 5.6-8.8a2 2 0 0 1 3.3 2.1l-7 11.2q-.6 1-1.7 1a2 2 0 0 1-1.7-.9l-2.6-3.5-2.3 4.8a2 2 0 0 1-3 .7l-4.6-3.4.8 3.7a2 2 0 0 1-2.5 2.3l-5.6-1.8 2 2.3a2 2 0 0 1-2.4 3.1l-6.2-3.5 1.8 3.4a2 2 0 0 1-1.7 3ZM302.6 335.8a2 2 0 0 1-1.6-.8l-5.3-7.4-.2 2a2 2 0 0 1-3.8.6l-2.3-4.7-1.7 4.2a2 2 0 0 1-1.7 1.3 2 2 0 0 1-1.9-1l-4.5-8.3a2 2 0 0 1 3.5-1.9l2.5 4.5 1.8-4.5a2 2 0 0 1 3.7-.2l1.2 2.7v-.3a2 2 0 0 1 1.6-1.7 2 2 0 0 1 2 .8l6 8.2 2.7-9.2a2 2 0 0 1 3.8-.3l3.8 9v-.2q1.2-1.2 2-2.5a2 2 0 0 1 3.5 2l-2.3 3.1-2 2.6q-.5 1-1.8 1a2 2 0 0 1-1.7-1.2l-3-7-2.3 7.8a2 2 0 0 1-2 1.4ZM280.8 377a2 2 0 0 1-1.8-1l-1.7-3.3-.3 2.3a2 2 0 0 1-1.9 1.7 2 2 0 0 1-2-1.5l-1.8-6.6a2 2 0 0 1 2.8-2.3v-.5a2 2 0 0 1 3.8-.6l1.5 2.9.1-1a2 2 0 1 1 4 .4l-.7 7.8a2 2 0 0 1-1.7 1.8z"/>
                <path d="M259.2 397.7a2 2 0 0 1-2-1.8l-1.3-11.3a2 2 0 0 1 3.6-1.4l4.2 5.9.4-5a2 2 0 0 1 3.2-1.3l2.4 2V376a2 2 0 0 1 3.6-1.3l5 5.8 2.5-3.5a2 2 0 0 1 3.4.3l2.5 4.8q1.8-1.6 4.4-1.7a2 2 0 0 1 1.9 1.4l2.9 9.7a2 2 0 0 1-3.8 1.1l-2.4-7.7q-1 .6-1.3 1.7a2 2 0 0 1-1.7 1.5 2 2 0 0 1-2-1L282 382l-2.2 2.9a2 2 0 0 1-3.1.1l-3.1-3.7v7.5a2 2 0 0 1-3.3 1.5l-2.7-2.2-.6 6.7a2 2 0 0 1-3.6 1l-2.8-4 .4 3.5a2 2 0 0 1-1.7 2.3z"/>
              </svg>