<?xml version="1.0" encoding="UTF-8"?>
<svg id="Camada_1" xmlns="http://www.w3.org/2000/svg" viewBox="0 0 1000 1000">
  <path d="M713.73,552.18c.15-.72.29-1.44.44-2.14-1.41.29-2.83.56-4.25.8-.18.9-.36,1.8-.54,2.72-.1.5,0,.99.24,1.39,2.58-.43,5.13-.92,7.68-1.46-1.54-.63-2.7-1.05-3.57-1.31Z"/>
  <path d="M901.8,236.94c-2.35-1.11-4.48-1.66-6.53-1.66-.09,0-.19.01-.29.01,3.01-5.86,5.58-11.97,7.65-18.21.53-1.62,1.01-3.22.98-4.99-.04-2.28-1.03-4.33-2.65-5.47-2.66-1.87-6.2-.96-8.32.9-1.79,1.59-3,3.78-4.16,5.9-.54,1-1.06,1.93-1.6,2.74-1.5,2.23-2.87,4.56-4.2,6.81l-.98,1.67c-3.42,5.77-6.65,10.83-11.44,14.36-11.95,8.81-18.74,23.38-17.43,37.32l-11.98,17.62c-3.51,5.16-7.18,10.51-11.04,15.94-1.71-11.88-2.69-23.79-3.53-35.35-3.16-43.6-24.35-84.31-58.15-111.69-31.64-25.62-71.42-37.34-109.12-32.15-33.08,4.56-64.09,21.83-87.31,48.64-18.53,21.39-30.96,47.55-35.97,75.66-3.31,18.58-3.02,37.63-2.75,56.04.17,10.67.33,21.57-.21,32.42-19.38-21.85-35.68-46.34-48.67-73.16,3.74-11.77-.72-25.47-10.27-33.14.27-.4.54-.79.8-1.18,4.56-6.75,9.28-13.74,14.33-20.31,11.36-14.77,21.54-30.57,30.31-47,1.64.49,3.36.73,5.08.73,1.98,0,3.96-.33,5.84-1,5.96-2.13,10.15-6.92,11.27-12.73,5.43-.72,10.43-4.61,12.29-9.77,1.93-5.36.73-11.79-2.75-15.8,3.17-4.6,3.85-10.93,1.57-16.04-2.12-4.73-5.92-7.68-10.87-8.51,2.3-6.09,2.19-13.01-.39-19.02-2.32-5.38-6.44-9.53-11.31-11.37-4.29-1.63-9.94-2.27-14.21.1-2.25-4.27-6.1-7.66-10.66-9.29-5.11-1.83-10.24-1.71-14.62.31-5.48-6.44-14.62-9.4-22.84-7.24-7.91,2.09-14.24,8.31-16.28,15.68-5.23-2.74-11.93-2.65-16.99.46-5.3,3.27-8.58,9.29-8.53,15.12-2.56-.29-5.27.21-7.76,1.48-3.49,1.77-6.02,4.79-6.94,8.27-1.13,4.26-.08,8.44,1.77,12.36-3.64-1.05-7.6-.89-10.51.77-5.28,3-7.87,9.86-5.91,15.6,1.58,4.63,6.08,9.13,11.12,10.06,1.78,20.85,3.61,42.37,4.68,63.56.28,5.47.47,11.03.67,16.42.22,6.11.44,12.38.78,18.63l-2.42-1.78c-.48-.35-1.08-.47-1.64-.34-.57.13-1.06.51-1.32,1.03-7.01,13.54-14.35,27.08-21.87,40.37.53.24,1.05.51,1.55.81.65.37,1.29.79,1.89,1.24,7.17-12.68,14.18-25.59,20.9-38.51l3.23,2.38c.02.34.05.67.07,1.01.1,1.43.14,3.11.19,4.9.28,9.93.65,23.53,10.24,27.68,2.05.89,4.32,1.33,6.67,1.33,1.43,0,2.89-.16,4.36-.49-16.69,34.35-35.16,68.11-55.04,100.56-13.01,21.23-26.85,42.28-41.23,62.7l-3.28-6.55c-.49-.99-1.69-1.39-2.68-.9-.99.5-1.39,1.7-.9,2.69l4.24,8.46c-1.63,2.31-3.28,4.62-4.93,6.91-.65.9-.45,2.15.45,2.8.35.25.76.37,1.17.37.62,0,1.23-.28,1.62-.83l3.72-5.19.47.95c-3.62,31.29-6.63,63.08-8.94,94.49-2.28,30.99-3.95,62.42-4.96,93.45-3.06.52-6.14.95-9.22,1.3-10.83,1.22-21.77,1.36-32.65.4-13.41-1.17-26.66-4-39.39-8.4-1.86-.65-3.22-2.25-3.57-4.2l-5.18-29.36,24.28-112.67c-.89.22-1.78.43-2.68.62-.14.03-.28.04-.42.04-.31,0-.62-.07-.9-.21-.06-.03-.11-.06-.17-.09l-24.03,111.52-15.52,25.86c-1.04,1.73-2.99,2.72-4.99,2.54-11.92-1.08-23.68-3.62-34.95-7.55-5.73-1.99-11.34-4.34-16.78-7.02-.01,0-.01-.01-.01-.01-4.23-2.09-8.37-4.39-12.39-6.88,11.96-29.9,22.53-60.73,31.44-91.64,4.9-16.99,9.37-34.26,13.34-51.58.28-1.22.56-2.44.84-3.66,1.34-5.97,2.63-11.94,3.86-17.91.22-1.09-.47-2.14-1.56-2.37-1.09-.22-2.13.48-2.36,1.56-1.1,5.36-2.26,10.73-3.46,16.1-19.93-14.88-39.16-31.07-57.2-48.15-20.12-19.04-39.19-39.58-56.7-61.08l27.48-26.08,52.42,53.02c.07.07.14.13.21.18,8.65,6.59,17.8,12.7,27.21,18.14,8.56,4.96,17.5,9.48,26.58,13.43.23.1.48.15.73.16l16.88.61c-5.32,5.31-9.68,11.41-12.99,18.2-.42.86-.17,1.9.6,2.47l10.21,7.66-10.47,11.13c-.61.66-.71,1.64-.25,2.4,4.54,7.56,10.03,14.5,16.31,20.64,7.53,7.37,16.13,13.53,25.55,18.31l.74-3.45c-.16-.3-.31-.6-.46-.91-8.46-4.48-16.21-10.13-23.03-16.81-5.68-5.55-10.69-11.79-14.9-18.55l10.96-11.65c.39-.41.58-.97.53-1.54-.05-.57-.33-1.09-.79-1.43l-10.66-7.99c3.3-6.35,7.61-12.05,12.83-16.95,4.4-4.13,9.3-7.57,14.64-10.27-.59,2.52-1.09,5.05-1.51,7.59-2.16,12.74-2.32,25.65-.48,38.51,1.96,13.63,6.12,26.77,12.41,39.09.36.19.71.38,1.07.56.55-.12,1.09-.25,1.64-.38-.02-.44.1-.89.37-1.27.17-.24.33-.47.5-.71-2.84-5.56-5.24-11.3-7.18-17.19l8.36-15.39h7.34l3.74,11.81c-3.75,7.04-7.67,14.19-12.26,20.77.24.5.5,1,.76,1.49,0,.03.03.05.04.08,1.23-.32,2.45-.65,3.67-1.01,4.38-6.51,8.12-13.43,11.72-20.21.01,0,.01-.02.01-.03.3-.55.59-1.1.88-1.65.99-1.85,1.97-3.7,2.96-5.55,6.13-11.37,10.79-22.01,14.25-32.52.32-.95.68-1.94,1.05-2.95,2.29-6.25,5.14-14.04-.87-20.14-.2-.2-.43-.35-.68-.45v-.65c.06.01.12.01.19.01l8.29.04h.07c.77,1.08,1.53,2.18,2.26,3.29,2.86,4.32,5.39,8.85,7.58,13.52,2.16,4.62,4,9.42,5.48,14.31l-13.62,9.08c-.85.56-1.13,1.68-.66,2.58l7.17,13.82c-7.8,7.88-16.7,14.47-26.49,19.59-6.26,3.28-12.81,5.92-19.59,7.91-.56.83-1.13,1.65-1.71,2.47-.39.55-1,.84-1.63.84-.13,0-.26-.01-.39-.04l-.43,1.97c8.91-2.14,17.51-5.37,25.61-9.61,10.59-5.54,20.18-12.74,28.51-21.38.6-.62.73-1.55.34-2.31l-7.02-13.51,13.35-8.9c.73-.49,1.05-1.38.81-2.22-1.6-5.57-3.65-11.05-6.11-16.29-2.36-5.07-5.14-9.98-8.28-14.64l24.89-24.14c.74-.72,1.41-1.51,1.99-2.35,3.52-5.12,7.01-10.27,10.47-15.45,11.29-10.82,20.25-23.46,24.75-37.22,9.29,1.85,18.44-.9,23.69-7.24,6.19-7.49,6.59-19.15.9-26.55-1.03-1.33-2.22-2.49-3.54-3.47-.67,1.17-1.33,2.34-2,3.51.88.7,1.68,1.5,2.37,2.4,4.6,5.98,4.24,15.45-.82,21.56-4.19,5.08-11.56,7.31-19.22,5.97-.74-.12-1.49-.28-2.23-.48-1.04-.28-2.12.33-2.43,1.36-4.01,13.57-12.9,26.19-24.19,37-14.71,14.11-33.51,25.14-50.96,31.23-2.24.78-4.46,1.49-6.65,2.1-35.91,10.1-73.37,4.73-100.2-14.37-17.15-12.2-29.76-30.08-35.51-50.32-.17-.59-.6-1.07-1.16-1.3-.25-.11-.51-.16-.76-.16-.34,0-.68.09-.98.26-5.08,2.84-11.49,3.1-16.33.66-4.95-2.49-8.61-7.65-9.32-13.16-.77-5.97,2.25-12.01,7.03-14.04,1.19-.51,2.53-.82,3.91-.93,2.1-.18,4.3.1,6.24.8.61.22,1.2.48,1.75.79.1.06.2.12.31.19,1.33.8,2.84,2.13,3.39,4.18.06.22.11.45.15.69.15,1.01,1.03,1.73,2.06,1.7,1.02-.04,1.84-.84,1.91-1.86l.1-1.44.29-4.32,3.39-49.66c1.09-15.99,1.87-27.54,11.91-40.41,11.11-14.23,33.16-8.76,50.89-4.37,3.52.87,6.86,1.7,9.98,2.35,17.48,3.63,33.17.03,49.77-3.78,5.34-1.22,10.86-2.48,16.43-3.49,25.89-4.65,42.92-.28,53.58,13.76,6.74,8.88,11.46,20.35,14.85,36.09,2.37,11,4.99,21.82,7.56,32.09.36,1.45.73,2.9,1.09,4.33.22.87.43,1.73.65,2.59.16.65.64,1.17,1.27,1.39.62.23,1.32.12,1.86-.27,1.2-.89,2.55-1.54,3.98-1.95,3.4-.99,7.25-.68,10.6.78.67-1.17,1.33-2.34,2-3.52-.69-.32-1.4-.6-2.12-.83-3.41-1.14-7.11-1.35-10.56-.56-1.32.31-2.6.76-3.82,1.36-.2-.78-.4-1.57-.59-2.36-2.72-10.81-5.5-22.26-8.01-33.89-3.52-16.34-8.47-28.31-15.57-37.66-15.34-20.2-40.15-18.4-57.48-15.28-5.66,1.02-11.23,2.29-16.61,3.52-16.17,3.71-31.45,7.21-48.07,3.76-3.05-.63-6.34-1.45-9.83-2.31-18.85-4.67-42.3-10.49-55,5.79-10.8,13.84-11.66,26.53-12.75,42.6l-3.34,48.93c-.69-.6-1.46-1.15-2.32-1.63-2.31-1.3-5.06-2.01-7.83-2.13-1.51-.07-3.02.04-4.47.33-1.08.22-2.13.53-3.11.95-6.48,2.75-10.45,10.42-9.44,18.23.89,6.89,5.29,13.11,11.49,16.23,5.3,2.66,12.07,2.74,17.86.33,6.27,20.18,19.12,37.94,36.36,50.21,16.99,12.1,38.07,18.89,60.35,19.96-3.98,2.15-7.71,4.72-11.19,7.66-.25-.13-.53-.21-.83-.22l-19.53-.7c-8.82-3.85-17.51-8.25-25.83-13.07-9.22-5.34-18.19-11.32-26.68-17.77l-53.7-54.31c-.76-.78-2.01-.8-2.8-.05l-30.24,28.71c-.75.72-.83,1.9-.17,2.71,17.94,22.15,37.53,43.31,58.22,62.9,18.59,17.59,38.42,34.24,58.98,49.52-4.02,17.62-8.55,35.19-13.53,52.47-9.03,31.32-19.77,62.54-31.93,92.81-.36.89-.03,1.91.78,2.43,4.12,2.61,8.35,5.03,12.7,7.24-3.66,20.76-6.23,41.93-7.62,62.94-1.7,25.62-1.7,51.62,0,77.27,0,.07.01.15.02.22,4.58,25.3,10.66,50.6,18.06,75.22,6.82,22.71,14.92,45.32,24.07,67.19.26.63.81,1.08,1.48,1.2.21.04.42.08.63.11.07,4.5-2.32,9.27-7.3,14.58-.7.75-1.52,1.58-2.41,2.49-7.01,7.14-17.61,17.93-13.28,27.83,1.86,4.25,6.12,7.6,11.4,8.94,2.25.58,4.54.78,6.78.78,2.47,0,4.87-.25,7.07-.54,15.05-2.01,29.96-7.25,43.12-15.15,1.06-.64,2.17-1.29,3.31-1.95,10.58-6.19,23.75-13.89,24.32-27.82.36-8.94-4.7-17.69-12.51-21.94.81-.55,1.61-1.1,2.4-1.68.69-.49.99-1.36.75-2.17l-35.42-123.51c-.71-2.47-.94-5.01-.69-7.57l.42-4.17c1.05-10.67,3.96-39.76,7.69-77.34,2.19.84,4.41,1.59,6.67,2.26,1.81,9.75,3.28,19.78,4.69,29.48,2.89,19.89,5.89,40.45,12.05,59.93,3.81,12.05,8.11,23.35,18.7,29.22,5.6,3.11,12.06,4.24,18.79,4.24,10.08,0,20.77-2.54,30.09-4.75,1.92-.45,3.77-.89,5.53-1.29,9.47-2.13,18.91-4.7,28.21-7.69.05.12.11.24.18.36l12.49,20.13c2.76,4.45,5.89,9.49,10.4,13.11,3.72,2.99,8.1,4.58,12.2,4.58,1.66,0,3.28-.26,4.79-.79,4.94-1.75,8.93-6.42,10.66-12.5,6.33-22.27.1-45.44-6.81-67.27-1.55-4.89-3.15-9.93-5.97-14.48-3.27-5.26-7.78-8.9-12.7-10.24-5.09-1.39-10.63-.02-14.09,3.29-.67-1.2-1.38-2.37-2.11-3.52-.47-.73-1.34-1.08-2.18-.86l-39.92,10.21-1.49-78.9c3.1-.39,6.19-.85,9.26-1.41.92-.17,1.61-.96,1.64-1.9,1-31.51,2.68-63.44,5-94.92,2.32-31.55,5.34-63.49,8.99-94.92.04-.38-.03-.77-.2-1.12l-1.69-3.38c14.87-21.05,29.18-42.76,42.61-64.68,20.39-33.3,39.33-67.98,56.36-103.26-.25-.22-.5-.44-.74-.66.46-.19.91-.39,1.36-.62.42-.2.84-.42,1.26-.66.4-.22.79-.46,1.17-.71,4.65-2.92,8.36-7.09,11.51-10.81,6.07-7.18,11.49-14.9,16.67-22.53,8.33,6.84,12.11,19.01,8.48,29.29-.18.5-.15,1.06.08,1.54,13.8,28.66,31.32,54.71,52.29,77.76,1.22,1.34,2.44,2.67,3.68,3.98,6.93,7.36,14.21,14.41,21.85,21.13,22.13,19.47,46.92,35.83,73.69,48.65.27.12.57.19.87.19h10.24c-.41,2.71-1.19,5.36-2.33,7.88-.46,1.01,0,2.19.99,2.65.27.12.55.18.83.18.76,0,1.49-.44,1.82-1.18,2.96-6.52,3.79-13.86,2.4-20.86,8.16,1.51,16.35,2.25,24.42,2.25,4.68,0,9.31-.25,13.86-.75-.2,3.77.06,7.59.76,11.31.09.47.19.93.29,1.39.41,1.88.94,3.74,1.58,5.55.29.82,1.06,1.33,1.88,1.33.22,0,.45-.04.67-.11,1.04-.37,1.59-1.51,1.22-2.56-.39-1.11-.74-2.24-1.03-3.38l8.22-.31c.26.12.54.18.83.18.37,0,.75-.11,1.09-.33,11.5-7.5,23.5-13.97,36.69-19.78,5.27-2.33,10.4-6.31,14.93-9.82,1.06-.82,2.1-1.62,3.12-2.39,14.66-11.06,27.89-24.14,40.69-36.79l.46-.46c11.47-11.34,21.85-24.19,31.25-36.97,1.11-1.5,2.2-3,3.28-4.5,4.75-6.59,9.24-13.12,13.48-19.36l12.39-18.21c.26-.4.38-.88.33-1.36-1.47-12.76,4.72-26.26,15.75-34.39,5.39-3.97,9-9.62,12.51-15.54l.99-1.68c1.3-2.2,2.64-4.48,4.08-6.62.63-.95,1.22-2.01,1.78-3.03,1-1.82,2.03-3.71,3.3-4.83.91-.8,2.46-1.27,3.37-.63.57.4.94,1.27.95,2.27.02,1.14-.34,2.33-.78,3.66-2.58,7.78-5.95,15.33-10.02,22.45-.51.89-.26,2.03.58,2.62.84.6,1.99.47,2.66-.31.87-.99,1.58-1.28,3.14-1.3,1.48-.04,3.06.4,4.89,1.28,8.24,3.92,14.44,14.9,10.16,24.39-1.6,3.55-4.61,6.38-8.25,7.78-.61.23-1.05.74-1.2,1.33.57-.39,1.33-.46,2-.12.87.45,1.29,1.45,1.01,2.36,4.45-1.8,8.11-5.32,10.09-9.71,5.31-11.76-1.96-24.82-12.09-29.65ZM293.08,384.65c13.45-4.8,27.35-12.25,39.68-21.67-.78,1.15-1.57,2.3-2.36,3.45-.43.63-.93,1.21-1.48,1.75l-24.42,23.68c-.07-.11-.15-.22-.23-.33-.37-.51-.97-.81-1.6-.82l-9.38-.04h0c-.07,0-.14,0-.2.01v-6.03ZM260.6,441.67l-3.62-8.53,9.95-9.9,7.16,11.29-5.76,7.14h-7.73ZM290.58,404.73c.76-1.02,1.49-2.06,2.18-3.13,0-.02.03-.05.04-.07,1.42,3.86-.28,8.49-1.93,13-.38,1.05-.76,2.08-1.08,3.07-3.39,10.29-7.96,20.71-13.98,31.87-.55,1.02-1.09,2.03-1.63,3.05l-2.67-8.43,6.59-8.16c.54-.67.59-1.6.13-2.33l-8-12.61c4.47-2.02,8.6-4.62,12.34-7.79,2.98-2.52,5.66-5.36,8.01-8.47ZM249.94,392.74c.02-.11.05-.23.08-.34.27,0,.53-.01.8-.02,11.28-.24,22.77-1.92,34.1-5.11,1.38-.39,2.77-.81,4.16-1.25v13.89c-2.54,3.83-5.59,7.27-9.09,10.24-3.97,3.36-8.43,6.04-13.26,7.99l-18.82-16.14c.55-3.1,1.23-6.19,2.03-9.26ZM247.18,406.65l16.52,14.16-10.5,10.45c-.58.57-.75,1.44-.43,2.19l4.29,10.12-6.58,12.12c-1.4-5.01-2.48-10.12-3.22-15.3-1.61-11.26-1.64-22.55-.08-33.74ZM232.24,602.3l1.85,10.48h-8.14l6.29-10.48ZM261.56,905.74c-.48,11.75-12.09,18.54-22.34,24.53-1.15.68-2.27,1.33-3.35,1.98-12.69,7.62-27.07,12.67-41.58,14.61-3.82.51-8.27.89-12.34-.14-4.09-1.05-7.35-3.54-8.72-6.67-3.25-7.43,6.58-17.44,12.46-23.43.91-.93,1.75-1.78,2.47-2.55,5.51-5.87,8.27-11.34,8.39-16.72,3.44.44,6.92.65,10.39.65,6.69,0,13.38-.79,19.82-2.38,7.93-1.96,15.43-5.04,22.4-9.18.15.12.31.23.5.31,7.22,3.14,12.23,11.13,11.9,18.99ZM377.12,715.69c3.94,1.07,7.61,4.09,10.35,8.49,2.56,4.12,4.08,8.93,5.55,13.57,7.02,22.14,12.81,43.76,6.78,64.98-1.37,4.83-4.42,8.5-8.15,9.82-4.73,1.67-9.89-.53-13.14-3.14-3.98-3.19-6.79-7.72-9.51-12.1l-12.2-19.65c4.78-1.6,9.52-3.31,14.2-5.12.62-.24,1.08-.77,1.23-1.42,2.26-9.82,2.6-19.83,1.03-29.76-1.24-7.76-3.69-15.41-7.2-22.5,2.31-2.98,6.86-4.32,11.06-3.17ZM320.28,742.64l-.33-17.58,39.41-10.09c5.01,8.23,8.44,17.54,9.95,27.02,1.44,9.07,1.19,18.22-.75,27.2-14.53,5.58-29.57,10.13-44.72,13.53-1.77.4-3.64.84-5.57,1.3-14.87,3.52-33.38,7.91-46.02.9-9.31-5.16-13.27-15.68-16.83-26.92-6.06-19.18-9.03-39.58-11.9-59.3-1.35-9.25-2.74-18.79-4.44-28.14,1.65-.61,1.81-3.37-.36-3.84-.42-.08-.84-.16-1.26-.25h0c-.29-.06-.56-.12-.86-.19h-.02c-8.62-1.86-17-5.07-24.75-9.49-1.15-.63-2.16,1.03-1.08,1.76,4.32,2.86,8.9,5.35,13.67,7.43-.06.16-.1.33-.12.5-3.77,37.89-6.7,67.27-7.76,77.99l-.42,4.18c-.3,3.06-.03,6.11.82,9.07l35.04,122.14c-7.96,5.56-16.76,9.55-26.17,11.87-10.4,2.57-21.47,2.97-32.09,1.16-8.92-21.43-16.83-43.56-23.51-65.79-7.35-24.44-13.38-49.56-17.93-74.67-1.68-25.43-1.68-51.21.01-76.62,1.35-20.49,3.84-41.12,7.37-61.38,4.88,2.32,9.87,4.36,14.97,6.13,11.58,4.03,23.66,6.64,35.9,7.76.28.02.56.03.83.03,3.22,0,6.28-1.7,7.96-4.5l4.24-7.07h11.25l1.76,10c.6,3.37,2.97,6.16,6.21,7.28,13.03,4.51,26.61,7.4,40.34,8.61,4.88.42,9.78.64,14.68.64,5.54,0,11.08-.27,16.6-.83l1.5,79.76.06,2.92.33,17.55c.02,1.09.91,1.96,2,1.96h.04c1.1-.02,1.98-.93,1.96-2.03ZM410.31,134.96c-.54.08-1.1.07-1.65-.02-3.56-.53-7.2-4.07-8.36-7.46-1.34-3.92.51-8.78,4.11-10.84,3.41-1.94,9.76-.57,12.56,2.72.69.8,1.87.93,2.72.3.84-.63,1.05-1.81.48-2.69-3.36-5.18-6.52-10.68-5.14-15.91.63-2.38,2.42-4.47,4.9-5.73s5.21-1.47,7.51-.58c.69.27,1.47.14,2.03-.34.56-.48.81-1.23.65-1.96-1.11-4.98,1.64-10.94,6.38-13.87,4.56-2.81,10.87-2.4,15.02.99.57.46,1.35.57,2.03.3.67-.28,1.15-.91,1.22-1.64.77-7.07,6.49-13.37,13.92-15.33,7.1-1.87,15.37,1.11,19.65,7.08.6.84,1.75,1.08,2.64.55,3.66-2.16,8.21-2.45,12.8-.81,4.28,1.54,7.76,5.01,9.32,9.29.23.63.77,1.11,1.43,1.26.66.16,1.35-.04,1.84-.51,3-2.92,8.46-2.29,12.22-.87,3.86,1.46,7.15,4.82,9.04,9.21,2.47,5.74,2.21,12.74-.68,18.28-.33.62-.3,1.36.06,1.96.36.6,1.01.96,1.71.96h.02c4.79,0,8.31,2.21,10.18,6.38,1.91,4.3,1.06,9.74-2.08,13.24-.37.41-.55.94-.51,1.48.04.55.3,1.05.72,1.4,3.24,2.7,4.54,8.29,2.94,12.73-1.51,4.19-5.84,7.24-10.29,7.25-1.04,0-1.9.79-1.99,1.83-.42,4.99-3.82,9.21-8.87,11.01-2.43.87-5.12.97-7.65.38-2.57-.58-4.98-1.86-6.8-3.74-.19-.2-.41-.34-.66-.45-.24-.1-.51-.15-.77-.15-.2,0-.4.02-.59.08-13.56,4.19-30.04-.66-40.08-11.79-.59-.65-1.54-.84-2.34-.46-3.78,1.8-7.83,2.73-12.11,3.72l-1.32.3c-3.42.8-8.45,1.32-13.03-.7-4.04-1.79-6.95-5.54-7.25-9.35-.05-.63-.4-1.2-.93-1.54-.54-.33-1.2-.39-1.79-.16-6.56,2.55-15.96.5-20.75-4.4-.23-.22-.44-.46-.65-.71-.44-.53-1.12-.79-1.81-.69ZM471.31,233.73c-.25.38-.51.75-.76,1.13-.75,1.1-1.5,2.21-2.25,3.32-5.14,7.56-10.49,15.19-16.45,22.24-2.2,2.61-4.69,5.44-7.56,7.81-1.23,1.02-2.54,1.95-3.91,2.74-.04.02-.08.05-.12.07-.74.42-1.5.79-2.26,1.1-.5.21-1,.39-1.5.55-3.65,1.19-7.32,1.17-10.32-.13-7.25-3.13-7.58-15.26-7.83-24.12-.03-.94-.05-1.86-.08-2.74-.03-.82-.07-1.6-.12-2.33-.07-.95-.13-1.9-.18-2.85-.46-7.29-.73-14.69-.99-21.86-.19-5.39-.39-10.98-.67-16.47-1.04-20.47-2.77-41.2-4.48-61.35,5.54,4.27,13.95,6.08,20.85,4.37,1.2,4.36,4.61,8.23,9.19,10.26,5.59,2.47,11.55,1.87,15.56.94l1.31-.3c3.84-.89,7.8-1.8,11.58-3.41,10.83,11.18,27.77,16.1,42.09,12.2.96.86,2.02,1.6,3.14,2.22-8.62,16.12-18.62,31.61-29.76,46.11-5.12,6.66-9.88,13.7-14.48,20.5ZM572.02,363.64c-18.45-24.63-24.71-55.57-16.73-82.75.1-.35.11-.71.01-1.05,12.18-8.82,23.08-19.17,32.54-30.91,12.97-16.1,23.05-34.84,29.46-54.69,2.05,13.88,7.67,33.31,22.42,51.69,19.47,24.24,44.11,33.39,57.07,36.68.62.16,1.25.01,1.71-.35h.01c21.59,17.53,46.92,30.43,73.86,37.48-2.93,2.33-5.03,5.58-5.58,9.21-.16,1.09.59,2.11,1.68,2.27,1.1.17,2.11-.59,2.28-1.68.84-5.64,7.18-10.13,13.29-9.42,5.61.66,10.64,5.21,11.98,10.83,1.31,5.51-.96,11.89-5.52,15.5-4.47,3.54-11.13,4.45-16.59,2.28-1.02-.41-2.19.09-2.6,1.11-.24.61-.16,1.26.15,1.78-9.15,17.7-27.12,34.55-49.51,46.41-10.65,5.64-22.46,9.2-34.72,10.84-.37.05-.74.09-1.11.14-41.97,5.18-89.11-12.03-114.1-45.37ZM793.34,354.16l-.47.46c-12.7,12.56-25.83,25.55-40.28,36.45-1.03.77-2.09,1.59-3.16,2.42-4.56,3.54-9.27,7.19-14.1,9.32-13.09,5.77-25.04,12.18-36.49,19.6h-.01c-.09,0-.17,0-.26,0l-9.3.34c-.55-3.32-.71-6.71-.48-10.07,12.59-1.8,24.51-5.53,35.04-11.11,23.16-12.27,41.77-29.8,51.26-48.27,1.67.42,3.39.63,5.1.63,4.62,0,9.2-1.49,12.79-4.34,5.83-4.61,8.62-12.47,6.93-19.56-1.71-7.19-8.19-13.03-15.4-13.87-2.44-.29-4.88.03-7.14.83-.19-.11-.4-.2-.63-.25-12.47-2.85-24.67-6.94-36.35-12.2-35.18-15.74-65.3-42.39-85.39-75.29-.24-.39-.75-.52-1.14-.28-.4.23-.53.75-.3,1.15,6.63,11.16,14.35,21.68,23.05,31.34,5.01,5.58,10.35,10.86,15.98,15.81-13.15-4.13-33.36-13.42-49.75-33.84-18.3-22.8-21.99-47.28-22.56-59.84-.05-.99-.81-1.79-1.79-1.9-.99-.1-1.9.54-2.15,1.5-5.89,23.01-16.82,44.88-31.62,63.24-12.41,15.4-27.37,28.36-44.46,38.53-.95.57-1.26,1.8-.7,2.75.38.62,1.04.97,1.72.97.35,0,.7-.09,1.02-.28,2.8-1.67,5.54-3.4,8.23-5.23-6.87,27.54-.16,58.26,18.29,82.88,15.99,21.34,42.01,37.5,71.38,44.33.66.15,1.31.3,1.97.44.69,2.69,1.01,5.45.94,8.2h-10.14c-26.29-12.62-50.63-28.72-72.37-47.84-8.47-7.44-16.49-15.3-24.06-23.55.81-12.29.62-24.61.44-36.65-.27-18.22-.56-37.07,2.69-55.28,4.88-27.4,17-52.9,35.05-73.74,22.59-26.07,52.71-42.87,84.84-47.3,36.62-5.04,75.27,6.37,106.05,31.3,32.94,26.69,53.6,66.37,56.68,108.87.93,12.96,2.05,26.36,4.17,39.72-9.89,13.66-20.9,27.53-33.12,39.62Z"/>
  <path d="M781.59,341.93c-.15,0-.3-.02-.45-.05-1.08-.25-1.75-1.32-1.5-2.4.17-.73,0-1.55-.44-2.15s-1.17-1.02-1.91-1.08c-.8-.07-1.47-.61-1.72-1.37s-.02-1.6.58-2.12c2.49-2.18,5.8-3.39,9.11-3.37,1.1.01,1.99.92,1.97,2.02-.01,1.1-.9,1.98-2.03,1.98-1.18,0-2.45.22-3.6.66.3.28.58.59.83.93,1.11,1.53,1.53,3.55,1.1,5.4-.21.93-1.04,1.55-1.95,1.55Z"/>
  <ellipse cx="606.84" cy="302.05" rx="7" ry="8.87"/>
  <ellipse cx="710.12" cy="315.79" rx="7" ry="8.87"/>
  <path d="M654.77,352.73c-.54,0-1.09-.02-1.63-.06-6.61-.47-12.84-3.79-17.11-9.11-4.34-5.41-6.25-12.4-5.25-19.2.1-.69.55-1.27,1.2-1.55.64-.27,1.38-.19,1.94.21,4.22,3.01,11.21,6.78,20.55,7.66,9.5.9,17.19-1.58,21.96-3.82.63-.3,1.37-.24,1.95.14.58.38.92,1.04.9,1.74-.22,6.8-3.15,13.07-8.24,17.66-4.52,4.07-10.37,6.33-16.26,6.33ZM634.52,328.2c.06,4.63,1.67,9.18,4.63,12.86,3.57,4.45,8.78,7.23,14.27,7.62,5.35.38,10.81-1.53,14.94-5.25,3.45-3.11,5.72-7.14,6.57-11.58-5.19,1.97-12.35,3.63-20.83,2.82-8.3-.79-14.91-3.66-19.57-6.47Z"/>
  <path d="M685.8,425.88c-.19-.29-.3-.63-.32-.99,0-.14,0-.27.03-.4.09.47.19.93.29,1.39Z"/>
  <path d="M903.8,276.3c-.13.06-.25.11-.38.16-1.03.4-2.19-.12-2.58-1.15-.16-.41-.17-.85-.05-1.25.57-.39,1.33-.46,2-.12.87.45,1.29,1.45,1.01,2.36Z"/>
  <path d="M903.8,276.3c-.13.06-.25.11-.38.16-1.03.4-2.19-.12-2.58-1.15-.16-.41-.17-.85-.05-1.25.57-.39,1.33-.46,2-.12.87.45,1.29,1.45,1.01,2.36Z"/>
  <g>
    <path d="M515.66,910.33c-.04.08-.13.27-.09.64-.26,0-.53-.02-.79-.02-1.1-.01-1.99-.91-1.98-2.01,0-1.1.9-1.99,2-1.99h.02c.83.01,1.65.03,2.48.06l-1.64,3.32Z"/>
    <path d="M561.55,926.85c-.63-.45-1.26-.9-1.88-1.34-.49-.35-.97-.69-1.45-1.03.25-.1.49-.21.73-.31,1.01-.44,2.19.03,2.63,1.05.24.54.21,1.14-.03,1.63Z"/>
  </g>
  <g>
    <path d="M561.58,925.22c-.44-1.02-1.62-1.49-2.63-1.05-.24.1-.48.21-.73.31.48.34.96.68,1.45,1.03.62.44,1.25.89,1.88,1.34.24-.49.27-1.09.03-1.63ZM517.3,907.01c-.83-.03-1.65-.05-2.48-.06h-.02c-1.1,0-1.99.89-2,1.99-.01,1.1.88,2,1.98,2.01.26,0,.53.01.79.02-.04-.37.05-.56.09-.64l1.64-3.32Z"/>
    <path d="M600.45,483.02c-.09.26-.23.5-.43.7.14-.24.28-.47.43-.7Z"/>
    <path d="M440.97,275.18c-.21.43-.41.85-.62,1.28-.25-.22-.5-.44-.74-.66.46-.19.91-.39,1.36-.62Z"/>
  </g>
  <g>
    <path d="M964.82,717.82c-.9-6.09-3.57-11.2-7.52-14.37-7.7-6.19-17.66-4.2-24.25-2.88-7.46,1.5-15.28,1.96-24.01,2.38-26.7,1.28-47.76-4.84-66.28-19.26-17.94-13.98-31.8-33.04-44.02-49.85-3.46-4.77-6.84-9.67-10.12-14.41-10.16-14.73-20.67-29.95-34.66-42.59-6.75-6.09-14.71-12.97-23.82-17.52-.48-.24-4.61-2.25-8.89-4.14-1.54-.68-2.84-1.24-3.94-1.69,6.78-1.4,13.48-3.11,20.05-5.11,29.44,8.6,64.84.61,84.42-19.1,9.47-9.54,15.47-22.1,17.2-35.15,1.39,16.6-4.32,33.77-16.04,45.62-.61.61-.75,1.55-.35,2.32.4.77,1.25,1.2,2.1,1.05,14.32-2.41,29.06-10.27,40.44-21.54,12.05-11.94,19.28-26.51,20.34-41.02.64-8.62-.59-17.13-3.43-24.81,6.85,10.32,10.95,22.46,11.51,34.88.05.95.75,1.74,1.69,1.89.94.14,1.86-.39,2.19-1.28,11.57-31.24,3.92-61.27-22.75-89.26-14.53-15.25-25.52-28.98-33.17-46.89,5.06-7.32,9.89-14.78,14.48-22.38,8.12-13.44,15.61-27.5,22.26-41.8,4.89.39,9.89-.62,14.23-2.9,4.79-2.51,8.76-6.56,11.19-11.38.06-.11.1-.22.13-.33-.13.06-.25.11-.38.16-1.03.4-2.19-.12-2.58-1.15-.16-.41-.17-.85-.05-1.25-.29.18-.53.44-.69.77-2.06,4.09-5.42,7.51-9.48,9.64-4.05,2.12-8.78,2.95-13.31,2.32-.88-.12-1.72.34-2.09,1.14-6.74,14.62-14.36,28.99-22.65,42.71-4.1,6.78-8.38,13.44-12.86,19.99h0c-.9,1.34-1.82,2.66-2.74,3.98-22.23,31.81-48.87,60.82-79.46,86.5-4.12,3.46-8.48,6.79-12.69,10.01-1.96,1.5-3.91,3-5.85,4.51-6.59,5.13-11.44,13.99-14.42,26.33-.31,1.27-.61,2.54-.9,3.82-6.66-9.51-16.7-16.59-27.99-19.48-13.3-3.41-27.88-.89-39.29,6.72-10.16-7.54-24.35-10.42-36.6-7.34-7.86,1.98-14.45,5.68-19.17,10.68,0-2.72-.13-5.48-.78-8.23-.87-3.68-2.52-7.38-4.91-11-5.47-8.28-13.2-14.49-20.68-20.5-2.95-2.36-6-4.81-8.82-7.32-13.29-11.84-25.86-24.58-37.51-38.05-1.02-1.17-2.03-2.35-3.02-3.53-3.43-4.04-6.77-8.14-10.02-12.29-22-28.11-40.29-59.02-54.36-91.87-.24-.55-.7-.97-1.28-1.13-5.8-1.71-11.22-4.69-15.82-8.63-.38.25-.77.49-1.17.71-.42.24-.84.46-1.26.66-.21.43-.41.85-.62,1.28,4.88,4.28,10.65,7.57,16.84,9.54,14.16,32.85,32.5,63.77,54.52,91.91,3.77,4.81,7.65,9.55,11.64,14.21-1.49,4.13-3.19,8.35-5.13,12.76-10.23,23.24-22.38,57.73-9.87,88.77,5.56,13.78,17.53,26.89,32.86,35.96.85.5,1.93.32,2.56-.43.62-.75.62-1.85-.02-2.59-12.51-14.55-15.81-31.76-14.93-49.69,2.93,16.7,10.9,32.9,23.18,45.96,15.58,16.57,36.08,24.35,57.55,28.96,1.13,3.19,2.26,6.3,3.38,9.37.36,1.01.73,2.02,1.1,3.02-.51.37-1.02.74-1.52,1.12h-.01c-9.78,7.27-17.09,15.68-22.28,25.62-10.9,20.85-15.99,43.28-20.91,64.97-.85,3.78-1.71,7.57-2.6,11.36-5.12,21.8-6.19,42.71-7.33,64.86-.36,7.04-.74,14.32-1.25,21.56-2.09,29.34-6.45,55.05-13.33,78.62-7.3,25.02-18.42,47.4-30.18,71.11l-2.55,5.12c-.45.92-.84,2.44-.1,4.45,2.35,6.41,14.97,13.77,17.5,14.86,4.91,2.13,10.2,3.2,15.49,3.2s10.62-1.07,15.57-3.21c.47-.2.83-.57,1.02-1-.63-.45-1.26-.9-1.88-1.34-.49-.35-.97-.69-1.45-1.03-8.71,3.53-18.56,3.44-27.16-.29-3.08-1.33-13.69-8.09-15.33-12.57-.09-.26-.14-.47-.16-.65-.26,0-.53-.02-.79-.02-1.1-.01-1.99-.91-1.98-2.01,0-1.1.9-1.99,2-1.99h.02c.83.01,1.65.03,2.48.06l.9-1.81c11.85-23.86,23.04-46.4,30.44-71.76,6.96-23.84,11.37-49.83,13.48-79.46.52-7.27.89-14.57,1.25-21.64,1.13-21.96,2.2-42.7,7.23-64.14.9-3.81,1.76-7.6,2.62-11.39,5.08-22.43,9.89-43.62,20.54-64.01,5.28-10.09,12.89-18.54,23.25-25.8,9.84,3.39,22.74,6.38,37.76,6.38,4.09,0,8.35-.23,12.74-.72,16.46-1.85,32.61-7.39,46.84-16.05,3.99,1.53,10.95,4.77,14,6.29,8.67,4.33,16.38,11,22.93,16.91,13.65,12.32,23.56,26.68,34.05,41.89,3.29,4.76,6.69,9.68,10.18,14.49,12.37,17.03,26.4,36.33,44.79,50.65,19.32,15.05,41.24,21.44,68.93,20.11,8.89-.43,16.88-.91,24.61-2.45,7.53-1.52,14.77-2.51,20.46,1.69-5.19,0-10.61,2.77-14.12,7.51-3.36,4.53-5.15,10.51-5.46,18.28-.11,2.83-.04,5.68.03,8.43.08,3.19.17,6.5-.05,9.69-.88,13.06-10,20.51-19.65,28.39-2.74,2.24-5.58,4.55-8.23,7.02-5.28,4.89-8.65,10.75-11.38,17.02-.44.99-.86,1.99-1.26,3-.57,1.39-1.11,2.8-1.64,4.22-5.19,13.74-10.69,22.98-23.41,29.52-7.25,3.73-15.16,6.28-22.8,8.75-8.9,2.87-18.1,5.84-26.5,10.7-12.42,7.19-21.82,17.87-30.91,28.2-8.6,9.77-17.49,19.86-28.8,26.74-12.87,7.83-30.96,7.45-45.49,7.14-7.83-.17-15.55-1.34-23.02-2.48-2.29-.35-4.6-.7-6.92-1.02-.47-.07-.95-.14-1.42-.19-12.19-1.64-24.75-2.31-37.79,2.36-5.38,1.92-10.58,4.5-15.61,6.99-8.58,4.25-16.67,8.26-25.68,9.4-9.81,1.25-20.8-1.12-31.79-6.86-3.6-1.88-7.06-4.35-10.4-6.74-4.56-3.27-9.29-6.65-14.62-8.73-10.1-3.94-20.2-6.13-30.08-6.52l-1.64,3.32c-.04.08-.13.27-.09.64,9.92.18,20.13,2.3,30.35,6.29,4.35,1.7,8.26,4.34,12.3,7.22.25-.1.49-.21.73-.31,1.01-.44,2.19.03,2.63,1.05.24.54.21,1.14-.03,1.63,2.87,2.03,5.84,4.05,9,5.7,9.66,5.04,19.38,7.64,28.45,7.64,1.93,0,3.83-.12,5.7-.36,9.67-1.23,18.45-5.58,26.94-9.78,1.19-.59,2.4-1.19,3.61-1.77-.9,8.29-4.05,16.4-8.99,23.1-.37.5-.75.99-1.13,1.48-1.39,1.81-2.82,3.68-3.82,5.89-1.61,3.55-1.57,7.29.09,10.01,1.62,2.66,4.75,4.34,8.36,4.5.21.01.42.01.63.01,2.78,0,5.42-.81,7.87-1.7,11.12-4.05,19.32-8.61,24.38-13.56,8.2-8.02,15.4-17.15,20.1-23.32,1.3-1.7,2.07-3.75,2.23-5.92.09-1.14.19-2.29.29-3.44.11-1.28.23-2.59.32-3.88,1.8.27,3.61.54,5.43.82,7.6,1.16,15.45,2.36,23.54,2.53,15.04.32,33.78.71,47.65-7.72,6.35-3.86,11.91-8.63,17.06-13.77.15-.03.29-.08.42-.15,5.91-2.96,12.01-5.65,17.91-8.25,5.77-2.55,11.73-5.18,17.56-8.07,2.33.24,4.66.36,7.01.36,25.11,0,50.42-13.75,63.49-35.17.32-.53.38-1.19.15-1.77-.44-1.14-.52-2.82-.6-4.45-.06-1.16-.11-2.34-.29-3.47,8.77-2.11,17.2-5.83,24.9-10.92.98.71,2.05,1.21,3.18,1.5.76.19,1.53.29,2.3.29,4.06,0,8.31-2.61,11.94-7.42,4.72-6.25,8.35-14.47,9.96-23.21.71-1.2,1.4-2.43,2.06-3.67,6.97-4.19,12.25-11.34,14.18-19.24,1.95-8,.92-16.76-2.66-23.34,10.59-8.63,16.2-23.85,14.05-38.51ZM554.92,520.12c-18.59-19.77-26.86-47-21.97-71.76.21-.98.42-1.95.64-2.93.24-1.07-.43-2.14-1.5-2.38-1.07-.25-2.14.41-2.39,1.47-.25,1.03-.48,2.06-.68,3.09-5.12,23.95-7.78,50.37,5.08,72.33-10.16-7.91-17.96-17.67-22.04-27.79-11.94-29.64-.11-63.08,9.82-85.66,1.65-3.75,3.13-7.37,4.47-10.91,11.35,12.97,23.54,25.26,36.4,36.71,2.89,2.58,5.98,5.06,8.97,7.46,7.24,5.82,14.73,11.83,19.85,19.59,2.13,3.22,3.6,6.49,4.36,9.71.72,3.08.69,6.27.65,9.66-.02,1-.03,2,0,2.99h0c-.15.25-.29.5-.43.75-4.08,7.41-4.65,16.13-1.65,25.2,4.99,15.13,9.35,27.97,13.49,39.73-19.93-4.55-38.77-12.07-53.06-27.26ZM709.92,550.84c-.18.9-.36,1.8-.54,2.72-.03.13-.04.26-.04.39,0,.09,0,.18.02.27.03.2.09.4.18.58.02.05.05.1.08.15-.16.03-.32.06-.48.08-12.95,7.31-27.39,12-42.08,13.66-20.05,2.25-37.1-1.39-49.2-5.64-1.24-3.37-2.47-6.78-3.72-10.29-.52-1.45-1.04-2.91-1.56-4.4-4.38-12.35-8.98-25.86-14.29-41.96-2.64-8-2.17-15.61,1.35-22.02.12-.21.24-.42.36-.63.01-.01.01-.02.02-.03.14-.24.28-.47.43-.7,4.09-6.43,11.23-11.18,20.3-13.46,11.38-2.86,25.17.15,34.3,7.49.7.57,1.69.59,2.42.07,10.63-7.59,24.54-10.19,37.2-6.94,11.61,2.97,21.78,10.76,27.75,21.12-1.42,6.55-2.71,13.14-3.97,19.59-1.06,5.42-2.15,11.04-3.31,16.51-.81,3.88-1.66,7.55-2.48,11.11-.92,3.95-1.86,8.02-2.74,12.33ZM714.18,550.04c.75-3.62,1.55-7.06,2.38-10.63.82-3.57,1.67-7.26,2.5-11.19,1.16-5.5,2.25-11.12,3.32-16.56,1.05-5.4,2.13-10.9,3.28-16.38.32-1.54.65-3.07.99-4.61.57-2.6,1.17-5.2,1.79-7.77,2.76-11.44,7.13-19.55,12.99-24.12,1.93-1.5,3.88-2.99,5.82-4.48,4.25-3.25,8.64-6.61,12.83-10.12,30.21-25.36,56.6-53.94,78.74-85.24,7.81,17.32,18.73,30.86,32.96,45.8,23.31,24.46,31.44,49.47,24.68,76.19-3.2-17.44-12.86-33.6-26.91-44.49-.85-.65-2.05-.53-2.74.28-.7.8-.64,2.01.12,2.75,10.27,9.87,15.71,25.12,14.56,40.79-2.04,27.56-27.22,50.78-51.54,57.59,13.65-17.28,17.21-42.15,8.42-62.65-.4-.94-1.44-1.43-2.42-1.13-.97.3-1.57,1.29-1.38,2.29,3.38,17.79-2.61,36.98-15.63,50.1-18.73,18.86-52.8,26.39-81.02,17.92-.38-.12-.78-.12-1.16,0-7.39,2.27-14.92,4.17-22.58,5.66ZM681.28,924.98c-.1,1.17-.21,2.34-.29,3.49-.11,1.39-.6,2.71-1.43,3.8-7.46,9.78-13.54,16.83-19.72,22.88-4.65,4.55-12.37,8.81-22.95,12.66-2.24.81-4.63,1.55-6.95,1.45-2.25-.1-4.21-1.09-5.13-2.59-.97-1.59-.92-3.93.14-6.27.81-1.79,2.05-3.4,3.36-5.1.39-.51.78-1.03,1.17-1.54,5.84-7.92,9.37-17.65,9.96-27.47,2.44-1.12,4.91-2.17,7.39-3.06,11.89-4.25,23.2-3.81,34.78-2.32-.09,1.34-.22,2.72-.33,4.07ZM882.06,838.88c-.58.12-1.07.49-1.35,1-.28.52-.32,1.13-.11,1.68.44,1.14.53,2.82.6,4.45.08,1.58.16,3.21.55,4.71-13.76,21.84-41.07,35.01-66.74,32.08-.39-.04-.78.02-1.13.2-5.9,2.96-12,5.65-17.9,8.25-3.03,1.33-6.1,2.69-9.19,4.09,1.74-1.92,3.44-3.85,5.13-5.77,8.88-10.09,18.06-20.53,29.92-27.39,8.03-4.65,17.02-7.55,25.72-10.35,7.8-2.52,15.86-5.12,23.4-9,13.8-7.1,19.92-17.38,25.32-31.66.52-1.38,1.04-2.74,1.58-4.07,1.89,1.02,3.36,3.15,4.12,5.23.67,1.83,1.02,3.78,1.39,5.85.3,1.67.61,3.4,1.11,5.11.59,2.01,1.42,3.77,2.46,5.23-7.69,4.97-16.12,8.52-24.88,10.36ZM933.44,801.04c-.7,4.17-1.91,8.23-3.5,11.99-1.61,3.82-3.62,7.33-5.9,10.35-1.23,1.62-5.56,6.81-10.07,5.66-.18-.04-.35-.1-.51-.16-1.37-.49-2.42-1.51-3.2-2.62-1.12-1.56-1.72-3.32-1.94-4.09-.44-1.5-.72-3.06-1.01-4.7-.39-2.14-.78-4.35-1.57-6.51-1.02-2.81-3.18-6.03-6.32-7.57,2.51-5.63,5.5-10.68,10.12-14.95,2.56-2.38,5.35-4.65,8.04-6.85,3.71-3.03,7.47-6.11,10.77-9.54,5.59,8.64,6.76,19.12,5.09,28.99ZM946.47,756.91c3.69,5.73,4.9,14.3,3.07,21.81-1.6,6.55-5.84,12.51-11.48,16.2.37-8.97-1.58-18.03-6.79-25.72-.06-.08-.12-.16-.18-.23,4.11-5.05,7.08-10.97,7.6-18.6.23-3.38.15-6.78.06-10.06-.07-2.69-.14-5.47-.03-8.17.28-6.94,1.81-12.19,4.67-16.05,2.9-3.91,8.54-7.06,13.7-5.5.38.12.78.11,1.13,0,1.3,2.21,2.21,4.86,2.64,7.81,2.04,13.88-3.54,28.26-13.89,35.8-.86.62-1.08,1.8-.5,2.7Z"/>
    <path d="M684.69,917.3c-.47-.07-.95-.14-1.42-.19.18-.06.37-.07.56-.06.31.01.61.1.86.25Z"/>
  </g>
  <path d="M723.28,465.18c-.18,0-.37-.03-.55-.11-.77-.31-1.15-1.18-.84-1.95,1.05-2.65,2.47-5.13,4.21-7.37,1.53-1.96,3.3-3.73,5.26-5.26.65-.51,1.59-.39,2.1.26.51.65.39,1.6-.26,2.1-1.77,1.38-3.36,2.97-4.74,4.74-1.57,2.02-2.84,4.25-3.79,6.63-.23.59-.8.95-1.39.95Z"/>
  <path d="M600.78,457.68c-.67,0-1.28-.45-1.45-1.13-.42-1.62-1.04-3.19-1.86-4.64-1.19-2.13-2.75-4-4.65-5.58-.64-.53-.73-1.47-.2-2.11.53-.64,1.47-.73,2.11-.2,2.18,1.81,3.99,3.97,5.35,6.42.94,1.68,1.66,3.48,2.14,5.36.21.8-.28,1.62-1.08,1.83-.13.03-.25.05-.38.05Z"/>
  <path d="M657.36,901.37c-10.15-9.35-20.99-21.11-31.08-35.7-32.09-46.42-37.99-94.71-39-121,3.77,22.49,11.09,52.27,26,85,13.99,30.71,30.37,54.56,44.08,71.7Z"/>
  <path d="M846.28,835.68c-6.69,1.76-15.25,3.03-25,2-33.53-3.53-53.06-31.25-56.88-36.91,8.11,7.69,22.29,19.16,42.88,26.91,15.42,5.8,29.21,7.55,39,8Z"/>
  <path d="M388.07,277.53c-.5-.3-1.02-.57-1.55-.81-.67,1.18-1.33,2.35-2,3.52.48.19.95.43,1.4.68.72.4,1.4.85,2.04,1.36.67-1.17,1.33-2.34,2-3.51-.6-.45-1.24-.87-1.89-1.24Z"/>
  <path d="M386.88,190.64c-8.2-28.79-24.25-52.67-47.7-70.97-15.5-12.1-33.71-20.5-53.01-24.97,1.45-2.16,2.76-4.48,3.9-6.94,1.7-3.67,2.9-7.6,3.56-11.68,1.39-8.46.32-16.95-2.99-23.92-5.6-11.75-18.08-20.1-31.08-20.77-2.42-.13-4.83-.01-7.16.1-2.51.13-4.87.24-7.25.08-3.94-.27-7.02-1.36-10-2.41-4.46-1.58-9.07-3.21-16.11-2.03-13.15,2.21-25.23,10.88-31.54,22.62-5.68,10.58-6.27,23.81-1.71,35.89-2.56.06-5.11-.33-7.49-1.13-6.18-2.09-9.8-6.45-11.41-8.87-.56-.85-1.67-1.14-2.57-.68-.91.46-1.32,1.53-.97,2.48,4.72,12.67,15.75,22.77,28.69,26.57-20.08,9.4-38.65,24.77-52.81,43.8-15.71,21.11-25.32,45.9-27.07,69.79-1.75,23.82,3.93,48.16,15.99,68.76,1.45-.29,2.96-.4,4.47-.33-.04-.06-.07-.12-.11-.18-12.28-20.22-18.09-44.35-16.36-67.95,3.46-47.25,38.51-94.68,83.35-112.78,17.06-6.89,35.23-10.26,53.25-10.26,30.42,0,60.42,9.58,83.96,27.96,43.99,34.33,61.37,90.13,47.69,153.07,1.28.41,2.51.96,3.67,1.64.09-.23.17-.47.23-.72,6.55-30.13,6.06-59.93-1.42-86.17ZM198,101.41c-.15.06-.29.12-.44.18-.28-.31-.65-.53-1.09-.62-9.17-1.79-17.54-7.08-23.36-14.37,1.19.64,2.49,1.22,3.91,1.7,3.78,1.28,7.91,1.65,11.94,1.08.62-.08,1.16-.46,1.47-1.01.3-.55.33-1.21.08-1.78-5.18-11.63-4.99-24.69.52-34.95,5.73-10.68,16.72-18.56,28.67-20.56,6.02-1.01,9.77.31,14.12,1.85.55.19,1.11.39,1.67.58.3-.05.57.07.77.26,2.52.84,5.25,1.56,8.62,1.79,2.26.16,4.51.08,6.7-.02.33-.39.91-.57,1.45-.17.04.03.07.06.11.09,2.14-.1,4.17-.18,6.21-.08,11.57.6,22.69,8.04,27.67,18.5,2.98,6.24,3.92,13.89,2.67,21.56-.61,3.72-1.71,7.3-3.25,10.64-1.54,3.33-3.23,5.94-4.51,7.69-27.57-5.55-57.09-3.2-83.93,7.64Z"/>
  <g>
    <path d="M236.26,33.77c-.26-.08-.52-.17-.77-.26.3-.05.57.07.77.26Z"/>
    <path d="M253.14,35.46c-.18,0-.36.02-.55.03-.34.02-.67.03-1.01.05.33-.39.91-.57,1.45-.17.04.03.07.06.11.09Z"/>
  </g>
  <path d="M236.18,35.13c-12.49,9.3-19.14,25.86-15.66,41.15,1.08,4.99,3.05,9.83,5.82,14.05.62.92.36,2.17-.56,2.78-.94.62-2.23.33-2.81-.63-8.79-14.24-8.72-33.3.79-47.14,3.07-4.53,6.9-8.53,11.37-11.67.12-.09.24-.14.36-.16.3-.05.57.07.77.26.35.35.45.97-.08,1.36Z"/>
  <path d="M259.7,90.18c-.69.86-1.94,1.01-2.81.32-.89-.7-1.01-2.01-.28-2.87,6.03-7.13,9.29-16.75,8.33-26.12-.4-4.71-1.9-9.33-4.18-13.47-2.28-4.17-5.38-7.96-9.04-11-.54-.44-.48-1.09-.14-1.5.33-.39.91-.57,1.45-.17.04.03.07.06.11.09,17.22,13.54,20.19,37.46,6.56,54.72Z"/>
  <path d="M179.94,189.42c-17.58-16.47-20.08-45.54-5.51-64.55.46-.59,1.41.04.98.7-13.15,18.64-9.9,46.1,7.25,60.92,1.96,1.83-.73,4.76-2.72,2.93h0Z"/>
  <path d="M214.83,195.94c-21.34-20.26-23.64-56.04-4.99-78.58.1-.13.29-.15.41-.05.12.1.15.28.05.4-17.15,22.61-13.9,56.67,7.27,75.31,1.94,1.83-.76,4.76-2.75,2.91h0Z"/>
  <path d="M237.91,109.78c-9.67,24.96-8.95,53.26,1.61,77.79.24.53-.58.99-.88.44-13.39-23.75-14.08-54.4-2.11-78.84.42-.82,1.73-.3,1.39.61h0Z"/>
  <path d="M265.55,96.73c11.07,5.88,17.78,18.78,16.23,31.23-1,8.13-5.77,15.24-8.9,22.53-4.76,10.49-3.37,23.55,3.65,32.65.53.68.41,1.67-.28,2.2-.69.53-1.68.4-2.2-.3-6.31-8.45-8.36-19.65-5.74-29.77,1.56-5.91,4.86-11.28,7.44-16.64,7.85-14.44,3.24-31.96-11.14-40.13-1.14-.6-.24-2.38.94-1.76h0Z"/>
  <path d="M313.82,110.94c10.54,24.54,6.39,54.64-10.4,75.55-1.67,2.01-4.74-.41-3.12-2.5,16.7-19.46,21.52-48.49,12.06-72.44-.37-.91,1.04-1.57,1.46-.6h0Z"/>
  <path d="M327.53,188.32c7.33-10.62,10.58-24.25,8.65-37.38-.12-.73,1.02-.97,1.18-.22,2.89,13.26.63,27.74-6.46,39.74-1.45,2.31-4.86.15-3.37-2.15h0Z"/>
  <path d="M352.36,211.8c13.15-14.01,16.99-36.16,9.37-53.93-.36-.83.9-1.45,1.32-.6,8.78,18.37,5.63,41.67-7.72,57.2-1.79,1.99-4.78-.67-2.97-2.67h0Z"/>
  <path d="M362.89,250.36c8.58-3.09,14.68-12.4,14.21-21.63-.06-1.01,1.49-1.16,1.62-.15,1.31,10.36-4.71,21.08-14.31,25.48-2.53,1.06-4.07-2.69-1.51-3.7h0Z"/>
  <path d="M147.07,199.68c-1.09,4.68.2,9.7,3.06,13.06,1.79,2.27-1.73,4.75-3.27,2.3-2.95-4.91-3.34-10.91-1.34-15.86.37-.92,1.79-.47,1.55.5h0Z"/>
  <path d="M119.84,211.87c-.27,18.36,7.12,36.95,20.27,50.28.62.62-.31,1.63-.98,1.01-14.02-12.98-22.67-31.79-23.29-51.25-.01-2.69,3.96-2.75,4-.04h0Z"/>
  <ellipse cx="202.16" cy="282.91" rx="7.5" ry="9.5"/>
  <ellipse cx="310.16" cy="274.91" rx="7.5" ry="9.5"/>
  <path d="M258.59,330.49c-9.18,0-15.7-4.49-18.2-6.54-.85-.7-.98-1.96-.28-2.81.7-.85,1.96-.98,2.81-.28,2.32,1.9,8.67,6.25,17.58,5.55,8.32-.65,13.77-5.39,15.72-7.4.77-.79,2.04-.81,2.83-.04s.81,2.04.04,2.83c-2.27,2.33-8.6,7.84-18.28,8.6-.76.06-1.5.09-2.23.09Z"/>
  <path d="M223.94,330.36c-.71,0-1.39-.37-1.75-1.04l-5.2-9.44c-.43-.78-.29-1.75.34-2.38.63-.63,1.61-.76,2.38-.33l2.27,1.26c-.13-.52-.05-1.09.26-1.56.49-.76,1.43-1.1,2.29-.82l9.47,3.04-1.17-5.68c-.17-.82.19-1.66.9-2.1.71-.44,1.62-.4,2.28.11l6.83,5.27,2.73-5.6c.31-.63.92-1.05,1.62-1.12.7-.06,1.38.24,1.79.8l2.85,3.86,5.53-8.75c.59-.93,1.82-1.21,2.76-.62.93.59,1.21,1.83.62,2.76l-7.09,11.23c-.35.56-.96.91-1.62.93-.68.03-1.29-.28-1.68-.81l-2.62-3.56-2.35,4.84c-.26.54-.76.94-1.34,1.07-.59.13-1.2,0-1.68-.36l-4.5-3.47.78,3.75c.14.7-.09,1.42-.62,1.89-.53.48-1.27.64-1.95.42l-5.58-1.79,2.1,2.3c.66.72.7,1.82.09,2.59-.61.77-1.68.98-2.54.5l-6.25-3.49,1.83,3.33c.53.97.18,2.18-.79,2.72-.31.17-.64.25-.96.25Z"/>
  <path d="M287.41,323.92c-.64,0-1.25-.31-1.62-.83l-5.28-7.35-.24,2.03c-.11.88-.78,1.59-1.66,1.74-.88.15-1.75-.31-2.13-1.11l-2.29-4.79-1.68,4.22c-.29.72-.96,1.21-1.73,1.26-.8.04-1.5-.35-1.88-1.03l-4.51-8.19c-.53-.97-.18-2.18.79-2.72.97-.53,2.18-.18,2.72.79l2.47,4.49,1.81-4.53c.29-.74,1-1.23,1.79-1.26.84,0,1.53.42,1.87,1.14l1.29,2.7.04-.3c.1-.82.69-1.49,1.49-1.7.8-.21,1.64.1,2.12.77l5.89,8.21,2.73-9.25c.24-.81.96-1.38,1.8-1.43.84-.05,1.63.44,1.96,1.21l3.8,8.91s.06-.08.1-.12c.72-.87,1.4-1.69,1.89-2.56.54-.96,1.76-1.31,2.72-.77.96.54,1.31,1.75.78,2.72-.67,1.2-1.5,2.2-2.3,3.17-.72.87-1.4,1.69-1.89,2.56-.37.67-1.09,1.06-1.85,1.02-.76-.04-1.44-.51-1.74-1.21l-3-7.03-2.31,7.84c-.22.73-.83,1.28-1.58,1.41-.11.02-.22.03-.33.03Z"/>
  <path d="M265.57,365.21c-.74,0-1.43-.41-1.78-1.09l-1.68-3.28-.3,2.28c-.13.95-.9,1.67-1.86,1.73-.96.06-1.82-.56-2.06-1.49l-1.75-6.65c-.28-1.07.36-2.16,1.42-2.44.48-.13.96-.07,1.37.13l.06-.44c.12-.87.78-1.56,1.64-1.71.86-.15,1.72.28,2.12,1.06l1.49,2.92.1-1.03c.11-1.1,1.09-1.91,2.19-1.79,1.1.11,1.9,1.09,1.79,2.19l-.77,7.81c-.09.88-.75,1.6-1.62,1.77-.12.02-.25.04-.37.04Z"/>
  <path d="M243.98,385.81c-1,0-1.86-.75-1.98-1.77l-1.33-11.33c-.11-.91.42-1.77,1.27-2.1.86-.33,1.82-.03,2.35.71l4.15,5.88.43-4.92c.06-.74.53-1.38,1.21-1.67.68-.29,1.46-.18,2.04.29l2.4,1.94.03-8.66c0-.84.53-1.58,1.31-1.87.78-.29,1.67-.06,2.21.58l4.96,5.81,2.6-3.5c.41-.56,1.07-.86,1.78-.8.69.06,1.3.47,1.61,1.09l2.45,4.85c1.2-1.04,2.75-1.68,4.38-1.68h0c.88,0,1.66.58,1.91,1.42l2.93,9.62c.32,1.06-.27,2.17-1.33,2.5-1.06.32-2.17-.27-2.5-1.33l-2.38-7.79c-.63.39-1.13,1.02-1.27,1.72-.17.83-.85,1.46-1.7,1.58-.84.11-1.67-.32-2.05-1.08l-2.58-5.11-2.17,2.91c-.36.49-.93.78-1.54.8-.62.01-1.19-.24-1.59-.7l-3.09-3.62-.03,7.45c0,.77-.45,1.47-1.14,1.8-.69.33-1.52.23-2.12-.25l-2.72-2.2-.58,6.62c-.07.84-.66,1.54-1.47,1.76-.81.22-1.67-.09-2.16-.78l-2.76-3.91.41,3.52c.13,1.1-.66,2.09-1.75,2.22-.08,0-.16.01-.24.01Z"/>
  <path d="M378.4,304.06c-.42,0-.83-.13-1.19-.4-.89-.66-1.07-1.91-.41-2.8,1.11-1.48,1.73-3.35,1.76-5.26,0-.18-.08-.29-.13-.34-.08-.08-.19-.12-.28-.11l-6.11.1c-1.13.05-2.01-.86-2.03-1.97-.02-1.1.86-2.01,1.97-2.03l6.11-.1c1.2-.03,2.32.44,3.17,1.28.85.85,1.32,2.03,1.31,3.23-.04,2.74-.95,5.43-2.56,7.59-.39.53-1,.81-1.61.81Z"/>
  <path d="M139.23,312.52c-.46,0-.92-.16-1.29-.47-1.16-.98-3.1-2.62-3.29-5.11,0-.06,0-.12,0-.19l-3.26.02c-1.08-.03-2.01-.88-2.01-1.99,0-1.1.88-2,1.99-2.01l5.86-.03c1.32-.61,2.75-.42,3.77.5.61.55.82,1.43.53,2.2-.29.77-1.03,1.28-1.86,1.29h-1.01c.1.72,1.02,1.55,1.88,2.28.84.71.95,1.98.24,2.82-.4.47-.96.71-1.53.71Z"/>
  <g>
    <path d="M439.61,275.8c.24.22.49.44.74.66.21-.43.41-.85.62-1.28-.45.23-.9.43-1.36.62Z"/>
    <path d="M250.82,392.38c-.29.11-.59.23-.88.36.02-.11.05-.23.08-.34.27,0,.53-.01.8-.02Z"/>
    <path d="M263.76,478.81c-.56.83-1.13,1.65-1.71,2.47-.39.55-1,.84-1.63.84-.13,0-.26-.01-.39-.04l-.43,1.97c-.89.22-1.78.43-2.68.62-.14.03-.28.04-.42.04-.31,0-.62-.07-.9-.21-.06-.03-.11-.06-.17-.09l.74-3.45c-.16-.3-.31-.6-.46-.91.36.19.71.38,1.07.56.55-.12,1.09-.25,1.64-.38.56-.13,1.11-.27,1.67-.41,1.23-.32,2.45-.65,3.67-1.01Z"/>
  </g>
  <path d="M78.4,338.16c-.56,0-1.11-.23-1.51-.68-1.29-1.47-2.73-2.75-4.25-4.11-1.39-1.24-2.82-2.51-4.15-3.96-10.75-2.31-20.71-8.59-27.41-17.3-3.39-4.41-5.46-8.83-6.14-13.15-1.43-9.04,3.84-18.96,11.75-22.12,2.54-1.02,5.07-1.41,7.5-1.18l-8.95-14.22c-1.21-1.91-2.57-4.08-3.13-6.62-.68-3.12.13-6.22,2.14-8.08,2.4-2.22,6.41-2.52,9.75-.72,2.75,1.47,4.64,3.88,6.31,6.01,2.84,3.62,5.63,7.2,8.42,10.78,2.43,3.12,4.87,6.25,7.34,9.4,2.3-.74,5.04-.44,7.42.88,2.68,1.48,4.54,3.9,5.85,5.85,6.18,9.12,9.22,20.57,8.21,30.82l4.14,4.69c.73.83.65,2.09-.18,2.82s-2.09.65-2.82-.18l-4.73-5.36c-.38-.43-.56-1-.49-1.57,1.17-9.54-1.61-20.38-7.45-28.99-1.07-1.57-2.54-3.52-4.48-4.59-1.42-.79-3.53-1.16-5.03-.22-.86.55-2.01.35-2.64-.46-2.8-3.57-5.56-7.11-8.31-10.64-2.79-3.58-5.58-7.15-8.42-10.77-1.5-1.91-3.05-3.88-5.06-4.96-1.58-.84-3.85-1.07-5.14.13-.96.89-1.33,2.57-.95,4.29.41,1.86,1.52,3.63,2.6,5.35l11.78,18.71c.48.77.39,1.77-.23,2.43s-1.61.83-2.41.39c-2.92-1.57-6.14-1.67-9.59-.3-6.8,2.72-10.29,11.39-9.28,17.78.58,3.65,2.38,7.47,5.36,11.34,6.26,8.14,15.62,13.95,25.68,15.96.43.09.83.31,1.12.65,1.29,1.47,2.73,2.75,4.25,4.11,1.55,1.38,3.15,2.8,4.6,4.47.73.83.64,2.1-.19,2.82-.38.33-.85.49-1.31.49Z"/>
  <path d="M260.24,481.09l-.21.99-.43,1.97c-.89.22-1.78.43-2.68.62-.14.03-.28.04-.42.04-.31,0-.62-.07-.9-.21-.06-.03-.11-.06-.17-.09l.74-3.45c-.16-.3-.31-.6-.46-.91.36.19.71.38,1.07.56.55-.12,1.09-.25,1.64-.38-.02-.44.1-.89.37-1.27.17-.24.33-.47.5-.71.24.5.5,1,.76,1.49,0,.03.03.05.04.08.19.4.24.85.15,1.27Z"/>
  <path d="M263.76,478.81c-.56.83-1.13,1.65-1.71,2.47-.39.55-1,.84-1.63.84-.13,0-.26-.01-.39-.04-.27-.05-.53-.16-.77-.33-.52-.37-.8-.94-.84-1.52-.02-.44.1-.89.37-1.27.17-.24.33-.47.5-.71.24.5.5,1,.76,1.49,0,.03.03.05.04.08,1.23-.32,2.45-.65,3.67-1.01Z"/>
  <g>
    <path d="M237.45,666.47c-.29-.06-.56-.12-.86-.19.3,0,.6.06.86.19Z"/>
    <path d="M318.38,642.05c-1.33.16-2.66.31-3.99.43l-.04-2.18c-.02-1.03.75-1.9,1.76-2.02.06,0,.13,0,.2,0,1.08-.02,2.02.85,2.04,1.96l.03,1.82Z"/>
  </g>
  <path d="M388.07,277.53c-.5-.3-1.02-.57-1.55-.81-.67,1.18-1.33,2.35-2,3.52.48.19.95.43,1.4.68.72.4,1.4.85,2.04,1.36.67-1.17,1.33-2.34,2-3.51-.6-.45-1.24-.87-1.89-1.24Z"/>
  <path d="M470.88,133.62c-.18,0-.37-.03-.55-.08-1.06-.31-1.67-1.41-1.37-2.47,1.37-4.75,1.62-8.43.78-11.56-.99-3.7-3.84-6.59-6.95-7.04-1.62-.23-3.45.39-4.77,1.63-.58.55-1.52,1.67-1.5,3.18,0,.11.01.22.02.33.04,1.09-.79,2.01-1.88,2.07-1.09.07-2.02-.75-2.11-1.83,0-.12-.02-.24-.02-.36-.16-1.95-1.21-3.87-2.91-5.29-1.78-1.49-3.97-2.17-6-1.88-2.03.29-3.93,1.56-5.22,3.49-1.29,1.93-1.75,4.17-1.25,6.16.27,1.07-.38,2.16-1.45,2.43-1.07.27-2.16-.38-2.43-1.45-.78-3.08-.12-6.5,1.8-9.37,1.92-2.87,4.83-4.77,7.98-5.23,3.14-.45,6.47.56,9.13,2.77.97.81,1.79,1.73,2.46,2.73.2-.23.41-.45.64-.66,2.18-2.06,5.27-3.09,8.08-2.69,4.72.68,8.84,4.68,10.25,9.97,1.03,3.86.77,8.22-.8,13.7-.25.88-1.05,1.45-1.92,1.45Z"/>
  <path d="M452.82,97.68c-.92,0-1.76-.65-1.96-1.59-1.06-5,1.82-10.43,6.54-12.36,3.56-1.46,7.75-.77,10.79,1.49.69-1.22,1.67-2.31,2.88-3.2,2.34-1.69,5.16-2.31,7.75-1.69,2.58.62,4.81,2.46,6.12,5.04,1.31,2.58,1.47,5.46.45,7.91-.42,1.02-1.59,1.5-2.62,1.08-1.02-.42-1.5-1.6-1.08-2.62.56-1.35.44-3.06-.32-4.56s-2.07-2.61-3.49-2.96c-1.42-.34-3.09.04-4.46,1.04-1.37.99-2.25,2.46-2.37,3.92-.07.86-.68,1.57-1.51,1.78-.83.21-1.71-.14-2.17-.86-1.72-2.68-5.51-3.88-8.45-2.67-2.94,1.21-4.8,4.72-4.14,7.83.23,1.08-.46,2.14-1.54,2.37-.14.03-.28.04-.42.04Z"/>
  <path d="M497.29,119.75c-.87,0-1.67-.57-1.92-1.45-1.59-5.51,1.38-11.91,6.62-14.26,2.53-1.13,5.32-1.26,8.53-.38,1.88.51,3.02,1.44,3.96,2.53.86-1.06,1.94-2.05,3.64-2.55,2.33-.68,5.18-.52,7.65.44,4.22,1.64,7.33,5.6,7.92,10.09.15,1.1-.62,2.1-1.72,2.25-1.09.15-2.1-.62-2.25-1.72-.4-3.02-2.57-5.78-5.41-6.88-1.64-.64-3.58-.77-5.07-.33-.98.29-1.51.97-2.42,2.26-.23.32-.46.65-.71.97-.38.49-.96.79-1.58.79h0c-.62,0-1.2-.29-1.58-.78-.19-.25-.37-.48-.54-.71-1.13-1.51-1.65-2.13-2.94-2.49-2.28-.62-4.19-.57-5.84.17-3.43,1.54-5.45,5.89-4.41,9.51.31,1.06-.31,2.17-1.37,2.48-.18.05-.37.08-.55.08Z"/>
  <path d="M495.77,147.98h-.03c-1.1-.01-1.99-.92-1.98-2.02.06-4.74,3.39-9.21,7.91-10.63,3.73-1.17,7.97-.17,10.89,2.38,2.57-2.25,6.38-3.05,9.6-1.8,4.02,1.57,6.56,6.12,5.76,10.37-.2,1.08-1.24,1.8-2.33,1.6-1.09-.2-1.8-1.25-1.6-2.33.45-2.38-1.03-5.03-3.28-5.91-2.26-.88-5.13.08-6.41,2.13-.35.57-.97.92-1.63.94-.68,0-1.3-.29-1.69-.84-1.75-2.45-5.23-3.62-8.11-2.72-2.87.9-5.07,3.85-5.11,6.86-.01,1.1-.91,1.98-2,1.98Z"/>
</svg>