<svg xmlns="http://www.w3.org/2000/svg" width="957" height="762" fill="none" viewBox="0 0 957 762"><g id="couple-travelling"><path id="Vector" fill="#d0cfcf" d="M677.18 745.92c62.32 5.45 128.25 8.34 182.3-28.42 14.87-10.3 30.9-25.37 37.7-42.31 7.12-17.53-5.22-30.78-22.74-32.38-9.36-.73-18.25 2.07-27.2 5.68-3.32 1.35-6.81 2.83-9.64 5.05-4.11 3.13-7.3 7.25-8.35 12.22-.31 1.52-.14 3.7.84 4.75.27.18.44.19.8-.03 2.18-1.7 2.56-5.36 3.08-7.94 1.84-10.98-.47-24.44-10.25-30.68-8.76-5.87-20.75-5.8-30.15-1.22-16.98 7.79-24.94 27.59-23.78 45.58.57 11.16 4.24 22.14 9.97 31.75 18.83 31.36 58.15 45.5 93.53 41.88 2.83-.38 5.68-.71 8.5-1.18 2-.45 5-1 7-1.43 1.1-.26 5.76-1.6 6.9-1.9 2.67-.77 5.49-1.9 8.13-2.76 2.4-1.07 5.52-2.24 7.87-3.4l5.1-2.56a112 112 0 0 0 31.12-24.57c4.45-4.96 11.87 1.37 7.55 6.56a128 128 0 0 1-18.34 16.78 134 134 0 0 1-21.31 12.6c-2.56 1.22-5.92 2.5-8.55 3.62-2.88.9-5.91 2.12-8.8 2.95-1.21.3-6.41 1.74-7.47 2-2.16.46-5.41 1.06-7.58 1.5a126 126 0 0 1-27.75 1.52c-5.98-.38-12.6-1.18-18.4-2.57a106 106 0 0 1-17.77-5.42c-19.16-7.6-36.67-21.05-47.27-39.11-10.71-18.07-14.64-40.8-7.31-60.88 6.8-20.57 28.93-36.52 51-31.51 8.72 1.67 17.13 7.23 21.57 15.08 5.05 8.67 5.67 18.99 4.19 28.62-.15.66-.65 3.33-.78 3.9-1.18 5.12-4.84 11-10.92 10.63-6.83-.38-9.5-8.44-8.15-14.1 1.93-9.05 8.93-16.15 16.92-20.13 11.22-5.06 23.55-9.56 36.37-8.5 10.89 1.06 21.96 6.27 27.62 16.09 7.14 11.87 2.26 26.54-4.81 37.18-23.01 34.04-62.41 53.12-101.68 61.25-39.38 7.98-79.85 4.63-119.48 1.26-3.38-.37-3.34-5.53.44-5.43z"/><path id="Vector_2" fill="#3e3e3d" d="M343.28 736.7c-4.36 1.04-9.12-.6-13.42-4.57-4.51-4.18-7.92-10.4-9.6-17.5q-.32-1.38-.55-2.77c-1.01-6.15-.56-12.15 1.33-17.16 2.07-5.5 5.6-9.07 9.96-10.1q1.3-.3 2.63-.3c4.28 0 8.6 2.34 12.25 6.3 3.65 3.97 6.6 9.57 8.14 16.08q.29 1.2.49 2.4c2.35 13.44-2.44 25.56-11.23 27.63"/><path id="Vector_3" fill="#cdcccb" d="M461.25 713.27a198 198 0 0 1-54.55 24.53c-26.82 7.46-60.28 14.24-81.07.38-8.9-5.93-15-14.87-16.87-24.5a33 33 0 0 1-.53-4.1c-.61-9 2.44-17.84 8.07-25.04q.35.03.7-.1a31 31 0 0 1 7.97-1.48c-3.3 2.2-5.94 5.74-7.67 10.33-2.13 5.64-2.66 12.35-1.54 19.17q.25 1.54.6 3.09c1.87 7.87 5.69 14.79 10.78 19.5 4.22 3.92 8.9 5.97 13.52 5.97q1.79 0 3.54-.41c9.12-2.15 14.89-12.51 14.89-24.98a42 42 0 0 0-1.17-9.87C355 693.4 347.29 684 338.79 681.19a2 2 0 0 0-.43-.22 35 35 0 0 0-17.23-1.62 43 43 0 0 1 15.95-9.2l7.3-.57.46-.04a1563 1563 0 0 0 116.4 43.73"/><path id="Vector_4" fill="#fff" d="m901.95 542.4-10.92 8.04-4.42 3.26-82.1-2.96-26.34-6.47-2.68-.66-69.37-17.05-5.23-1.3a2 2 0 0 0-.96 3.89l72.93 17.93a65 65 0 0 1-10.73 11.04c-12.54 10.39-29.4 18.47-43.77 25.36a706 706 0 0 0-8.4 4.05c-21.03 10.38-45.34 20.3-74.31 30.32-25.67 8.89-53.01 16.3-83.16 22.55a860 860 0 0 1-16.04 3.17q-3.87.73-7.74 1.42l-40.52-22.02a2 2 0 0 0-1.03-.24 703 703 0 0 0-174.38 29.04 2 2 0 0 0-.25 3.74q12.1 5.43 24.33 10.64l-.32.03c-44.36 3.49-89.41 4.5-133.91 3.02-11.6-.38-23.26-.44-34.55-.5-26.85-.15-54.62-.3-82.1-4.9l-5.08-.84-5.1-.84c-22.37-3.74-44.9-8.42-60.37-24.74a41 41 0 0 1-5.22-6.84 42.5 42.5 0 0 1-5.41-30.2c3.75-18.53 19.38-32.35 34.17-43.42q3.84-2.88 7.76-5.67a148.3 148.3 0 0 0 97.56 37.8h.02c.7 0 1.35-.37 1.72-.97l21.92-36.32a2 2 0 0 0-1.84-3.03 100 100 0 0 1-36.18-4.51l-.03-.01a99.76 99.76 0 0 1-37.13-21.69q6.81-3.7 13.76-7.13c22.27-11.03 46.28-21.66 73.3-20 22.8 1.42 46.27.92 68.96.43 10.88-.23 22.14-.47 33.1-.5 82.25-.16 145.09-.73 203.76-1.84h.12l192.37-14.63q.53-.05.97-.34a453 453 0 0 0 57.5-46.33 452 452 0 0 0 48-53.54l28.96 2.12-28.6 118.17q-.14.59.05 1.12l-23.1 3.7a2 2 0 1 0 .63 3.95l24.5-3.92z"/><path id="Vector_5" fill="#8198a4" d="m162.6 552.88-19.41 32.16c-11-.2-21.86-1.62-32.45-4.27a69 69 0 0 0 20.07-32.1 104 104 0 0 0 31.79 4.2m-35.61-5.41a65 65 0 0 1-20.92 32.05 143.89 143.89 0 0 1-56-30.64 435 435 0 0 1 39-24.35A104 104 0 0 0 127 547.47"/><path id="Vector_6" fill="#fff" d="m695.52 740.19-49.8 17.75a1565 1565 0 0 1-187.95-50.05c-35.1-11.73-78.13-28.05-112.38-42.28-8.84-3.73-17.53-7.67-26.27-11.55a700 700 0 0 1 80.44-18.36 701 701 0 0 1 87.2-8.95l38.83 20.39q.52-.33 1.28-.35c1.85 0 2.63 1.64 2.36 3.04l21.25 11.55 116.79 63.46z"/><path id="Vector_7" fill="#000" d="M365.73 557.73c-8.54 0-15.5 6.95-15.5 15.5s6.96 15.5 15.5 15.5 15.5-6.96 15.5-15.5-6.95-15.5-15.5-15.5m0 27c-6.34 0-11.5-5.16-11.5-11.5s5.16-11.5 11.5-11.5 11.5 5.16 11.5 11.5-5.16 11.5-11.5 11.5"/><path id="Vector_8" fill="#8198a4" d="M377.23 573.23c0 6.34-5.16 11.5-11.5 11.5s-11.5-5.16-11.5-11.5 5.16-11.5 11.5-11.5 11.5 5.16 11.5 11.5"/><path id="Vector_9" fill="#000" d="M427.73 557.73c-8.54 0-15.5 6.95-15.5 15.5s6.96 15.5 15.5 15.5 15.5-6.96 15.5-15.5-6.95-15.5-15.5-15.5m0 27c-6.34 0-11.5-5.16-11.5-11.5s5.16-11.5 11.5-11.5 11.5 5.16 11.5 11.5-5.16 11.5-11.5 11.5"/><path id="Vector_10" fill="#8198a4" d="M439.23 573.23c0 6.34-5.16 11.5-11.5 11.5s-11.5-5.16-11.5-11.5 5.16-11.5 11.5-11.5 11.5 5.16 11.5 11.5"/><path id="Vector_11" fill="#000" d="M487.73 553.73c-8.54 0-15.5 6.95-15.5 15.5s6.96 15.5 15.5 15.5 15.5-6.96 15.5-15.5-6.95-15.5-15.5-15.5m0 27c-6.34 0-11.5-5.16-11.5-11.5s5.16-11.5 11.5-11.5 11.5 5.16 11.5 11.5-5.16 11.5-11.5 11.5"/><path id="Vector_12" fill="#8198a4" d="M499.23 569.23c0 6.34-5.16 11.5-11.5 11.5s-11.5-5.16-11.5-11.5 5.16-11.5 11.5-11.5 11.5 5.16 11.5 11.5"/><path id="Vector_13" fill="#000" d="M565.73 549.73c-8.54 0-15.5 6.95-15.5 15.5s6.96 15.5 15.5 15.5 15.5-6.96 15.5-15.5-6.95-15.5-15.5-15.5m0 27c-6.34 0-11.5-5.16-11.5-11.5s5.16-11.5 11.5-11.5 11.5 5.16 11.5 11.5-5.16 11.5-11.5 11.5"/><path id="Vector_14" fill="#8198a4" d="M577.23 565.23c0 6.34-5.16 11.5-11.5 11.5s-11.5-5.16-11.5-11.5 5.16-11.5 11.5-11.5 11.5 5.16 11.5 11.5"/><path id="Vector_15" fill="#fff" d="M360.92 735.53a46 46 0 0 0 6.32-24.8 46 46 0 0 0-6.32-21.55c7.15 2.53 12.94 6.8 20.09 9.33l19.34 6.85c5.48 1.94 11.79 4.82 12.82 10.54.63 3.54-1.15 7.19-3.84 9.59s-6.15 3.7-9.61 4.69c-7.96 2.24-16.26 2.89-24.5 3.53-6.16.48-8.13 1.36-14.3 1.84z"/><path id="Vector_16" fill="#efeeee" d="M503.39 614.6 75.62 661.23q.08.45.19.9c-22.38-3.74-44.91-8.42-60.38-24.74a41 41 0 0 1-5.22-6.84l500.15-16.4c-2.42.27-4.78.47-6.97.47"/><path id="Vector_17" fill="#d0cfcf" d="m762.2 557.42-.07.7c-12.54 10.39-29.4 18.47-43.77 25.36a706 706 0 0 0-8.4 4.05c-21.03 10.38-45.34 20.3-74.31 30.32-30.15 10.44-62.6 18.85-99.2 25.72q-3.87.73-7.74 1.42l-9.91-5.4-30.61-16.62a2 2 0 0 0-1.03-.24 703 703 0 0 0-174.38 29.04 2 2 0 0 0-.25 3.74q12.1 5.43 24.33 10.64l-.32.03c-44.36 3.49-89.41 4.5-133.91 3.02-11.6-.38-23.26-.44-34.55-.5-26.85-.15-54.62-.3-82.1-4.9l-5.08-.84-5.1-.84-.18-.9 427.77-46.61c2.19 0 4.55-.2 6.97-.47l22.34-.73 4.95-.16a695 695 0 0 0 224.56-55.83m128.83-6.98-4.42 3.26-82.1-2.96-26.34-6.47-2.68-.66-69.37-17.05 12.5-3.31 85.8 16.68z"/><path id="Vector_18" fill="#000" d="M908.2 541.42a2 2 0 0 0-1.33-1.6l-118.1-39.7q.06-.11.09-.25l29.16-120.46a2.01 2.01 0 0 0-1.8-2.47l-32.4-2.37a2 2 0 0 0-1.74.79 449 449 0 0 1-48.22 53.92 449 449 0 0 1-56.56 45.62l-191.78 14.59c-58.63 1.1-121.44 1.67-203.64 1.84-11 .02-22.27.26-33.17.49-22.62.49-46 .99-68.63-.41-28.02-1.73-52.57 9.13-75.33 20.4a431 431 0 0 0-16.47 8.6 436 436 0 0 0-42.4 26.54l-.17.12a402 402 0 0 0-9.14 6.65C21.17 565.24 4.9 579.7.87 599.55a46.4 46.4 0 0 0 11.66 40.58 60 60 0 0 0 6 5.54c16.48 13.28 38.54 17.4 58.7 20.75l3.02.49 5.07.84c27.8 4.66 55.73 4.8 82.74 4.95 11.26.06 22.9.12 34.44.5a1203 1203 0 0 0 123.17-2.21c-13.84 8.4-22.47 23.4-21.43 38.87q.15 2.34.6 4.64c2.1 10.64 8.8 20.5 18.57 27 9.5 6.35 21.29 8.69 33.84 8.69 16.7 0 34.74-4.15 50.52-8.54a202 202 0 0 0 58.32-26.8q4.26 1.42 8.53 2.78a1570 1570 0 0 0 170.87 44.34q.2.04.39.04.35 0 .68-.12l54.52-19.44a2 2 0 0 0 .28-3.64L671 722.3l-119.3-64.82-17.4-9.46 2.89-.53a855 855 0 0 0 15.83-3.12c30.43-6.3 58.02-13.78 83.93-22.75 29.13-10.08 53.6-20.06 74.79-30.51q3.99-1.95 8.35-4.04c13.3-6.37 28.68-13.74 41.08-23.11 6.27-4.73 11.78-9.98 15.88-15.86l14.27 3.5 12.44 3.06q.2.04.4.06l83 3h.1q.65-.02 1.16-.4l19-14c.6-.43.9-1.17.79-1.91m-819.12-16.9a104 104 0 0 0 37.9 22.95 65 65 0 0 1-20.91 32.05 143.89 143.89 0 0 1-56-30.64 435 435 0 0 1 39-24.35m41.73 24.15a104 104 0 0 0 31.79 4.2l-19.41 32.17c-11-.2-21.86-1.62-32.45-4.27a69 69 0 0 0 20.07-32.1M406.7 737.8c-26.82 7.46-60.28 14.24-81.07.38-8.9-5.93-15-14.87-16.87-24.5a33 33 0 0 1-.53-4.1c-.61-9 2.44-17.84 8.07-25.04q.35.03.7-.1a31 31 0 0 1 7.97-1.48c-3.3 2.2-5.94 5.74-7.67 10.33-2.13 5.64-2.66 12.35-1.54 19.17q.25 1.54.6 3.09c1.87 7.87 5.69 14.79 10.78 19.5 4.22 3.92 8.9 5.97 13.52 5.97q1.79 0 3.54-.41c9.12-2.15 14.89-12.51 14.89-24.98a42 42 0 0 0-1.17-9.87C355 693.4 347.29 684 338.79 681.19a2 2 0 0 0-.43-.22 35 35 0 0 0-17.23-1.62 43 43 0 0 1 15.95-9.2l7.3-.57.46-.04a1563 1563 0 0 0 116.4 43.73 198 198 0 0 1-54.54 24.53M331 684.6q1.3-.3 2.63-.3c4.28 0 8.6 2.34 12.25 6.3 3.65 3.97 6.6 9.57 8.14 16.08q.29 1.2.49 2.4c2.35 13.44-2.44 25.56-11.23 27.63-4.36 1.03-9.12-.6-13.42-4.58-4.51-4.18-7.92-10.4-9.6-17.5q-.32-1.38-.55-2.77c-1.01-6.15-.56-12.15 1.33-17.16 2.07-5.5 5.6-9.07 9.96-10.1m219.48-23.22 116.79 63.46 28.25 15.35-49.8 17.75a1565 1565 0 0 1-187.95-50.05c-35.1-11.73-78.13-28.05-112.38-42.28-8.84-3.73-17.53-7.67-26.27-11.55a700 700 0 0 1 80.44-18.36 701 701 0 0 1 87.2-8.95l38.83 20.39q.52-.33 1.28-.35c1.85 0 2.63 1.64 2.36 3.04zm340.55-110.94-4.42 3.26-82.1-2.96-26.34-6.47-2.68-.66-69.37-17.05-5.23-1.3a2 2 0 0 0-.96 3.89l72.93 17.93a65 65 0 0 1-10.73 11.04c-12.54 10.39-29.4 18.47-43.77 25.36a706 706 0 0 0-8.4 4.05c-21.03 10.38-45.34 20.3-74.31 30.32-25.67 8.89-53.01 16.3-83.16 22.55a860 860 0 0 1-16.04 3.17q-3.87.73-7.74 1.42l-40.52-22.02a2 2 0 0 0-1.03-.24 703 703 0 0 0-174.38 29.04 2 2 0 0 0-.25 3.74q12.1 5.43 24.33 10.64l-.32.03c-44.36 3.49-89.41 4.5-133.91 3.02-11.6-.38-23.26-.44-34.55-.5-26.85-.15-54.62-.3-82.1-4.9l-5.08-.84-5.1-.84c-22.37-3.74-44.9-8.42-60.37-24.74a41 41 0 0 1-5.22-6.84 42.5 42.5 0 0 1-5.41-30.2c3.75-18.53 19.38-32.35 34.17-43.42q3.84-2.88 7.76-5.67a148.3 148.3 0 0 0 97.56 37.8h.02c.7 0 1.35-.37 1.72-.97l21.92-36.32a2 2 0 0 0-1.84-3.03 100 100 0 0 1-36.18-4.51l-.03-.01a99.76 99.76 0 0 1-37.13-21.69q6.81-3.7 13.76-7.13c22.27-11.03 46.28-21.66 73.3-20 22.8 1.42 46.27.92 68.96.43 10.88-.23 22.14-.47 33.1-.5 82.25-.16 145.09-.73 203.76-1.84h.12l192.37-14.63q.53-.05.97-.34a453 453 0 0 0 57.5-46.33 452 452 0 0 0 48-53.54l28.96 2.12-28.6 118.17q-.14.59.05 1.12l-23.1 3.7a2 2 0 1 0 .63 3.95l24.5-3.92 114.9 38.62z"/><path id="Vector_19" fill="#cdcccc" d="M605.5 489.1a65.7 65.7 0 0 0 27.83 34.96c2.2 1.42.2 4.74-2.1 3.4a68.4 68.4 0 0 1-26.95-38c-.2-.75.95-1.14 1.2-.36z"/><path id="Vector_20" fill="#565b44" d="M278.57 446.83c-5.16 1.07-10.43 2.56-15.11 5.45-7.8 4.8-13.41 13.67-16.67 26.33a349 349 0 0 0-3.26 13.77h-23.14a2 2 0 0 0-1.94 1.53l-18.83 78a83.6 83.6 0 0 1-47.12-8.5c.54-14.94 2.55-29.78 4.49-44.14l.6-4.5c1.78-13.26 3.6-26.97 7.38-39.97 1.42-4.9 4.85-13.94 11.89-19.43 4.2-3.27 10.99-4.66 16.98-5.88q2.54-.51 4.84-1.04a219 219 0 0 1 55.92-5.92c7.78.18 16.52.87 23.97 4.3"/><path id="Vector_21" fill="#565b44" d="M373.3 489.07a105.7 105.7 0 0 1-63.6 5.93l.47-1.76a2 2 0 1 0-3.87-1.02l-1 3.8-22.7 86.02a62 62 0 0 1-26.91-.26 61 61 0 0 1-21.72-9.87c1.7-9.63 3.23-19.46 4.7-28.97 2.48-15.88 5.02-32.18 8.43-48.16a376 376 0 0 1 3.56-15.17c2.99-11.62 8-19.67 14.9-23.92 4.86-3 10.65-4.37 16.18-5.4a181 181 0 0 1 57.1-1.58c6.87 10.99 14 22.29 23.58 31.55a74 74 0 0 0 10.89 8.8"/><path id="Vector_22" fill="#2d1304" d="M269.2 607.48c-5.21 3.44-12.03 3.9-18.61 4.36l-1.33.09c-10.56.75-22.16.17-35.47-1.77-5.52-.8-8.58-2.37-9.63-4.93-.8-1.94-.24-4.6 1.4-6.78 1.69-2.22 4.2-3.86 6.63-5.45l23.34-15.26a65.08 65.08 0 0 0 39.4 9.44l.08 2.66c.25 7.26.46 13.53-5.8 17.64m-74.74-14.6c-1.75 4.89-7.78 6.1-13.61 7.27q-1.46.3-2.81.59a112 112 0 0 1-45.5.74c-5.16-1-8.12-2.8-8.8-5.34-.7-2.56.99-5.61 5-9.07 8.12-7.01 17.2-12.8 26.98-17.21q.28-.15.49-.32a87 87 0 0 0 35.8 6.88q.07.14.17.26c3.34 4.4 4.24 10.77 2.28 16.2"/><path id="Vector_23" fill="#392f2d" d="M361.8 39.9a33 33 0 0 1-2.61 8.57 37 37 0 0 1-3.5 6 120 120 0 0 0-68.2 6.27l-.12.06a2 2 0 0 0-.9-.44 32 32 0 0 1-17.64-10.21q.78.34 1.63.63a21.6 21.6 0 0 0 9.88.9 2 2 0 0 0 1.47-1.01c.3-.55.34-1.21.08-1.78-4.16-9.35-4.01-19.85.4-28.08a32.9 32.9 0 0 1 23.05-16.53c4.8-.8 7.8.26 11.29 1.49 2.53.9 5.4 1.9 9.1 2.16 2.14.15 4.26.04 6.3-.06 1.9-.1 3.68-.18 5.47-.08a26.7 26.7 0 0 1 22.17 14.82c2.38 5 3.14 11.15 2.13 17.3"/><path id="Vector_24" fill="#392f2d" d="M438.89 202.45a16 16 0 0 0-8.27-.36q-1.5.31-2.9.95l-.41-1.7a846 846 0 0 1-6.46-27.32c-2.87-13.33-6.92-23.11-12.73-30.76-12.6-16.58-32.9-15.11-47.08-12.56-4.62.83-9.14 1.87-13.52 2.87-13.11 3-25.48 5.84-38.92 3.05-2.47-.51-5.14-1.18-7.98-1.88-15.42-3.82-34.61-8.58-45.1 4.85-8.84 11.33-9.54 21.7-10.44 34.83l-2.66 39.05q-.65-.49-1.38-.9a15 15 0 0 0-6.34-1.77 93.6 93.6 0 0 1-13.22-55c2.8-38.27 31.2-76.7 67.52-91.35a115 115 0 0 1 43.15-8.31c24.64 0 48.95 7.76 68.02 22.64 35.56 27.76 49.66 72.85 38.72 123.67"/><path id="Vector_25" fill="#000" d="M357.5 294.83a2 2 0 0 1-.36-.45v.08q0 .3.03.59l.72.14zm-.36-.45q-.04-.47-.3-.85.05.45.3.85"/><path id="Vector_26" fill="#0ff" d="M326.2 378.44v.03l.24.09z"/><path id="Vector_27" fill="#f2b185" d="M443.03 227.36c-3.65 4.4-10.34 6.1-17.05 4.33a2 2 0 0 0-2.43 1.37c-8.03 27.12-40.12 49.57-66.24 56.9-29.1 8.19-59.42 3.84-81.14-11.62a75.4 75.4 0 0 1-28.72-40.7 2 2 0 0 0-1.92-1.45q-.51 0-.98.25c-4.02 2.25-9.1 2.46-12.92.54a14 14 0 0 1-7.38-10.42c-.6-4.7 1.76-9.43 5.5-11.02a11.32 11.32 0 0 1 9.34.52 5.5 5.5 0 0 1 2.94 3.84 2 2 0 0 0 3.97-.16l.06-.91.3-4.35 2.7-39.8c.89-12.92 1.53-22.26 9.62-32.63 8.88-11.38 26.68-6.97 40.98-3.42 2.87.7 5.58 1.38 8.13 1.9 14.29 2.98 27.08.04 40.62-3.06 4.33-1 8.8-2.02 13.33-2.83 20.9-3.76 34.62-.25 43.2 11.04 5.44 7.17 9.26 16.44 12 29.18a786 786 0 0 0 7.09 29.85q.22.95.47 1.88a2 2 0 0 0 1.27 1.39 2 2 0 0 0 1.86-.27 10 10 0 0 1 3.03-1.51c3.18-.96 6.89-.46 9.85 1.3q1.85 1.09 3.18 2.79c3.63 4.73 3.35 12.23-.66 17.07"/><path id="Vector_28" fill="#000" d="M318.78 7.35a33.8 33.8 0 0 0-12.8 20.93 33 33 0 0 0 5.03 23.6c1.43 2.27-1.92 4.42-3.38 2.14-7.17-11.71-7.06-27.32.77-38.64a37 37 0 0 1 9.33-9.5.9.9 0 0 1 1.25.22.9.9 0 0 1-.2 1.24m13.72-.1c14.23 11 16.75 30.77 5.59 44.94a2 2 0 0 1-2.81.33 2 2 0 0 1-.28-2.88c4.86-5.71 7.52-13.43 6.77-20.96-.64-7.65-4.75-14.85-10.6-19.77-1.05-.86.2-2.5 1.32-1.66M272.7 132.9c-14.32-13.54-16.3-37.33-4.3-52.81.46-.6 1.4.04.98.7-10.56 15.12-7.85 37.29 6.06 49.18 1.98 1.83-.73 4.78-2.72 2.93zm28.37 5.29c-17.37-16.63-19.15-45.86-3.84-64.18.23-.27.69.04.46.36-13.8 18.37-11.07 45.93 6.12 60.92 1.96 1.84-.76 4.77-2.75 2.9m19.14-70.25a86.2 86.2 0 0 0 1.26 63.14c.23.53-.57.97-.87.43-11.14-19.23-11.7-44.36-1.77-64.18.42-.81 1.7-.3 1.38.6m22.4-10.8a25.9 25.9 0 0 1 13.3 25.54c-1 8.33-6.68 14.9-8.74 22.79a26.2 26.2 0 0 0 4.49 21.9 1.5 1.5 0 1 1-2.4 1.82 29 29 0 0 1-2.96-29.17c2.6-5.9 6.4-11.26 7.3-17.65 1.29-9.27-3.68-19.06-11.9-23.54-1.08-.58-.22-2.28.9-1.7zm39.32 11.63c8.67 20 5.36 44.57-8.3 61.7-1.66 2.03-4.74-.38-3.13-2.48 13.57-15.7 17.56-39.2 9.97-58.61-.36-.92 1.04-1.55 1.46-.6zm10.69 62.76a42.9 42.9 0 0 0 7.24-30.16c-.11-.73 1-.96 1.18-.22a45.5 45.5 0 0 1-5.05 32.54c-1.45 2.33-4.88.15-3.37-2.16m20.22 19.03c10.67-11.24 13.86-29.15 7.78-43.53-.36-.83.9-1.44 1.32-.6 7.25 14.99 4.75 34.04-6.12 46.8-1.8 2.02-4.8-.66-2.97-2.67zm8.7 31.25c6.89-2.4 11.85-9.82 11.54-17.22-.05-1.01 1.48-1.15 1.62-.15 1.15 8.53-3.74 17.38-11.65 21.08-2.55 1.09-4.1-2.71-1.5-3.71zm-175.15-40.8c-.8 3.78.33 7.76 2.65 10.36 1.88 2.29-1.74 4.85-3.27 2.3a14.9 14.9 0 0 1-.93-13.16c.38-.91 1.78-.45 1.55.5m-21.9 9.86a57.6 57.6 0 0 0 16.19 40.78c.62.62-.31 1.62-.98 1a60.2 60.2 0 0 1-19.22-41.74c-.03-2.71 3.97-2.76 4-.04"/><path id="Vector_29" fill="#000" d="M290.84 209.72c3.37 0 6.1-3.46 6.1-7.72s-2.74-7.72-6.1-7.72c-3.37 0-6.1 3.45-6.1 7.72s2.73 7.72 6.1 7.72"/><path id="Vector_30" fill="#000" d="M381.44 213.59c3.36 0 6.1-3.46 6.1-7.72s-2.74-7.72-6.1-7.72c-3.37 0-6.1 3.45-6.1 7.72s2.73 7.72 6.1 7.72"/><path id="Vector_31" fill="#000" d="M434.72 226.49q-.64 0-1.2-.4a2 2 0 0 1-.4-2.8 7 7 0 0 0 1.36-4.06l-4.92.09h-.03a2 2 0 0 1-.03-4l4.96-.08c1.1-.03 2.09.39 2.85 1.15a4 4 0 0 1 1.17 2.9c-.04 2.3-.8 4.57-2.15 6.38a2 2 0 0 1-1.61.8zm-196.04 4.07q-.57 0-1.05-.38c-.94-.8-2.52-2.13-2.68-4.16v-.15l-2.65.02c-.9 0-1.62-.72-1.63-1.62s.72-1.63 1.62-1.64l4.76-.03a2.8 2.8 0 0 1 3.07.4 1.63 1.63 0 0 1-1.08 2.85h-.82c.08.58.83 1.26 1.53 1.85.69.58.77 1.6.19 2.29-.32.38-.78.58-1.24.58z"/><path id="Vector_32" fill="#69352c" d="M333.9 247.68a24 24 0 0 1-15.03-5.4 2 2 0 0 1 2.53-3.1 20 20 0 0 0 14.02 4.44 20 20 0 0 0 12.54-5.9 2 2 0 0 1 2.87 2.79 24 24 0 0 1-16.94 7.17"/><path id="Vector_33" fill="#000" d="M305.73 245.58c-.71 0-1.4-.37-1.75-1.04l-4.23-7.68a2 2 0 0 1 2.72-2.71l1.25.7q.06-.43.3-.82a2 2 0 0 1 2.29-.82l7.08 2.28-.82-4a2 2 0 0 1 3.18-1.98l5.19 4 2-4.14c.32-.63.93-1.05 1.63-1.12a2 2 0 0 1 1.79.8l1.99 2.7 4.2-6.64a2 2 0 0 1 3.38 2.14l-5.76 9.13c-.35.56-.96.9-1.62.93a2 2 0 0 1-1.68-.81l-1.77-2.4-1.64 3.38c-.26.54-.76.94-1.34 1.07-.6.13-1.2 0-1.68-.36l-2.86-2.21.43 2.06a2 2 0 0 1-2.57 2.3l-3.2-1.02.77.83a2 2 0 0 1-2.45 3.09l-3.94-2.2.86 1.56a2 2 0 0 1-1.75 2.97m51.6-5.24a2 2 0 0 1-1.62-.83l-3.73-5.2-.08.7a2 2 0 0 1-3.79.63l-1.5-3.13-1.04 2.64a2 2 0 0 1-3.61.22l-3.67-6.66a2 2 0 0 1 3.5-1.93l1.64 2.95 1.18-2.95a2 2 0 0 1 3.66-.12l.62 1.3a2 2 0 0 1 3.35-.16l4.34 6.05 2-6.8a2 2 0 0 1 3.76-.21l2.85 6.67q.7-.83 1.18-1.65a2 2 0 0 1 3.49 1.95c-.56 1-1.25 1.83-1.91 2.63-.57.69-1.12 1.35-1.5 2.03a2.01 2.01 0 0 1-3.59-.19l-2.03-4.75-1.6 5.37a2 2 0 0 1-1.9 1.44m-18.76 31.57a2 2 0 0 1-1.78-1.1l-.82-1.6-.1.68a2 2 0 0 1-1.85 1.73 2 2 0 0 1-2.06-1.5l-1.42-5.4a2 2 0 0 1 2.32-2.46 2 2 0 0 1 3.75-.56l.66 1.29a2 2 0 0 1 3.9.77l-.61 6.35a2 2 0 0 1-2 1.8"/><path id="Vector_34" fill="#000" d="M321.02 288.65a2 2 0 0 1-1.98-1.77l-1.08-9.21a2 2 0 0 1 3.62-1.38l2.78 3.94.26-2.98a2 2 0 0 1 3.25-1.38l1.34 1.09.02-6.26a2 2 0 0 1 3.52-1.3l3.73 4.37 1.84-2.47a2 2 0 0 1 3.39.29l1.78 3.53a5.8 5.8 0 0 1 3.43-1.16 2 2 0 0 1 1.9 1.42l2.39 7.82a2 2 0 0 1-3.83 1.17l-1.77-5.81q-.36.37-.47.84a2 2 0 0 1-3.75.49l-1.82-3.61-1.4 1.88c-.36.49-.93.78-1.54.8a2 2 0 0 1-1.6-.7l-1.85-2.16-.02 5.04a2 2 0 0 1-3.26 1.55l-1.66-1.35-.41 4.68a2 2 0 0 1-3.63.98l-1.4-1.98.17 1.39a2 2 0 0 1-1.75 2.22h-.24z"/><path id="Vector_35" fill="#0ff" d="m312.15 292.75-.86-.15q.45-.03.86.15m15.32 81.92q2.41-.34 4.8-.84a118 118 0 0 1-3.53 4.22 2 2 0 0 1-1.24.66l-.26.02-.27-.02q-.04 0-.1-.02a2 2 0 0 1-.42-.13c-.43-.18-.8-.53-1.01-.97q-1.13-2.35-2.17-4.74 2.07.98 4.2 1.82m29.67-80.3a2 2 0 0 1-.3-.84q.25.38.3.85m-45.6 14.07q-.04.75-.06 1.54a2 2 0 0 1 .07-1.54"/><path id="Vector_36" fill="#0ff" d="m326.44 378.56-.23-.1v-.02z"/><path id="Vector_37" fill="#333" d="m338.75 337.84-3.95 5.89h-5.57l-4.38-5.85 7.5-7.92zm-.58 20.4a111 111 0 0 1-10.44 14.83q-3.2-7.07-5.6-14.42l7.19-10.92h4.13z"/><path id="Vector_38" fill="#fff" d="M352.37 317.12a111 111 0 0 1-11.77 36.76l-3.12-6.96 5.4-8.08a2 2 0 0 0-.1-2.37l-7.32-9.03zm-31.74 21.8 5.16 6.88-5.17 7.87a138.32 138.32 0 0 1-5.25-39.8l14.26 13.15-8.85 9.33c-.67.7-.73 1.8-.15 2.58"/><path id="Vector_39" fill="#f2b185" d="m352.93 312.1-20.21 12.33-17.18-15.85q.29-5.61 1.04-11.21 5.75.65 11.66.65c8.23 0 16.62-.94 24.95-2.88.35 5.64.26 11.32-.26 16.96"/><path id="Vector_40" fill="#565b44" d="M323.26 372.85a68.3 68.3 0 0 1-30.62-28.88l9.13-10.96a2 2 0 0 0-.32-2.87l-11.76-9.05a76 76 0 0 1 15.09-22.18 87 87 0 0 0 6.72-2.23l1.12.17q-.77 5.79-1.07 11.59-.05.75-.07 1.54a142 142 0 0 0 6.52 48.84l.07.23q2.23 7.04 5.19 13.8m42.5-36.77 9.87 10.76a75 75 0 0 1-22.37 19.14 74 74 0 0 1-21 7.85 114 114 0 0 0 9.83-14.41 114 114 0 0 0 14.69-45.64v-.05l.05-.5c.59-6.04.7-12.13.34-18.18l-.03-.6v-.07q.14.25.37.45l.39.36a82 82 0 0 1 20.87 28.84l-12.7 9.07a2 2 0 0 0-.31 2.98"/><path id="Vector_41" fill="#565b44" d="M327.18 443.54a187 187 0 0 0-42.53 2.18 2 2 0 0 0-.45-.4c-6.88-4.3-15-5.88-22.74-6.47l3.93-9.07a60 60 0 0 0 4.6-17.78l6.63-66.07a2 2 0 1 0-3.98-.4l-6.62 66.07a56 56 0 0 1-4.31 16.6l-4.5 10.4-2.52-.07q-14.87-.35-29.66 1.29c3.8-10.95 7.76-22.05 11.58-32.8 8.47-23.81 17.24-48.44 25-72.95l.7-2.2c2.19-7 4.25-13.63 9.39-18.82 7.19-7.26 16.3-9.71 25.96-12.23a79.97 79.97 0 0 0-12.27 20.13 2 2 0 0 0 .62 2.36l11.36 8.74-8.67 10.4a2 2 0 0 0-.24 2.2 72.5 72.5 0 0 0 37.75 33.82 1223.14 1223.14 0 0 0 .97 65.07m148.07-107.9-77.17 10.06c-.95.13-1.68.9-1.74 1.87a1268 1268 0 0 0-2.11 59.13c-.34 28.77.33 57.92 1.98 86.68a44 44 0 0 1-17.46-5.67l-.26-.15-.05-.03a68 68 0 0 1-13.24-10.14c-9.44-9.14-16.57-20.55-23.45-31.6-.32-.5-.83-.82-1.42-.91q-4.53-.64-9.15-1.05a1253.6 1253.6 0 0 1-.95-65.54 78 78 0 0 0 24.99-8.82 79 79 0 0 0 24.62-21.54 2 2 0 0 0-.12-2.55l-9.48-10.34 12.17-8.68a2 2 0 0 0 .68-2.4 86 86 0 0 0-18.07-27.5 378 378 0 0 0 63.53 5.4q12.12 0 24.18-.77l21.25 30.95c.97 1.4 1.44 2.75 1.28 3.6z"/><path id="Vector_42" fill="#000" d="M478.64 337.2a2 2 0 0 0-.45-1c.4-2.13-.71-4.34-1.75-5.85l-21.66-31.55a1.96 1.96 0 0 0-2.1-1.71 373 373 0 0 1-89.02-4.91c25.96-8.87 54.44-30.01 63.16-56.2 7.59 1.4 15-.9 19.3-6.08 5.22-6.31 5.54-15.8.74-22.04a15 15 0 0 0-4.26-3.77l.1-.34c11.45-52.61-3.16-99.31-40.07-128.12a111 111 0 0 0-42.71-20.24 37.4 37.4 0 0 0 5.83-14.83c1.14-6.95.26-13.94-2.47-19.67a30.8 30.8 0 0 0-25.58-17.1c-1.98-.1-3.95 0-5.86.09-2.02.1-3.93.19-5.84.06-3.15-.21-5.52-1.05-8.03-1.94C314.3.7 310.5-.64 304.67.34a37 37 0 0 0-25.9 18.58c-4.58 8.54-5.13 19.19-1.6 28.97-1.85-.01-3.7-.31-5.42-.9a18 18 0 0 1-9.08-7.06 2 2 0 0 0-3.54 1.8 36.5 36.5 0 0 0 22.65 21.54c-16.05 7.7-30.87 20.06-42.21 35.3-12.81 17.23-20.65 37.44-22.08 56.94a97.83 97.83 0 0 0 12.79 55.66q-1.1.26-2.1.69c-5.41 2.3-8.73 8.7-7.9 15.2a17.8 17.8 0 0 0 9.55 13.49c4.29 2.15 9.74 2.28 14.45.43a79.5 79.5 0 0 0 29.57 40.62 88 88 0 0 0 29.8 13.47q-3.28.93-6.53 1.76c-9.93 2.58-20.2 5.24-28.26 13.4-5.83 5.89-8.14 13.3-10.37 20.46l-.68 2.17c-7.76 24.44-16.51 49.04-24.97 72.83-3.92 11-7.97 22.4-11.88 33.64q-.17.5-.08.99a223 223 0 0 0-23.12 4.23q-2.2.52-4.73 1.02c-6.41 1.3-13.7 2.8-18.63 6.64-5.88 4.59-10.6 12.2-13.28 21.48-3.84 13.28-5.7 27.15-7.5 40.55l-.6 4.49c-2.01 14.87-4.1 30.24-4.56 45.83-.02.77.39 1.48 1.07 1.83q.99.52 1.99 1a115 115 0 0 0-25.4 16.66c-5.27 4.55-7.37 8.96-6.25 13.13 1.12 4.14 5.12 6.9 11.9 8.23a115.5 115.5 0 0 0 47.14-.77q1.32-.3 2.73-.56c6.27-1.27 14.07-2.84 16.59-9.83a21.9 21.9 0 0 0-1.6-18.06q2.44-.16 4.86-.48a2 2 0 0 0 1.69-1.51l18.79-77.82h20.7c-3.16 15.29-5.58 30.8-7.94 45.94-1.55 9.9-3.14 20.13-4.92 30.1-.13.76.17 1.5.77 1.97l1.3.96-21.88 14.3c-2.6 1.69-5.52 3.6-7.62 6.39-2.52 3.34-3.26 7.44-1.92 10.7 2.15 5.26 8.3 6.73 12.75 7.38a185 185 0 0 0 26.88 2.12q4.86 0 9.45-.32l1.32-.1c6.77-.46 14.45-1 20.55-5 8.14-5.34 7.86-13.36 7.6-21.12a97 97 0 0 1-.08-2.96 63 63 0 0 0 5.76-1.06 2 2 0 0 0 1.48-1.44l22.52-85.38a109 109 0 0 0 35.77 1.85 109 109 0 0 0 33.06-9.11 47 47 0 0 0 20.74 5.93c.57.02 1.1-.2 1.5-.6a2 2 0 0 0 .57-1.52 1245.2 1245.2 0 0 1-.09-145.95l76.68-10.01a2 2 0 0 0 1.72-2.24m-112.88-1.12 9.87 10.76a75 75 0 0 1-22.37 19.14 74 74 0 0 1-21 7.85 114 114 0 0 0 9.83-14.41 114 114 0 0 0 14.69-45.64v-.05l.05-.5c.59-6.04.7-12.13.34-18.18l-.03-.6v-.07a2 2 0 0 1-.3-.85q.25.38.3.85.14.25.37.45l.39.36a82 82 0 0 1 20.87 28.84l-12.7 9.07a2 2 0 0 0-.31 2.98m-22.87 2.76a2 2 0 0 0-.1-2.37l-7.33-9.03 16.9-10.32a111 111 0 0 1-11.76 36.76l-3.12-6.96zm-8.1 4.89h-5.56l-4.38-5.85 7.5-7.92 6.4 7.88zm-2.07-19.3-17.18-15.85q.29-5.61 1.04-11.21 5.75.65 11.66.65c8.23 0 16.62-.94 24.95-2.88.35 5.64.26 11.32-.26 16.96zm-3.1 2.59-8.84 9.33c-.67.7-.73 1.8-.15 2.58l5.16 6.87-5.17 7.87a138.32 138.32 0 0 1-5.25-39.8zm-.3 20.7h4.13l4.72 10.52a111 111 0 0 1-10.44 14.83q-3.2-7.07-5.6-14.42zm-60.5-297.57q.8.34 1.64.63a21.6 21.6 0 0 0 9.88.9 2 2 0 0 0 1.47-1.01c.3-.55.34-1.21.08-1.78-4.16-9.35-4.01-19.85.4-28.08a32.9 32.9 0 0 1 23.05-16.53c4.8-.8 7.8.26 11.29 1.49 2.53.9 5.4 1.9 9.1 2.16 2.14.15 4.26.04 6.3-.06 1.9-.1 3.68-.18 5.47-.08a26.7 26.7 0 0 1 22.17 14.82c2.38 5 3.14 11.15 2.13 17.3a33 33 0 0 1-2.61 8.56 37 37 0 0 1-3.5 6 120 120 0 0 0-68.2 6.27l-.12.06a2 2 0 0 0-.9-.44 32 32 0 0 1-17.64-10.21M221.49 155.8c2.8-38.27 31.2-76.7 67.52-91.35a115 115 0 0 1 43.15-8.31c24.64 0 48.95 7.76 68.02 22.64 35.56 27.76 49.66 72.85 38.72 123.67a16 16 0 0 0-8.27-.36q-1.5.31-2.9.95l-.41-1.7a846 846 0 0 1-6.46-27.32c-2.87-13.33-6.92-23.11-12.73-30.76-12.6-16.58-32.9-15.11-47.08-12.56-4.62.83-9.14 1.87-13.52 2.87-13.11 3-25.48 5.84-38.92 3.05-2.47-.51-5.14-1.18-7.98-1.88-15.42-3.82-34.61-8.58-45.1 4.85-8.84 11.33-9.54 21.7-10.44 34.83l-2.66 39.05q-.65-.49-1.38-.9a15 15 0 0 0-6.34-1.77 93.6 93.6 0 0 1-13.22-55m54.69 122.54a75.4 75.4 0 0 1-28.72-40.7 2 2 0 0 0-1.92-1.45q-.51 0-.98.25c-4.02 2.25-9.1 2.46-12.92.54a14 14 0 0 1-7.38-10.42c-.6-4.7 1.76-9.43 5.5-11.02a11.32 11.32 0 0 1 9.34.52 5.5 5.5 0 0 1 2.94 3.84 2 2 0 0 0 3.97-.16l.06-.91.3-4.35 2.7-39.8c.89-12.92 1.53-22.26 9.62-32.63 8.88-11.38 26.68-6.97 40.98-3.42 2.87.7 5.58 1.38 8.13 1.9 14.29 2.98 27.08.04 40.62-3.06 4.33-1 8.8-2.02 13.33-2.83 20.9-3.76 34.62-.25 43.2 11.04 5.44 7.17 9.26 16.44 12 29.18a786 786 0 0 0 7.09 29.85q.22.95.47 1.88a2 2 0 0 0 1.27 1.39 2 2 0 0 0 1.86-.27 10 10 0 0 1 3.03-1.51c3.18-.96 6.89-.46 9.85 1.3q1.85 1.09 3.18 2.79c3.63 4.73 3.35 12.23-.66 17.07-3.65 4.4-10.34 6.1-17.05 4.33a2 2 0 0 0-2.43 1.37c-8.03 27.12-40.12 49.57-66.24 56.9a106 106 0 0 1-43.55 3.03q-.81-.1-1.61-.24l-.86-.15c-12.92-2.23-24.96-7.03-35.12-14.26m28.6 20.57a87 87 0 0 0 6.73-2.23l1.12.17q-.77 5.79-1.07 11.59-.05.75-.07 1.54a142 142 0 0 0 6.52 48.84l.07.23q2.23 7.04 5.19 13.8a68.3 68.3 0 0 1-30.62-28.88l9.13-10.96a2 2 0 0 0-.32-2.87l-11.76-9.05a76 76 0 0 1 15.09-22.18m-68.16 108.12c8.47-23.82 17.24-48.45 25-72.96l.7-2.2c2.19-7 4.25-13.63 9.39-18.82 7.19-7.26 16.3-9.71 25.96-12.23a79.97 79.97 0 0 0-12.27 20.13 2 2 0 0 0 .62 2.36l11.36 8.74-8.67 10.4a2 2 0 0 0-.24 2.2 72.5 72.5 0 0 0 37.75 33.82v-.03l.23.12-.23-.1a1223.14 1223.14 0 0 0 .97 65.07 187 187 0 0 0-42.53 2.19 2 2 0 0 0-.45-.4c-6.88-4.3-15-5.88-22.74-6.47l3.93-9.07a60 60 0 0 0 4.6-17.78l6.63-66.07a2 2 0 1 0-3.98-.4l-6.62 66.07a56 56 0 0 1-4.31 16.6l-4.5 10.4-2.52-.07q-14.87-.35-29.66 1.29c3.8-10.95 7.76-22.05 11.58-32.8m-42.15 185.86c-1.75 4.88-7.78 6.09-13.61 7.26q-1.46.3-2.81.59a112 112 0 0 1-45.5.74c-5.16-1-8.12-2.8-8.8-5.34-.7-2.56.99-5.61 5-9.07 8.12-7.01 17.2-12.8 26.98-17.21q.28-.15.49-.32a87 87 0 0 0 35.8 6.88q.07.14.17.26c3.34 4.4 4.24 10.77 2.28 16.2m25.93-100.51a2 2 0 0 0-1.94 1.53l-18.83 78a83.6 83.6 0 0 1-47.12-8.5c.54-14.94 2.55-29.78 4.49-44.14l.6-4.5c1.78-13.26 3.6-26.97 7.38-39.97 1.42-4.9 4.85-13.94 11.89-19.43 4.2-3.27 10.99-4.66 16.98-5.88q2.54-.51 4.84-1.04a219 219 0 0 1 55.92-5.92c7.78.18 16.52.87 23.97 4.3-5.16 1.07-10.43 2.56-15.11 5.45-7.8 4.8-13.41 13.67-16.67 26.33a349 349 0 0 0-3.26 13.77zm48.82 115.1c-5.22 3.44-12.04 3.9-18.62 4.36l-1.33.09c-10.56.75-22.16.17-35.47-1.77-5.52-.8-8.58-2.37-9.63-4.93-.8-1.94-.24-4.6 1.4-6.78 1.69-2.22 4.2-3.86 6.63-5.45l23.34-15.26a65.08 65.08 0 0 0 39.4 9.44l.08 2.66c.25 7.26.46 13.53-5.8 17.64M344 496.74a106 106 0 0 1-34.3-1.74l.46-1.76a2 2 0 1 0-3.87-1.02l-1 3.8-22.7 86.02a62 62 0 0 1-26.91-.26 61 61 0 0 1-21.72-9.87c1.7-9.63 3.23-19.46 4.7-28.97 2.48-15.88 5.02-32.18 8.43-48.16a376 376 0 0 1 3.56-15.17c2.99-11.62 8-19.67 14.9-23.92 4.86-3 10.65-4.37 16.18-5.4a181 181 0 0 1 57.1-1.58c6.87 10.99 14 22.29 23.58 31.55a74 74 0 0 0 10.89 8.8 105 105 0 0 1-29.3 7.68m131.24-161.1-77.17 10.06c-.95.13-1.68.9-1.74 1.87a1268 1268 0 0 0-2.11 59.13c-.34 28.77.33 57.92 1.98 86.68a44 44 0 0 1-17.46-5.67l-.26-.15-.05-.03a68 68 0 0 1-13.24-10.14c-9.44-9.14-16.57-20.55-23.45-31.6-.32-.5-.83-.82-1.42-.91q-4.53-.64-9.15-1.05a1253.6 1253.6 0 0 1-.95-65.54 78 78 0 0 0 24.99-8.82 79 79 0 0 0 24.62-21.54 2 2 0 0 0-.12-2.55l-9.48-10.34 12.17-8.68a2 2 0 0 0 .68-2.4 86 86 0 0 0-18.07-27.5 378 378 0 0 0 63.53 5.4q12.12 0 24.18-.77l21.25 30.95c.97 1.4 1.44 2.75 1.28 3.6z"/><path id="Vector_43" fill="#000" d="M347.56 444.27a50 50 0 0 1 27.69 5.74 2 2 0 1 1-2.02 3.46 47.3 47.3 0 0 0-25.6-7.46c-1.08 0-1.16-1.63-.06-1.73z"/><path id="Vector_44" fill="#dc7937" d="M743.22 328.45c-6.31-13.37-17.98-24.71-31.21-29.93a2 2 0 0 0-2.09 3.34c11.32 10.36 16.89 25.26 14.92 39.86a47.8 47.8 0 0 1-22.57 34.15l-.8-10.38a89 89 0 0 0-1.27-16.57 2 2 0 0 0-3.96.5l1.24 16.22A90 90 0 0 1 684 411.43c-.94-8.87-6.57-15.78-12.05-22.5a140 140 0 0 1-8.62-11.51c-6.31-9-12.27-17.5-22.36-24.25-19.28-12.91-42.55-17.2-65.06-21.35l-7.45-1.38-7.37-1.42c-17.4-3.37-35.24-6.83-53.07-6.83-5.65 0-11.3.35-16.92 1.15a68.8 68.8 0 0 1-18.85-35.35 2.05 2.05 0 0 0-2-1.61 2 2 0 0 0-1.93 1.67c-1.8 10.68.5 23.2 6.1 34.3-23.2-18.28-31.48-49.33-34.27-73.25-3.62-30.98.33-66.6 10.3-92.92 8.77-23.12 21.87-41.67 38.95-55.15 26.47-20.9 58.85-29.7 88.85-24.17 27.25 5.03 51.45 21.02 69.99 46.26 12.46 16.96 18.34 38.33 22.45 57a213 213 0 0 1 2.78 16.92c2.14 15.56 4.35 31.65 16.33 44.55 5.56 5.97 12.37 10.74 18.96 15.35 9.26 6.49 18 12.62 23.49 21.77a80.4 80.4 0 0 1 10.96 49.74"/><path id="Vector_45" fill="#000" d="M735.69 276.65c-5.92-9.88-15.43-16.54-24.63-22.98-6.42-4.5-13.05-9.14-18.32-14.81-11.12-11.96-13.15-26.73-15.3-42.36-.77-5.65-1.57-11.5-2.84-17.24-4.2-19.08-10.22-40.95-23.12-58.51-19.16-26.07-44.23-42.61-72.5-47.82-31.13-5.74-64.68 3.35-92.05 24.96-17.65 13.93-31.18 33.07-40.2 56.87-10.2 26.9-14.23 63.23-10.55 94.8 3.18 27.2 13.32 63.39 43.6 81.3a2 2 0 0 0 2.67-2.86 60 60 0 0 1-10.34-26.41 72.5 72.5 0 0 0 16.91 25.31 2 2 0 0 0 1.7.55c23.04-3.53 46.72 1.06 69.62 5.49l7.38 1.43 7.48 1.39c22.1 4.07 44.96 8.28 63.55 20.73 9.47 6.34 14.96 14.17 21.3 23.23q1.8 2.56 3.7 5.2c1.6 2.23 3.39 4.42 5.1 6.54 6.6 8.09 12.83 15.73 10.95 26.45a2 2 0 0 0 1.97 2.35c.62 0 1.22-.3 1.6-.81a93 93 0 0 0 16.56-38.41c.49.16 1.03.1 1.5-.13a51.8 51.8 0 0 0 27.37-38.65 49.3 49.3 0 0 0-8.81-35c10.2 6.88 18.45 17.6 22.15 29.34a2 2 0 0 0 2 1.4c.92-.05 1.68-.7 1.87-1.6 4.19-20.07.43-41.85-10.32-59.75m7.53 51.8c-6.31-13.37-17.98-24.71-31.21-29.93a2 2 0 0 0-2.09 3.34c11.32 10.36 16.89 25.26 14.92 39.86a47.8 47.8 0 0 1-22.57 34.15l-.8-10.38a89 89 0 0 0-1.27-16.57 2 2 0 0 0-3.96.5l1.24 16.22A90 90 0 0 1 684 411.43c-.94-8.87-6.57-15.78-12.05-22.5a140 140 0 0 1-8.62-11.51c-6.31-9-12.27-17.5-22.36-24.25-19.28-12.91-42.55-17.2-65.06-21.35l-7.45-1.38-7.37-1.42c-17.4-3.37-35.24-6.83-53.07-6.83-5.65 0-11.3.35-16.92 1.15a68.8 68.8 0 0 1-18.85-35.35 2.05 2.05 0 0 0-2-1.61 2 2 0 0 0-1.93 1.67c-1.8 10.68.5 23.2 6.1 34.3-23.2-18.28-31.48-49.33-34.27-73.25-3.62-30.98.33-66.6 10.3-92.92 8.77-23.12 21.87-41.67 38.95-55.15 26.47-20.9 58.85-29.7 88.85-24.17 27.25 5.03 51.45 21.02 69.99 46.26 12.46 16.96 18.34 38.33 22.45 57a213 213 0 0 1 2.78 16.92c2.14 15.56 4.35 31.65 16.33 44.55 5.56 5.97 12.37 10.74 18.96 15.35 9.26 6.49 18 12.62 23.49 21.77a80.4 80.4 0 0 1 10.96 49.74"/><path id="Vector_46" fill="#febc92" d="M651.04 238.9c-3.2 2.95-8.03 4.29-12.62 3.52a2 2 0 0 0-2.31 1.64c-.11.67.13 1.32.58 1.75-15.04 30.56-38.3 49.9-67.28 56.02-34.62 7.29-79.54-3.81-98.42-39.13-8.62-16.13-12.85-34.2-11.9-50.86a2 2 0 0 0-.37-1.26 130 130 0 0 0 22.16-24.72 132 132 0 0 0 20.45-48.13 87.4 87.4 0 0 0 23.5 41.42c18.55 18.29 40.02 23.24 51.17 24.56a2 2 0 0 0 1.8-.73 135 135 0 0 0 56.66 18.34 11.6 11.6 0 0 0-1.77 4.78 2 2 0 1 0 3.96.5 8 8 0 0 1 2.8-4.94 9.5 9.5 0 0 1 3.44-1.93 8 8 0 0 1 2.54-.36c4.14.09 8.14 3.34 9.29 7.54 1.13 4.1-.34 8.93-3.68 12"/><path id="Vector_47" fill="#000" d="M643.72 236.24a2 2 0 0 1-2-1.83 1.4 1.4 0 0 0-.64-1 1.5 1.5 0 0 0-1.15-.3 2 2 0 0 1-1.26-3.78l7.64-3.31a2 2 0 0 1 1.59 3.67l-3.4 1.48a5.2 5.2 0 0 1 1.2 2.89 2 2 0 0 1-1.81 2.17h-.18"/><path id="Vector_48" fill="#fff" d="M740.28 503.17a17.8 17.8 0 0 1-12.48 10.39c-2.46.53-5.05.56-7.8.59-4.43.04-9.01.09-13.11 2.4-4.81 2.7-7.45 7.74-9.21 11.83l-1.1 2.6c-1.4 3.43-2.73 6.68-4.9 9.34-4.01 4.89-11.94 5.13-18.93 5.33-2.1.07-4.07.13-5.92.3-7.14.66-15.25 2.03-21.3 7.15-2.48 2.12-4.41 4.7-6.28 7.22-1.91 2.57-3.72 5-6.05 6.86-5.57 4.46-13.92 5.52-24.82 3.16-2.38-.52-4.82-1.15-7.18-1.76-6.6-1.72-13.44-3.5-20.47-3.12-9.07.48-14.63 5.42-20.01 10.19-5.64 5-10.95 9.75-20.3 9.38-8.58-.33-16.94-3.7-25.02-6.95l-3.12-1.25c-9.7-3.84-20.06-7.15-30.36-5.41-5.48.93-10.58 3.25-15.51 5.48-5.95 2.7-11.57 5.25-17.66 5.46-7.54.27-14.91-3.25-22-6.65q-2.41-1.17-4.81-2.26c-5.16-2.34-12.85-5.44-20.15-5.25a1.3 1.3 0 0 1-1.26-.74c-.1-.2-.4-.85.05-1.54 9.28-14 13.4-30.7 17.38-46.84.8-3.25 1.63-6.6 2.48-9.85 1.3-4.98 2.25-9.96 3.16-14.77 2.37-12.51 4.6-24.33 12.83-35.06a61 61 0 0 1 2.62-3.2q1.5-1.74 3.17-3.41c7.22-7.34 16.36-13.52 26.8-18.1q2.26-.99 4.56-1.96c9.55-4.08 19.4-8.28 26.74-15.84a147 147 0 0 0 38.88 5.84h2.2c9.77 0 19.5-.96 29.09-2.9a615 615 0 0 1-1.62 17.04c-.64 6.25-1.31 12.7-1.75 19.1-.08 1.09-.22 2.38-.37 3.75-.87 7.72-2.05 18.3 5.08 22.65a14 14 0 0 0 7.3 1.93c2.2 0 4.5-.44 6.74-1.33 4.35-1.71 7.98-4.78 11.04-7.52 6.48-5.8 12.32-12.3 17.96-18.56 3.99-4.43 8.1-9 12.4-13.26 25.34 28.14 62.92 45.22 98.99 45.22q4.54 0 9.04-.37a5.6 5.6 0 0 1 5.92 4.32c.72 3.5.38 7.19-.94 10.37"/><path id="Vector_49" fill="#febc92" d="M602.23 328.67q-.75.21-1.46.53a14.5 14.5 0 0 0-8.31 10.49 11 11 0 0 0-5.85.42 10.7 10.7 0 0 0-6.45 5.83c-1.24 2.96-1.05 6.04-.24 9.03q-1.83-.66-3.68-.77a20 20 0 0 0-7.2-3.67 34.9 34.9 0 0 0-31.7 6.66c-11.68-7.94-27.1-9.46-39.71-3.81-10.02 4.49-12.97 16.18-10.71 25.4 2.93 11.99 6.78 23.85 10.5 35.34-6.76 6.97-16.24 11-25.41 14.93q-2.3.97-4.6 1.97a93 93 0 0 0-22.28 13.64c1.66-3.65 3.65-7.14 5.8-10.9q1.23-2.12 2.49-4.4a123 123 0 0 0 14.14-40.85c1.56-10.27 4.07-20.67 6.49-30.72.96-3.97 1.95-8.07 2.87-12.11q.38-1.68.69-3.3c1-4.94 1.87-9.2 5.42-12.74a39 39 0 0 1 15.05-9.53c7.05-2.43 14.62-3.21 21.74-3.7a7.5 7.5 0 0 0 6.97-7.36l.02-3.28a111 111 0 0 0 37.4 1.04l.13 4.25a6.9 6.9 0 0 0 5.2 6.47q4.76 1.18 9.54 2.33c4.3 1.04 8.77 2.12 13.07 3.22 2.54.64 5.16 1.3 7.27 2.66a8.4 8.4 0 0 1 2.8 2.93"/><path id="Vector_50" fill="#fff" d="M573.29 375.65a1753 1753 0 0 1-2.47 40.03 142.8 142.8 0 0 1-69.54-2.68c-3.73-11.45-7.58-23.3-10.48-35.16-1.82-7.43.53-17.25 8.47-20.81 11.8-5.28 26.33-3.6 37 4.32a2 2 0 0 0 2.56-.14 30.8 30.8 0 0 1 29.09-6.85c.85.25 1.9.62 2.99 1.14a10.9 10.9 0 0 0-5.01 11.07c.72 3.72 3.65 7.66 7.39 9.08"/><path id="Vector_51" fill="#febc92" d="M490.98 620.68c-1.46 10.86-9.08 21.15-19.43 26.2-4.88 2.39-11.43 3.54-15.2-.38-4.6-4.78-1.92-13.5-.56-17.01q.55-1.42 1.14-2.85c2.32-5.68 4.7-11.56 3.25-17.76l-5.48-23.32c4.66-1.07 9.06-3.06 13.36-5.01 4.9-2.23 9.56-4.34 14.53-5.18q1.89-.31 3.79-.4.08 1.46.17 2.9c.43 7.28.88 14.8 1.84 23.09a90 90 0 0 0 1.13 6.58c.9 4.57 1.9 9.75 1.46 13.14m45.89-11c-.57 4.62.15 9.18.85 13.59q.3 1.78.54 3.56c.63 4.58 1 10.42-1.68 15.03-1.8 3.09-5.08 5.64-9.25 7.2-4.03 1.5-8.41 2-12.54 2.4-4.68.44-9.84.48-12.75-2.5-4.7-4.84-1.02-13.98 2.2-22.04 1.84-4.54 3.56-8.83 3.88-12.4 1.13-12.47.7-24.35-1.26-35.48q1.98.74 3.94 1.5l3.1 1.25c8.4 3.38 17.09 6.88 26.36 7.24h.16l-.33 1.7a292 292 0 0 0-3.22 18.96"/><path id="Vector_52" fill="#000" d="M502.8 233.28c3.86 0 7-3.97 7-8.87s-3.14-8.87-7-8.87c-3.87 0-7 3.97-7 8.87s3.13 8.87 7 8.87"/><path id="Vector_53" fill="#000" d="M587.76 234.72c3.86 0 7-3.97 7-8.87s-3.14-8.87-7-8.87c-3.87 0-7 3.97-7 8.87s3.13 8.87 7 8.87"/><path id="Vector_54" fill="#69352c" d="M544.09 253.76c-9.14 0-17.7-4.9-22.57-13a2 2 0 0 1 .69-2.74 2 2 0 0 1 2.74.69 22.4 22.4 0 0 0 20.19 11.03c10.8-.52 16.78-9.13 17.43-10.1a2 2 0 0 1 3.34 2.2c-1.24 1.88-8.07 11.29-20.57 11.9z"/><path id="Vector_55" fill="#000" d="M745.13 492a9.53 9.53 0 0 0-10.15-7.5c-37.58 3.06-78.22-14-104.88-43.7q-1.35-1.48-2.64-3.02l-.47-.56a2 2 0 0 0-2.81-.26c-.85.7-.97 1.96-.26 2.8q.34.44.7.84a84 84 0 0 0 2.65 3.03c25.34 28.14 62.92 45.22 98.99 45.22q4.54 0 9.04-.37a5.6 5.6 0 0 1 5.92 4.32c.72 3.5.38 7.19-.94 10.37a17.8 17.8 0 0 1-12.48 10.39c-2.46.53-5.05.56-7.8.59-4.43.04-9.01.09-13.11 2.4-4.81 2.7-7.45 7.74-9.21 11.83l-1.1 2.6c-1.4 3.43-2.73 6.68-4.9 9.34-4.01 4.89-11.94 5.13-18.93 5.33-2.1.07-4.07.13-5.92.3-7.14.66-15.25 2.03-21.3 7.15-2.48 2.12-4.41 4.7-6.28 7.22-1.91 2.57-3.72 5-6.05 6.86-5.57 4.46-13.92 5.52-24.82 3.16-2.38-.52-4.82-1.15-7.18-1.76-6.6-1.72-13.44-3.5-20.47-3.12-9.07.48-14.63 5.42-20.01 10.19-4.58 4.07-8.94 7.96-15.43 9.08q-1.92.34-4.12.3h-.75c-8.58-.33-16.94-3.7-25.02-6.95l-3.12-1.25q-3.13-1.24-6.32-2.35-2.2-.75-4.42-1.4a54 54 0 0 0-11.4-2.06q-2.01-.12-4.01-.04-2.11.09-4.21.44c-5.48.93-10.58 3.25-15.51 5.48-4.28 1.94-8.38 3.8-12.62 4.77a26 26 0 0 1-5.04.69c-7.54.27-14.91-3.25-22-6.65q-2.41-1.17-4.81-2.26c-5.16-2.34-12.85-5.44-20.15-5.25a1.3 1.3 0 0 1-1.26-.74c-.1-.2-.4-.85.05-1.54 9.28-14 13.4-30.7 17.38-46.84.8-3.25 1.63-6.6 2.48-9.85 1.3-4.98 2.25-9.96 3.16-14.77 2.37-12.51 4.6-24.33 12.83-35.06a61 61 0 0 1 2.62-3.2q1.5-1.74 3.17-3.41c7.22-7.34 16.36-13.52 26.8-18.1q2.26-.99 4.56-1.96c9.55-4.08 19.4-8.28 26.74-15.84a147 147 0 0 0 38.88 5.84h2.2a147 147 0 0 0 38.36-5.07 2 2 0 0 0-1.05-3.86 126 126 0 0 1-7.9 1.88 142.8 142.8 0 0 1-69.54-2.68c-3.72-11.45-7.57-23.3-10.47-35.16-1.82-7.43.53-17.25 8.47-20.81 11.8-5.28 26.33-3.6 37 4.32a2 2 0 0 0 2.56-.14 30.8 30.8 0 0 1 29.09-6.85c.85.25 1.9.62 2.99 1.14 1.36.66 2.76 1.56 3.79 2.76a7 7 0 0 1 1.34 2.34 2 2 0 1 0 3.8-1.23l-.03-.07a11.3 11.3 0 0 0-3.57-5.1 20 20 0 0 0-7.2-3.67 34.9 34.9 0 0 0-31.7 6.66c-11.68-7.94-27.1-9.46-39.71-3.81-10.02 4.49-12.97 16.18-10.71 25.4 2.93 11.99 6.78 23.85 10.5 35.34-6.76 6.97-16.24 11-25.41 14.93q-2.3.97-4.6 1.97a93 93 0 0 0-22.28 13.64c1.66-3.65 3.65-7.14 5.8-10.9q1.23-2.12 2.49-4.4a123 123 0 0 0 14.14-40.85c1.56-10.27 4.07-20.67 6.49-30.72.96-3.97 1.95-8.07 2.87-12.11q.38-1.68.69-3.3c1-4.94 1.87-9.2 5.42-12.74a39 39 0 0 1 15.05-9.53c7.05-2.43 14.62-3.21 21.74-3.7a7.5 7.5 0 0 0 6.97-7.36l.02-3.28a111 111 0 0 0 37.4 1.04l.13 4.25a6.9 6.9 0 0 0 5.2 6.47q4.76 1.18 9.54 2.33c4.3 1.04 8.77 2.12 13.07 3.22 2.54.64 5.16 1.3 7.27 2.66a8.4 8.4 0 0 1 2.8 2.93q.61 1.05.67 2.26c.02.6.32 1.15.77 1.49q.52.43 1.23.44h.08c.6-.02 1.13-.31 1.47-.75q.47-.56.45-1.33a8 8 0 0 0-.53-2.65 11.6 11.6 0 0 0-4.78-5.75c-2.66-1.71-5.73-2.5-8.44-3.18-4.33-1.1-8.8-2.18-13.12-3.23q-4.76-1.15-9.5-2.32a2.9 2.9 0 0 1-2.18-2.72l-.15-4.8 2.05-.4c30.39-6.4 54.7-26.68 70.3-58.68q.1-.21.16-.42h.37a18.7 18.7 0 0 0 12.68-4.78c4.4-4.05 6.35-10.48 4.83-16-1.63-5.94-7.13-10.35-13.06-10.48-2.68-.06-5.27.78-7.42 2.25a132 132 0 0 1-27.24-4.18c-29.66-7.68-56.03-26.41-73.83-51.27-.83-1.06-2.25.1-1.6 1.12a140 140 0 0 0 36.05 35.7 84 84 0 0 1-43.84-22.7c-19.2-18.91-23.47-41.81-24.42-50.77a2 2 0 0 0-1.98-1.8h-.01a2 2 0 0 0-1.98 1.78 129 129 0 0 1-21.66 58.09 127 127 0 0 1-35.45 34.46 2 2 0 0 0 1.1 3.68q.57 0 1.08-.33a133 133 0 0 0 10.7-7.73c-.56 16.8 3.83 34.8 12.44 50.9 11.66 21.8 32.68 34.83 55.36 40.3l-.03 4.14c0 1.8-1.44 3.3-3.23 3.42-7.41.5-15.3 1.32-22.78 3.9a43 43 0 0 0-16.57 10.48c-4.41 4.38-5.43 9.44-6.52 14.78q-.3 1.58-.67 3.2c-.91 4.02-1.9 8.1-2.85 12.06-2.45 10.14-4.98 20.62-6.57 31.06a119 119 0 0 1-13.68 39.52q-1.24 2.23-2.46 4.34c-3.48 6.09-6.8 11.88-8.83 18.95a73 73 0 0 0-5.38 6.25c-8.8 11.48-11.12 23.75-13.58 36.75-.9 4.74-1.83 9.65-3.1 14.5a623 623 0 0 0-2.5 9.9c-3.9 15.82-7.93 32.17-16.82 45.6a5.47 5.47 0 0 0 4.63 8.48c6.44-.18 13.6 2.7 18.4 4.89q2.37 1.07 4.74 2.23c7.52 3.6 15.3 7.32 23.87 7.04q.94-.03 1.86-.13l5.54 23.56c1.17 4.96-1 10.24-3.07 15.34q-.6 1.47-1.17 2.92c-1.63 4.24-4.77 14.78 1.42 21.23 2.62 2.72 6.03 3.78 9.55 3.78s7.2-1.07 10.29-2.58c11.69-5.72 19.98-16.93 21.63-29.27.54-4.04-.54-9.56-1.5-14.44a84 84 0 0 1-1.08-6.27 405 405 0 0 1-1.82-22.86l-.15-2.58c4.04.29 8.1 1.23 12.12 2.5 2.24 11.4 2.78 23.67 1.62 36.6-.27 2.98-1.9 7-3.6 11.27-3.7 9.19-7.87 19.6-1.37 26.3 3.03 3.13 7.28 3.95 11.56 3.95q2.25-.02 4.43-.24c4.2-.4 9.08-.95 13.57-2.63 5.04-1.88 9.05-5.06 11.3-8.94 3.35-5.73 2.85-12.78 2.19-17.58q-.25-1.83-.55-3.65c-.7-4.32-1.33-8.4-.83-12.46.78-6.26 2-12.57 3.17-18.7l.5-2.6c8.38-.93 13.7-5.66 18.86-10.24 5.09-4.51 9.9-8.78 17.57-9.2 6.43-.33 12.66 1.29 19.26 3 2.39.63 4.87 1.27 7.33 1.8 12.14 2.64 21.6 1.3 28.17-3.93 2.73-2.18 4.78-4.94 6.76-7.6 1.8-2.44 3.52-4.73 5.67-6.56 5.19-4.4 12.55-5.61 19.06-6.22 1.74-.16 3.65-.22 5.68-.28 7.85-.23 16.74-.5 21.9-6.8 2.56-3.12 4.07-6.8 5.53-10.36q.51-1.27 1.05-2.53c1.52-3.51 3.74-7.81 7.5-9.93 3.2-1.8 7.09-1.84 11.2-1.88 2.82-.03 5.74-.06 8.59-.68a21.8 21.8 0 0 0 15.33-12.77 22 22 0 0 0 1.16-12.7M470.99 262.7c-8.62-16.13-12.85-34.2-11.9-50.86a2 2 0 0 0-.37-1.26 130 130 0 0 0 22.16-24.72 132 132 0 0 0 20.45-48.13 87.4 87.4 0 0 0 23.5 41.42c18.55 18.29 40.02 23.24 51.17 24.56a2 2 0 0 0 1.8-.73 135 135 0 0 0 56.66 18.34 11.6 11.6 0 0 0-1.77 4.78 2 2 0 1 0 3.96.5 8 8 0 0 1 2.8-4.94 9.5 9.5 0 0 1 3.44-1.93 8 8 0 0 1 2.54-.36c4.14.09 8.14 3.34 9.29 7.54 1.13 4.1-.34 8.93-3.68 12-3.2 2.94-8.03 4.28-12.62 3.5a2 2 0 0 0-2.31 1.65c-.11.67.13 1.32.58 1.75-15.04 30.56-38.3 49.9-67.28 56.02-34.62 7.29-79.54-3.81-98.42-39.13m19.99 357.98c-1.46 10.86-9.08 21.15-19.43 26.2-4.88 2.39-11.43 3.54-15.2-.38-4.6-4.78-1.92-13.5-.56-17.01q.55-1.42 1.14-2.85c2.32-5.68 4.7-11.56 3.25-17.76l-5.48-23.32c4.66-1.07 9.06-3.06 13.36-5.01 4.9-2.23 9.56-4.34 14.53-5.18q1.89-.31 3.79-.4.08 1.46.17 2.9c.43 7.28.88 14.8 1.84 23.09a90 90 0 0 0 1.13 6.58c.9 4.57 1.9 9.75 1.46 13.14m49.1-29.94a292 292 0 0 0-3.21 18.95c-.57 4.6.15 9.17.85 13.58q.3 1.78.54 3.56c.63 4.58 1 10.42-1.68 15.03-1.8 3.09-5.08 5.64-9.25 7.2-4.03 1.5-8.41 2-12.54 2.4-4.68.44-9.84.48-12.75-2.5-4.7-4.84-1.02-13.98 2.2-22.04 1.84-4.54 3.56-8.83 3.88-12.4 1.13-12.47.7-24.35-1.26-35.48q1.98.74 3.94 1.5l3.1 1.25c8.4 3.38 17.09 6.88 26.36 7.24h.16z"/><path id="Vector_56" fill="#f0888b" d="M652.46 408.5a259 259 0 0 1-27.32 31.59l-.51.5c-4.44 4.4-8.66 9.09-12.73 13.63-5.57 6.19-11.34 12.59-17.66 18.25-2.93 2.62-6.1 5.3-9.84 6.79-3.8 1.5-7.71 1.38-10.5-.31-4.94-3.01-3.92-12.13-3.18-18.8.16-1.4.3-2.73.39-3.9.43-6.32 1.1-12.75 1.74-18.97a795 795 0 0 0 1.72-18.32l.32-4.2a1655 1655 0 0 0 2.26-36.42 20.7 20.7 0 0 0 14.65 5.03c.59 3.43 2.8 6.68 6.07 8.7 4.1 2.55 8.82 2.73 12.05 2.44l1.03-.1c2.95-.25 5.98-.52 8.98-1.3 7.14 9.6 19.46 15.1 30.8 13.76q.79.9 1.73 1.63"/><path id="Vector_57" fill="#e6383d" d="M680.53 385.13c2.03 2.23 2.4 6.5.82 9.5a8.2 8.2 0 0 1-8.15 4.19 2 2 0 0 0-2.22 1.54c-.82 3.59-3.72 6.3-7.6 7.1a10 10 0 0 1-5.13-.32 10 10 0 0 1-5.06-3.6 2 2 0 0 0-1.61-.81q-.14 0-.27.03h-.05c-10.62 1.72-22.5-3.66-28.87-13.07a2 2 0 0 0-2.25-.8c-3.04.97-6.2 1.25-9.54 1.54l-1.04.1c-2.62.23-6.42.1-9.6-1.86-2.74-1.71-4.47-4.71-4.31-7.5a2 2 0 0 0-.7-1.64 2 2 0 0 0-1.75-.41c-4.88 1.15-11.5-1.2-14.6-5.03q-.4-.46-.7-.94a2 2 0 0 0-1.68-.94h-.01q-.69-.01-1.36-.24c-2.4-.83-4.55-3.67-5.03-6.16a6.8 6.8 0 0 1 4-7.31q.42-.17.88-.24a8.3 8.3 0 0 1 5.1 1.04 7.3 7.3 0 0 1 2.77 2.42 2 2 0 0 0 3.5-1.92c-1.97-4.21-3.76-8.64-2.22-12.31a6.6 6.6 0 0 1 4.07-3.6 6.7 6.7 0 0 1 5.42.33c.64.36 1.43.34 2.05-.06.63-.4.98-1.11.92-1.84-.3-3.74 2.3-7.8 6.07-9.46a9.03 9.03 0 0 1 4.06-.75 9.8 9.8 0 0 1 6.78 3 2 2 0 0 0 3.4-.87c1.29-5.14 6.17-9.2 11.86-9.87a14.2 14.2 0 0 1 13.78 7.25c.48.9 1.59 1.3 2.54.9 2.89-1.2 6.25-.94 9.45.74a11.7 11.7 0 0 1 5.89 7.76c.14.67.6 1.2 1.24 1.45a2 2 0 0 0 1.9-.25c2.27-1.67 6.12-.86 8.92.67 2.68 1.47 4.76 4.28 5.7 7.7 1.23 4.52.3 9.69-2.4 13.49a2 2 0 0 0 1.35 3.15q5.3.74 6.72 5.62a9.3 9.3 0 0 1-2.85 9.4c-.41.35-.67.86-.71 1.4s.15 1.07.52 1.48"/><path id="Vector_58" fill="#000" d="M687.4 371.74a11.2 11.2 0 0 0-7.16-7.8 20.2 20.2 0 0 0 1.52-14.4c-1.23-4.47-4.01-8.18-7.64-10.16-3.08-1.68-7.24-2.78-10.8-1.62a15.6 15.6 0 0 0-7.21-8.04c-3.7-1.94-7.61-2.44-11.2-1.45a18.1 18.1 0 0 0-16.9-7.87 18.3 18.3 0 0 0-14.23 10 14.1 14.1 0 0 0-11.55-1.73q-.75.21-1.46.53a14.5 14.5 0 0 0-8.31 10.49 11 11 0 0 0-5.85.42 10.7 10.7 0 0 0-6.45 5.83c-1.24 2.96-1.05 6.04-.24 9.03q-1.83-.66-3.68-.77a9.3 9.3 0 0 0-5.33 1.3 10.9 10.9 0 0 0-5.01 11.07c.72 3.72 3.65 7.66 7.39 9.08a1753 1753 0 0 1-2.47 40.03l-.33 4.16a615 615 0 0 1-1.62 17.03c-.64 6.25-1.31 12.7-1.75 19.1-.08 1.09-.22 2.38-.37 3.75-.87 7.72-2.05 18.3 5.08 22.65a14 14 0 0 0 7.3 1.93c2.2 0 4.5-.44 6.74-1.33 4.35-1.71 7.98-4.78 11.04-7.52 6.48-5.8 12.32-12.3 17.96-18.56 3.99-4.43 8.1-9 12.4-13.26l.68-.68 2.15-2.14a263 263 0 0 0 25.8-30.26 14.4 14.4 0 0 0 8.3.84c4.83-1 8.6-4.2 10.19-8.5a12.2 12.2 0 0 0 10.5-6.4 13.2 13.2 0 0 0-.25-12.5c2.89-3.3 4-8 2.77-12.25m-59.94 66.04q-1.15 1.17-2.32 2.3l-.51.52c-4.44 4.4-8.66 9.08-12.73 13.62-5.57 6.19-11.34 12.59-17.66 18.25-2.93 2.62-6.1 5.3-9.84 6.79-3.8 1.5-7.71 1.38-10.5-.31-4.94-3.01-3.92-12.13-3.18-18.8.16-1.4.3-2.73.39-3.9.43-6.32 1.1-12.75 1.74-18.97a795 795 0 0 0 1.72-18.32l.32-4.2a1655 1655 0 0 0 2.26-36.42 20.7 20.7 0 0 0 14.65 5.03c.59 3.43 2.8 6.68 6.07 8.7 4.1 2.55 8.82 2.73 12.05 2.44l1.03-.1c2.95-.25 5.98-.52 8.98-1.3 7.14 9.6 19.46 15.1 30.8 13.76q.79.9 1.73 1.63a259 259 0 0 1-25 29.28m53.26-55.53c-.41.35-.67.86-.71 1.4s.15 1.07.52 1.48c2.03 2.23 2.4 6.5.82 9.5a8.2 8.2 0 0 1-8.15 4.19 2 2 0 0 0-2.22 1.54c-.82 3.59-3.72 6.3-7.6 7.1a10 10 0 0 1-5.13-.32 10 10 0 0 1-5.06-3.6 2 2 0 0 0-1.61-.81q-.14 0-.27.03h-.05c-10.62 1.72-22.5-3.66-28.87-13.07a2 2 0 0 0-2.25-.8c-3.04.97-6.2 1.25-9.54 1.54l-1.04.1c-2.62.23-6.42.1-9.6-1.86-2.74-1.71-4.47-4.71-4.31-7.5a2 2 0 0 0-.7-1.64 2 2 0 0 0-1.75-.41c-4.88 1.15-11.5-1.2-14.6-5.03q-.4-.46-.7-.94a2 2 0 0 0-1.68-.94h-.01q-.69-.01-1.36-.24c-2.4-.83-4.55-3.67-5.03-6.16a6.8 6.8 0 0 1 4-7.31q.42-.17.88-.24a8.3 8.3 0 0 1 5.1 1.04 7.3 7.3 0 0 1 2.77 2.42 2 2 0 0 0 3.5-1.92c-1.97-4.21-3.76-8.64-2.22-12.31a6.6 6.6 0 0 1 4.07-3.6 6.7 6.7 0 0 1 5.42.33c.64.36 1.43.34 2.05-.06.63-.4.98-1.11.92-1.84-.3-3.74 2.3-7.8 6.07-9.46a9.03 9.03 0 0 1 4.06-.75 9.8 9.8 0 0 1 6.78 3 2 2 0 0 0 3.4-.87c1.29-5.14 6.17-9.2 11.86-9.87a14.2 14.2 0 0 1 13.78 7.25c.48.9 1.59 1.3 2.54.9 2.89-1.2 6.25-.94 9.45.74a11.7 11.7 0 0 1 5.89 7.76c.14.67.6 1.2 1.24 1.45a2 2 0 0 0 1.9-.25c2.27-1.67 6.12-.86 8.92.67 2.68 1.47 4.76 4.28 5.7 7.7 1.23 4.52.3 9.69-2.4 13.49a2 2 0 0 0 1.35 3.15q5.3.74 6.72 5.62a9.3 9.3 0 0 1-2.85 9.4"/><path id="Vector_59" fill="#000" d="M622.78 378.57a2 2 0 0 1-1.82-2.81c1.5-3.4 2.08-6.1 1.79-8.5-.34-2.75-2.07-5.1-4.22-5.72a4.2 4.2 0 0 0-3.42.67 3 3 0 0 0-1.31 2.19 2 2 0 0 1-4-.31l.03-.3a5.6 5.6 0 0 0-1.54-4 5.5 5.5 0 0 0-4.01-1.91h-.02a5.5 5.5 0 0 0-4.02 1.96 5.5 5.5 0 0 0-1.5 4.2 2 2 0 1 1-3.97.45 9.5 9.5 0 0 1 2.48-7.31 9.5 9.5 0 0 1 6.99-3.3h.03a9.5 9.5 0 0 1 6.98 3.25q.81.91 1.39 1.94l.14-.1a8 8 0 0 1 6.84-1.26c3.7 1.07 6.55 4.72 7.09 9.08.38 3.14-.3 6.52-2.11 10.6a2 2 0 0 1-1.83 1.2zm13.82-28.48q-.54 0-1.01-.28a2 2 0 0 1-.71-2.74 3.8 3.8 0 0 0 .2-3.13 3.9 3.9 0 0 0-2.08-2.35 3.8 3.8 0 0 0-3.13.29 3.8 3.8 0 0 0-2 2.43 2 2 0 0 1-1.73 1.56 2 2 0 0 1-2.03-1.15 5.1 5.1 0 0 0-5.63-2.68 5.1 5.1 0 0 0-3.65 5.06 2 2 0 0 1-1.86 2.13 2 2 0 0 1-2.13-1.86 9.1 9.1 0 0 1 6.65-9.21 9.1 9.1 0 0 1 8.14 2.06 8 8 0 0 1 2.37-1.87 7.7 7.7 0 0 1 6.47-.48 7.8 7.8 0 0 1 4.4 4.77 7.7 7.7 0 0 1-.54 6.47 2 2 0 0 1-1.72.98zm34.42 21.85H671a2 2 0 0 1-2-2.01 6.3 6.3 0 0 0-3.15-5.42 6 6 0 0 0-3.54-.74c-.63.09-1.02.48-1.82 1.33l-.66.68c-.44.44-1.06.65-1.68.56a2 2 0 0 1-1.47-1l-.34-.6c-.7-1.24-.95-1.66-1.76-2q-2.34-1.02-4.16-.47a5.96 5.96 0 0 0-4.05 6.28 2 2 0 0 1-1.7 2.26 2 2 0 0 1-2.26-1.7 10 10 0 0 1 6.89-10.68c2.16-.63 4.4-.42 6.86.64a6 6 0 0 1 2.66 2.09 6 6 0 0 1 2.9-1.33 10 10 0 0 1 6.08 1.2 10.3 10.3 0 0 1 5.2 8.94 2 2 0 0 1-2 1.99zm-7.73 23.4q-.31 0-.64-.1a2 2 0 0 1-1.26-2.53 3.8 3.8 0 0 0-1.66-4.31 3.8 3.8 0 0 0-4.54.84 2 2 0 0 1-3.31-.36 5.3 5.3 0 0 0-5.41-2.7 5.35 5.35 0 0 0-4.25 4.3 2 2 0 0 1-2.28 1.69 2 2 0 0 1-1.68-2.28 9.4 9.4 0 0 1 7.55-7.65c3-.5 6.15.65 8.22 2.84a7.9 7.9 0 0 1 7.66-.16 7.8 7.8 0 0 1 3.5 9.07 2 2 0 0 1-1.9 1.36zm-44.11 57.2c-.75-4.33-3.43-7.93-7.01-9.42-3.86-1.6-8.72-.72-12.7 2.29a8 8 0 0 0-2.86 4.1c-.23.59-.44 1.14-.78 1.74a8.2 8.2 0 0 1-4.3 3.69c-.64.29-1.36.6-2.05 1.06a7 7 0 0 0-2.84 4c-.87 2.89-.4 6.29.34 8.5 1.54 4.65 4.53 8.2 8 9.5q2.29.86 4.76.85c3.38 0 6.89-1.17 9.85-3.4 3.55-2.66 6.3-6.65 8.2-11.85 1.5-4.15 1.97-7.77 1.39-11.06m-5.15 9.69c-1.62 4.47-3.93 7.84-6.84 10.03-3.27 2.45-7.51 3.24-10.8 2-2.77-1.04-4.71-4.3-5.61-7.01a13 13 0 0 1-.61-3.81c0-.8.09-1.6.3-2.28q.4-1.28 1.2-1.82.66-.4 1.48-.74.59-.25 1.16-.54a12.4 12.4 0 0 0 6.03-7.11c.42-1.08.64-1.67 1.54-2.35a10.6 10.6 0 0 1 6.22-2.26q1.37 0 2.54.48c2.29.95 4.09 3.46 4.6 6.4.45 2.59.05 5.54-1.21 9"/><path id="Vector_60" fill="#febc92" d="M614.03 462.23c-1.62 4.47-3.93 7.84-6.84 10.03-3.27 2.45-7.51 3.24-10.8 2-2.77-1.04-4.71-4.3-5.61-7.01a13 13 0 0 1-.61-3.81c0-.8.09-1.6.3-2.28q.4-1.28 1.2-1.82.66-.4 1.48-.74.59-.25 1.16-.54a12.4 12.4 0 0 0 6.03-7.11c.42-1.08.64-1.67 1.54-2.35a10.6 10.6 0 0 1 6.22-2.26q1.37 0 2.54.48c2.29.95 4.09 3.46 4.6 6.4.45 2.59.05 5.54-1.21 9"/></g></svg>