<svg xmlns="http://www.w3.org/2000/svg" width="128" height="128" fill="none" viewBox="0 0 128 128">
  <g id="couple_logo" clip-path="url(#clip0_9_223)">
    <g id="couple_names" filter="url(#filter0_d_9_223)">
      <path fill="#000" d="M44.1092 21.08q.168.12.192.312t-.072.336q-.144.192-.384.192-.096 0-.192-.048-.48-.096-4.752-.24-1.176 4.92-1.896 8.328-1.464 6.792-1.464 8.712.096-.168.216-.36.096-.168.288-.216t.336.048q.168.096.216.264.048.192-.048.36-.696 1.176-1.2 1.176-.12 0-.24-.048-.288-.12-.408-.528-.096-.384-.048-1.512.072-1.104.432-3.072t1.056-5.232q.72-3.24 1.824-7.944-1.632-.048-4.872-.12-.48-.024-1.08-.024-3.624 6.888-5.616 9.624-.528.696-1.056 1.08t-.984.432q-.456.072-.768 0t-.6-.24q-1.248-.72-1.992-2.928-.72-2.184-.648-4.848.072-2.688.936-4.68 1.08-2.448 3.144-3.288 2.088-.84 4.896.048.192.048.264.216.096.168.024.36-.048.168-.216.264t-.36.024q-.936-.288-1.824-.36t-1.872.144q-.96.192-1.8.96-.84.744-1.416 2.016-.432.984-.648 2.184t-.216 2.352.168 2.256q.168 1.128.456 2.016.312.912.696 1.56.408.648.864.912 1.008.576 2.208-1.032 1.92-2.592 5.328-9.096-6.24-.168-6.816-.288-.192-.048-.312-.192-.096-.168-.072-.36.048-.192.216-.288t.336-.072q.528.12 7.128.288 1.056-2.064 3.192-6.24 1.392-2.784 2.28-4.512t1.728-3.288q.864-1.56 1.368-2.352.504-.816.96-1.392.456-.6.744-.744.312-.168.6-.072.384.144.48.648.12.504.024 1.392-.144 1.56-.84 4.656-.288 1.368-1.464 6.192-.912 3.792-1.416 5.904 4.68.144 4.992.36m-10.992-.528q3.144.096 5.064.144.648-2.784 1.44-6.096 1.176-4.8 1.488-6.168.936-4.248.84-5.448-.384.384-1.08 1.512-.672 1.104-1.728 3.072-1.032 1.968-1.728 3.336-.696 1.344-1.944 3.792-1.968 3.888-2.976 5.856zm28.7198-.024q.192-.024.336.096t.144.312q.024.192-.096.336-3.048 3.576-4.824 2.904-1.272-.48-1.368-3.048-.336.624-1.056 2.088-.408.888-.552 1.128-.624 1.2-1.344 1.008-.984-.24-.96-2.76 0-.48.024-1.128-1.584 2.256-3.24 5.424-.288.552-.624.552-.12 0-.216-.072-.12-.048-.168-.096-.072-.048-.12-.264-.072-.216-.024-.552.024-.336.144-.984t.36-1.56q.768-3.072 1.848-5.496.072-.192.24-.264.192-.072.36.024.192.072.24.264.072.168 0 .336-1.2 2.712-1.968 6.024 1.44-2.544 2.976-4.68.336-.48.744-.336.288.096.336.408.048.288.024 1.176-.024.744-.024 1.224 0 1.272.264 1.8.144-.144.336-.48.12-.24.528-1.08.984-2.064 1.416-2.688.432-.648.888-.552.504.12.504 1.056-.024 2.352.768 2.664.48.168 1.464-.432.984-.624 2.328-2.208.12-.144.312-.144m12.1316.12q.192-.072.36.024.168.072.216.264.072.168 0 .336-2.568 5.304-4.584 5.304-.12 0-.264-.024-1.608-.312-1.992-4.32-1.176 1.584-2.088 2.592-.816.864-1.392.6-.576-.216-.552-1.248 0-.864.384-2.064t1.128-2.328 1.608-1.416q1.272-.456 2.352.84.12.144.096.336 0 .192-.144.312t-.336.12q-.192-.024-.312-.168-.84-1.008-1.704-.384-.984.696-1.656 2.52-.648 1.8-.504 2.568.144-.12.336-.312.96-1.032 2.352-2.952.312-.432.432-.6.192-.24.504-.144.312.072.336.408.048 1.176.192 2.088t.288 1.392q.144.456.336.768t.288.408q.12.072.24.072.336.072.84-.312.528-.408 1.32-1.536.816-1.152 1.656-2.904.096-.192.264-.24m11.9469-.048q.192-.048.36.048t.216.288q.048.168-.048.336-.816 1.44-1.416 2.28t-1.224 1.32-1.224.408q-1.2-.144-1.896-2.592-.504-1.656-.864-1.656-.072-.024-.216.072-.12.072-.408.432-.288.336-.648.936-.336.6-.912 1.776-.552 1.176-1.2 2.784-.12.288-.432.288-.048 0-.096-.024-.408-.096-.36-.504.24-1.968 1.8-7.32.168-.552.24-.84.072-.192.24-.264.168-.096.336-.048.192.048.288.216t.024.36l-.24.84q-.528 1.848-.816 2.88.768-1.44 1.344-1.992t1.104-.528q.624.024.984.648.384.624.72 1.704.528 1.848 1.128 1.92.288.048.696-.312.432-.384.912-1.08.48-.72.72-1.128.264-.408.6-1.032.096-.168.288-.216M98.5496 5.96q.624.624-.624 4.416l-.264.792q-.528 1.608-.864 2.568t-1.056 2.688-1.56 3.312q-.696 3.312-1.32 7.056-1.08 6.408-1.152 8.688.192-.072.384 0 .168.096.216.264.072.192 0 .36-.432.912-.864.912-.096 0-.192-.024-.264-.096-.384-.36-.096-.24-.096-1.056.024-.792.216-2.352.288-2.496.96-6.576.384-2.232.792-4.344-.744 1.2-1.584 2.4-1.584 2.304-2.76 1.656-.768-.552-.744-1.944.024-1.416.696-2.856.792-1.68 1.872-2.472t1.92-.528q.84.24.96 1.248.12-.192.216-.384 1.272-6.024 2.544-9.672 1.296-3.672 2.112-3.936.336-.12.576.144m-8.136 18.216q1.128-1.632 2.064-3.264-.36-.12-.288-.48.096-.888-.312-1.008h-.144q-.504 0-1.248.672-.72.648-1.296 1.872-.384.792-.528 1.632-.12.816-.048 1.344.072.504.264.6.072.048.216 0 .168-.072.528-.408.36-.36.792-.96m6.624-14.088q.48-1.464.696-2.496-1.176 2.472-2.52 7.704.672-1.632 1.56-4.392.168-.528.264-.816m11.6034 10.56q.192-.072.36.024.168.072.216.264.072.168 0 .336-2.568 5.304-4.584 5.304-.12 0-.264-.024-1.608-.312-1.992-4.32-1.176 1.584-2.088 2.592c-.5439.576-1.0079.776-1.3919.6q-.576-.216-.552-1.248 0-.864.384-2.064t1.128-2.328c.4959-.752 1.0319-1.224 1.6079-1.416q1.272-.456 2.352.84.12.144.096.336 0 .192-.144.312t-.336.12q-.192-.024-.312-.168-.84-1.008-1.704-.384c-.656.464-1.208 1.304-1.6559 2.52q-.648 1.8-.504 2.568.144-.12.336-.312c.6399-.688 1.4239-1.672 2.3519-2.952q.312-.432.432-.6.192-.24.504-.144.312.072.336.408.048 1.176.192 2.088t.288 1.392q.144.456.336.768t.288.408q.12.072.24.072.336.072.84-.312.528-.408 1.32-1.536.816-1.152 1.656-2.904.096-.192.264-.24M68.3836 54.04q.264.456-.144 1.2-.408.72-1.416 1.584-.624.528-1.536 1.056.504 1.104 1.176 1.968.12.144.096.336 0 .192-.168.312-.12.096-.288.096-.216 0-.36-.168-.72-.936-1.272-2.136-1.152.552-2.304.864-1.128.312-2.112.264-.984-.024-1.416-.48-1.224-1.344 2.328-4.8 1.224-1.2 2.184-2.328-.024-1.704.24-3.264.24-1.392.888-2.208.648-.84 1.32-.936.792-.12 1.152.6.384.792-.24 2.376-.6 1.584-2.424 3.768.072 2.712.864 4.872.72-.432 1.272-.888 1.056-.912 1.296-1.536-.024.024-.096.024-.168.072-.336 0-.168-.096-.24-.264-.072-.192 0-.36.096-.168.288-.24.912-.312 1.248.288m-4.08-5.328q-.144.888-.192 1.92.648-.864 1.08-1.632.456-.792.6-1.248.144-.48.192-.864t-.072-.48q-.048-.096-.12-.096h-.048q-.384.072-.816.72-.432.624-.624 1.68m-4.968 9.6q.384.408 1.824.144t2.976-1.008q-.72-1.968-.912-4.32-.744.816-1.608 1.68-.672.624-1.152 1.2-.48.552-.72.936-.24.36-.384.672-.12.312-.096.432.024.144.072.264m-.8928 6.728q.456.24.456.72 0 .456-.648 1.08t-2.568 1.656q-.168.096-.36.048-.168-.072-.264-.24t-.048-.336q.072-.192.24-.288 2.256-1.224 2.688-1.848-.6-.24-3.096.144-2.472.36-6.216 1.512-1.32.408-2.712.888-.528 2.472-2.016 9.336-1.2 5.496-1.824 8.448 2.904-.84 5.376-.792.192 0 .312.144.144.144.144.336t-.144.336q-.144.12-.336.12-2.568-.048-5.568.888-2.448 11.448-2.808 14.664.048-.12.096-.216.072-.192.24-.264.192-.072.36 0 .192.072.264.24.072.192 0 .36-.432 1.008-.72 1.416-.264.432-.576.432-.096 0-.192-.048-.36-.12-.432-.672-.048-.552.192-2.352.312-2.16 1.104-6.24.576-2.88 1.44-6.984-3.504 1.296-6.288 3.6-.12.096-.288.096-.216 0-.36-.168-.12-.144-.096-.336t.168-.312q3.12-2.592 7.104-3.936.624-3 1.92-8.976 1.392-6.384 1.896-8.76-6.888 2.52-11.544 5.64-.12.072-.264.072-.24 0-.384-.192-.096-.168-.072-.336.048-.192.216-.312 4.92-3.312 12.264-5.928.192-.912.312-1.584.048-.192.192-.288.168-.12.36-.072.192.024.288.192.12.144.072.336-.096.48-.192 1.056 1.008-.336 1.944-.624 2.136-.672 4.128-1.128 1.992-.48 3.816-.696t2.424.168m1.4716 19.44q.192-.048.36.048t.192.288q.048.192-.048.36-.672 1.056-1.632 2.208-.936 1.128-2.136 2.04-1.176.912-1.992.912-.288 0-.504-.096-1.608-.696-.336-5.64.048-.192.216-.288t.336-.048q.192.048.288.216t.048.336q-.288 1.152-.432 2.04-.12.864-.12 1.32.024.456.096.768.096.288.144.36.072.048.12.072.624.264 2.256-1.248 1.656-1.512 2.856-3.456.12-.144.288-.192m-5.304-1.872q-.696-.048-.432-.576.24-.432.624-.576.6-.192.72.312.12.48-.36.72-.24.12-.552.12m14.7377-15.096q.504.744-.504 3.528-.984 2.76-3.216 6.312l-.048.048q-1.512 6.048-2.904 12.6-1.368 6.576-1.752 9.36h.048q.192.072.288.24.072.168 0 .36-.144.408-.216.6-.096.216-.264.408t-.36.192q-.072 0-.168-.024-.336-.12-.36-.672-.024-.528.336-2.64.432-2.592 1.296-6.768 1.992-9.504 3.96-16.944.168-.624.36-1.296.192-.696.552-1.728t.696-1.8q.36-.792.792-1.392.432-.624.816-.672.408-.072.648.288m-2.928 6.672q1.92-3.624 2.16-5.688-1.056 1.584-2.16 5.688m9.3203 10.296q.192-.048.36.048t.192.288q.048.192-.048.36-.672 1.056-1.632 2.208-.936 1.128-2.136 2.04-1.176.912-1.992.912-.288 0-.504-.096-1.608-.696-.336-5.64.048-.192.216-.288t.336-.048q.192.048.288.216t.048.336q-.288 1.152-.432 2.04-.12.864-.12 1.32.024.456.096.768.096.288.144.36.072.048.12.072.624.264 2.256-1.248 1.656-1.512 2.856-3.456.12-.144.288-.192m-5.304-1.872q-.696-.048-.432-.576.24-.432.624-.576.6-.192.72.312.12.48-.36.72-.24.12-.552.12m12.9583-1.512q.72.216.96 1.152.24.912-.072 2.136-.576 2.112-2.832 3.912-.936.768-2.064 1.344-.864 3.528-1.92 8.76-1.08 5.256-1.584 8.304-.072.384-.456.384h-.072q-.12-.024-.216-.096t-.144-.192-.024-.24q.624-4.2 2.76-16.224-.288.096-.576.168-.192.072-.36-.024t-.216-.288.048-.36.288-.216q.48-.12.984-.336.168-.84.456-2.496 1.248-7.008 1.272-7.32 0-.192.12-.312.144-.144.312-.144.192-.024.336.12.144.12.168.312 0 .192-1.128 6.528.36-1.008.72-1.824.384-.816.696-1.344.336-.528.672-.888t.6-.528q.264-.192.504-.264.264-.096.432-.072.192 0 .336.048m0 3.048q.216-.936.096-1.512-.096-.576-.36-.648-.024-.024-.072-.024-.144 0-.336.12-.168.096-.456.408-.288.288-.6.768-.288.456-.672 1.272-.36.816-.72 1.872-.24.72-.576 2.016 1.368-.84 2.352-1.944 1.008-1.104 1.344-2.328m13.0022.432q.192-.048.336.072.168.096.192.288t-.072.336q-2.712 3.792-4.944 5.376-.888.624-1.752.624-.672 0-1.176-.36-.288-.216-.504-.576-.24-.36-.408-1.008t-.048-1.704q.096-1.056.528-2.4V85.2q.672-2.184 1.632-3.456t1.728-1.296q.552-.024.72.48.264.696-.624 1.968t-2.616 2.736q-.288.936-.408 1.728t-.096 1.272q.048.456.168.816.144.336.24.48.12.144.24.24.72.528 1.848-.288 2.112-1.488 4.704-5.136.12-.144.312-.168m-4.656-3.12q-.84.528-1.656 2.28 1.392-1.392 1.656-2.28"/>
    </g>
    <path id="wedding_date" fill="#000" d="M30.2284 109.488q.336.144.432.552.12.384-.048 1.512-.144 1.104-.552 2.784-.384 1.68-1.176 4.68-.312 1.248-.504 1.92-.168.648-.384 1.56-.216.888-.336 1.488-.072.384-.48.384-.048 0-.096-.024-.216-.024-.336-.216-.096-.168-.048-.36.264-1.296 1.224-4.992 1.728-6.648 1.8-8.064-.552.672-1.512 2.304-.096.192-.312.24-.192.048-.384-.048-.168-.12-.216-.312t.048-.384q1.2-2.04 1.8-2.616.6-.6 1.08-.408m7.9772 2.808q-.12.792-1.2 1.992-1.056 1.176-2.4 2.232.216.456.696 1.344 1.128 2.136 1.224 2.856.144 1.152-.312 1.992-.456.816-1.416 1.128-.48.168-.984.168-.792 0-1.488-.384-.696-.36-1.056-1.008-.192-.384-.264-.816-.048-.456.048-1.104.12-.672.672-1.512.576-.84 1.56-1.752-.336.12-.552-.192-.096-.192-.072-.384.048-.192.216-.312.24-.144.48-.312-.72-1.608-.84-2.76-.12-.888.264-1.68.408-.792 1.272-1.296.84-.528 1.8-.576.984-.072 1.632.36.96.672.72 2.016m-2.664 8.568q-.072-.552-1.128-2.544l-.192-.384q-1.392 1.224-1.944 2.328t-.144 1.872q.312.528 1.008.768.696.216 1.344 0 1.272-.408 1.056-2.04m-1.368-5.256q1.176-.96 2.064-1.968.912-1.008 1.008-1.512.12-.72-.312-1.032-.312-.216-.84-.216-.792 0-1.536.456-1.224.744-1.08 2.016.12.936.696 2.256m18.4347-7.512q.192-.024.336.096t.144.312q.024.192-.096.336c-2.512 3.056-5.272 6.496-8.2801 10.32-2.1279 2.704-3.8079 4.8-5.0399 6.288q-.144.168-.36.168-.168 0-.288-.096-.144-.144-.168-.336-.024-.168.096-.336 1.848-2.208 5.016-6.24 4.536-5.76 8.328-10.344.12-.144.312-.168m1.7373 1.392q.336.144.432.552.12.384-.048 1.512-.144 1.104-.552 2.784-.384 1.68-1.176 4.68-.312 1.248-.504 1.92-.168.648-.384 1.56-.216.888-.336 1.488-.072.384-.48.384-.048 0-.096-.024-.216-.024-.336-.216-.096-.168-.048-.36.264-1.296 1.224-4.992 1.728-6.648 1.8-8.064-.552.672-1.512 2.304-.096.192-.312.24-.192.048-.384-.048-.168-.12-.216-.312t.048-.384q1.2-2.04 1.8-2.616.6-.6 1.08-.408m5.6492 1.2q1.176.744 1.68 2.208.528 1.44.288 3.36-.216 1.56-.888 3.096-.648 1.512-1.728 2.712-1.08 1.176-2.328 1.536-.264.072-.504.072-.528 0-.888-.36-1.224-1.272.384-6.432.408-1.296.984-2.76.6-1.464 1.488-2.976.912-1.512 1.608-1.632.192-.048.36.072t.216.312q.024.096 0 .192t-.072.192q-.048.072-.144.12-.072.048-.168.072-.12.024-.288.216m.984 5.448q.216-1.656-.192-2.856-.408-1.224-1.368-1.8-.744 1.176-1.56 3.144-.792 1.944-1.296 3.984-.312 1.176-.408 2.088-.096.888-.048 1.344.072.432.24.576.12.12.408.024 1.44-.408 2.664-2.304 1.248-1.92 1.56-4.2m16.192-8.04q.192-.024.336.096t.144.312q.024.192-.096.336c-2.512 3.056-5.272 6.496-8.2801 10.32-2.1279 2.704-3.8079 4.8-5.0399 6.288q-.144.168-.36.168-.168 0-.288-.096-.144-.144-.168-.336-.024-.168.096-.336 1.848-2.208 5.016-6.24 4.536-5.76 8.328-10.344.12-.144.312-.168m.8733 9.888q-.648 1.176-.984 1.8-.312.6-.696 1.464-.36.84-.456 1.416-.024.12-.024.216v.096q.384.096 1.632-.696 1.248-.816 1.872-1.656.12-.168.312-.192.216-.048.384.072t.192.336q.024.192-.096.36-.624.888-1.992 1.824-1.344.936-2.256.936-.264 0-.456-.072-.744-.336-.552-1.392.12-.672.504-1.584t.72-1.536q.36-.648 1.032-1.872.744-1.32 1.128-2.064t.816-1.8q.456-1.08.576-1.872.072-.48-.072-.552-.168-.12-.744.072t-1.2.648q-.168.12-.384.096-.192-.048-.312-.192-.12-.168-.096-.36.048-.216.216-.336.12-.096.288-.216t.552-.312.72-.312q.36-.12.768-.12t.72.168q.696.432.528 1.584-.144.84-.6 1.992t-.864 1.92q-.408.744-1.176 2.136m7.9663-7.296q1.176.744 1.68 2.208.528 1.44.288 3.36-.216 1.56-.888 3.096-.648 1.512-1.728 2.712-1.08 1.176-2.328 1.536-.264.072-.504.072-.528 0-.888-.36-1.224-1.272.384-6.432.408-1.296.984-2.76.6-1.464 1.488-2.976.912-1.512 1.608-1.632.192-.048.36.072t.216.312q.024.096 0 .192t-.072.192q-.048.072-.144.12-.072.048-.168.072-.12.024-.288.216m.984 5.448q.216-1.656-.192-2.856-.408-1.224-1.368-1.8-.744 1.176-1.56 3.144-.792 1.944-1.296 3.984-.312 1.176-.408 2.088-.096.888-.048 1.344.072.432.24.576.12.12.408.024 1.44-.408 2.664-2.304 1.248-1.92 1.56-4.2m4.456 1.848q-.648 1.176-.984 1.8-.312.6-.696 1.464-.36.84-.456 1.416-.024.12-.024.216v.096q.384.096 1.632-.696 1.248-.816 1.872-1.656.12-.168.312-.192.216-.048.384.072t.192.336q.024.192-.096.36-.624.888-1.992 1.824-1.344.936-2.256.936-.264 0-.456-.072-.744-.336-.552-1.392.12-.672.504-1.584t.72-1.536q.36-.648 1.032-1.872.744-1.32 1.128-2.064t.816-1.8q.456-1.08.576-1.872.072-.48-.072-.552-.168-.12-.744.072t-1.2.648q-.168.12-.384.096-.192-.048-.312-.192-.12-.168-.096-.36.048-.216.216-.336.12-.096.288-.216t.552-.312.72-.312q.36-.12.768-.12t.72.168q.696.432.528 1.584-.144.84-.6 1.992t-.864 1.92q-.408.744-1.176 2.136m9.0706.192q.672.432.744 1.368.096.936-.624 2.376-.168.288-.408.6c-.144.192-.3923.416-.7443.672q-.528.384-1.08.456-.12.024-.24.024-.888 0-1.632-.792-1.896-1.992-1.44-5.616.168-1.416.696-2.856.552-1.44 1.32-2.52.744-1.032 1.512-1.44c.528-.272 1.016-.304 1.4643-.096q.192.072.264.264t-.024.384-.288.264c-.1283.048-.2483.04-.3603-.024q-.312-.144-.792.192t-.984 1.032q-.672.984-1.176 2.304t-.648 2.616q-.312 2.376.552 3.936.312-1.248.96-2.112.48-.648 1.032-.984.576-.336 1.032-.288c.32.016.6083.096.8643.24m-.7443 3.264c.176-.304.3043-.592.3843-.864q.144-.408.144-.72t-.072-.528c-.048-.144-.128-.256-.2403-.336q-.288-.168-.744.024-.432.192-.864.768-.72.984-.96 2.568.408.36.864.312.432-.048.816-.408.408-.36.672-.816"/>
    <path id="heart" fill="#e2725b" stroke="#000" d="M120.445 95.0473c2.37 2.716 2.042 6.9127-.789 9.3837-2.883 2.516-6.638 3.216-11.324 2.744-2.198-.221-4.559-.707-6.377-1.141-.907-.217-1.677-.42-2.2182-.568-.2245-.062-.4096-.115-.5494-.155-.0223-.148-.0518-.345-.0849-.584-.0786-.568-.1815-1.371-.2773-2.308-.1918-1.878-.3538-4.2777-.2451-6.408.2188-4.2854 1.3827-8.3542 4.2509-10.8573 2.822-2.4634 7.034-2.2284 9.404.4871 1.653 1.8946 1.982 4.5035 1.078 6.753l-.365.9109.952-.2392c2.351-.5912 4.891.0872 6.545 1.9818Z"/>
  </g>
  <defs>
    <clipPath id="clip0_9_223">
      <path fill="#fff" d="M0 0h128v128H0z"/>
    </clipPath>
    <filter id="filter0_d_9_223" width="97.0119" height="113.256" x="16.2772" y="1.832" color-interpolation-filters="sRGB" filterUnits="userSpaceOnUse">
      <feFlood flood-opacity="0" result="BackgroundImageFix"/>
      <feColorMatrix in="SourceAlpha" result="hardAlpha" values="0 0 0 0 0 0 0 0 0 0 0 0 0 0 0 0 0 0 127 0"/>
      <feOffset dy="4"/>
      <feGaussianBlur stdDeviation="2"/>
      <feComposite in2="hardAlpha" operator="out"/>
      <feColorMatrix values="0 0 0 0 0 0 0 0 0 0 0 0 0 0 0 0 0 0 0.25 0"/>
      <feBlend in2="BackgroundImageFix" result="effect1_dropShadow_9_223"/>
      <feBlend in="SourceGraphic" in2="effect1_dropShadow_9_223" result="shape"/>
    </filter>
  </defs>
</svg>
