<?xml version="1.0" encoding="UTF-8"?>
<svg id="Camada_1" xmlns="http://www.w3.org/2000/svg" viewBox="0 0 1000 1000">
  <defs>
    <style>
      .cls-1 {
        fill: aqua;
      }

      .cls-2 {
        fill: #e6383d;
      }

      .cls-3 {
        fill: #febc92;
      }

      .cls-4 {
        fill: #565b44;
      }

      .cls-5 {
        fill: #fff;
      }

      .cls-6 {
        fill: #69352c;
      }

      .cls-7 {
        fill: #2d1304;
      }

      .cls-8 {
        fill: #f2b185;
      }

      .cls-9 {
        fill: #dc7937;
      }

      .cls-10 {
        fill: #333;
      }

      .cls-11 {
        fill: #999;
      }

      .cls-12 {
        fill: #cdcccc;
      }

      .cls-13 {
        fill: #f0888b;
      }

      .cls-14 {
        fill: #dea5a8;
      }

      .cls-15 {
        fill: #392f2d;
      }
    </style>
  </defs>
  <ellipse class="cls-11" cx="269.07" cy="938.74" rx="149.5" ry="29"/>
  <ellipse class="cls-11" cx="709.07" cy="953.24" rx="198.5" ry="27.5"/>
  <g>
    <path d="M446.53,256.03c.41-.87.14-1.9-.63-2.46l-34.56-25.39c-.47-.34-1.07-.46-1.64-.33-.57.13-1.05.51-1.32,1.03-6.13,11.83-12.51,23.68-19.04,35.36,5.43-28.39,4.6-56.31-2.46-81.07-8.21-28.8-24.26-52.67-47.71-70.98-15.5-12.1-33.7-20.49-53-24.97-1.4-.33-2.82-.64-4.24-.92-27.57-5.55-57.09-3.21-83.93,7.63-.15.06-.29.12-.44.19-1.86.75-3.7,1.56-5.53,2.41-20.08,9.42-38.64,24.78-52.8,43.81-15.71,21.11-25.32,45.89-27.08,69.79-1.75,23.81,3.93,48.15,16,68.76-1.09.21-2.13.52-3.12.94-6.47,2.76-10.44,10.43-9.43,18.24.89,6.89,5.29,13.11,11.49,16.23,5.3,2.66,12.07,2.74,17.86.33,6.27,20.18,19.11,37.94,36.35,50.21,16.99,12.09,38.06,18.88,60.34,19.96-3.97,2.16-7.7,4.72-11.17,7.66-.25-.13-.53-.21-.83-.22l-19.53-.7c-8.82-3.85-17.51-8.25-25.83-13.07-9.22-5.34-18.19-11.32-26.68-17.78l-53.7-54.3c-.76-.77-1.97-.8-2.76-.08l-3.56-4.04c1.01-10.25-2.03-21.7-8.21-30.82-1.32-1.94-3.17-4.36-5.86-5.84-2.38-1.32-5.12-1.62-7.42-.88-2.47-3.15-4.91-6.27-7.34-9.4-2.79-3.58-5.58-7.15-8.42-10.77-1.68-2.13-3.57-4.55-6.32-6.02-3.34-1.79-7.35-1.5-9.75.72-2,1.86-2.82,4.96-2.14,8.08.56,2.54,1.93,4.71,3.13,6.62l8.95,14.22c-2.42-.23-4.95.16-7.49,1.18-7.91,3.16-13.18,13.08-11.75,22.11.68,4.33,2.74,8.75,6.13,13.16,6.7,8.71,16.66,14.99,27.41,17.3,1.33,1.45,2.76,2.73,4.15,3.96,1.39,1.25,2.72,2.43,3.91,3.75l-5.7,5.41c-.76.71-.83,1.89-.18,2.7,17.94,22.16,37.53,43.32,58.22,62.9,18.6,17.6,38.43,34.26,58.99,49.54-4.02,17.61-8.55,35.18-13.53,52.46-9.03,31.32-19.77,62.54-31.94,92.81-.36.89-.03,1.91.79,2.43,4.11,2.62,8.35,5.03,12.7,7.23-3.67,20.76-6.23,41.93-7.63,62.95-1.7,25.62-1.7,51.62,0,77.26,0,.08.02.15.03.23,4.58,25.29,10.66,50.6,18.05,75.22,6.83,22.71,14.93,45.32,24.07,67.19.26.63.82,1.08,1.49,1.2.21.04.42.08.63.11.07,4.5-2.32,9.27-7.3,14.58-.71.75-1.53,1.58-2.41,2.49-7.02,7.14-17.61,17.93-13.28,27.83,1.86,4.25,6.12,7.59,11.4,8.94,2.24.57,4.54.78,6.78.78,2.47,0,4.87-.25,7.07-.55,15.05-2.01,29.96-7.24,43.12-15.14,1.06-.64,2.17-1.29,3.3-1.95,10.59-6.19,23.76-13.89,24.33-27.82.36-8.94-4.71-17.7-12.52-21.95.81-.54,1.62-1.1,2.41-1.67.68-.49.98-1.36.75-2.17l-35.43-123.51c-.7-2.47-.93-5.01-.68-7.57l.42-4.17c1.05-10.67,3.95-39.75,7.69-77.33,2.19.84,4.41,1.59,6.67,2.25,1.81,9.75,3.28,19.78,4.69,29.48,2.89,19.89,5.88,40.45,12.04,59.93,3.82,12.05,8.11,23.34,18.71,29.22,5.6,3.11,12.06,4.23,18.78,4.23,10.09,0,20.78-2.53,30.1-4.74,1.92-.45,3.77-.89,5.53-1.29,9.48-2.13,18.91-4.7,28.21-7.69.04.12.1.24.17.36l12.5,20.12c2.76,4.45,5.89,9.5,10.4,13.12,3.72,2.98,8.09,4.58,12.2,4.58,1.66,0,3.27-.26,4.78-.79,4.95-1.75,8.94-6.42,10.66-12.5,6.33-22.27.11-45.45-6.81-67.28-1.54-4.88-3.14-9.93-5.97-14.47-3.27-5.26-7.78-8.9-12.69-10.24-5.09-1.39-10.63-.02-14.09,3.29-.67-1.2-1.38-2.37-2.11-3.52-.47-.73-1.35-1.08-2.19-.87l-39.91,10.21-1.49-78.9c3.1-.38,6.18-.84,9.25-1.4.93-.17,1.62-.96,1.65-1.91,1-31.5,2.68-63.44,4.99-94.91,2.33-31.56,5.35-63.49,9-94.92.04-.38-.03-.78-.2-1.12l-1.69-3.38c14.87-21.05,29.18-42.76,42.6-64.68,22.9-37.38,43.94-76.48,62.55-116.22ZM116.14,210.42c3.47-47.24,38.52-94.67,83.35-112.78,17.07-6.89,35.24-10.25,53.26-10.25,30.42,0,60.42,9.58,83.96,27.96,43.99,34.33,61.37,90.13,47.69,153.07-3.42-1.14-7.11-1.35-10.56-.56-1.32.3-2.6.75-3.82,1.35-.2-.78-.39-1.56-.59-2.35-2.72-10.81-5.5-22.26-8.01-33.9-3.52-16.33-8.47-28.3-15.58-37.66-15.33-20.19-40.14-18.39-57.47-15.27-5.67,1.01-11.23,2.29-16.61,3.52-16.17,3.71-31.45,7.21-48.07,3.76-3.05-.63-6.34-1.45-9.84-2.32-18.84-4.67-42.29-10.48-54.99,5.8-10.8,13.84-11.66,26.53-12.76,42.59l-3.33,48.94c-.69-.61-1.47-1.15-2.33-1.63-2.3-1.29-5.05-2-7.81-2.13-.05-.06-.08-.12-.12-.18-12.29-20.22-18.1-44.36-16.37-67.96ZM183.62,361.58c-17.14-12.21-29.75-30.08-35.5-50.32-.17-.59-.6-1.07-1.16-1.31-.25-.1-.51-.15-.77-.15-.34,0-.67.09-.97.26-5.08,2.84-11.49,3.1-16.33.66-4.95-2.49-8.62-7.66-9.33-13.16-.77-5.97,2.26-12.01,7.04-14.05,1.19-.51,2.52-.82,3.9-.93,2.12-.17,4.33.11,6.28.82.6.22,1.17.48,1.71.78.09.05.19.11.28.16h0c1.34.81,2.86,2.14,3.42,4.21.06.22.11.45.15.69.15,1.01,1.03,1.73,2.05,1.7,1.02-.04,1.85-.84,1.92-1.86l.1-1.44.29-4.33,3.39-49.65c1.08-15.99,1.87-27.54,11.91-40.41,11.11-14.23,33.16-8.76,50.88-4.37,3.53.87,6.86,1.7,9.99,2.35,17.47,3.63,33.16.03,49.77-3.78,5.34-1.22,10.85-2.49,16.42-3.49,25.9-4.65,42.93-.28,53.59,13.76,6.74,8.88,11.46,20.34,14.85,36.09,2.36,10.99,4.98,21.8,7.55,32.08.36,1.45.73,2.9,1.09,4.34.22.87.44,1.73.66,2.59.16.65.64,1.17,1.27,1.39.62.23,1.32.12,1.86-.28,1.19-.88,2.54-1.53,3.96-1.95,3.4-.99,7.26-.68,10.61.79.48.2.95.43,1.41.69.71.39,1.39.84,2.03,1.34.88.7,1.68,1.5,2.38,2.41,4.59,5.98,4.24,15.45-.82,21.56-4.2,5.08-11.57,7.31-19.22,5.96-.74-.12-1.49-.28-2.23-.48-1.04-.27-2.12.33-2.43,1.37-4.01,13.57-12.9,26.19-24.19,37-14.71,14.1-33.5,25.14-50.95,31.23-.07.02-.13.04-.19.07-2.19.75-4.34,1.43-6.47,2.03-35.91,10.1-73.37,4.73-100.21-14.37ZM302.66,430.02l7.18,13.82c-7.8,7.88-16.7,14.46-26.49,19.59-6.25,3.27-12.81,5.92-19.59,7.91,4.38-6.52,8.13-13.45,11.73-20.23.3-.56.59-1.11.88-1.66.98-1.86,1.97-3.71,2.96-5.55,6.13-11.37,10.79-22.01,14.25-32.53.31-.94.68-1.93,1.05-2.94,2.29-6.26,5.14-14.04-.87-20.14-.2-.2-.43-.35-.68-.44v-.66c.06.01.13.01.19.01l8.29.04h.07c.77,1.08,1.53,2.18,2.26,3.29,2.85,4.32,5.39,8.85,7.58,13.52,2.16,4.61,4,9.42,5.47,14.3l-13.61,9.08c-.85.57-1.14,1.68-.67,2.59ZM290.87,407.05c-.39,1.06-.76,2.09-1.09,3.07-3.38,10.29-7.96,20.72-13.97,31.88-.55,1.02-1.1,2.04-1.63,3.06l-2.67-8.44,6.59-8.16c.53-.67.59-1.61.13-2.33l-8-12.62c4.46-2.01,8.6-4.61,12.34-7.78,2.98-2.52,5.67-5.37,8.01-8.48.76-1.01,1.49-2.05,2.18-3.12.01-.02.03-.05.04-.07.19-.32.28-.66.28-1.01v1.93c.87,3.66-.69,7.92-2.21,12.07ZM268.32,434.2h-7.72l-3.62-8.54,9.94-9.89,7.16,11.29-5.76,7.14ZM289.08,392.44c-2.54,3.83-5.6,7.27-9.09,10.23-3.97,3.37-8.43,6.05-13.27,7.99l-18.81-16.12c.55-3.1,1.22-6.19,2.03-9.27.02-.11.05-.23.08-.34.26,0,.53-.01.79-.02,11.28-.24,22.77-1.92,34.1-5.11,1.38-.39,2.77-.81,4.17-1.26v13.9ZM263.7,413.34l-10.5,10.44c-.58.58-.75,1.45-.43,2.2l4.29,10.11-6.59,12.13c-1.4-5.01-2.46-10.12-3.21-15.3-1.61-11.26-1.64-22.55-.08-33.74l16.52,14.16ZM260.47,438.2h7.34l3.74,11.8c-3.75,7.04-7.66,14.2-12.27,20.78-2.84-5.56-5.23-11.3-7.17-17.19l8.36-15.39ZM304.27,384.06c-.37-.51-.97-.82-1.61-.82l-9.37-.04h0c-.07,0-.14,0-.2.01v-6.03c13.44-4.81,27.34-12.24,39.67-21.65-.78,1.15-1.56,2.29-2.35,3.43-.43.62-.93,1.21-1.48,1.75l-24.42,23.68c-.07-.11-.15-.22-.23-.33ZM230.65,397.66c4.39-4.13,9.3-7.57,14.64-10.27-.58,2.52-1.09,5.05-1.51,7.59-2.16,12.74-2.32,25.65-.48,38.5.99,6.95,2.56,13.78,4.71,20.42,2.04,6.4,4.62,12.64,7.7,18.67-8.46-4.47-16.2-10.12-23.03-16.8-5.68-5.55-10.69-11.79-14.9-18.55l10.96-11.65c.39-.41.58-.97.53-1.54-.05-.57-.34-1.09-.79-1.43l-10.66-7.99c3.29-6.35,7.61-12.05,12.83-16.95ZM75.31,322.9c-1.53-1.35-2.96-2.63-4.25-4.11-.29-.33-.68-.56-1.12-.64-10.06-2.01-19.42-7.82-25.68-15.96-2.97-3.87-4.78-7.69-5.35-11.34-1.01-6.39,2.48-15.06,9.28-17.78,3.44-1.37,6.67-1.27,9.59.3.79.43,1.78.27,2.41-.4.62-.66.71-1.66.23-2.43l-11.78-18.71c-1.08-1.72-2.2-3.49-2.61-5.35-.38-1.72,0-3.4.95-4.28,1.3-1.2,3.57-.98,5.14-.13,2.01,1.07,3.56,3.05,5.06,4.96,2.84,3.61,5.63,7.19,8.42,10.76,2.75,3.53,5.5,7.07,8.31,10.64.63.81,1.77,1,2.64.46,1.5-.95,3.6-.57,5.03.22,1.94,1.07,3.41,3.01,4.48,4.59,5.84,8.61,8.62,19.44,7.45,28.99-.07.56.11,1.13.49,1.56l4.24,4.81-18.77,17.82c-1.34-1.46-2.77-2.74-4.16-3.98ZM146.76,595.4c11.96-29.91,22.53-60.73,31.44-91.65,4.9-16.99,9.36-34.26,13.34-51.57.28-1.22.56-2.44.84-3.66,1.34-5.98,2.63-11.95,3.86-17.92.22-1.08-.48-2.14-1.56-2.36-1.09-.22-2.14.48-2.36,1.56-1.1,5.37-2.26,10.74-3.46,16.11-19.93-14.9-39.16-31.08-57.21-48.16-20.11-19.04-39.18-39.58-56.69-61.08l27.48-26.08,52.42,53.02c.06.06.13.13.21.18,8.65,6.59,17.8,12.69,27.21,18.14,8.56,4.96,17.5,9.48,26.58,13.43.23.09.47.15.72.16l16.89.61c-5.32,5.3-9.68,11.41-12.99,18.2-.42.86-.17,1.9.6,2.47l10.21,7.66-10.47,11.13c-.61.65-.72,1.64-.26,2.4,4.55,7.55,10.04,14.5,16.32,20.64,7.52,7.37,16.13,13.53,25.55,18.31l-24.04,111.52-9.43,15.73c-.04.05-.07.11-.1.17l-5.98,9.96c-1.04,1.73-2.99,2.72-5,2.54-11.91-1.09-23.67-3.63-34.94-7.55-5.73-1.99-11.34-4.34-16.78-7.02-.1-.06-.21-.11-.32-.16-4.13-2.06-8.16-4.31-12.08-6.73ZM233.74,603.31h-6.59l5.09-8.49,1.5,8.49ZM261.56,898.27c-.48,11.75-12.1,18.54-22.34,24.53-1.15.67-2.28,1.33-3.35,1.98-12.7,7.62-27.08,12.67-41.59,14.61-3.82.51-8.27.89-12.34-.15-4.09-1.04-7.35-3.53-8.72-6.66-3.24-7.43,6.59-17.45,12.47-23.43.91-.93,1.75-1.78,2.47-2.55,5.51-5.87,8.27-11.34,8.39-16.72,3.44.44,6.92.65,10.39.65,6.69,0,13.37-.8,19.82-2.39,7.92-1.95,15.43-5.03,22.39-9.19.14.13.31.24.5.32,7.23,3.14,12.23,11.13,11.91,19ZM377.11,708.21c3.94,1.08,7.62,4.1,10.36,8.5,2.56,4.12,4.08,8.93,5.55,13.57,7.01,22.13,12.81,43.76,6.78,64.97-1.38,4.84-4.42,8.51-8.15,9.82-4.73,1.68-9.89-.52-13.15-3.13-3.97-3.19-6.79-7.73-9.51-12.11l-12.19-19.64c4.78-1.6,9.52-3.31,14.2-5.12.62-.24,1.08-.77,1.23-1.42,2.25-9.82,2.6-19.83,1.02-29.76-1.23-7.76-3.68-15.4-7.19-22.49,2.3-2.99,6.85-4.33,11.05-3.19ZM320.28,735.16l-.33-17.58,39.41-10.08c5.01,8.23,8.44,17.54,9.94,27.01,1.44,9.08,1.19,18.22-.74,27.21-14.54,5.58-29.57,10.13-44.72,13.53-1.78.4-3.64.84-5.57,1.3-14.87,3.52-33.38,7.91-46.02.9-9.31-5.16-13.27-15.68-16.83-26.92-6.07-19.18-9.03-39.58-11.91-59.31-1.34-9.25-2.73-18.79-4.43-28.14,1.64-.62,1.79-3.37-.36-3.83-.42-.08-.85-.16-1.27-.25-.29-.06-.58-.12-.88-.19-8.62-1.86-17-5.07-24.75-9.49-1.16-.64-2.16,1.02-1.08,1.76,4.32,2.86,8.89,5.35,13.67,7.43-.07.15-.1.32-.12.49-3.78,37.9-6.7,67.28-7.77,78l-.41,4.18c-.3,3.06-.03,6.11.82,9.06l35.04,122.15c-7.96,5.56-16.76,9.55-26.17,11.87-10.4,2.57-21.48,2.97-32.1,1.16-8.92-21.43-16.82-43.56-23.51-65.79-7.34-24.44-13.37-49.56-17.92-74.67-1.68-25.44-1.68-51.22,0-76.63,1.36-20.48,3.85-41.11,7.38-61.37,4.88,2.31,9.88,4.36,14.97,6.13,11.58,4.03,23.66,6.64,35.9,7.76.28.02.55.03.83.03,3.22,0,6.28-1.71,7.96-4.5l5.44-9.07h9.69l2.12,12c.6,3.37,2.97,6.16,6.2,7.27,13.04,4.51,26.61,7.41,40.34,8.61,4.89.43,9.79.65,14.69.65,5.54,0,11.08-.28,16.6-.83l1.5,79.76.06,2.92.33,17.55c.02,1.09.91,1.96,2,1.96h.04c1.1-.02,1.98-.93,1.96-2.04ZM339.34,432.86l-3.27-6.55c-.5-.99-1.69-1.39-2.69-.9-.98.5-1.38,1.7-.89,2.69l4.23,8.47c-1.63,2.31-3.28,4.61-4.93,6.9-.64.9-.44,2.15.45,2.79.36.26.77.38,1.17.38.62,0,1.24-.29,1.63-.83,1.24-1.72,2.48-3.45,3.71-5.18l.47.93c-3.62,31.29-6.62,63.08-8.94,94.49-2.28,31-3.94,62.43-4.95,93.46-3.06.52-6.14.95-9.22,1.3-10.83,1.21-21.78,1.35-32.66.4-13.4-1.18-26.65-4-39.38-8.41-1.86-.64-3.23-2.25-3.57-4.19l-2.42-13.7-2.76-15.69,24.27-112.63c8.91-2.14,17.52-5.37,25.62-9.62,10.59-5.54,20.18-12.74,28.51-21.38.59-.62.73-1.55.33-2.31l-7.01-13.51,13.35-8.9c.72-.49,1.05-1.38.81-2.22-1.6-5.57-3.65-11.05-6.11-16.3-2.37-5.06-5.14-9.97-8.28-14.63l24.89-24.14c.74-.72,1.41-1.51,1.99-2.36,3.51-5.1,6.98-10.23,10.42-15.4,11.31-10.82,20.3-23.47,24.8-37.26,9.29,1.85,18.43-.9,23.68-7.24,6.2-7.49,6.6-19.15.91-26.55-1.03-1.34-2.23-2.5-3.55-3.48,7.19-12.68,14.19-25.58,20.91-38.5l31.35,23.03c-18.37,39.1-39.1,77.56-61.64,114.34-13.01,21.23-26.84,42.27-41.23,62.7Z"/>
    <path class="cls-4" d="M442.21,255.82c-18.37,39.1-39.1,77.56-61.64,114.34-13.01,21.23-26.84,42.27-41.23,62.7l-3.27-6.55c-.5-.99-1.69-1.39-2.69-.9-.98.5-1.38,1.7-.89,2.69l4.23,8.47c-1.63,2.31-3.28,4.61-4.93,6.9-.64.9-.44,2.15.45,2.79.36.26.77.38,1.17.38.62,0,1.24-.29,1.63-.83,1.24-1.72,2.48-3.45,3.71-5.18l.47.93c-3.62,31.29-6.62,63.08-8.94,94.49-2.28,31-3.94,62.43-4.95,93.46-3.06.52-6.14.95-9.22,1.3-10.83,1.21-21.78,1.35-32.66.4-13.4-1.18-26.65-4-39.38-8.41-1.86-.64-3.23-2.25-3.57-4.19l-2.42-13.7-2.76-15.69,24.27-112.63c8.91-2.14,17.52-5.37,25.62-9.62,10.59-5.54,20.18-12.74,28.51-21.38.59-.62.73-1.55.33-2.31l-7.01-13.51,13.35-8.9c.72-.49,1.05-1.38.81-2.22-1.6-5.57-3.65-11.05-6.11-16.3-2.37-5.06-5.14-9.97-8.28-14.63l24.89-24.14c.74-.72,1.41-1.51,1.99-2.36,3.51-5.1,6.98-10.23,10.42-15.4,11.31-10.82,20.3-23.47,24.8-37.26,9.29,1.85,18.43-.9,23.68-7.24,6.2-7.49,6.6-19.15.91-26.55-1.03-1.34-2.23-2.5-3.55-3.48,7.19-12.68,14.19-25.58,20.91-38.5l31.35,23.03Z"/>
    <g>
      <g>
        <path d="M513.75,153.35s-.01,0-.02,0c-5-5.19-10.43-9.85-16.18-13.92-1.2-.85-2.41-1.68-3.64-2.48-7-4.57-14.41-8.29-22.03-11.08-.95-.34-1.91-.68-2.87-.99-10.18-3.39-20.7-5.1-31.11-4.94-7.93.13-18.81,2.58-25.14,8.96-.42.43-.83.88-1.21,1.34.09,1.05.18,2.09.27,3.14,5.53,4.27,13.95,6.07,20.86,4.36,1.2,4.36,4.6,8.24,9.19,10.27,5.59,2.47,11.54,1.87,15.56.94l1.3-.31c3.85-.88,7.81-1.8,11.59-3.4,10.83,11.18,27.76,16.1,42.09,12.2.97.86,2.03,1.6,3.16,2.21.49-.91.97-1.83,1.45-2.75-1.07-1.2-2.16-2.38-3.27-3.54ZM520.94,155.29c-6.66-7.68-14.19-14.4-22.31-19.99-1.1-.77-2.21-1.51-3.33-2.23-6.96-4.46-14.3-8.11-21.85-10.89-1.27-.47-2.54-.91-3.82-1.32-10.4-3.38-21.14-5.09-31.8-4.92-9.24.13-22.19,3.26-29.17,11.52-.26.31-.52.63-.76.95-.3.39-.44.93-.4,1.42.04.51.09,1.02.13,1.53,1.79,20.85,3.61,42.36,4.69,63.56.27,5.47.47,11.03.66,16.41.3,8.15.6,16.57,1.17,24.85.1,1.42.15,3.11.2,4.9.27,9.93.65,23.53,10.24,27.68,2.05.89,4.31,1.32,6.67,1.32,3.61,0,7.42-1.02,10.96-3.03,5.2-2.94,9.28-7.49,12.68-11.52,7.27-8.6,13.6-17.97,19.72-27.03,4.57-6.75,9.29-13.74,14.34-20.31,11.36-14.78,21.54-30.58,30.31-47.01.65-1.21,1.29-2.43,1.92-3.65,0,0,0-.01,0-.01.38-.73.27-1.61-.26-2.23ZM485.78,205.76c-5.12,6.66-9.87,13.7-14.47,20.5-6.06,8.97-12.33,18.25-19.46,26.68-3.19,3.77-6.97,8.01-11.6,10.63-4.77,2.7-10.03,3.27-14.07,1.52-7.25-3.14-7.59-15.26-7.83-24.12-.05-1.83-.1-3.56-.2-5.07-.58-8.21-.88-16.6-1.17-24.71-.19-5.4-.39-10.98-.67-16.47-1.04-20.47-2.77-41.2-4.49-61.35,5.53,4.27,13.95,6.07,20.86,4.36,1.2,4.36,4.6,8.24,9.19,10.27,5.59,2.47,11.54,1.87,15.56.94l1.3-.31c3.85-.88,7.81-1.8,11.59-3.4,10.83,11.18,27.76,16.1,42.09,12.2.97.86,2.03,1.6,3.16,2.21-8.63,16.12-18.64,31.61-29.79,46.12Z"/>
        <path class="cls-13" d="M515.57,159.64c-8.63,16.12-18.64,31.61-29.79,46.12-5.12,6.66-9.87,13.7-14.47,20.5-6.06,8.97-12.33,18.25-19.46,26.68-3.19,3.77-6.97,8.01-11.6,10.63-4.77,2.7-10.03,3.27-14.07,1.52-7.25-3.14-7.59-15.26-7.83-24.12-.05-1.83-.1-3.56-.2-5.07-.58-8.21-.88-16.6-1.17-24.71-.19-5.4-.39-10.98-.67-16.47-1.04-20.47-2.77-41.2-4.49-61.35,5.53,4.27,13.95,6.07,20.86,4.36,1.2,4.36,4.6,8.24,9.19,10.27,5.59,2.47,11.54,1.87,15.56.94l1.3-.31c3.85-.88,7.81-1.8,11.59-3.4,10.83,11.18,27.76,16.1,42.09,12.2.97.86,2.03,1.6,3.16,2.21Z"/>
      </g>
      <path d="M551,122.62c3.17-4.6,3.85-10.93,1.57-16.04-2.12-4.74-5.92-7.69-10.88-8.51,2.31-6.09,2.2-13.01-.38-19.02-2.32-5.39-6.44-9.53-11.31-11.37-4.3-1.63-9.94-2.28-14.21.1-2.26-4.27-6.1-7.66-10.67-9.29-5.11-1.84-10.23-1.71-14.61.31-5.48-6.44-14.62-9.4-22.84-7.24-7.91,2.08-14.24,8.31-16.28,15.68-5.23-2.74-11.94-2.65-16.99.46-5.3,3.27-8.58,9.28-8.53,15.11-2.57-.28-5.27.22-7.76,1.48-3.49,1.78-6.03,4.8-6.95,8.28-1.12,4.25-.07,8.44,1.77,12.36-3.63-1.05-7.59-.89-10.51.77-5.27,3-7.87,9.85-5.91,15.6,1.58,4.63,6.09,9.13,11.12,10.06.7.14,1.42.2,2.13.18.63.66,1.32,1.27,2.06,1.83,5.53,4.27,13.95,6.07,20.86,4.36,1.2,4.36,4.6,8.24,9.19,10.27,5.59,2.47,11.54,1.87,15.56.94l1.3-.31c3.85-.88,7.81-1.8,11.59-3.4,10.83,11.18,27.76,16.1,42.09,12.2.97.86,2.03,1.6,3.16,2.21,1.17.66,2.41,1.17,3.7,1.54,1.64.49,3.36.73,5.08.73,1.97,0,3.95-.32,5.84-.99,5.96-2.14,10.15-6.92,11.26-12.73,5.43-.72,10.44-4.61,12.3-9.78,1.93-5.35.73-11.78-2.75-15.79ZM549.98,137.06c-1.51,4.19-5.83,7.23-10.29,7.24-1.03.01-1.9.8-1.99,1.84-.42,4.99-3.81,9.21-8.86,11.01-2.43.87-5.11.96-7.65.38-2.57-.59-4.98-1.87-6.8-3.74-.18-.19-.4-.34-.64-.44t-.02,0c-.24-.1-.5-.16-.77-.16-.2,0-.4.03-.59.09-13.56,4.19-30.04-.66-40.08-11.79-.59-.65-1.54-.85-2.34-.46-3.79,1.8-7.83,2.73-12.12,3.72l-1.31.3c-3.42.8-8.45,1.32-13.03-.7-4.04-1.79-6.95-5.54-7.25-9.35-.05-.63-.4-1.2-.93-1.54-.54-.33-1.2-.4-1.79-.17-6.56,2.56-15.98.49-20.76-4.39-.22-.23-.44-.47-.64-.71-.44-.53-1.13-.79-1.81-.7-.54.08-1.1.07-1.65-.02-3.56-.52-7.2-4.06-8.36-7.45-1.34-3.93.5-8.79,4.1-10.84,3.42-1.94,9.76-.57,12.57,2.71.68.81,1.87.94,2.72.31.84-.63,1.05-1.81.48-2.69-3.36-5.18-6.52-10.68-5.14-15.91.63-2.38,2.41-4.47,4.89-5.73,2.48-1.26,5.22-1.47,7.52-.58.69.27,1.46.14,2.03-.35.56-.48.81-1.23.65-1.95-1.11-4.98,1.63-10.95,6.38-13.87,4.55-2.81,10.87-2.4,15.02.98.57.47,1.34.58,2.02.3.68-.28,1.15-.9,1.23-1.63.76-7.07,6.49-13.37,13.92-15.33,7.1-1.87,15.37,1.11,19.65,7.08.6.84,1.75,1.08,2.64.55,3.66-2.17,8.21-2.45,12.79-.81,4.29,1.54,7.77,5.01,9.32,9.28.23.64.77,1.12,1.43,1.27.67.15,1.36-.04,1.85-.51,3-2.92,8.45-2.3,12.21-.87,3.86,1.46,7.16,4.82,9.05,9.21,2.47,5.74,2.2,12.74-.69,18.28-.32.62-.29,1.36.07,1.96.36.6,1.01.96,1.71.96h.01c4.8,0,8.32,2.21,10.18,6.38,1.92,4.3,1.07,9.74-2.08,13.24-.36.41-.54.94-.5,1.48s.3,1.05.71,1.39c3.25,2.71,4.54,8.3,2.94,12.74Z"/>
      <path class="cls-2" d="M549.98,137.06c-1.51,4.19-5.83,7.23-10.29,7.24-1.03.01-1.9.8-1.99,1.84-.42,4.99-3.81,9.21-8.86,11.01-4.89,1.75-10.83.36-14.45-3.36-.38-.39-.9-.61-1.43-.61-.2,0-.4.03-.59.09-13.56,4.19-30.04-.66-40.08-11.79-.59-.65-1.54-.85-2.34-.46-3.79,1.8-7.83,2.73-12.12,3.72l-1.31.3c-3.42.8-8.45,1.32-13.03-.7-4.04-1.79-6.95-5.54-7.25-9.35-.05-.63-.4-1.2-.93-1.54-.54-.33-1.2-.4-1.79-.17-6.87,2.68-16.87.29-21.4-5.1-.44-.53-1.13-.79-1.81-.7-4.01.57-8.67-3.55-10.01-7.47-1.34-3.93.5-8.79,4.1-10.84,3.42-1.94,9.76-.57,12.57,2.71.68.81,1.87.94,2.72.31.84-.63,1.05-1.81.48-2.69-3.36-5.18-6.52-10.68-5.14-15.91.63-2.38,2.41-4.47,4.89-5.73,2.48-1.26,5.22-1.47,7.52-.58.69.27,1.46.14,2.03-.35.56-.48.81-1.23.65-1.95-1.11-4.98,1.63-10.95,6.38-13.87,4.55-2.81,10.87-2.4,15.02.98.57.47,1.34.58,2.02.3.68-.28,1.15-.9,1.23-1.63.76-7.07,6.49-13.37,13.92-15.33,7.1-1.87,15.37,1.11,19.65,7.08.6.84,1.75,1.08,2.64.55,3.66-2.17,8.21-2.45,12.79-.81,4.29,1.54,7.77,5.01,9.32,9.28.23.64.77,1.12,1.43,1.27.67.15,1.36-.04,1.85-.51,3-2.92,8.45-2.3,12.21-.87,3.86,1.46,7.16,4.82,9.05,9.21,2.47,5.74,2.2,12.74-.69,18.28-.32.62-.29,1.36.07,1.96.36.6,1.01.96,1.71.96h.01c4.8,0,8.32,2.21,10.18,6.38,1.92,4.3,1.07,9.74-2.08,13.24-.36.41-.54.94-.5,1.48s.3,1.05.71,1.39c3.25,2.71,4.54,8.3,2.94,12.74Z"/>
      <path d="M470.88,126.14c-.18,0-.37-.03-.55-.08-1.06-.31-1.67-1.41-1.37-2.47,1.37-4.75,1.62-8.43.78-11.56-.99-3.7-3.84-6.59-6.95-7.04-1.62-.23-3.45.39-4.77,1.63-.58.55-1.52,1.67-1.5,3.18,0,.11.01.22.02.33.04,1.09-.79,2.01-1.88,2.07-1.09.07-2.02-.75-2.11-1.83,0-.12-.02-.24-.02-.36-.16-1.95-1.21-3.87-2.91-5.29-1.78-1.49-3.97-2.17-6-1.88-2.03.29-3.93,1.56-5.22,3.49-1.29,1.93-1.75,4.17-1.25,6.16.27,1.07-.38,2.16-1.45,2.43-1.07.27-2.16-.38-2.43-1.45-.78-3.08-.12-6.5,1.8-9.37,1.92-2.87,4.83-4.77,7.98-5.23,3.14-.45,6.47.56,9.13,2.77.97.81,1.79,1.73,2.46,2.73.2-.23.41-.45.64-.66,2.18-2.06,5.27-3.09,8.08-2.69,4.72.68,8.84,4.68,10.25,9.97,1.03,3.86.77,8.22-.8,13.7-.25.88-1.05,1.45-1.92,1.45Z"/>
      <path d="M452.82,90.2c-.92,0-1.76-.65-1.96-1.59-1.06-5,1.82-10.43,6.54-12.36,3.56-1.46,7.75-.77,10.79,1.49.69-1.22,1.67-2.31,2.88-3.2,2.34-1.69,5.16-2.31,7.75-1.69,2.58.62,4.81,2.46,6.12,5.04,1.31,2.58,1.47,5.46.45,7.91-.42,1.02-1.59,1.5-2.62,1.08-1.02-.42-1.5-1.6-1.08-2.62.56-1.35.44-3.06-.32-4.56s-2.07-2.61-3.49-2.96c-1.42-.34-3.09.04-4.46,1.04-1.37.99-2.25,2.46-2.37,3.92-.07.86-.68,1.57-1.51,1.78-.83.21-1.71-.14-2.17-.86-1.72-2.68-5.51-3.88-8.45-2.67-2.94,1.21-4.8,4.72-4.14,7.83.23,1.08-.46,2.14-1.54,2.37-.14.03-.28.04-.42.04Z"/>
      <path d="M497.29,112.28c-.87,0-1.67-.57-1.92-1.45-1.59-5.51,1.38-11.91,6.62-14.26,2.53-1.13,5.32-1.26,8.53-.38,1.88.51,3.02,1.44,3.96,2.53.86-1.06,1.94-2.05,3.64-2.55,2.33-.68,5.18-.52,7.65.44,4.22,1.64,7.33,5.6,7.92,10.09.15,1.1-.62,2.1-1.72,2.25-1.09.15-2.1-.62-2.25-1.72-.4-3.02-2.57-5.78-5.41-6.88-1.64-.64-3.58-.77-5.07-.33-.98.29-1.51.97-2.42,2.26-.23.32-.46.65-.71.97-.38.49-.96.79-1.58.79h0c-.62,0-1.2-.29-1.58-.78-.19-.25-.37-.48-.54-.71-1.13-1.51-1.65-2.13-2.94-2.49-2.28-.62-4.19-.57-5.84.17-3.43,1.54-5.45,5.89-4.41,9.51.31,1.06-.31,2.17-1.37,2.48-.18.05-.37.08-.55.08Z"/>
      <path d="M495.77,140.5h-.03c-1.1-.01-1.99-.92-1.98-2.02.06-4.74,3.39-9.21,7.91-10.63,3.73-1.17,7.97-.17,10.89,2.38,2.57-2.25,6.38-3.05,9.6-1.8,4.02,1.57,6.56,6.12,5.76,10.37-.2,1.08-1.24,1.8-2.33,1.6-1.09-.2-1.8-1.25-1.6-2.33.45-2.38-1.03-5.03-3.28-5.91-2.26-.88-5.13.08-6.41,2.13-.35.57-.97.92-1.63.94-.68,0-1.3-.29-1.69-.84-1.75-2.45-5.23-3.62-8.11-2.72-2.87.9-5.07,3.85-5.11,6.86-.01,1.1-.91,1.98-2,1.98Z"/>
    </g>
    <path class="cls-9" d="M866.8,429.25c-.69.8-.63,2.01.13,2.74,10.27,9.87,15.71,25.13,14.55,40.8-2.03,27.56-27.21,50.77-51.53,57.59,13.65-17.28,17.21-42.16,8.42-62.65-.4-.94-1.45-1.43-2.42-1.13-.98.3-1.57,1.29-1.38,2.29,3.38,17.79-2.61,36.98-15.63,50.1-18.73,18.85-52.8,26.39-81.02,17.92-.38-.12-.78-.12-1.16,0-31.97,9.84-66.91,12.54-101.05,7.81-29.46-4.08-59.96-9.92-80.79-32.07-18.59-19.77-26.86-47-21.97-71.76.21-.98.42-1.96.64-2.93.24-1.07-.43-2.14-1.5-2.39-1.07-.24-2.14.41-2.4,1.48-.24,1.03-.47,2.05-.67,3.09-5.12,23.95-7.78,50.37,5.07,72.33-10.15-7.91-17.95-17.67-22.03-27.79-11.95-29.64-.12-63.08,9.82-85.66,6.9-15.69,10.94-29.24,13.1-43.94,2.52-17.16,2.26-34.65,2-51.58-.27-18.23-.56-37.07,2.68-55.28,4.89-27.4,17.01-52.9,35.06-73.74,22.58-26.07,52.71-42.87,84.83-47.3,36.62-5.04,75.27,6.37,106.06,31.3,32.94,26.69,53.6,66.37,56.67,108.87,1.66,22.89,3.89,47.16,11.2,70.11,7.81,24.54,20.44,41.08,38.3,59.81,23.31,24.46,31.43,49.47,24.68,76.18-3.2-17.43-12.86-33.59-26.92-44.48-.84-.65-2.04-.53-2.74.28Z"/>
    <path class="cls-7" d="M261.56,898.27c-.48,11.75-12.1,18.54-22.34,24.53-1.15.67-2.28,1.33-3.35,1.98-12.7,7.62-27.08,12.67-41.59,14.61-3.82.51-8.27.89-12.34-.15-4.09-1.04-7.35-3.53-8.72-6.66-3.24-7.43,6.59-17.45,12.47-23.43.91-.93,1.75-1.78,2.47-2.55,5.51-5.87,8.27-11.34,8.39-16.72,3.44.44,6.92.65,10.39.65,6.69,0,13.37-.8,19.82-2.39,7.92-1.95,15.43-5.03,22.39-9.19.14.13.31.24.5.32,7.23,3.14,12.23,11.13,11.91,19Z"/>
    <path class="cls-7" d="M399.8,795.25c-1.38,4.84-4.42,8.51-8.15,9.82-4.73,1.68-9.89-.52-13.15-3.13-3.97-3.19-6.79-7.73-9.51-12.11l-12.19-19.64c4.78-1.6,9.52-3.31,14.2-5.12.62-.24,1.08-.77,1.23-1.42,2.25-9.82,2.6-19.83,1.02-29.76-1.23-7.76-3.68-15.4-7.19-22.49,2.3-2.99,6.85-4.33,11.05-3.19,3.94,1.08,7.62,4.1,10.36,8.5,2.56,4.12,4.08,8.93,5.55,13.57,7.01,22.13,12.81,43.76,6.78,64.97Z"/>
    <path class="cls-4" d="M368.56,761.72c-14.54,5.58-29.57,10.13-44.72,13.53-1.78.4-3.64.84-5.57,1.3-14.87,3.52-33.38,7.91-46.02.9-9.31-5.16-13.27-15.68-16.83-26.92-6.07-19.18-9.03-39.58-11.91-59.31-1.34-9.25-2.73-18.79-4.43-28.14,1.64-.62,1.79-3.37-.36-3.83-.42-.08-.85-.16-1.27-.25-.27-.14-.57-.2-.88-.19-8.62-1.86-17-5.07-24.75-9.49-1.16-.64-2.16,1.02-1.08,1.76,4.32,2.86,8.89,5.35,13.67,7.43-.07.15-.1.32-.12.49-3.78,37.9-6.7,67.28-7.77,78l-.41,4.18c-.3,3.06-.03,6.11.82,9.06l35.04,122.15c-7.96,5.56-16.76,9.55-26.17,11.87-10.4,2.57-21.48,2.97-32.1,1.16-8.92-21.43-16.82-43.56-23.51-65.79-7.34-24.44-13.37-49.56-17.92-74.67-1.68-25.44-1.68-51.22,0-76.63,1.36-20.48,3.85-41.11,7.38-61.37,4.88,2.31,9.88,4.36,14.97,6.13,11.58,4.03,23.66,6.64,35.9,7.76.28.02.55.03.83.03,3.22,0,6.28-1.71,7.96-4.5l5.44-9.07h9.69l2.12,12c.6,3.37,2.97,6.16,6.2,7.27,13.04,4.51,26.61,7.41,40.34,8.61,4.89.43,9.79.65,14.69.65,5.54,0,11.08-.28,16.6-.83l1.5,79.76.06,2.92.33,17.55c.02,1.09.91,1.96,2,1.96h.04c1.1-.02,1.98-.93,1.96-2.04l-.33-17.58,39.41-10.08c5.01,8.23,8.44,17.54,9.94,27.01,1.44,9.08,1.19,18.22-.74,27.21Z"/>
    <polygon class="cls-5" points="233.74 603.31 227.15 603.31 232.24 594.82 233.74 603.31"/>
    <path class="cls-5" d="M290.87,407.05c-.39,1.06-.76,2.09-1.09,3.07-3.38,10.29-7.96,20.72-13.97,31.88-.55,1.02-1.1,2.04-1.63,3.06l-2.67-8.44,6.59-8.16c.53-.67.59-1.61.13-2.33l-8-12.62c4.46-2.01,8.6-4.61,12.34-7.78,2.98-2.52,5.67-5.37,8.01-8.48.76-1.01,1.49-2.05,2.18-3.12.01-.02.03-.05.04-.07.19-.32.28-.66.28-1.01v1.93c.87,3.66-.69,7.92-2.21,12.07Z"/>
    <path class="cls-5" d="M252.77,425.98l4.29,10.11-6.59,12.13c-1.4-5.01-2.46-10.12-3.21-15.3-1.61-11.26-1.64-22.55-.08-33.74l16.52,14.16-10.5,10.44c-.58.58-.75,1.45-.43,2.2Z"/>
    <polygon class="cls-10" points="274.08 427.06 268.32 434.2 260.6 434.2 256.98 425.66 266.92 415.77 274.08 427.06"/>
    <path class="cls-10" d="M271.55,450c-3.75,7.04-7.66,14.2-12.27,20.78-2.84-5.56-5.23-11.3-7.17-17.19l8.36-15.39h7.34l3.74,11.8Z"/>
    <path class="cls-8" d="M289.08,378.54v13.9c-2.54,3.83-5.6,7.27-9.09,10.23-3.97,3.37-8.43,6.05-13.27,7.99l-18.81-16.12c.55-3.1,1.22-6.19,2.03-9.27.02-.11.05-.23.08-.34.26,0,.53-.01.79-.02,11.28-.24,22.77-1.92,34.1-5.11,1.38-.39,2.77-.81,4.17-1.26Z"/>
    <path class="cls-8" d="M98.24,309.06l-18.77,17.82c-1.34-1.46-2.77-2.74-4.16-3.98-1.53-1.35-2.96-2.63-4.25-4.11-.29-.33-.68-.56-1.12-.64-10.06-2.01-19.42-7.82-25.68-15.96-2.97-3.87-4.78-7.69-5.35-11.34-1.01-6.39,2.48-15.06,9.28-17.78,3.44-1.37,6.67-1.27,9.59.3.79.43,1.78.27,2.41-.4.62-.66.71-1.66.23-2.43l-11.78-18.71c-1.08-1.72-2.2-3.49-2.61-5.35-.38-1.72,0-3.4.95-4.28,1.3-1.2,3.57-.98,5.14-.13,2.01,1.07,3.56,3.05,5.06,4.96,2.84,3.61,5.63,7.19,8.42,10.76,2.75,3.53,5.5,7.07,8.31,10.64.63.81,1.77,1,2.64.46,1.5-.95,3.6-.57,5.03.22,1.94,1.07,3.41,3.01,4.48,4.59,5.84,8.61,8.62,19.44,7.45,28.99-.07.56.11,1.13.49,1.56l4.24,4.81Z"/>
    <path class="cls-4" d="M255.43,476.94l-24.04,111.52-9.43,15.73c-.04.05-.07.11-.1.17l-5.98,9.96c-1.04,1.73-2.99,2.72-5,2.54-11.91-1.09-23.67-3.63-34.94-7.55-5.73-1.99-11.34-4.34-16.78-7.02-.1-.06-.21-.11-.32-.16-4.13-2.06-8.16-4.31-12.08-6.73,11.96-29.91,22.53-60.73,31.44-91.65,4.9-16.99,9.36-34.26,13.34-51.57.28-1.22.56-2.44.84-3.66,1.34-5.98,2.63-11.95,3.86-17.92.22-1.08-.48-2.14-1.56-2.36-1.09-.22-2.14.48-2.36,1.56-1.1,5.37-2.26,10.74-3.46,16.11-19.93-14.9-39.16-31.08-57.21-48.16-20.11-19.04-39.18-39.58-56.69-61.08l27.48-26.08,52.42,53.02c.06.06.13.13.21.18,8.65,6.59,17.8,12.69,27.21,18.14,8.56,4.96,17.5,9.48,26.58,13.43.23.09.47.15.72.16l16.89.61c-5.32,5.3-9.68,11.41-12.99,18.2-.42.86-.17,1.9.6,2.47l10.21,7.66-10.47,11.13c-.61.65-.72,1.64-.26,2.4,4.55,7.55,10.04,14.5,16.32,20.64,7.52,7.37,16.13,13.53,25.55,18.31Z"/>
    <path class="cls-8" d="M389.51,298.77c-4.2,5.08-11.57,7.31-19.22,5.96-.74-.12-1.49-.28-2.23-.48-1.04-.27-2.12.33-2.43,1.37-4.01,13.57-12.9,26.19-24.19,37-16.6,15.92-38.41,27.93-57.61,33.33-35.91,10.1-73.37,4.73-100.21-14.37-17.14-12.21-29.75-30.08-35.5-50.32-.17-.59-.6-1.07-1.16-1.31-.25-.1-.51-.15-.77-.15-.34,0-.67.09-.97.26-5.08,2.84-11.49,3.1-16.33.66-4.95-2.49-8.62-7.66-9.33-13.16-.77-5.97,2.26-12.01,7.04-14.05,1.19-.51,2.52-.82,3.9-.93,2.12-.17,4.33.11,6.28.82.6.22,1.17.48,1.71.78.09.05.19.11.28.16h0c1.34.81,2.86,2.14,3.42,4.21.06.22.11.45.15.69.15,1.01,1.03,1.73,2.05,1.7,1.02-.04,1.85-.84,1.92-1.86l.1-1.44.29-4.33,3.39-49.65c1.08-15.99,1.87-27.54,11.91-40.41,11.11-14.23,33.16-8.76,50.88-4.37,3.53.87,6.86,1.7,9.99,2.35,17.47,3.63,33.16.03,49.77-3.78,5.34-1.22,10.85-2.49,16.42-3.49,25.9-4.65,42.93-.28,53.59,13.76,6.74,8.88,11.46,20.34,14.85,36.09,2.36,10.99,4.98,21.8,7.55,32.08.36,1.45.73,2.9,1.09,4.34.22.87.44,1.73.66,2.59.16.65.64,1.17,1.27,1.39.62.23,1.32.12,1.86-.28,1.19-.88,2.54-1.53,3.96-1.95,3.4-.99,7.26-.68,10.61.79.48.2.95.43,1.41.69.71.39,1.39.84,2.03,1.34.88.7,1.68,1.5,2.38,2.41,4.59,5.98,4.24,15.45-.82,21.56Z"/>
    <path class="cls-15" d="M289.68,67.96c-.61,3.73-1.7,7.31-3.24,10.65-1.55,3.33-3.23,5.93-4.51,7.69-27.57-5.55-57.09-3.21-83.93,7.63-.15.06-.29.12-.44.19-.28-.31-.65-.53-1.09-.62-9.17-1.79-17.54-7.08-23.36-14.37,1.19.64,2.49,1.22,3.9,1.7,3.79,1.28,7.91,1.65,11.94,1.08.63-.09,1.17-.46,1.48-1.01.3-.55.33-1.21.07-1.78-5.18-11.63-4.98-24.69.52-34.95,5.74-10.68,16.72-18.56,28.68-20.56,6.02-1.02,9.77.31,14.11,1.85,3.24,1.14,6.58,2.33,11.07,2.63,2.6.18,5.2.05,7.71-.07,2.34-.12,4.55-.22,6.76-.11,11.57.6,22.69,8.04,27.67,18.5,2.97,6.24,3.92,13.89,2.66,21.55Z"/>
    <path class="cls-15" d="M384.4,268.42c-3.42-1.14-7.11-1.35-10.56-.56-1.32.3-2.6.75-3.82,1.35-.2-.78-.39-1.56-.59-2.35-2.72-10.81-5.5-22.26-8.01-33.9-3.52-16.33-8.47-28.3-15.58-37.66-15.33-20.19-40.14-18.39-57.47-15.27-5.67,1.01-11.23,2.29-16.61,3.52-16.17,3.71-31.45,7.21-48.07,3.76-3.05-.63-6.34-1.45-9.84-2.32-18.84-4.67-42.29-10.48-54.99,5.8-10.8,13.84-11.66,26.53-12.76,42.59l-3.33,48.94c-.69-.61-1.47-1.15-2.33-1.63-2.3-1.29-5.05-2-7.81-2.13-.05-.06-.08-.12-.12-.18-12.29-20.22-18.1-44.36-16.37-67.96,3.47-47.24,38.52-94.67,83.35-112.78,17.07-6.89,35.24-10.25,53.26-10.25,30.42,0,60.42,9.58,83.96,27.96,43.99,34.33,61.37,90.13,47.69,153.07Z"/>
    <path d="M874.67,394.51c-14.53-15.25-25.52-28.99-33.16-46.9-.63-1.45-1.23-2.94-1.8-4.45-.86-2.24-1.66-4.54-2.42-6.92-2.93-9.2-5.04-18.65-6.61-28.16-.31-1.89-.61-3.78-.88-5.67-1.71-11.88-2.69-23.79-3.53-35.35-3.15-43.6-24.35-84.31-58.15-111.69-31.64-25.63-71.41-37.34-109.11-32.15-33.09,4.56-64.09,21.83-87.31,48.64-18.53,21.39-30.97,47.55-35.97,75.66-3.31,18.58-3.03,37.63-2.75,56.04.17,10.67.33,21.57-.21,32.42-.09,1.87-.21,3.74-.34,5.61-.33,4.32-.78,8.63-1.41,12.91-1.28,8.76-3.26,17.1-6.15,25.77-.47,1.45-.98,2.91-1.52,4.38-1.49,4.13-3.2,8.35-5.13,12.75-10.23,23.25-22.38,57.74-9.87,88.78,5.55,13.78,17.53,26.88,32.86,35.96.84.5,1.92.32,2.55-.44.63-.75.63-1.84,0-2.58-12.51-14.55-15.81-31.76-14.93-49.7,2.93,16.71,10.9,32.91,23.18,45.97,15.59,16.57,36.08,24.35,57.56,28.96-.53-1.47-1.05-2.95-1.58-4.45-3.07-.69-6.11-1.46-9.11-2.32-1.16-.33-2.32-.68-3.47-1.04-15.19-4.74-29.24-11.94-40.48-23.89-18.59-19.77-26.86-47-21.97-71.76.21-.98.42-1.96.64-2.93.24-1.07-.43-2.14-1.5-2.39-1.07-.24-2.14.41-2.4,1.48-.24,1.03-.47,2.05-.67,3.09-5.12,23.95-7.78,50.37,5.07,72.33-10.15-7.91-17.95-17.67-22.03-27.79-11.95-29.64-.12-63.08,9.82-85.66,1.65-3.74,3.13-7.36,4.47-10.91.54-1.45,1.06-2.88,1.55-4.31,3.38-9.71,5.65-18.96,7.08-28.72.46-3.16.83-6.33,1.13-9.51.16-1.8.31-3.61.43-5.42.81-12.29.62-24.61.44-36.65-.27-18.23-.56-37.07,2.68-55.28,4.89-27.4,17.01-52.9,35.06-73.74,22.58-26.07,52.71-42.87,84.83-47.3,36.62-5.04,75.27,6.37,106.06,31.3,32.94,26.69,53.6,66.37,56.67,108.87.94,12.96,2.06,26.37,4.18,39.72.3,1.84.61,3.67.94,5.5,1.52,8.38,3.48,16.72,6.08,24.89,1.07,3.37,2.23,6.58,3.49,9.67.59,1.47,1.21,2.91,1.85,4.32,7.79,17.33,18.71,30.88,32.96,45.82,23.31,24.46,31.43,49.47,24.68,76.18-3.2-17.43-12.86-33.59-26.92-44.48-.84-.65-2.04-.53-2.74.28-.69.8-.63,2.01.13,2.74,10.27,9.87,15.71,25.13,14.55,40.8-2.03,27.56-27.21,50.77-51.53,57.59,13.65-17.28,17.21-42.16,8.42-62.65-.4-.94-1.45-1.43-2.42-1.13-.98.3-1.57,1.29-1.38,2.29,3.38,17.79-2.61,36.98-15.63,50.1-13.5,13.58-34.95,21.29-56.44,21.37-1.07,0-2.14-.01-3.2-.04-7.28-.24-14.5-1.35-21.38-3.41-.38-.12-.78-.12-1.16,0-7.39,2.27-14.93,4.17-22.59,5.66-.15.7-.29,1.41-.44,2.13.04.01.07.02.11.03h.01c.85.27,1.96.68,3.42,1.27v.04s.04-.01.05-.01c6.78-1.41,13.47-3.12,20.03-5.12,29.44,8.59,64.85.61,84.43-19.1,9.47-9.55,15.47-22.1,17.2-35.16,1.39,16.61-4.32,33.78-16.04,45.62-.61.62-.76,1.56-.36,2.33.4.77,1.26,1.2,2.11,1.05,14.32-2.42,29.06-10.27,40.44-21.55,12.05-11.94,19.27-26.5,20.34-41.01.64-8.62-.59-17.13-3.43-24.82,6.85,10.32,10.95,22.46,11.51,34.89.04.95.75,1.74,1.69,1.89.93.14,1.85-.39,2.18-1.28,11.58-31.24,3.92-61.27-22.75-89.26Z"/>
    <path class="cls-5" d="M722.42,483.81c-1.42,6.55-2.71,13.15-3.97,19.61-1.06,5.42-2.16,11.03-3.31,16.51-.82,3.88-1.66,7.55-2.49,11.1-.91,3.96-1.85,8.03-2.73,12.34-.18.9-.36,1.8-.54,2.72-.08.43-.02.86.16,1.23.01.05.04.11.08.16-.18.05-.36.08-.54.1-12.94,7.3-27.35,11.98-42.02,13.63-20.05,2.26-37.1-1.38-49.2-5.63-1.23-3.37-2.47-6.79-3.72-10.3-.52-1.44-1.04-2.9-1.56-4.38-4.38-12.36-8.98-25.87-14.3-41.97-2.63-8-2.17-15.61,1.36-22.02l.36-.63s0-.02.02-.03c.14-.24.28-.47.43-.7,4.09-6.43,11.23-11.18,20.3-13.46,11.38-2.86,25.16.15,34.3,7.49.7.56,1.68.59,2.41.07,10.64-7.59,24.54-10.19,37.2-6.95,11.61,2.98,21.78,10.76,27.76,21.11Z"/>
    <path class="cls-3" d="M796.02,323.48c-1.34-5.62-6.38-10.18-11.98-10.83-6.11-.71-12.45,3.78-13.3,9.42-.16,1.09-1.17,1.85-2.27,1.68-1.09-.16-1.84-1.18-1.68-2.27.54-3.64,2.65-6.88,5.57-9.21-26.93-7.05-52.27-19.95-73.86-37.49-.46.36-1.09.52-1.71.36-12.96-3.3-37.6-12.44-57.07-36.69-14.76-18.37-20.37-37.8-22.42-51.68-6.42,19.85-16.49,38.59-29.46,54.69-9.46,11.73-20.36,22.09-32.54,30.9.09.33.09.69-.01,1.05-7.98,27.19-1.73,58.13,16.73,82.76,24.98,33.34,72.12,50.55,114.1,45.37h.01c.37-.05.73-.09,1.1-.14h0c12.27-1.64,24.06-5.2,34.71-10.84,22.4-11.86,40.36-28.72,49.51-46.42-.32-.51-.39-1.16-.15-1.77.41-1.03,1.57-1.53,2.6-1.12,5.45,2.18,12.12,1.26,16.59-2.28,4.56-3.61,6.83-9.98,5.52-15.49ZM668.36,335.95c-4.13,3.72-9.58,5.64-14.94,5.26-5.5-.4-10.7-3.17-14.27-7.63-2.96-3.68-4.57-8.23-4.63-12.86,4.66,2.82,11.27,5.68,19.57,6.47,8.48.81,15.65-.85,20.83-2.82-.84,4.44-3.11,8.47-6.56,11.58Z"/>
    <path class="cls-1" d="M646.46,404.21c-1.43-.26-2.85-.55-4.28-.86t0-.02c-.28-1.07.37-2.16,1.44-2.43,1.07-.28,2.16.36,2.43,1.43.16.62.3,1.25.42,1.88Z"/>
    <path d="M781.58,334.46c-.15,0-.3-.02-.45-.05-1.08-.25-1.75-1.32-1.5-2.4.17-.73,0-1.55-.44-2.15s-1.17-1.02-1.91-1.08c-.8-.07-1.47-.61-1.72-1.37s-.02-1.6.58-2.12c2.49-2.18,5.8-3.39,9.11-3.37,1.1.01,1.99.92,1.97,2.02-.01,1.1-.9,1.98-2.03,1.98-1.18,0-2.45.22-3.6.66.3.28.58.59.83.93,1.11,1.53,1.53,3.55,1.1,5.4-.21.93-1.04,1.55-1.95,1.55Z"/>
    <ellipse cx="606.84" cy="294.57" rx="7" ry="8.87"/>
    <ellipse cx="710.12" cy="308.31" rx="7" ry="8.87"/>
    <path class="cls-6" d="M678.38,319.53c-.58-.38-1.32-.43-1.95-.14-4.78,2.24-12.46,4.72-21.96,3.82-9.34-.89-16.33-4.65-20.55-7.66-.57-.41-1.31-.48-1.94-.21-.64.27-1.1.86-1.2,1.55-1,6.79.91,13.79,5.25,19.2,4.27,5.31,10.5,8.63,17.11,9.11.54.03,1.09.05,1.63.05,5.9,0,11.75-2.26,16.26-6.32,5.1-4.59,8.03-10.86,8.25-17.66.02-.7-.32-1.36-.9-1.74ZM668.36,335.95c-4.13,3.72-9.58,5.64-14.94,5.26-5.5-.4-10.7-3.17-14.27-7.63-2.96-3.68-4.57-8.23-4.63-12.86,4.66,2.82,11.27,5.68,19.57,6.47,8.48.81,15.65-.85,20.83-2.82-.84,4.44-3.11,8.47-6.56,11.58Z"/>
    <path class="cls-14" d="M674.92,324.37c-.84,4.44-3.11,8.47-6.56,11.58-4.13,3.72-9.58,5.64-14.94,5.26-5.5-.4-10.7-3.17-14.27-7.63-2.96-3.68-4.57-8.23-4.63-12.86,4.66,2.82,11.27,5.68,19.57,6.47,8.48.81,15.65-.85,20.83-2.82Z"/>
    <path class="cls-1" d="M687.23,401.4c-.37.05-.73.09-1.1.14.31-.14.66-.2,1.02-.16.03,0,.06,0,.08.02Z"/>
    <path class="cls-1" d="M646.46,404.21c-1.43-.26-2.85-.55-4.28-.86t0-.02c-.28-1.07.37-2.16,1.44-2.43,1.07-.28,2.16.36,2.43,1.43.16.62.3,1.25.42,1.88Z"/>
    <path class="cls-1" d="M685.8,418.42c-.19-.29-.31-.64-.32-1.01-.01-.14,0-.27.03-.4.09.47.19.94.29,1.41Z"/>
    <path class="cls-3" d="M910.24,257.48c-1.6,3.55-4.61,6.38-8.25,7.77-.62.24-1.05.75-1.21,1.34-.28.19-.52.45-.68.77-2.06,4.08-5.43,7.51-9.48,9.63-4.05,2.13-8.78,2.95-13.31,2.33-.88-.12-1.73.34-2.1,1.14-6.73,14.62-14.35,28.98-22.64,42.71-4.1,6.78-8.38,13.44-12.86,19.99-.9,1.33-1.81,2.65-2.74,3.97-22.22,31.81-48.87,60.83-79.47,86.51-4.12,3.46-8.47,6.79-12.68,10.01-1.96,1.5-3.91,2.99-5.85,4.51-6.59,5.13-11.44,13.99-14.43,26.33-.31,1.27-.61,2.54-.9,3.81-6.66-9.51-16.7-16.58-27.99-19.47-13.3-3.41-27.87-.9-39.28,6.72-10.16-7.54-24.35-10.42-36.6-7.34-7.86,1.98-14.45,5.68-19.17,10.68,0-2.71-.13-5.49-.78-8.23-.87-3.68-2.52-7.38-4.91-11-5.47-8.28-13.2-14.49-20.69-20.5-2.95-2.37-5.99-4.81-8.82-7.33-13.28-11.83-25.84-24.57-37.5-38.03-1.02-1.17-2.03-2.34-3.03-3.53-3.42-4.03-6.76-8.14-10.02-12.3-22-28.11-40.28-59.02-54.35-91.87-.24-.55-.71-.97-1.28-1.14-10.19-2.99-19.19-9.92-24.69-19.01-2.62-4.33-3.8-8.15-3.6-11.68.35-6.37,4.84-10.23,8.56-12.34,8.21-4.69,20.73-5.45,27.92-1.71,11.16,5.81,16.84,20.2,12.65,32.07-.18.5-.15,1.05.08,1.53,13.8,28.67,31.32,54.71,52.29,77.77,1.21,1.34,2.44,2.67,3.68,3.98,6.92,7.36,14.21,14.41,21.85,21.13,22.12,19.47,46.92,35.83,73.69,48.64.27.13.56.2.86.2h10.25c-.41,2.71-1.19,5.36-2.33,7.88-.46,1-.02,2.19.99,2.65.27.12.55.18.83.18.76,0,1.48-.44,1.82-1.18,2.95-6.52,3.79-13.86,2.39-20.86,8.17,1.51,16.36,2.25,24.43,2.25,4.68,0,9.31-.25,13.86-.75-.2,3.77.06,7.58.76,11.3.09.47.19.94.29,1.41.42,1.87.94,3.72,1.58,5.53.29.83,1.06,1.34,1.88,1.34.22,0,.45-.04.67-.12,1.04-.36,1.59-1.51,1.22-2.55-.39-1.11-.74-2.24-1.03-3.38l8.24-.31c.25.11.52.17.8.17.38,0,.76-.1,1.09-.32,11.51-7.5,23.51-13.97,36.69-19.78,5.28-2.33,10.41-6.31,14.94-9.82,1.06-.82,2.1-1.62,3.11-2.39,14.67-11.06,27.9-24.14,40.69-36.8l.47-.46c11.47-11.34,21.85-24.19,31.25-36.96,1.11-1.5,2.2-3,3.28-4.49,4.75-6.6,9.24-13.13,13.48-19.37l12.38-18.21c.27-.4.39-.88.34-1.36-1.47-12.76,4.71-26.26,15.75-34.39,5.39-3.97,8.99-9.62,12.51-15.54l.99-1.68c1.3-2.2,2.64-4.48,4.07-6.62.64-.95,1.22-2.01,1.78-3.04,1-1.82,2.04-3.7,3.31-4.82.91-.8,2.45-1.27,3.36-.63.58.4.94,1.27.96,2.27.02,1.14-.34,2.33-.78,3.66-2.58,7.78-5.95,15.33-10.02,22.45-.51.89-.26,2.02.58,2.62.83.6,1.98.46,2.66-.31.87-.99,1.57-1.28,3.14-1.3,1.47-.04,3.06.4,4.89,1.27,8.24,3.93,14.44,14.91,10.16,24.4Z"/>
    <path class="cls-12" d="M558.22,917c-8.7,3.54-18.56,3.45-27.17-.28-3.07-1.33-13.69-8.09-15.32-12.57-.1-.26-.15-.47-.17-.65,9.92.18,20.14,2.29,30.36,6.28,4.35,1.71,8.25,4.35,12.3,7.22Z"/>
    <path class="cls-12" d="M946.46,749.43c3.7,5.74,4.91,14.3,3.08,21.82-1.6,6.55-5.84,12.51-11.48,16.2.36-8.96-1.58-18.03-6.79-25.72-.06-.08-.12-.16-.19-.23,4.12-5.05,7.09-10.97,7.61-18.6.23-3.38.14-6.78.06-10.07-.07-2.68-.14-5.46-.03-8.16.28-6.94,1.8-12.19,4.67-16.06,2.9-3.9,8.54-7.05,13.7-5.49.38.12.77.11,1.13.01,1.3,2.2,2.21,4.86,2.64,7.8,2.04,13.89-3.54,28.27-13.89,35.8-.86.63-1.08,1.81-.51,2.7Z"/>
    <path class="cls-3" d="M933.44,793.57c-.7,4.17-1.91,8.23-3.51,12-1.61,3.81-3.62,7.32-5.9,10.34-1.22,1.62-5.55,6.8-10.06,5.66-.17-.04-.34-.1-.51-.17-1.36-.49-2.41-1.5-3.2-2.61-1.12-1.56-1.72-3.32-1.94-4.09-.44-1.51-.72-3.06-1.02-4.7-.38-2.14-.78-4.35-1.56-6.51-1.03-2.81-3.18-6.02-6.31-7.57,2.5-5.63,5.49-10.68,10.1-14.95,2.57-2.38,5.35-4.65,8.05-6.85,3.72-3.03,7.47-6.11,10.77-9.54,5.59,8.63,6.76,19.12,5.09,28.99Z"/>
    <path class="cls-12" d="M880.71,832.41c-.28.52-.32,1.13-.11,1.68.44,1.14.52,2.82.6,4.45.08,1.58.16,3.21.55,4.7-13.77,21.85-41.07,35.02-66.75,32.09-.38-.05-.77.02-1.12.2-5.9,2.95-12.01,5.64-17.9,8.25-3.03,1.34-6.12,2.7-9.21,4.1,1.75-1.93,3.45-3.87,5.15-5.79,8.88-10.09,18.06-20.52,29.91-27.38,8.04-4.65,17.03-7.55,25.72-10.36,7.8-2.51,15.87-5.11,23.41-8.99,13.8-7.11,19.92-17.38,25.32-31.66.52-1.38,1.04-2.74,1.58-4.07,1.89,1.01,3.36,3.14,4.12,5.23.67,1.83,1.02,3.78,1.39,5.84.3,1.68.61,3.41,1.11,5.12.59,2.01,1.42,3.77,2.45,5.23-7.69,4.97-16.11,8.52-24.88,10.36-.57.12-1.07.49-1.34,1Z"/>
    <path class="cls-3" d="M681.6,913.43c-.09,1.34-.21,2.73-.32,4.08-.11,1.17-.21,2.33-.3,3.49-.1,1.39-.6,2.7-1.43,3.79-7.45,9.78-13.53,16.84-19.71,22.89-4.65,4.55-12.37,8.8-22.95,12.66-2.24.81-4.63,1.55-6.95,1.45-2.25-.1-4.21-1.09-5.13-2.59-.97-1.59-.92-3.93.14-6.27.81-1.79,2.05-3.4,3.35-5.1.4-.51.79-1.03,1.17-1.55,5.84-7.91,9.38-17.65,9.97-27.47,2.44-1.12,4.9-2.16,7.38-3.05,11.89-4.26,23.19-3.82,34.78-2.33Z"/>
    <path class="cls-5" d="M954.31,698.72c-5.19-.01-10.61,2.77-14.13,7.51-3.36,4.53-5.15,10.51-5.46,18.28-.11,2.83-.04,5.67.03,8.43.08,3.19.16,6.49-.05,9.69-.88,13.06-10,20.5-19.65,28.39-2.74,2.24-5.58,4.55-8.24,7.01-5.27,4.9-8.64,10.76-11.38,17.03-.43.99-.85,1.99-1.25,3-.57,1.39-1.11,2.8-1.65,4.22-5.19,13.74-10.68,22.97-23.4,29.52-7.25,3.73-15.16,6.28-22.81,8.75-8.89,2.87-18.09,5.83-26.49,10.7-12.42,7.19-21.82,17.87-30.92,28.2-8.59,9.76-17.48,19.86-28.79,26.74-12.88,7.83-30.96,7.44-45.49,7.14-7.83-.17-15.55-1.35-23.02-2.49-2.3-.35-4.62-.7-6.95-1.03-.25-.14-.54-.22-.84-.24-.19-.01-.37.01-.54.06-12.2-1.63-24.76-2.3-37.8,2.37-5.38,1.92-10.59,4.5-15.62,6.99-8.57,4.25-16.67,8.26-25.67,9.4-9.81,1.25-20.8-1.12-31.79-6.86-3.61-1.88-7.06-4.35-10.4-6.74-4.57-3.27-9.29-6.65-14.63-8.73-10.09-3.94-20.2-6.13-30.07-6.52l.9-1.81c11.85-23.86,23.04-46.4,30.44-71.76,6.96-23.84,11.37-49.83,13.48-79.46.51-7.27.89-14.58,1.25-21.64,1.13-21.96,2.19-42.7,7.23-64.15.89-3.8,1.75-7.6,2.61-11.38,5.09-22.43,9.89-43.62,20.55-64.01,5.28-10.09,12.89-18.54,23.25-25.8h.01c9.83,3.39,22.73,6.37,37.75,6.37,4.09,0,8.34-.22,12.73-.71,16.47-1.85,32.61-7.39,46.84-16.05,3.98,1.53,10.96,4.77,14.01,6.29,8.66,4.32,16.38,11,22.93,16.91,13.64,12.32,23.55,26.68,34.05,41.89,3.28,4.76,6.68,9.68,10.17,14.49,12.38,17.03,26.41,36.33,44.8,50.65,19.32,15.05,41.24,21.43,68.93,20.11,8.89-.43,16.87-.91,24.6-2.46,7.55-1.51,14.78-2.5,20.48,1.7Z"/>
    <path class="cls-1" d="M684.66,909.81c-.46-.06-.92-.12-1.38-.18.17-.05.35-.07.54-.06.3.02.59.1.84.24Z"/>
    <path d="M723.28,457.7c-.18,0-.37-.03-.55-.11-.77-.31-1.15-1.18-.84-1.95,1.05-2.65,2.47-5.13,4.21-7.37,1.53-1.96,3.3-3.73,5.26-5.26.65-.51,1.59-.39,2.1.26.51.65.39,1.6-.26,2.1-1.77,1.38-3.36,2.97-4.74,4.74-1.57,2.02-2.84,4.25-3.79,6.63-.23.59-.8.95-1.39.95Z"/>
    <path d="M600.78,450.2c-.67,0-1.28-.45-1.45-1.13-.42-1.62-1.04-3.19-1.86-4.64-1.19-2.13-2.75-4-4.65-5.58-.64-.53-.73-1.47-.2-2.11.53-.64,1.47-.73,2.11-.2,2.18,1.81,3.99,3.97,5.35,6.42.94,1.68,1.66,3.48,2.14,5.36.21.8-.28,1.62-1.08,1.83-.13.03-.25.05-.38.05Z"/>
    <path class="cls-12" d="M657.36,893.9c-10.15-9.35-20.99-21.11-31.08-35.7-32.09-46.42-37.99-94.71-39-121,3.77,22.49,11.09,52.27,26,85,13.99,30.71,30.37,54.56,44.08,71.7Z"/>
    <path class="cls-12" d="M846.28,828.2c-6.69,1.76-15.25,3.03-25,2-33.53-3.53-53.06-31.25-56.88-36.91,8.11,7.69,22.29,19.16,42.88,26.91,15.42,5.8,29.21,7.55,39,8Z"/>
    <path d="M293.63,68.61c-.67,4.08-1.86,8.01-3.56,11.68-1.14,2.46-2.45,4.78-3.9,6.93-.51.76-1.04,1.5-1.59,2.21-.68.88-1.93,1.05-2.81.37-.87-.67-1.04-1.92-.37-2.8.17-.22.34-.45.53-.7,1.28-1.76,2.96-4.36,4.51-7.69,1.54-3.34,2.63-6.92,3.24-10.65,1.26-7.66.31-15.31-2.66-21.55-4.98-10.46-16.1-17.9-27.67-18.5-2.21-.11-4.42-.01-6.76.11-2.51.12-5.11.25-7.71.07-4.49-.3-7.83-1.49-11.07-2.63-4.34-1.54-8.09-2.87-14.11-1.85-11.96,2-22.94,9.88-28.68,20.56-5.5,10.26-5.7,23.32-.52,34.95.26.57.23,1.23-.07,1.78-.31.55-.85.92-1.48,1.01-4.03.57-8.15.2-11.94-1.08-1.41-.48-2.71-1.06-3.9-1.7,5.82,7.29,14.19,12.58,23.36,14.37.44.09.81.31,1.09.62.41.45.62,1.09.49,1.73-.19.95-1.03,1.62-1.96,1.62-.13,0-.26-.02-.39-.04-1.24-.24-2.46-.54-3.67-.9-12.94-3.8-23.97-13.89-28.68-26.56-.35-.95.06-2.02.97-2.48.9-.46,2.01-.17,2.57.68,1.61,2.41,5.22,6.78,11.41,8.87,2.38.8,4.93,1.18,7.49,1.12-4.56-12.08-3.97-25.3,1.71-35.88,6.31-11.75,18.39-20.41,31.53-22.62,7.04-1.18,11.66.45,16.12,2.03,2.98,1.05,6.06,2.14,10,2.41,2.37.16,4.74.04,7.25-.08,2.33-.11,4.74-.23,7.16-.1,12.99.67,25.48,9.02,31.07,20.77,3.32,6.97,4.39,15.46,3,23.92Z"/>
    <path d="M236.18,27.66c-12.5,9.3-19.14,25.86-15.66,41.14,1.09,4.99,3.05,9.83,5.83,14.05.61.92.36,2.17-.57,2.78-.94.62-2.22.33-2.81-.63-8.79-14.24-8.72-33.3.79-47.14,3.08-4.53,6.9-8.52,11.38-11.66.95-.65,1.99.76,1.05,1.46h0Z"/>
    <path d="M253.02,27.9c17.32,13.53,20.34,37.51,6.67,54.8-.69.87-1.94,1.01-2.81.32-.89-.7-1.01-2.01-.28-2.87,6.03-7.13,9.29-16.75,8.33-26.12-.41-4.71-1.9-9.33-4.18-13.47-2.28-4.17-5.39-7.97-9.05-11.01-1.06-.86.19-2.5,1.31-1.66h0Z"/>
    <path d="M179.94,181.95c-17.58-16.47-20.08-45.54-5.51-64.55.46-.59,1.41.04.98.7-13.15,18.64-9.9,46.1,7.25,60.92,1.96,1.83-.73,4.76-2.72,2.93h0Z"/>
    <path d="M214.82,188.46c-21.34-20.26-23.64-56.04-4.99-78.58.1-.13.29-.15.41-.05.12.1.15.28.05.4-17.15,22.61-13.9,56.67,7.27,75.31,1.94,1.83-.76,4.76-2.75,2.91h0Z"/>
    <path d="M237.9,102.31c-9.67,24.96-8.95,53.26,1.61,77.79.24.53-.58.99-.88.44-13.39-23.75-14.08-54.4-2.11-78.84.42-.82,1.73-.3,1.39.61h0Z"/>
    <path d="M265.55,89.26c11.07,5.88,17.78,18.78,16.23,31.23-1,8.13-5.77,15.24-8.9,22.53-4.76,10.49-3.37,23.55,3.65,32.65.53.68.41,1.67-.28,2.2-.69.53-1.68.4-2.2-.3-6.31-8.45-8.36-19.65-5.74-29.77,1.56-5.91,4.86-11.28,7.44-16.64,7.85-14.44,3.24-31.96-11.14-40.13-1.14-.6-.24-2.38.94-1.76h0Z"/>
    <path d="M313.82,103.47c10.54,24.54,6.39,54.64-10.4,75.55-1.67,2.01-4.74-.41-3.12-2.5,16.7-19.46,21.52-48.49,12.06-72.44-.37-.91,1.04-1.57,1.46-.6h0Z"/>
    <path d="M327.52,180.85c7.33-10.62,10.58-24.25,8.65-37.38-.12-.73,1.02-.97,1.18-.22,2.89,13.26.63,27.74-6.46,39.74-1.45,2.31-4.86.15-3.37-2.15h0Z"/>
    <path d="M352.35,204.33c13.15-14.01,16.99-36.16,9.37-53.93-.36-.83.9-1.45,1.32-.6,8.78,18.37,5.63,41.67-7.72,57.2-1.79,1.99-4.78-.67-2.97-2.67h0Z"/>
    <path d="M362.89,242.89c8.58-3.09,14.68-12.4,14.21-21.63-.06-1.01,1.49-1.16,1.62-.15,1.31,10.36-4.71,21.08-14.31,25.48-2.53,1.06-4.07-2.69-1.51-3.7h0Z"/>
    <path d="M147.07,192.21c-1.09,4.68.2,9.7,3.06,13.06,1.79,2.27-1.73,4.75-3.27,2.3-2.95-4.91-3.34-10.91-1.34-15.86.37-.92,1.79-.47,1.55.5h0Z"/>
    <path d="M119.84,204.4c-.27,18.36,7.12,36.95,20.27,50.28.62.62-.31,1.63-.98,1.01-14.02-12.98-22.67-31.79-23.29-51.25-.01-2.69,3.96-2.75,4-.04h0Z"/>
    <ellipse cx="202.15" cy="275.43" rx="7.5" ry="9.5"/>
    <ellipse cx="310.15" cy="267.43" rx="7.5" ry="9.5"/>
    <path d="M378.92,296.94c-.42,0-.83-.13-1.19-.4-.89-.66-1.07-1.91-.41-2.8,1.11-1.49,1.73-3.35,1.76-5.26,0-.18-.08-.29-.13-.34-.08-.08-.19-.12-.28-.11l-6.11.1s-.02,0-.03,0c-1.09,0-1.98-.87-2-1.97-.02-1.1.86-2.01,1.97-2.03l6.11-.1c1.2-.04,2.32.44,3.17,1.28s1.32,2.03,1.3,3.23c-.04,2.74-.95,5.43-2.55,7.58-.39.53-1,.81-1.61.81Z"/>
    <path class="cls-6" d="M258.58,323.02c-9.18,0-15.7-4.49-18.2-6.54-.85-.7-.98-1.96-.28-2.81.7-.85,1.96-.98,2.81-.28,2.32,1.9,8.67,6.25,17.58,5.55,8.32-.65,13.77-5.39,15.72-7.4.77-.79,2.04-.81,2.83-.04s.81,2.04.04,2.83c-2.27,2.33-8.6,7.84-18.28,8.6-.76.06-1.5.09-2.23.09Z"/>
    <path d="M223.93,322.89c-.71,0-1.39-.37-1.75-1.04l-5.2-9.44c-.43-.78-.29-1.75.34-2.38.63-.63,1.61-.76,2.38-.33l2.27,1.26c-.13-.52-.05-1.09.26-1.56.49-.76,1.43-1.1,2.29-.82l9.47,3.04-1.17-5.68c-.17-.82.19-1.66.9-2.1.71-.44,1.62-.4,2.28.11l6.83,5.27,2.73-5.6c.31-.63.92-1.05,1.62-1.12.7-.06,1.38.24,1.79.8l2.85,3.86,5.53-8.75c.59-.93,1.82-1.21,2.76-.62.93.59,1.21,1.83.62,2.76l-7.09,11.23c-.35.56-.96.91-1.62.93-.68.03-1.29-.28-1.68-.81l-2.62-3.56-2.35,4.84c-.26.54-.76.94-1.34,1.07-.59.13-1.2,0-1.68-.36l-4.5-3.47.78,3.75c.14.7-.09,1.42-.62,1.89-.53.48-1.27.64-1.95.42l-5.58-1.79,2.1,2.3c.66.72.7,1.82.09,2.59-.61.77-1.68.98-2.54.5l-6.25-3.49,1.83,3.33c.53.97.18,2.18-.79,2.72-.31.17-.64.25-.96.25Z"/>
    <path d="M287.41,316.45c-.64,0-1.25-.31-1.62-.83l-5.28-7.35-.24,2.03c-.11.88-.78,1.59-1.66,1.74-.88.15-1.75-.31-2.13-1.11l-2.29-4.79-1.68,4.22c-.29.72-.96,1.21-1.73,1.26-.8.04-1.5-.35-1.88-1.03l-4.51-8.19c-.53-.97-.18-2.18.79-2.72.97-.53,2.18-.18,2.72.79l2.47,4.49,1.81-4.53c.29-.74,1-1.23,1.79-1.26.84,0,1.53.42,1.87,1.14l1.29,2.7.04-.3c.1-.82.69-1.49,1.49-1.7.8-.21,1.64.1,2.12.77l5.89,8.21,2.73-9.25c.24-.81.96-1.38,1.8-1.43.84-.05,1.63.44,1.96,1.21l3.8,8.91s.06-.08.1-.12c.72-.87,1.4-1.69,1.89-2.56.54-.96,1.76-1.31,2.72-.77.96.54,1.31,1.75.78,2.72-.67,1.2-1.5,2.2-2.3,3.17-.72.87-1.4,1.69-1.89,2.56-.37.67-1.09,1.06-1.85,1.02-.76-.04-1.44-.51-1.74-1.21l-3-7.03-2.31,7.84c-.22.73-.83,1.28-1.58,1.41-.11.02-.22.03-.33.03Z"/>
    <path d="M265.56,357.74c-.74,0-1.43-.41-1.78-1.09l-1.68-3.28-.3,2.28c-.13.95-.9,1.67-1.86,1.73-.96.06-1.82-.56-2.06-1.49l-1.75-6.65c-.28-1.07.36-2.16,1.42-2.44.48-.13.96-.07,1.37.13l.06-.44c.12-.87.78-1.56,1.64-1.71.86-.15,1.72.28,2.12,1.06l1.49,2.92.1-1.03c.11-1.1,1.09-1.91,2.19-1.79,1.1.11,1.9,1.09,1.79,2.19l-.77,7.81c-.09.88-.75,1.6-1.62,1.77-.12.02-.25.04-.37.04Z"/>
    <path d="M243.98,378.34c-1,0-1.86-.75-1.98-1.77l-1.33-11.33c-.11-.91.42-1.77,1.27-2.1.86-.33,1.82-.03,2.35.71l4.15,5.88.43-4.92c.06-.74.53-1.38,1.21-1.67.68-.29,1.46-.18,2.04.29l2.4,1.94.03-8.66c0-.84.53-1.58,1.31-1.87.78-.29,1.67-.06,2.21.58l4.96,5.81,2.6-3.5c.41-.56,1.07-.86,1.78-.8.69.06,1.3.47,1.61,1.09l2.45,4.85c1.2-1.04,2.75-1.68,4.38-1.68h0c.88,0,1.66.58,1.91,1.42l2.93,9.62c.32,1.06-.27,2.17-1.33,2.5-1.06.32-2.17-.27-2.5-1.33l-2.38-7.79c-.63.39-1.13,1.02-1.27,1.72-.17.83-.85,1.46-1.7,1.58-.84.11-1.67-.32-2.05-1.08l-2.58-5.11-2.17,2.91c-.36.49-.93.78-1.54.8-.62.01-1.19-.24-1.59-.7l-3.09-3.62-.03,7.45c0,.77-.45,1.47-1.14,1.8-.69.33-1.52.23-2.12-.25l-2.72-2.2-.58,6.62c-.07.84-.66,1.54-1.47,1.76-.81.22-1.67-.09-2.16-.78l-2.76-3.91.41,3.52c.13,1.1-.66,2.09-1.75,2.22-.08,0-.16.01-.24.01Z"/>
    <path d="M139.23,305.05c-.46,0-.92-.16-1.29-.47-1.16-.98-3.1-2.62-3.29-5.11,0-.06,0-.12,0-.19l-3.26.02c-1.08-.03-2.01-.88-2.01-1.99,0-1.1.88-2,1.99-2.01l5.86-.03c1.32-.61,2.75-.42,3.77.5.61.55.82,1.43.53,2.2-.29.77-1.03,1.28-1.86,1.29h-1.01c.1.72,1.02,1.55,1.88,2.28.84.71.95,1.98.24,2.82-.4.47-.96.71-1.53.71Z"/>
    <path class="cls-1" d="M236.57,658.81c.3.07.59.13.88.19-.27-.14-.57-.2-.88-.19Z"/>
    <path class="cls-4" d="M255.71,472.57c-8.46-4.47-16.2-10.12-23.03-16.8-5.68-5.55-10.69-11.79-14.9-18.55l10.96-11.65c.39-.41.58-.97.53-1.54-.05-.57-.34-1.09-.79-1.43l-10.66-7.99c3.29-6.35,7.61-12.05,12.83-16.95,4.39-4.13,9.3-7.57,14.64-10.27-.58,2.52-1.09,5.05-1.51,7.59-2.16,12.74-2.32,25.65-.48,38.5.99,6.95,2.56,13.78,4.71,20.42,2.04,6.4,4.62,12.64,7.7,18.67Z"/>
    <path class="cls-4" d="M302.66,430.02l7.18,13.82c-7.8,7.88-16.7,14.46-26.49,19.59-6.25,3.27-12.81,5.92-19.59,7.91,4.38-6.52,8.13-13.45,11.73-20.23.3-.56.59-1.11.88-1.66.98-1.86,1.97-3.71,2.96-5.55,6.13-11.37,10.79-22.01,14.25-32.53.31-.94.68-1.93,1.05-2.94,2.29-6.26,5.14-14.04-.87-20.14-.2-.2-.43-.35-.68-.44v-.66c.06.01.13.01.19.01l8.29.04h.07c.77,1.08,1.53,2.18,2.26,3.29,2.85,4.32,5.39,8.85,7.58,13.52,2.16,4.61,4,9.42,5.47,14.3l-13.61,9.08c-.85.57-1.14,1.68-.67,2.59Z"/>
    <path class="cls-1" d="M250.81,384.91c-.29.12-.58.24-.87.36.02-.11.05-.23.08-.34.26,0,.53-.01.79-.02Z"/>
    <path class="cls-1" d="M293.08,393.05v2.27c0,1.11-.9,2-2,2-.17,0-.34-.02-.5-.07.76-1.01,1.49-2.05,2.18-3.12.01-.02.03-.05.04-.07.19-.32.28-.66.28-1.01Z"/>
    <path class="cls-1" d="M293.08,393.05v1.93c-.07-.31-.16-.62-.28-.92.19-.32.28-.66.28-1.01Z"/>
    <path d="M600.02,476.25c.19-.2.34-.44.43-.7-.15.23-.29.46-.43.7ZM600.02,476.25c.19-.2.34-.44.43-.7-.15.23-.29.46-.43.7ZM717.27,546v.04s.04-.01.05-.01c-.02-.01-.03-.02-.05-.03ZM600.02,476.25c.19-.2.34-.44.43-.7-.15.23-.29.46-.43.7ZM600.02,476.25c.19-.2.34-.44.43-.7-.15.23-.29.46-.43.7Z"/>
    <path d="M964.82,710.35c-.9-6.1-3.57-11.2-7.52-14.38-7.7-6.18-17.66-4.19-24.25-2.87-7.46,1.49-15.29,1.96-24.01,2.38-26.7,1.27-47.76-4.84-66.28-19.27-17.95-13.97-31.8-33.03-44.02-49.85-3.46-4.76-6.85-9.66-10.12-14.41-10.16-14.72-20.67-29.95-34.66-42.58-6.75-6.09-14.71-12.97-23.82-17.52-.48-.24-4.62-2.25-8.9-4.15-1.53-.68-2.82-1.23-3.92-1.67,0,0-.03.01-.05.01v-.04c-1.46-.59-2.57-1-3.42-1.27h-.01s-.07-.02-.11-.03c.15-.72.29-1.43.44-2.13.76-3.62,1.55-7.06,2.38-10.64.83-3.57,1.68-7.26,2.51-11.18,1.15-5.5,2.25-11.13,3.31-16.57,1.06-5.39,2.13-10.89,3.29-16.37.32-1.54.65-3.08.99-4.61.56-2.61,1.16-5.2,1.78-7.77,2.77-11.44,7.14-19.55,13-24.12,1.93-1.5,3.87-2.99,5.82-4.48,4.25-3.25,8.64-6.61,12.83-10.13,30.21-25.36,56.6-53.95,78.74-85.25.91-1.27,1.8-2.55,2.69-3.84,5.06-7.31,9.89-14.77,14.48-22.37,8.12-13.44,15.61-27.5,22.25-41.8,4.9.39,9.9-.62,14.24-2.9,4.79-2.52,8.76-6.56,11.19-11.39.05-.1.1-.21.13-.31,4.44-1.82,8.11-5.33,10.08-9.72,5.32-11.76-1.96-24.83-12.08-29.65-2.35-1.11-4.49-1.66-6.53-1.66-.1,0-.19,0-.29.01,3.01-5.87,5.58-11.97,7.64-18.21.54-1.63,1.02-3.23.99-4.99-.04-2.29-1.03-4.33-2.65-5.47-2.67-1.88-6.2-.97-8.32.9-1.8,1.58-3,3.78-4.16,5.9-.55.99-1.06,1.93-1.6,2.73-1.5,2.24-2.87,4.57-4.2,6.82l-.98,1.66c-3.42,5.77-6.65,10.84-11.45,14.37-11.95,8.81-18.73,23.38-17.43,37.32l-11.97,17.61c-3.5,5.16-7.18,10.52-11.05,15.95-1.09,1.55-2.2,3.1-3.34,4.66-9.89,13.66-20.9,27.53-33.12,39.62l-.47.46c-12.7,12.56-25.84,25.54-40.29,36.44-1.03.78-2.08,1.6-3.15,2.43-4.56,3.53-9.27,7.19-14.1,9.32-13.09,5.77-25.04,12.18-36.49,19.59-.09-.01-.19-.01-.28-.01l-9.29.35c-.55-3.32-.72-6.71-.49-10.07,12.59-1.8,24.51-5.53,35.04-11.11,23.17-12.27,41.78-29.81,51.27-48.27,1.67.42,3.39.62,5.1.62,4.62,0,9.2-1.48,12.79-4.33,5.83-4.61,8.62-12.47,6.93-19.56-1.71-7.19-8.19-13.03-15.41-13.87-2.44-.29-4.88.03-7.14.83-.19-.12-.39-.21-.62-.26-12.47-2.84-24.67-6.94-36.35-12.19-35.19-15.74-65.31-42.39-85.39-75.29-.24-.39-.75-.52-1.15-.28-.39.23-.53.75-.29,1.14,6.62,11.17,14.34,21.69,23.05,31.35,5.01,5.58,10.35,10.86,15.98,15.81-13.15-4.13-33.36-13.43-49.75-33.84-18.31-22.8-21.99-47.28-22.56-59.84-.05-.99-.81-1.8-1.8-1.9-.98-.1-1.89.54-2.14,1.5-5.89,23.01-16.83,44.88-31.62,63.24-12.41,15.4-27.37,28.36-44.46,38.53-.95.57-1.26,1.79-.7,2.74.37.63,1.04.98,1.72.98.35,0,.7-.09,1.02-.28,2.8-1.66,5.54-3.4,8.23-5.22-6.87,27.54-.16,58.25,18.29,82.87,15.99,21.33,42,37.49,71.37,44.33.66.16,1.33.31,1.99.45.68,2.69,1,5.44.93,8.19h-10.14c-26.29-12.62-50.63-28.72-72.37-47.84-8.46-7.45-16.49-15.3-24.06-23.55-1.28-1.38-2.53-2.77-3.77-4.17-19.38-21.85-35.68-46.34-48.67-73.16,4.3-13.52-2.23-29.58-14.85-36.15-8.39-4.37-22.33-3.58-31.74,1.78-6.57,3.74-10.22,9.14-10.58,15.6-.24,4.36,1.13,8.93,4.18,13.97,5.85,9.66,15.31,17.09,26.08,20.5,14.15,32.85,32.49,63.77,54.51,91.91,3.77,4.82,7.65,9.56,11.65,14.22.98,1.16,1.98,2.31,3,3.46,11.35,12.97,23.54,25.26,36.39,36.71,2.9,2.58,5.99,5.06,8.98,7.46,7.24,5.81,14.73,11.83,19.85,19.58,2.13,3.23,3.6,6.5,4.36,9.72.72,3.08.68,6.27.65,9.65-.02,1.01-.03,2.01,0,3h0c-.15.25-.29.5-.43.75-4.08,7.41-4.65,16.12-1.66,25.2,4.99,15.13,9.36,27.97,13.5,39.72.53,1.5,1.05,2.98,1.58,4.45,1.13,3.18,2.25,6.3,3.37,9.36.36,1.01.73,2.02,1.1,3.02-.52.37-1.03.74-1.53,1.12-9.78,7.28-17.09,15.69-22.28,25.62-10.9,20.86-15.99,43.29-20.91,64.98-.85,3.78-1.71,7.57-2.6,11.36-5.12,21.8-6.2,42.71-7.33,64.86-.36,7.04-.74,14.32-1.25,21.56-2.09,29.34-6.45,55.05-13.33,78.62-7.3,25.01-18.42,47.4-30.19,71.1l-2.54,5.13c-.45.92-.84,2.43-.1,4.45,2.35,6.41,14.97,13.77,17.49,14.86,4.92,2.13,10.21,3.19,15.5,3.19s10.62-1.07,15.57-3.21c.46-.2.82-.56,1.02-.99,2.87,2.03,5.84,4.04,9,5.7,9.66,5.04,19.37,7.63,28.44,7.63,1.94,0,3.84-.11,5.71-.35,9.67-1.23,18.45-5.58,26.94-9.79,1.19-.59,2.4-1.19,3.61-1.77-.9,8.29-4.05,16.41-9,23.11-.36.5-.74.99-1.12,1.48-1.39,1.81-2.82,3.68-3.82,5.89-1.61,3.54-1.58,7.29.09,10.01,1.62,2.65,4.75,4.34,8.36,4.5.21.01.42.01.62.01,2.79,0,5.43-.81,7.88-1.71,11.12-4.04,19.32-8.6,24.38-13.55,8.19-8.02,15.39-17.15,20.09-23.32,1.3-1.71,2.08-3.75,2.24-5.92.09-1.14.19-2.29.29-3.44.11-1.28.23-2.59.32-3.88,1.8.27,3.61.54,5.43.82,7.59,1.16,15.45,2.35,23.54,2.52,15.04.32,33.78.72,47.65-7.72,6.35-3.86,11.91-8.62,17.06-13.76.15-.03.29-.09.42-.16,5.91-2.95,12.01-5.64,17.91-8.25,5.77-2.54,11.73-5.17,17.55-8.06,2.34.24,4.67.36,7.02.36,25.11,0,50.42-13.75,63.48-35.17.33-.54.39-1.19.16-1.77-.44-1.14-.52-2.82-.6-4.45-.06-1.16-.12-2.34-.3-3.47,8.78-2.11,17.2-5.84,24.9-10.92.98.71,2.05,1.21,3.18,1.5.76.19,1.53.28,2.31.28,4.06,0,8.3-2.6,11.94-7.41,4.72-6.26,8.35-14.48,9.96-23.22.71-1.2,1.4-2.43,2.06-3.67,6.97-4.18,12.25-11.33,14.17-19.23,1.95-8,.93-16.76-2.65-23.34,10.59-8.63,16.2-23.85,14.05-38.51ZM572.02,356.17c-18.46-24.63-24.71-55.57-16.73-82.76.1-.36.1-.72.01-1.05,12.18-8.81,23.08-19.17,32.54-30.9,12.97-16.1,23.04-34.84,29.46-54.69,2.05,13.88,7.66,33.31,22.42,51.68,19.47,24.25,44.11,33.39,57.07,36.69.62.16,1.25,0,1.71-.36,21.59,17.54,46.93,30.44,73.86,37.49-2.92,2.33-5.03,5.57-5.57,9.21-.16,1.09.59,2.11,1.68,2.27,1.1.17,2.11-.59,2.27-1.68.85-5.64,7.19-10.13,13.3-9.42,5.6.65,10.64,5.21,11.98,10.83,1.31,5.51-.96,11.88-5.52,15.49-4.47,3.54-11.14,4.46-16.59,2.28-1.03-.41-2.19.09-2.6,1.12-.24.61-.17,1.26.15,1.77-9.15,17.7-27.11,34.56-49.51,46.42-10.65,5.64-22.44,9.2-34.71,10.84h0c-.37.05-.73.09-1.1.14h-.01c-41.98,5.18-89.12-12.03-114.1-45.37ZM594.91,449.66c-5.47-8.28-13.2-14.49-20.69-20.5-2.95-2.37-5.99-4.81-8.82-7.33-13.28-11.83-25.84-24.57-37.5-38.03-1.02-1.17-2.03-2.34-3.03-3.53-3.42-4.03-6.76-8.14-10.02-12.3-22-28.11-40.28-59.02-54.35-91.87-.24-.55-.71-.97-1.28-1.14-10.19-2.99-19.19-9.92-24.69-19.01-2.62-4.33-3.8-8.15-3.6-11.68.35-6.37,4.84-10.23,8.56-12.34,8.21-4.69,20.73-5.45,27.92-1.71,11.16,5.81,16.84,20.2,12.65,32.07-.18.5-.15,1.05.08,1.53,13.8,28.67,31.32,54.71,52.29,77.77,1.21,1.34,2.44,2.67,3.68,3.98,6.92,7.36,14.21,14.41,21.85,21.13,22.12,19.47,46.92,35.83,73.69,48.64.27.13.56.2.86.2h10.25c-.41,2.71-1.19,5.36-2.33,7.88-.46,1-.02,2.19.99,2.65.27.12.55.18.83.18.76,0,1.48-.44,1.82-1.18,2.95-6.52,3.79-13.86,2.39-20.86,8.17,1.51,16.36,2.25,24.43,2.25,4.68,0,9.31-.25,13.86-.75-.2,3.77.06,7.58.76,11.3.09.47.19.94.29,1.41.42,1.87.94,3.72,1.58,5.53.29.83,1.06,1.34,1.88,1.34.22,0,.45-.04.67-.12,1.04-.36,1.59-1.51,1.22-2.55-.39-1.11-.74-2.24-1.03-3.38l8.24-.31c.25.11.52.17.8.17.38,0,.76-.1,1.09-.32,11.51-7.5,23.51-13.97,36.69-19.78,5.28-2.33,10.41-6.31,14.94-9.82,1.06-.82,2.1-1.62,3.11-2.39,14.67-11.06,27.9-24.14,40.69-36.8l.47-.46c11.47-11.34,21.85-24.19,31.25-36.96,1.11-1.5,2.2-3,3.28-4.49,4.75-6.6,9.24-13.13,13.48-19.37l12.38-18.21c.27-.4.39-.88.34-1.36-1.47-12.76,4.71-26.26,15.75-34.39,5.39-3.97,8.99-9.62,12.51-15.54l.99-1.68c1.3-2.2,2.64-4.48,4.07-6.62.64-.95,1.22-2.01,1.78-3.04,1-1.82,2.04-3.7,3.31-4.82.91-.8,2.45-1.27,3.36-.63.58.4.94,1.27.96,2.27.02,1.14-.34,2.33-.78,3.66-2.58,7.78-5.95,15.33-10.02,22.45-.51.89-.26,2.02.58,2.62.83.6,1.98.46,2.66-.31.87-.99,1.57-1.28,3.14-1.3,1.47-.04,3.06.4,4.89,1.27,8.24,3.93,14.44,14.91,10.16,24.4-1.6,3.55-4.61,6.38-8.25,7.77-.62.24-1.05.75-1.21,1.34-.28.19-.52.45-.68.77-2.06,4.08-5.43,7.51-9.48,9.63-4.05,2.13-8.78,2.95-13.31,2.33-.88-.12-1.73.34-2.1,1.14-6.73,14.62-14.35,28.98-22.64,42.71-4.1,6.78-8.38,13.44-12.86,19.99-.9,1.33-1.81,2.65-2.74,3.97-22.22,31.81-48.87,60.83-79.47,86.51-4.12,3.46-8.47,6.79-12.68,10.01-1.96,1.5-3.91,2.99-5.85,4.51-6.59,5.13-11.44,13.99-14.43,26.33-.31,1.27-.61,2.54-.9,3.81-6.66-9.51-16.7-16.58-27.99-19.47-13.3-3.41-27.87-.9-39.28,6.72-10.16-7.54-24.35-10.42-36.6-7.34-7.86,1.98-14.45,5.68-19.17,10.68,0-2.71-.13-5.49-.78-8.23-.87-3.68-2.52-7.38-4.91-11ZM612.58,540.9c-4.38-12.36-8.98-25.87-14.3-41.97-2.63-8-2.17-15.61,1.36-22.02l.36-.63s0-.02.02-.03c.14-.24.28-.47.43-.7,4.09-6.43,11.23-11.18,20.3-13.46,11.38-2.86,25.16.15,34.3,7.49.7.56,1.68.59,2.41.07,10.64-7.59,24.54-10.19,37.2-6.95,11.61,2.98,21.78,10.76,27.76,21.11-1.42,6.55-2.71,13.15-3.97,19.61-1.06,5.42-2.16,11.03-3.31,16.51-.82,3.88-1.66,7.55-2.49,11.1-.91,3.96-1.85,8.03-2.73,12.34-.18.9-.36,1.8-.54,2.72-.08.43-.02.86.16,1.23.01.05.04.11.08.16-.18.05-.36.08-.54.1-12.94,7.3-27.35,11.98-42.02,13.63-20.05,2.26-37.1-1.38-49.2-5.63-1.23-3.37-2.47-6.79-3.72-10.3-.52-1.44-1.04-2.9-1.56-4.38ZM531.05,916.72c-3.07-1.33-13.69-8.09-15.32-12.57-.1-.26-.15-.47-.17-.65,9.92.18,20.14,2.29,30.36,6.28,4.35,1.71,8.25,4.35,12.3,7.22-8.7,3.54-18.56,3.45-27.17-.28ZM681.28,917.51c-.11,1.17-.21,2.33-.3,3.49-.1,1.39-.6,2.7-1.43,3.79-7.45,9.78-13.53,16.84-19.71,22.89-4.65,4.55-12.37,8.8-22.95,12.66-2.24.81-4.63,1.55-6.95,1.45-2.25-.1-4.21-1.09-5.13-2.59-.97-1.59-.92-3.93.14-6.27.81-1.79,2.05-3.4,3.35-5.1.4-.51.79-1.03,1.17-1.55,5.84-7.91,9.38-17.65,9.97-27.47,2.44-1.12,4.9-2.16,7.38-3.05,11.89-4.26,23.19-3.82,34.78-2.33-.09,1.34-.21,2.73-.32,4.08ZM760.12,906.19c-12.88,7.83-30.96,7.44-45.49,7.14-7.83-.17-15.55-1.35-23.02-2.49-2.3-.35-4.62-.7-6.95-1.03-.46-.06-.92-.12-1.38-.18-12.2-1.63-24.76-2.3-37.8,2.37-5.38,1.92-10.59,4.5-15.62,6.99-8.57,4.25-16.67,8.26-25.67,9.4-9.81,1.25-20.8-1.12-31.79-6.86-3.61-1.88-7.06-4.35-10.4-6.74-4.57-3.27-9.29-6.65-14.63-8.73-10.09-3.94-20.2-6.13-30.07-6.52l.9-1.81c11.85-23.86,23.04-46.4,30.44-71.76,6.96-23.84,11.37-49.83,13.48-79.46.51-7.27.89-14.58,1.25-21.64,1.13-21.96,2.19-42.7,7.23-64.15.89-3.8,1.75-7.6,2.61-11.38,5.09-22.43,9.89-43.62,20.55-64.01,5.28-10.09,12.89-18.54,23.25-25.8h.01c9.83,3.39,22.73,6.37,37.75,6.37,4.09,0,8.34-.22,12.73-.71,16.47-1.85,32.61-7.39,46.84-16.05,3.98,1.53,10.96,4.77,14.01,6.29,8.66,4.32,16.38,11,22.93,16.91,13.64,12.32,23.55,26.68,34.05,41.89,3.28,4.76,6.68,9.68,10.17,14.49,12.38,17.03,26.41,36.33,44.8,50.65,19.32,15.05,41.24,21.43,68.93,20.11,8.89-.43,16.87-.91,24.6-2.46,7.55-1.51,14.78-2.5,20.48,1.7-5.19-.01-10.61,2.77-14.13,7.51-3.36,4.53-5.15,10.51-5.46,18.28-.11,2.83-.04,5.67.03,8.43.08,3.19.16,6.49-.05,9.69-.88,13.06-10,20.5-19.65,28.39-2.74,2.24-5.58,4.55-8.24,7.01-5.27,4.9-8.64,10.76-11.38,17.03-.43.99-.85,1.99-1.25,3-.57,1.39-1.11,2.8-1.65,4.22-5.19,13.74-10.68,22.97-23.4,29.52-7.25,3.73-15.16,6.28-22.81,8.75-8.89,2.87-18.09,5.83-26.49,10.7-12.42,7.19-21.82,17.87-30.92,28.2-8.59,9.76-17.48,19.86-28.79,26.74ZM882.05,831.41c-.57.12-1.07.49-1.34,1-.28.52-.32,1.13-.11,1.68.44,1.14.52,2.82.6,4.45.08,1.58.16,3.21.55,4.7-13.77,21.85-41.07,35.02-66.75,32.09-.38-.05-.77.02-1.12.2-5.9,2.95-12.01,5.64-17.9,8.25-3.03,1.34-6.12,2.7-9.21,4.1,1.75-1.93,3.45-3.87,5.15-5.79,8.88-10.09,18.06-20.52,29.91-27.38,8.04-4.65,17.03-7.55,25.72-10.36,7.8-2.51,15.87-5.11,23.41-8.99,13.8-7.11,19.92-17.38,25.32-31.66.52-1.38,1.04-2.74,1.58-4.07,1.89,1.01,3.36,3.14,4.12,5.23.67,1.83,1.02,3.78,1.39,5.84.3,1.68.61,3.41,1.11,5.12.59,2.01,1.42,3.77,2.45,5.23-7.69,4.97-16.11,8.52-24.88,10.36ZM933.44,793.57c-.7,4.17-1.91,8.23-3.51,12-1.61,3.81-3.62,7.32-5.9,10.34-1.22,1.62-5.55,6.8-10.06,5.66-.17-.04-.34-.1-.51-.17-1.36-.49-2.41-1.5-3.2-2.61-1.12-1.56-1.72-3.32-1.94-4.09-.44-1.51-.72-3.06-1.02-4.7-.38-2.14-.78-4.35-1.56-6.51-1.03-2.81-3.18-6.02-6.31-7.57,2.5-5.63,5.49-10.68,10.1-14.95,2.57-2.38,5.35-4.65,8.05-6.85,3.72-3.03,7.47-6.11,10.77-9.54,5.59,8.63,6.76,19.12,5.09,28.99ZM946.46,749.43c3.7,5.74,4.91,14.3,3.08,21.82-1.6,6.55-5.84,12.51-11.48,16.2.36-8.96-1.58-18.03-6.79-25.72-.06-.08-.12-.16-.19-.23,4.12-5.05,7.09-10.97,7.61-18.6.23-3.38.14-6.78.06-10.07-.07-2.68-.14-5.46-.03-8.16.28-6.94,1.8-12.19,4.67-16.06,2.9-3.9,8.54-7.05,13.7-5.49.38.12.77.11,1.13.01,1.3,2.2,2.21,4.86,2.64,7.8,2.04,13.89-3.54,28.27-13.89,35.8-.86.63-1.08,1.81-.51,2.7Z"/>
  </g>
</svg>