<svg width="170" height="37" viewBox="0 0 170 37" fill="none" xmlns="http://www.w3.org/2000/svg">
<g id="dress-code-pallet">
<g id="pallet-5">
<path id="fill" fill-rule="evenodd" clip-rule="evenodd" d="M140.56 36.8699V14.29C140.56 6.48004 146.92 0.119873 154.73 0.119873C162.54 0.119873 168.9 6.48004 168.9 14.29V36.8699H140.56Z" fill="white"/>
<path id="stroke" d="M154.73 0.25C162.47 0.25 168.78 6.55005 168.78 14.3V36.75H140.69V14.3C140.69 6.56005 146.99 0.25 154.74 0.25M154.73 0C146.83 0 140.43 6.40005 140.43 14.3V37H169.02V14.3C169.02 6.40005 162.62 0 154.72 0H154.73Z" fill="black"/>
</g>
<path id="pallet-4" d="M119.62 0C127.51 0 133.92 6.41005 133.92 14.3V37H105.33V14.3C105.33 6.41005 111.74 0 119.63 0H119.62Z" fill="#7E8C54"/>
<path id="pallet-3" d="M84.51 0C92.4 0 98.8101 6.41005 98.8101 14.3V37H70.22V14.3C70.22 6.41005 76.63 0 84.52 0H84.51Z" fill="#52592F"/>
<path id="pallet-2" d="M49.4 0C57.29 0 63.7 6.41005 63.7 14.3V37H35.11V14.3C35.11 6.41005 41.52 0 49.41 0H49.4Z" fill="#D7652F"/>
<path id="pallet-1" d="M14.29 0C22.18 0 28.59 6.41005 28.59 14.3V37H0V14.3C0 6.41005 6.41005 0 14.3 0H14.29Z" fill="#B74F28"/>
</g>
</svg>
