<svg xmlns="http://www.w3.org/2000/svg" width="986" height="176" fill="none" viewBox="0 0 986 176"><path id="film" fill="#000" preserveAspectRatio="none" d="M0 0v176h986V0zm966.812 4.835a2.28 2.28 0 0 1 2.282 2.275V18.46a2.28 2.28 0 0 1-2.282 2.275h-7.161a2.28 2.28 0 0 1-2.276-2.275V7.11a2.28 2.28 0 0 1 2.276-2.275zm-17.096 0a2.28 2.28 0 0 1 2.277 2.275V18.46a2.28 2.28 0 0 1-2.277 2.275h-7.161a2.28 2.28 0 0 1-2.281-2.275V7.11a2.28 2.28 0 0 1 2.281-2.275zm-17.101 0a2.28 2.28 0 0 1 2.277 2.275V18.46a2.28 2.28 0 0 1-2.277 2.275h-7.161a2.28 2.28 0 0 1-2.277-2.275V7.11a2.28 2.28 0 0 1 2.277-2.275zm-17.101 0a2.28 2.28 0 0 1 2.281 2.275V18.46a2.28 2.28 0 0 1-2.281 2.275h-7.161a2.28 2.28 0 0 1-2.277-2.275V7.11a2.28 2.28 0 0 1 2.277-2.275zm-17.096 0a2.28 2.28 0 0 1 2.276 2.275V18.46a2.28 2.28 0 0 1-2.276 2.275h-7.161a2.28 2.28 0 0 1-2.282-2.275V7.11a2.28 2.28 0 0 1 2.282-2.275zm-17.101 0a2.28 2.28 0 0 1 2.281 2.275V18.46a2.28 2.28 0 0 1-2.281 2.275h-7.162a2.28 2.28 0 0 1-2.276-2.275V7.11a2.28 2.28 0 0 1 2.276-2.275zm-17.102 0a2.28 2.28 0 0 1 2.282 2.275V18.46a2.28 2.28 0 0 1-2.282 2.275h-7.161a2.28 2.28 0 0 1-2.276-2.275V7.11a2.28 2.28 0 0 1 2.276-2.275zm-17.096 0a2.28 2.28 0 0 1 2.277 2.275V18.46a2.28 2.28 0 0 1-2.277 2.275h-7.161a2.28 2.28 0 0 1-2.281-2.275V7.11a2.28 2.28 0 0 1 2.281-2.275zm-140.2 143.731V27.439h130.912v121.127zM830.018 4.835A2.283 2.283 0 0 1 832.3 7.11V18.46a2.283 2.283 0 0 1-2.282 2.275h-7.161a2.28 2.28 0 0 1-2.277-2.275V7.11a2.28 2.28 0 0 1 2.277-2.275zm-17.096 0a2.28 2.28 0 0 1 2.276 2.275V18.46a2.28 2.28 0 0 1-2.276 2.275h-7.166a2.28 2.28 0 0 1-2.277-2.275V7.11a2.28 2.28 0 0 1 2.277-2.275zm-17.101 0a2.28 2.28 0 0 1 2.276 2.275V18.46a2.28 2.28 0 0 1-2.276 2.275h-7.161a2.28 2.28 0 0 1-2.282-2.275V7.11a2.28 2.28 0 0 1 2.282-2.275zm-17.101 0a2.28 2.28 0 0 1 2.281 2.275V18.46a2.28 2.28 0 0 1-2.281 2.275h-7.161a2.28 2.28 0 0 1-2.277-2.275V7.11a2.28 2.28 0 0 1 2.277-2.275zm-17.097 0A2.28 2.28 0 0 1 763.9 7.11V18.46a2.28 2.28 0 0 1-2.277 2.275h-7.166a2.28 2.28 0 0 1-2.277-2.275V7.11a2.28 2.28 0 0 1 2.277-2.275zm-17.101 0a2.28 2.28 0 0 1 2.277 2.275V18.46a2.28 2.28 0 0 1-2.277 2.275h-7.161a2.28 2.28 0 0 1-2.281-2.275V7.11a2.28 2.28 0 0 1 2.281-2.275zm-17.101 0a2.283 2.283 0 0 1 2.282 2.275V18.46a2.283 2.283 0 0 1-2.282 2.275h-7.161a2.28 2.28 0 0 1-2.276-2.275V7.11a2.28 2.28 0 0 1 2.276-2.275zm-17.096 0a2.28 2.28 0 0 1 2.277 2.275V18.46a2.28 2.28 0 0 1-2.277 2.275h-7.161a2.28 2.28 0 0 1-2.281-2.275V7.11a2.28 2.28 0 0 1 2.281-2.275zm-17.101 0a2.28 2.28 0 0 1 2.277 2.275V18.46a2.28 2.28 0 0 1-2.277 2.275h-7.161a2.283 2.283 0 0 1-2.282-2.275V7.11a2.283 2.283 0 0 1 2.282-2.275zm-17.101 0a2.28 2.28 0 0 1 2.281 2.275V18.46a2.28 2.28 0 0 1-2.281 2.275h-7.161a2.28 2.28 0 0 1-2.277-2.275V7.11a2.28 2.28 0 0 1 2.277-2.275zm-17.096 0a2.28 2.28 0 0 1 2.276 2.275V18.46a2.28 2.28 0 0 1-2.276 2.275h-7.162a2.28 2.28 0 0 1-2.281-2.275V7.11a2.28 2.28 0 0 1 2.281-2.275zm-17.101 0a2.28 2.28 0 0 1 2.276 2.275V18.46a2.28 2.28 0 0 1-2.276 2.275h-7.162a2.28 2.28 0 0 1-2.276-2.275V7.11a2.28 2.28 0 0 1 2.276-2.275zm-17.102 0a2.28 2.28 0 0 1 2.282 2.275V18.46a2.28 2.28 0 0 1-2.282 2.275h-7.161a2.28 2.28 0 0 1-2.276-2.275V7.11a2.28 2.28 0 0 1 2.276-2.275zm-17.096 0a2.28 2.28 0 0 1 2.277 2.275V18.46a2.28 2.28 0 0 1-2.277 2.275h-7.161a2.28 2.28 0 0 1-2.281-2.275V7.11a2.28 2.28 0 0 1 2.281-2.275zm-17.101 0a2.283 2.283 0 0 1 2.282 2.275V18.46a2.283 2.283 0 0 1-2.282 2.275h-7.161a2.28 2.28 0 0 1-2.277-2.275V7.11a2.28 2.28 0 0 1 2.277-2.275zm-17.101 0a2.28 2.28 0 0 1 2.281 2.275V18.46a2.28 2.28 0 0 1-2.281 2.275h-7.161a2.28 2.28 0 0 1-2.277-2.275V7.11a2.28 2.28 0 0 1 2.277-2.275zm-17.096 0a2.28 2.28 0 0 1 2.276 2.275V18.46a2.28 2.28 0 0 1-2.276 2.275h-7.161a2.28 2.28 0 0 1-2.282-2.275V7.11a2.28 2.28 0 0 1 2.282-2.275zM427.543 148.566V27.439h130.914v121.127zM539.329 4.835a2.28 2.28 0 0 1 2.281 2.275V18.46a2.28 2.28 0 0 1-2.281 2.275h-7.161a2.28 2.28 0 0 1-2.277-2.275V7.11a2.28 2.28 0 0 1 2.277-2.275zm-17.097 0a2.28 2.28 0 0 1 2.277 2.275V18.46a2.28 2.28 0 0 1-2.277 2.275h-7.166a2.28 2.28 0 0 1-2.276-2.275V7.11a2.28 2.28 0 0 1 2.276-2.275zm-17.101 0a2.28 2.28 0 0 1 2.277 2.275V18.46a2.28 2.28 0 0 1-2.277 2.275h-7.161a2.28 2.28 0 0 1-2.281-2.275V7.11a2.28 2.28 0 0 1 2.281-2.275zm-17.101 0a2.283 2.283 0 0 1 2.282 2.275V18.46a2.283 2.283 0 0 1-2.282 2.275h-7.161a2.28 2.28 0 0 1-2.276-2.275V7.11a2.28 2.28 0 0 1 2.276-2.275zm-17.096 0a2.28 2.28 0 0 1 2.277 2.275V18.46a2.28 2.28 0 0 1-2.277 2.275h-7.166a2.28 2.28 0 0 1-2.277-2.275V7.11a2.28 2.28 0 0 1 2.277-2.275zm-17.101 0a2.28 2.28 0 0 1 2.277 2.275V18.46a2.28 2.28 0 0 1-2.277 2.275h-7.161a2.283 2.283 0 0 1-2.282-2.275V7.11a2.283 2.283 0 0 1 2.282-2.275zm-17.101 0a2.28 2.28 0 0 1 2.281 2.275V18.46a2.28 2.28 0 0 1-2.281 2.275h-7.161a2.28 2.28 0 0 1-2.277-2.275V7.11a2.28 2.28 0 0 1 2.277-2.275zm-17.096 0a2.28 2.28 0 0 1 2.276 2.275V18.46a2.28 2.28 0 0 1-2.276 2.275h-7.161a2.28 2.28 0 0 1-2.282-2.275V7.11a2.28 2.28 0 0 1 2.282-2.275zm-17.101 0a2.28 2.28 0 0 1 2.276 2.275V18.46a2.28 2.28 0 0 1-2.276 2.275h-7.162a2.28 2.28 0 0 1-2.281-2.275V7.11a2.28 2.28 0 0 1 2.281-2.275zm-17.102 0a2.28 2.28 0 0 1 2.282 2.275V18.46a2.28 2.28 0 0 1-2.282 2.275h-7.161a2.28 2.28 0 0 1-2.276-2.275V7.11a2.28 2.28 0 0 1 2.276-2.275zm-17.096 0a2.28 2.28 0 0 1 2.277 2.275V18.46a2.28 2.28 0 0 1-2.277 2.275h-7.161a2.28 2.28 0 0 1-2.281-2.275V7.11a2.28 2.28 0 0 1 2.281-2.275zm-17.101 0a2.28 2.28 0 0 1 2.277 2.275V18.46a2.28 2.28 0 0 1-2.277 2.275h-7.162a2.28 2.28 0 0 1-2.276-2.275V7.11a2.28 2.28 0 0 1 2.276-2.275zm-17.101 0a2.28 2.28 0 0 1 2.281 2.275V18.46a2.28 2.28 0 0 1-2.281 2.275h-7.161a2.28 2.28 0 0 1-2.277-2.275V7.11a2.28 2.28 0 0 1 2.277-2.275zm-17.096 0a2.28 2.28 0 0 1 2.276 2.275V18.46a2.28 2.28 0 0 1-2.276 2.275h-7.161a2.28 2.28 0 0 1-2.282-2.275V7.11a2.28 2.28 0 0 1 2.282-2.275zm-17.101 0a2.28 2.28 0 0 1 2.281 2.275V18.46a2.28 2.28 0 0 1-2.281 2.275h-7.161a2.28 2.28 0 0 1-2.277-2.275V7.11a2.28 2.28 0 0 1 2.277-2.275zm-17.101 0a2.28 2.28 0 0 1 2.281 2.275V18.46a2.28 2.28 0 0 1-2.281 2.275h-7.162a2.28 2.28 0 0 1-2.276-2.275V7.11a2.28 2.28 0 0 1 2.276-2.275zM148.168 148.566V27.439h130.913v121.127zM265.74 4.835a2.28 2.28 0 0 1 2.277 2.275V18.46a2.28 2.28 0 0 1-2.277 2.275h-7.161a2.28 2.28 0 0 1-2.281-2.275V7.11a2.28 2.28 0 0 1 2.281-2.275zm-17.101 0a2.283 2.283 0 0 1 2.282 2.275V18.46a2.283 2.283 0 0 1-2.282 2.275h-7.161a2.28 2.28 0 0 1-2.276-2.275V7.11a2.28 2.28 0 0 1 2.276-2.275zm-17.096 0a2.28 2.28 0 0 1 2.277 2.275V18.46a2.28 2.28 0 0 1-2.277 2.275h-7.166a2.28 2.28 0 0 1-2.277-2.275V7.11a2.28 2.28 0 0 1 2.277-2.275zm-17.101 0a2.28 2.28 0 0 1 2.276 2.275V18.46a2.28 2.28 0 0 1-2.276 2.275h-7.161a2.283 2.283 0 0 1-2.282-2.275V7.11a2.283 2.283 0 0 1 2.282-2.275zm-17.101 0a2.28 2.28 0 0 1 2.281 2.275V18.46a2.28 2.28 0 0 1-2.281 2.275h-7.161a2.28 2.28 0 0 1-2.277-2.275V7.11a2.28 2.28 0 0 1 2.277-2.275zm-17.096 0a2.28 2.28 0 0 1 2.276 2.275V18.46a2.28 2.28 0 0 1-2.276 2.275h-7.166a2.28 2.28 0 0 1-2.277-2.275V7.11a2.28 2.28 0 0 1 2.277-2.275zm-17.102 0a2.28 2.28 0 0 1 2.277 2.275V18.46a2.28 2.28 0 0 1-2.277 2.275h-7.161a2.28 2.28 0 0 1-2.281-2.275V7.11a2.28 2.28 0 0 1 2.281-2.275zm-17.101 0a2.28 2.28 0 0 1 2.282 2.275V18.46a2.28 2.28 0 0 1-2.282 2.275h-7.161a2.28 2.28 0 0 1-2.276-2.275V7.11a2.28 2.28 0 0 1 2.276-2.275zm-17.096 0a2.28 2.28 0 0 1 2.277 2.275V18.46a2.28 2.28 0 0 1-2.277 2.275h-7.161a2.28 2.28 0 0 1-2.281-2.275V7.11a2.28 2.28 0 0 1 2.281-2.275zm-17.101 0a2.28 2.28 0 0 1 2.277 2.275V18.46a2.28 2.28 0 0 1-2.277 2.275h-7.161a2.283 2.283 0 0 1-2.282-2.275V7.11a2.283 2.283 0 0 1 2.282-2.275zm-17.101 0a2.28 2.28 0 0 1 2.281 2.275V18.46a2.28 2.28 0 0 1-2.281 2.275h-7.161a2.28 2.28 0 0 1-2.277-2.275V7.11a2.28 2.28 0 0 1 2.277-2.275zm-17.096 0a2.28 2.28 0 0 1 2.276 2.275V18.46a2.28 2.28 0 0 1-2.276 2.275h-7.161a2.28 2.28 0 0 1-2.282-2.275V7.11a2.28 2.28 0 0 1 2.282-2.275zm-17.101 0a2.28 2.28 0 0 1 2.276 2.275V18.46a2.28 2.28 0 0 1-2.276 2.275h-7.162a2.28 2.28 0 0 1-2.276-2.275V7.11a2.28 2.28 0 0 1 2.276-2.275zm-17.101 0a2.28 2.28 0 0 1 2.281 2.275V18.46a2.28 2.28 0 0 1-2.281 2.275h-7.162a2.28 2.28 0 0 1-2.276-2.275V7.11a2.28 2.28 0 0 1 2.276-2.275zm-17.097 0a2.28 2.28 0 0 1 2.277 2.275V18.46a2.28 2.28 0 0 1-2.277 2.275h-7.16a2.28 2.28 0 0 1-2.282-2.275V7.11a2.28 2.28 0 0 1 2.281-2.275zM8.636 148.566V27.439h130.758v121.127H8.636m10.552 22.604a2.283 2.283 0 0 1-2.282-2.28v-11.344a2.283 2.283 0 0 1 2.282-2.28h7.16a2.28 2.28 0 0 1 2.277 2.28v11.344a2.28 2.28 0 0 1-2.276 2.28zm17.096 0a2.28 2.28 0 0 1-2.277-2.28v-11.344a2.28 2.28 0 0 1 2.277-2.28h7.161a2.283 2.283 0 0 1 2.282 2.28v11.344a2.283 2.283 0 0 1-2.282 2.28zm17.101 0a2.28 2.28 0 0 1-2.276-2.28v-11.344a2.28 2.28 0 0 1 2.276-2.28h7.162a2.28 2.28 0 0 1 2.276 2.28v11.344a2.28 2.28 0 0 1-2.276 2.28zm17.101 0a2.283 2.283 0 0 1-2.281-2.28v-11.344a2.283 2.283 0 0 1 2.281-2.28h7.161a2.28 2.28 0 0 1 2.277 2.28v11.344a2.28 2.28 0 0 1-2.277 2.28zm17.096 0a2.28 2.28 0 0 1-2.276-2.28v-11.344a2.28 2.28 0 0 1 2.276-2.28h7.162a2.283 2.283 0 0 1 2.28 2.28v11.344a2.283 2.283 0 0 1-2.28 2.28zm17.101 0a2.283 2.283 0 0 1-2.281-2.28v-11.344a2.28 2.28 0 0 1 2.281-2.28h7.162a2.28 2.28 0 0 1 2.276 2.28v11.344a2.28 2.28 0 0 1-2.276 2.28zm17.102 0a2.28 2.28 0 0 1-2.282-2.28v-11.344a2.28 2.28 0 0 1 2.282-2.28h7.161a2.28 2.28 0 0 1 2.276 2.28v11.344a2.28 2.28 0 0 1-2.276 2.28zm17.096 0a2.28 2.28 0 0 1-2.277-2.28v-11.344a2.28 2.28 0 0 1 2.277-2.28h7.161a2.28 2.28 0 0 1 2.281 2.28v11.344a2.283 2.283 0 0 1-2.281 2.28zm17.101 0a2.284 2.284 0 0 1-2.282-2.28v-11.344a2.283 2.283 0 0 1 2.282-2.28h7.161a2.28 2.28 0 0 1 2.277 2.28v11.344a2.28 2.28 0 0 1-2.277 2.28zm17.096 0a2.28 2.28 0 0 1-2.276-2.28v-11.344a2.28 2.28 0 0 1 2.276-2.28h7.166a2.28 2.28 0 0 1 2.277 2.28v11.344a2.28 2.28 0 0 1-2.277 2.28zm17.101 0a2.28 2.28 0 0 1-2.276-2.28v-11.344a2.28 2.28 0 0 1 2.276-2.28h7.161a2.283 2.283 0 0 1 2.282 2.28v11.344a2.283 2.283 0 0 1-2.282 2.28zm17.101 0a2.283 2.283 0 0 1-2.281-2.28v-11.344a2.28 2.28 0 0 1 2.281-2.28h7.161a2.28 2.28 0 0 1 2.277 2.28v11.344a2.28 2.28 0 0 1-2.277 2.28zm17.097 0a2.28 2.28 0 0 1-2.277-2.28v-11.344a2.28 2.28 0 0 1 2.277-2.28h7.166a2.28 2.28 0 0 1 2.276 2.28v11.344a2.28 2.28 0 0 1-2.276 2.28zm17.101 0a2.28 2.28 0 0 1-2.277-2.28v-11.344a2.28 2.28 0 0 1 2.277-2.28h7.161a2.28 2.28 0 0 1 2.281 2.28v11.344a2.283 2.283 0 0 1-2.281 2.28zm17.101 0a2.284 2.284 0 0 1-2.282-2.28v-11.344a2.283 2.283 0 0 1 2.282-2.28h7.161a2.28 2.28 0 0 1 2.276 2.28v11.344a2.28 2.28 0 0 1-2.276 2.28zm17.096 0a2.28 2.28 0 0 1-2.277-2.28v-11.344a2.28 2.28 0 0 1 2.277-2.28h7.161a2.28 2.28 0 0 1 2.282 2.28v11.344a2.28 2.28 0 0 1-2.282 2.28zm12.181-143.731h130.913v121.127H287.856zm4.92 143.731a2.28 2.28 0 0 1-2.277-2.28v-11.344a2.28 2.28 0 0 1 2.277-2.28h7.161a2.283 2.283 0 0 1 2.282 2.28v11.344a2.284 2.284 0 0 1-2.282 2.28zm17.101 0a2.283 2.283 0 0 1-2.281-2.28v-11.344a2.28 2.28 0 0 1 2.281-2.28h7.161a2.28 2.28 0 0 1 2.277 2.28v11.344a2.28 2.28 0 0 1-2.277 2.28zm17.096 0a2.28 2.28 0 0 1-2.276-2.28v-11.344a2.28 2.28 0 0 1 2.276-2.28h7.162a2.28 2.28 0 0 1 2.281 2.28v11.344a2.283 2.283 0 0 1-2.281 2.28zm17.101 0a2.28 2.28 0 0 1-2.276-2.28v-11.344a2.28 2.28 0 0 1 2.276-2.28h7.162a2.28 2.28 0 0 1 2.277 2.28v11.344a2.28 2.28 0 0 1-2.277 2.28zm17.102 0a2.283 2.283 0 0 1-2.282-2.28v-11.344a2.283 2.283 0 0 1 2.282-2.28h7.161a2.28 2.28 0 0 1 2.276 2.28v11.344a2.28 2.28 0 0 1-2.276 2.28zm17.096 0a2.28 2.28 0 0 1-2.277-2.28v-11.344a2.28 2.28 0 0 1 2.277-2.28h7.161a2.28 2.28 0 0 1 2.281 2.28v11.344a2.283 2.283 0 0 1-2.281 2.28zm17.101 0a2.284 2.284 0 0 1-2.282-2.28v-11.344a2.283 2.283 0 0 1 2.282-2.28h7.161a2.28 2.28 0 0 1 2.277 2.28v11.344a2.28 2.28 0 0 1-2.277 2.28zm17.101 0a2.28 2.28 0 0 1-2.281-2.28v-11.344a2.28 2.28 0 0 1 2.281-2.28h7.161a2.28 2.28 0 0 1 2.277 2.28v11.344a2.28 2.28 0 0 1-2.277 2.28zm17.096 0a2.28 2.28 0 0 1-2.276-2.28v-11.344a2.28 2.28 0 0 1 2.276-2.28h7.161a2.283 2.283 0 0 1 2.282 2.28v11.344a2.283 2.283 0 0 1-2.282 2.28zm17.101 0a2.283 2.283 0 0 1-2.281-2.28v-11.344a2.28 2.28 0 0 1 2.281-2.28h7.161a2.28 2.28 0 0 1 2.277 2.28v11.344a2.28 2.28 0 0 1-2.277 2.28zm17.097 0a2.28 2.28 0 0 1-2.277-2.28v-11.344a2.28 2.28 0 0 1 2.277-2.28h7.166a2.28 2.28 0 0 1 2.276 2.28v11.344a2.28 2.28 0 0 1-2.276 2.28zm17.101 0a2.28 2.28 0 0 1-2.277-2.28v-11.344a2.28 2.28 0 0 1 2.277-2.28h7.161a2.28 2.28 0 0 1 2.281 2.28v11.344a2.283 2.283 0 0 1-2.281 2.28zm17.101 0a2.284 2.284 0 0 1-2.282-2.28v-11.344a2.283 2.283 0 0 1 2.282-2.28h7.161a2.28 2.28 0 0 1 2.276 2.28v11.344a2.28 2.28 0 0 1-2.276 2.28zm17.096 0a2.28 2.28 0 0 1-2.277-2.28v-11.344a2.28 2.28 0 0 1 2.277-2.28h7.166a2.28 2.28 0 0 1 2.277 2.28v11.344a2.28 2.28 0 0 1-2.277 2.28zm17.101 0a2.28 2.28 0 0 1-2.277-2.28v-11.344a2.28 2.28 0 0 1 2.277-2.28h7.161a2.283 2.283 0 0 1 2.282 2.28v11.344a2.284 2.284 0 0 1-2.282 2.28zm17.101 0a2.283 2.283 0 0 1-2.281-2.28v-11.344a2.28 2.28 0 0 1 2.281-2.28h7.161a2.28 2.28 0 0 1 2.277 2.28v11.344a2.28 2.28 0 0 1-2.277 2.28zm17.096 0a2.28 2.28 0 0 1-2.276-2.28v-11.344a2.28 2.28 0 0 1 2.276-2.28h7.162a2.28 2.28 0 0 1 2.281 2.28v11.344a2.28 2.28 0 0 1-2.281 2.28zm17.101 0a2.28 2.28 0 0 1-2.276-2.28v-11.344a2.28 2.28 0 0 1 2.276-2.28h7.162a2.28 2.28 0 0 1 2.281 2.28v11.344a2.283 2.283 0 0 1-2.281 2.28zm17.102 0a2.283 2.283 0 0 1-2.282-2.28v-11.344a2.283 2.283 0 0 1 2.282-2.28h7.161a2.28 2.28 0 0 1 2.276 2.28v11.344a2.28 2.28 0 0 1-2.276 2.28zm17.096 0a2.28 2.28 0 0 1-2.277-2.28v-11.344a2.28 2.28 0 0 1 2.277-2.28h7.161a2.28 2.28 0 0 1 2.281 2.28v11.344a2.283 2.283 0 0 1-2.281 2.28zm17.101 0a2.28 2.28 0 0 1-2.277-2.28v-11.344a2.28 2.28 0 0 1 2.277-2.28h7.161a2.28 2.28 0 0 1 2.277 2.28v11.344a2.28 2.28 0 0 1-2.277 2.28zm17.101 0a2.283 2.283 0 0 1-2.281-2.28v-11.344a2.28 2.28 0 0 1 2.281-2.28h7.161a2.28 2.28 0 0 1 2.277 2.28v11.344a2.28 2.28 0 0 1-2.277 2.28zm17.096 0a2.28 2.28 0 0 1-2.276-2.28v-11.344a2.28 2.28 0 0 1 2.276-2.28h7.161a2.283 2.283 0 0 1 2.282 2.28v11.344a2.283 2.283 0 0 1-2.282 2.28zm17.101 0a2.283 2.283 0 0 1-2.281-2.28v-11.344a2.28 2.28 0 0 1 2.281-2.28h7.161a2.28 2.28 0 0 1 2.277 2.28v11.344a2.28 2.28 0 0 1-2.277 2.28zm-118.831-22.604V27.439h130.913v121.127zm135.932 22.604a2.28 2.28 0 0 1-2.281-2.28v-11.344a2.28 2.28 0 0 1 2.281-2.28h7.162a2.28 2.28 0 0 1 2.276 2.28v11.344a2.28 2.28 0 0 1-2.276 2.28zm17.097 0a2.28 2.28 0 0 1-2.277-2.28v-11.344a2.28 2.28 0 0 1 2.277-2.28h7.161a2.28 2.28 0 0 1 2.281 2.28v11.344a2.283 2.283 0 0 1-2.281 2.28zm17.101 0a2.284 2.284 0 0 1-2.282-2.28v-11.344a2.283 2.283 0 0 1 2.282-2.28h7.161a2.28 2.28 0 0 1 2.276 2.28v11.344a2.28 2.28 0 0 1-2.276 2.28zm17.096 0a2.28 2.28 0 0 1-2.277-2.28v-11.344a2.28 2.28 0 0 1 2.277-2.28h7.166a2.28 2.28 0 0 1 2.277 2.28v11.344a2.28 2.28 0 0 1-2.277 2.28zm17.101 0a2.28 2.28 0 0 1-2.276-2.28v-11.344a2.28 2.28 0 0 1 2.276-2.28h7.161a2.283 2.283 0 0 1 2.282 2.28v11.344a2.284 2.284 0 0 1-2.282 2.28zm17.101 0a2.283 2.283 0 0 1-2.281-2.28v-11.344a2.28 2.28 0 0 1 2.281-2.28h7.161a2.28 2.28 0 0 1 2.277 2.28v11.344a2.28 2.28 0 0 1-2.277 2.28zm17.096 0a2.28 2.28 0 0 1-2.276-2.28v-11.344a2.28 2.28 0 0 1 2.276-2.28h7.166a2.28 2.28 0 0 1 2.277 2.28v11.344a2.28 2.28 0 0 1-2.277 2.28zm17.102 0a2.28 2.28 0 0 1-2.277-2.28v-11.344a2.28 2.28 0 0 1 2.277-2.28h7.161a2.28 2.28 0 0 1 2.281 2.28v11.344a2.283 2.283 0 0 1-2.281 2.28zm17.101 0a2.283 2.283 0 0 1-2.282-2.28v-11.344a2.283 2.283 0 0 1 2.282-2.28h7.161a2.28 2.28 0 0 1 2.276 2.28v11.344a2.28 2.28 0 0 1-2.276 2.28zm17.096 0a2.28 2.28 0 0 1-2.277-2.28v-11.344a2.28 2.28 0 0 1 2.277-2.28h7.161a2.28 2.28 0 0 1 2.281 2.28v11.344a2.28 2.28 0 0 1-2.281 2.28zm17.101 0a2.28 2.28 0 0 1-2.277-2.28v-11.344a2.28 2.28 0 0 1 2.277-2.28h7.161a2.283 2.283 0 0 1 2.282 2.28v11.344a2.284 2.284 0 0 1-2.282 2.28zm17.101 0a2.283 2.283 0 0 1-2.281-2.28v-11.344a2.28 2.28 0 0 1 2.281-2.28h7.161a2.28 2.28 0 0 1 2.277 2.28v11.344a2.28 2.28 0 0 1-2.277 2.28zm17.096 0a2.28 2.28 0 0 1-2.276-2.28v-11.344a2.28 2.28 0 0 1 2.276-2.28h7.161a2.283 2.283 0 0 1 2.282 2.28v11.344a2.283 2.283 0 0 1-2.282 2.28zm17.101 0a2.28 2.28 0 0 1-2.276-2.28v-11.344a2.28 2.28 0 0 1 2.276-2.28h7.161a2.28 2.28 0 0 1 2.277 2.28v11.344a2.28 2.28 0 0 1-2.277 2.28zm17.101 0a2.283 2.283 0 0 1-2.281-2.28v-11.344a2.28 2.28 0 0 1 2.281-2.28h7.162a2.28 2.28 0 0 1 2.276 2.28v11.344a2.28 2.28 0 0 1-2.276 2.28zm17.097 0a2.28 2.28 0 0 1-2.277-2.28v-11.344a2.28 2.28 0 0 1 2.277-2.28h7.161a2.28 2.28 0 0 1 2.281 2.28v11.344a2.283 2.283 0 0 1-2.281 2.28zm17.713-22.604H846.606V27.439h130.758z"/></svg>