<svg xmlns="http://www.w3.org/2000/svg" width="95" height="93" fill="none" viewBox="0 0 95 93">
	<g id="diadema-grego" fill="#FFF">
		<path id="Vector" d="M36.957 1.336c-3.143.565-5.181 1.694-7.981 4.494-1.277 1.301-3.045 3.167-3.88 4.124-2.112 2.432-3.241 3.143-7.023 4.42-3.585 1.204-4.96 1.915-6.36 3.242-1.842 1.718-1.989 2.259-2.161 7.76-.197 6.31-.221 6.384-2.971 9.257-1.793 1.842-2.726 3.413-3.241 5.427-.516 1.94-.147 3.094 1.915 6.41 2.677 4.248 2.996 5.721 2.21 9.944a21 21 0 0 0-.295 4.567c.123 3.586.491 4.15 4.543 6.68 1.719 1.105 3.512 2.16 3.954 2.382 1.056.54 2.603 1.964 3.217 2.947.27.416.958 2.038 1.522 3.585 1.547 4.224 2.578 5.573 5.206 6.752 1.793.835 5.329 1.18 5.329.54 0-.442-.246-.54-2.431-.909-3.757-.662-5.476-2.356-6.9-6.752-.761-2.358-2.112-4.912-3.07-5.722-.417-.393-1.719-1.228-2.848-1.843-6.827-3.782-7.342-4.346-7.342-8.153 0-1.203.172-3.216.393-4.42.663-3.83.172-6.04-2.161-9.625-1.891-2.898-2.505-4.322-2.308-5.526.27-1.718 1.375-3.61 3.217-5.599.982-1.055 1.989-2.258 2.21-2.7.712-1.376 1.105-4.298 1.056-7.859-.024-3.02.025-3.462.516-4.494 1.056-2.186 2.898-3.389 7.514-4.936 3.708-1.228 4.887-1.963 7.146-4.494 5.844-6.532 7.637-7.833 11.64-8.545 3.119-.566 3.192-.59 3.192-.982-.002-.464-1.107-.439-3.808.027"/>
		<path id="Vector_2" d="M53.532 1.14c0 .393.688.711 1.964.883 4.985.737 6.949 1.99 11.419 7.17 3.241 3.758 4.862 4.96 7.932 5.893 2.898.86 5.869 2.333 6.974 3.414 1.621 1.62 1.768 2.16 1.94 7.366.221 6.09.27 6.287 2.996 9.209 1.081 1.178 2.014 2.48 2.554 3.56 1.301 2.727 1.105 3.904-1.203 7.319-1.301 1.914-2.333 4.15-2.677 5.794-.221 1.105-.196 1.794.172 4.053.27 1.497.467 3.707.467 4.935-.025 2.358-.295 3.242-1.4 4.2-.638.588-4.936 3.216-6.532 4.026-1.302.64-3.045 2.21-3.757 3.34-.27.467-.982 2.186-1.572 3.782-1.203 3.413-1.965 4.617-3.487 5.623-.982.664-1.621.86-5.427 1.646-1.007.196-.442.712.909.785 3.684.221 7.195-2.186 8.521-5.82 2.087-5.671 2.578-6.483 4.788-7.832 8.03-4.912 7.932-4.838 8.595-6.36.737-1.597.835-3.537.319-6.705-.884-5.45-.638-6.752 2.21-11.099.761-1.178 1.547-2.603 1.768-3.192.835-2.333-.319-5.427-3.241-8.52-.958-1.032-1.915-2.21-2.136-2.603-.638-1.277-.933-3.61-.859-7.416.049-3.242 0-3.758-.467-4.789-1.081-2.357-4.027-4.296-8.693-5.696-3.07-.91-4.567-2.038-7.735-5.722-4.568-5.305-7.171-6.828-12.45-7.318-1.302-.123-1.892-.099-1.892.073"/>
		<path id="Vector_3" d="M66.179 77.116c.221.22-.638 2.135-1.621 3.56-1.375 1.99-3.708 4.273-5.009 4.888-.688.344-1.694.589-2.284.589h-1.081l.639-.762c.393-.467.638-1.056.638-1.522 0-.712.123-.835 1.326-1.35 1.277-.566 4.076-2.8 4.076-3.267 0-.466-.639-.197-1.989.885a19 19 0 0 1-2.628 1.719c-1.179.589-1.252.589-2.136.22-.516-.195-1.179-.319-1.473-.244l-.54.147.491-1.007c.786-1.596 2.922-2.947 5.844-3.782 1.327-.368 5.403-.418 5.747-.075m-32.341.073c2.799.664 5.083 2.113 5.943 3.783l.442.909h-.81c-.467 0-1.105.147-1.424.319-.516.27-.737.245-1.793-.296-.663-.343-1.866-1.13-2.652-1.742-1.4-1.082-2.112-1.4-2.112-.885 0 .394 2.996 2.75 4.273 3.34 1.08.492 1.203.638 1.252 1.424.025.54.27 1.13.614 1.499l.565.613h-1.08c-1.252 0-2.701-.614-3.88-1.62-1.326-1.106-3.708-4.249-4.494-5.87l-.687-1.472.54-.172c1.006-.272 3.732-.198 5.303.17m14.513-.957c.835.588 1.252 1.841 1.252 3.781 0 1.498.049 1.72.442 1.72.319 0 .54-.296.737-.934.393-1.277 1.67-2.75 2.382-2.75 1.449 0 1.326 2.038-.27 3.88-.958 1.13-.761 1.522.491 1.031 1.621-.613 3.094-.146 3.094.983 0 1.276-1.743 1.89-3.855 1.374-.688-.171-.81-.146-.81.222 0 .22.221.688.491 1.03 1.031 1.326 1.228 3.757.295 3.757q-1.032-.036-2.21-2.21c-.393-.737-.859-1.35-1.056-1.35-.344 0-.344.097-.049 1.914.123.761.025 1.031-.417 1.522-.737.787-1.743.983-2.677.517-1.081-.566-1.351-1.203-1.031-2.48.344-1.4.344-1.597-.098-1.597-.197 0-.688.663-1.105 1.474-1.203 2.406-2.701 2.947-2.701.981 0-1.006.467-2.21 1.179-3.02.589-.662.074-1.007-1.081-.687-1.572.442-3.536-.344-3.536-1.376 0-1.13 1.498-1.62 3.168-1.03 1.252.442 1.547-.075.589-1.056-.933-1.007-1.302-1.694-1.302-2.505 0-2.308 1.989-1.597 3.192 1.153.368.836.639 1.155.933 1.106.344-.075.442-.468.54-2.162.123-2.135.417-2.97 1.179-3.412.638-.368 1.595-.319 2.234.123M38.676 2.49c-2.21 2.284-4.175 3.02-9.626 3.733-4.617.588-6.409 1.423-9.43 4.445-1.989 1.964-2.799 3.389-3.29 5.77-.467 2.236-.835 2.702-4.764 6.238-5.771 5.18-6.9 7.956-5.82 13.997.589 3.34.516 4.96-.491 8.987-1.08 4.42-1.277 6.9-.737 9.038.466 1.816.908 2.529 3.02 4.739 1.891 1.965 2.799 3.83 4.224 8.618 1.252 4.174 1.694 5.083 3.34 6.704 1.571 1.523 2.922 2.21 4.96 2.53 2.235.343 3.119.858 5.329 3.118 1.989 2.038 3.561 3.02 4.813 3.046.417 0 1.031.392 1.817 1.203 1.964 1.988 4.911 2.947 6.556 2.135.417-.22 1.154-.392 1.596-.392h.81l-.344 1.007c-1.13 3.142.761 4.96 2.996 2.872l.516-.49.295.516c.344.662 2.038 1.742 2.701 1.742.761 0 1.817-.614 2.529-1.473l.638-.76.516.516c1.056 1.056 2.652 1.13 3.045.123.27-.712.172-2.308-.196-3.192l-.368-.86h.859c.467 0 1.203.172 1.621.393 1.572.81 4.42-.074 6.655-2.087.859-.785 1.67-1.252 2.48-1.449 1.498-.392 2.333-.982 4.175-2.947 1.817-1.94 3.119-2.7 5.108-3.02 2.259-.368 3.487-1.007 5.206-2.726 1.694-1.718 2.014-2.332 3.463-7.366 1.179-4.003 2.185-5.894 4.371-8.251 2.431-2.579 2.75-3.463 2.726-7.294 0-2.504-.123-3.389-.81-5.892-1.031-3.88-1.13-5.132-.638-8.227.688-4.493.712-5.059.245-6.776-.712-2.604-2.308-4.764-5.992-8.08-1.768-1.62-3.487-3.315-3.806-3.782-.344-.49-.786-1.694-.982-2.7-.467-2.236-1.277-3.635-3.217-5.575-2.873-2.898-4.936-3.855-9.454-4.42-5.304-.637-7.023-1.277-9.479-3.61-1.203-1.13-1.67-1.4-1.891-1.178-.196.196.123.662 1.424 1.94 2.627 2.553 3.806 2.995 11.001 4.051 3.143.467 4.666 1.252 7.121 3.585 2.284 2.186 3.02 3.34 3.462 5.526.516 2.406 1.277 3.486 4.666 6.506 4.199 3.758 5.427 5.403 6.164 8.3.368 1.424.368 1.695-.123 4.543-.712 4.297-.639 5.87.368 9.922 1.056 4.247 1.252 6.188.859 8.078-.417 2.039-.786 2.678-2.701 4.593-2.112 2.136-3.119 4.075-4.42 8.422-.565 1.891-1.302 3.978-1.645 4.666-1.203 2.48-3.413 4.15-6.016 4.569-2.431.392-3.512 1.007-5.722 3.265-1.743 1.793-3.561 3.168-3.561 2.727 0-.099.27-.516.614-.959.909-1.203 1.891-3.487 1.793-4.248-.074-.662-.147-.687-1.915-.883-3.192-.32-6.581.466-9.061 2.135l-1.179.81-.27-.687c-.589-1.621-2.456-1.45-3.757.344l-.712.982v-.91c0-1.055-.54-2.356-1.228-2.97-.565-.516-2.357-.713-3.241-.344-.859.343-1.596 1.521-1.817 2.847l-.147 1.008-.835-.933c-.467-.517-1.13-1.008-1.473-1.082-.761-.195-1.817.394-1.989 1.106-.172.614-.196.588-1.572-.27-2.407-1.573-5.943-2.358-9.061-2.039-1.645.172-1.842.246-1.915.761-.098.64.835 2.8 1.915 4.347 1.351 1.965.123 1.276-2.824-1.596-2.554-2.48-3.511-3.046-5.869-3.413-1.301-.197-2.038-.468-3.02-1.154-2.406-1.645-3.143-2.922-4.494-7.712-1.154-4.124-2.406-6.531-4.617-8.864-2.284-2.431-2.75-3.561-2.75-6.556 0-1.645.196-2.971.884-5.697 1.007-4.052 1.13-6.532.467-9.945-.197-1.081-.368-2.578-.368-3.315.025-2.578 1.915-5.918 4.862-8.497 3.07-2.677 5.009-4.64 5.451-5.5.246-.468.565-1.523.737-2.334.442-2.16 1.08-3.216 3.192-5.303 2.677-2.653 4.518-3.537 8.595-4.053 5.574-.688 7.44-1.424 9.871-3.855 1.351-1.326 1.793-2.16 1.13-2.112-.174-.003-.886.587-1.549 1.275"/>
		<path id="Vector_4" d="M47.516 82.617c.442.171 1.105 1.35 1.105 1.965 0 .638-.737 1.326-1.4 1.326-.295 0-.786-.222-1.08-.517-.614-.614-.467-1.498.319-2.382.589-.614.516-.59 1.056-.392m-1.94.123c-.859 1.03-.884 2.578-.025 3.511.737.786 2.505.91 3.119.197.712-.81.982-1.572.835-2.382-.393-2.064-2.677-2.825-3.929-1.326"/>
		<path id="Vector_5" d="M46.436.305c-.393.466-.27 1.13.295 1.473.614.393 1.277-.099 1.277-.983 0-.589-.123-.737-.638-.786-.345-.049-.763.099-.934.296"/>
		<path id="Vector_6" d="M42.236.574c-.442.516-.074 1.351.589 1.351.81 0 1.228-.564.884-1.203-.294-.59-1.031-.664-1.473-.148"/>
		<path id="Vector_7" d="M50.856.55c-.516.637-.221 1.252.589 1.252.663 0 .737-.075.737-.738 0-.565-.123-.76-.516-.81-.27-.049-.638.1-.81.295"/>
		<path id="Vector_8" d="M25.686 3.3c-.835.81-.098 2.309 1.13 2.309.982 0 1.596-1.695.884-2.407-.418-.417-1.572-.369-2.014.098"/>
		<path id="Vector_9" d="M66.694 3.226c-.638.467-.442 1.67.368 2.112.589.32.712.32 1.301-.049.442-.295.638-.637.638-1.153.002-1.106-1.324-1.622-2.307-.91"/>
		<path id="Vector_10" d="M28.264 9.685c-2.726.736-4.469 2.037-3.34 2.455.589.221 4.248-.639 4.617-1.08.245-.32.147-.344-.81-.222-.614.099-1.375.222-1.719.32-.467.098-.54.074-.246-.123.54-.369 3.757-1.056 4.567-.959.663.074.589.123-.761.86-1.768.908-4.617 1.816-6.458 2.014-.835.098-1.4.27-1.473.49-.172.54 3.168.197 5.476-.588 2.529-.835 5.329-2.456 5.23-3.02s-3.241-.663-5.083-.148"/>
		<path id="Vector_11" d="M61.022 9.561c-.712 1.105 6.237 4.15 9.503 4.15.835 0 1.179-.098 1.179-.344 0-.22-.467-.368-1.547-.467-1.989-.196-5.132-1.203-6.679-2.16l-1.228-.762 1.621.148c.884.098 2.21.367 2.947.638.737.27 1.056.442.712.368-1.694-.368-2.701-.418-2.701-.172 0 .294 1.915.932 3.487 1.202 1.13.172 1.842-.27 1.375-.835s-2.038-1.277-3.683-1.67c-1.794-.415-4.765-.488-4.986-.096"/>
		<path id="Vector_12" d="M9.086 14.94c-.417.786.172 1.816 1.13 1.915s1.375-.393 1.277-1.473c-.074-.761-.123-.81-1.105-.884-.836-.074-1.081.025-1.302.442"/>
		<path id="Vector_13" d="M83.049 14.744c-.737.736-.049 2.16 1.031 2.16 1.056 0 1.793-1.448 1.081-2.16-.172-.172-.639-.296-1.056-.296s-.884.123-1.056.295"/>
		<path id="Vector_14" d="M6.753 17.936c-.418 1.105-1.154 4.543-1.375 6.433-.27 2.236.025 6.09.516 7.023.418.738.54-.441.27-2.405-.172-1.301-.172-2.677 0-4.248.418-4.126.663-4.126.688-.05.025 5.55.712 4.666.786-1.006.049-2.235.074-2.334.221-1.13.123.736.196 2.087.221 2.996.025 1.694.368 2.21.663 1.03.344-1.326-.393-7.686-.982-8.643-.247-.393-.861-.369-1.008 0"/>
		<path id="Vector_15" d="M86.609 17.813c-.589.957-1.277 8.865-.81 9.33.418.418.638-.466.663-2.7.025-1.376.123-2.776.221-3.12.123-.367.196.86.221 3.12.025 2.063.123 3.781.245 3.88.418.245.589-1.523.467-4.69-.074-1.67-.098-3.02-.049-2.971s.27 1.178.466 2.505c.295 1.842.368 3.217.221 5.525-.172 3.29.123 3.83.614 1.13.54-2.922.196-7.023-.909-10.584-.392-1.351-1.006-1.99-1.35-1.425"/>
		<path id="Vector_16" d="M18.54 19.532c-1.94.416-3.782 1.13-4.273 1.645-.786.835-.319.957 1.105.27 1.13-.566 3.585-1.105 5.009-1.105.565 0 .565.049-.368 1.007-1.228 1.252-4.076 3.044-5.869 3.659-1.989.712-2.431.588-.909-.245 1.67-.934 2.235-1.425 2.235-2.015 0-.588-.123-.565-1.179.27-.491.393-1.793 1.154-2.873 1.72-1.081.564-1.965 1.154-1.965 1.326 0 .588 3.143.49 5.034-.172 3.29-1.13 7.858-4.642 7.858-6.017 0-.466-.147-.515-1.645-.49-.932.023-1.89.073-2.16.146"/>
		<path id="Vector_17" d="M72.048 19.729c-.393.982 3.168 4.027 6.655 5.697 1.621.76 2.235.909 4.003 1.007 1.547.098 2.112.023 2.259-.221.246-.393.098-.712-.344-.712-.368 0-4.469-2.308-5.083-2.85-.491-.416-.712-.441-.712-.023 0 .442 1.4 1.719 2.578 2.357l.982.54-.859-.148c-1.866-.295-5.918-2.628-7.465-4.273l-.737-.76h.859c1.301 0 4.003.637 5.083 1.203.958.49 1.522.367 1.154-.221-.81-1.302-7.98-2.677-8.373-1.596"/>
		<path id="Vector_18" d="M9.626 41.264c-1.842 2.897-2.186 3.56-2.505 4.984-.295 1.302-.123 2.186.393 1.99.246-.099.295.048.172.638-.098.565-.074.736.172.639.319-.099 1.473-3.144 1.842-4.862.123-.59.098-.761-.147-.688-.172.048-.614.981-.982 2.063-.565 1.67-.688 1.816-.688 1.08 0-.466.246-1.423.565-2.111.516-1.13 2.554-4.519 2.701-4.519.123 0-.368 2.8-.737 4.297-.196.81-.835 2.432-1.375 3.635-1.031 2.136-1.08 3.045-.147 1.89 1.35-1.62 2.799-6.09 3.069-9.404.147-1.794.123-1.892-.344-1.892-.368 0-.909.614-1.989 2.26"/>
		<path id="Vector_19" d="M82.337 39.423c-.221.588.516 4.764 1.228 6.875.663 1.965 1.891 4.297 2.333 4.445.516.172.319-.663-.565-2.382-1.007-2.037-2.48-7.636-2.014-7.636.27 0 2.431 3.707 2.898 4.91.245.689.467 1.573.467 1.99 0 1.007.589.81.688-.246.123-1.252-.589-2.947-2.406-5.746-1.672-2.555-2.286-3.095-2.629-2.21"/>
		<path id="Vector_20" d="M84.719 44.408c0 .957 1.498 5.18 1.793 5.082.368-.147.393-.049-.589-3.07-.787-2.382-1.204-3.093-1.204-2.013"/>
		<path id="Vector_21" d="M.614 53.493c-1.056 1.178.909 2.898 2.087 1.841.638-.565.638-1.742.025-2.087-.762-.392-1.621-.294-2.112.245"/>
		<path id="Vector_22" d="M91.643 53.395c-.761.54-.638 1.546.27 2.063.589.319.737.319 1.351 0 .737-.417 1.007-1.523.516-2.112-.369-.467-1.449-.442-2.137.049"/>
		<path id="Vector_23" d="M0 57.324c0 .712 2.063 3.88 3.389 5.18 1.449 1.425 4.076 2.874 4.985 2.727.859-.123.516-.516-.663-.835-1.989-.492-4.297-2.431-5.771-4.813l-.761-1.252 2.431 2.16c3.02 2.702 3.978 3.438 4.199 3.218.172-.173-1.965-2.334-4.592-4.642-1.081-.958-1.179-1.105-.614-.909.933.368 3.512 1.67 4.125 2.112.614.417.884.442.884.025 0-.442-2.578-2.014-4.494-2.75C1.203 56.833 0 56.735 0 57.325"/>
		<path id="Vector_24" d="M91.84 57.275c-1.35.516-3.487 1.62-4.371 2.284-1.449 1.08-.565 1.056 1.498-.024 3.168-1.694 3.512-1.67 1.523.123-3.315 3.02-4.175 3.88-4.003 4.051.27.27 1.302-.516 4.101-3.07 2.48-2.259 2.554-2.308 1.964-1.251-1.277 2.382-4.788 5.157-6.483 5.157-.393 0-.614.147-.614.367 0 1.154 3.413-.344 5.525-2.456 1.547-1.523 3.708-4.862 3.438-5.28-.196-.343-1.547-.27-2.578.099"/>
		<path id="Vector_25" d="M22.862 59.436c-2.799 7.218-2.971 7.932-2.947 11.517.025 2.823.344 4.395.958 4.591.245.099.27-.073.147-.588-.098-.394-.221-1.818-.295-3.169-.172-3.02.197-4.91 1.645-8.619 1.179-3.044 1.105-3.07 1.817.884.466 2.677.466 5.648-.025 7.49-.393 1.547-1.596 3.855-1.743 3.39-.049-.148.074-1.573.295-3.169.467-3.61.467-4.273.024-4.273-.245 0-.442.517-.614 1.645-.565 3.462-.81 6.016-.663 6.606.368 1.474 2.259-.22 3.364-3.02.491-1.252.565-1.842.565-4.984 0-3.438-.098-4.2-1.105-7.932-.269-1.057-1.08-1.279-1.423-.37"/>
		<path id="Vector_26" d="M70.206 59.559c-.442 1.105-1.179 4.96-1.351 6.948-.295 3.34.589 6.852 2.259 9.037.442.566.81.787 1.154.737.737-.098.81-1.326.295-5.034-.467-3.462-.54-3.757-1.007-3.757-.418 0-.418-.294.049 3.488.466 3.83.393 4.322-.344 3.143-.958-1.498-1.375-3.364-1.375-6.016-.024-2.431.712-7.245 1.081-7.245.246 0 1.793 4.076 2.308 6.041.442 1.72.54 6.115.147 7.466-.245.908 0 1.448.418.932.368-.442.81-2.947.81-4.518 0-2.112-.614-4.715-1.989-8.398-1.031-2.7-1.424-3.486-1.768-3.486-.245-.002-.54.293-.687.662"/>
		<path id="Vector_27" d="M17.435 65.451c.467.983 1.031 3.046.884 3.193-.049.073-2.112-4.544-2.308-5.182-.172-.565.957 1.032 1.424 1.99m-3.61-4.468c-.196.54 1.277 5.108 2.308 7.048.958 1.841 2.406 3.633 2.922 3.633.418 0 .442-1.055.098-3.56-.344-2.334-1.596-4.887-3.168-6.337-1.276-1.202-1.89-1.423-2.16-.785"/>
		<path id="Vector_28" d="M77.696 65.084c-1.424 3.314-1.522 3.535-1.547 3.118-.049-.76.688-2.7 1.449-3.903.442-.689.835-1.229.884-1.229.048 0-.32.908-.786 2.014m.638-3.218c-1.375 1.376-2.48 3.39-2.898 5.255-.393 1.769-.491 4.347-.147 4.47.393.123 2.063-1.817 2.898-3.39.859-1.572 2.603-6.801 2.431-7.268-.246-.639-1.056-.294-2.284.934"/>
		<path id="Vector_29" d="M36.834 74.587c-.638 1.203.025 2.307 1.326 2.185.688-.075.761-.172.835-.959.098-1.03-.417-1.694-1.302-1.694-.343 0-.712.198-.859.468"/>
		<path id="Vector_30" d="M55.644 74.66c-.761 1.08-.344 2.162.835 2.162.835 0 1.228-.418 1.228-1.352 0-.416-.123-.883-.295-1.055-.466-.467-1.35-.345-1.768.245"/>
		<path id="Vector_31" d="M17.852 78.737c-.859.958-.27 2.505.933 2.505.786 0 1.351-.615 1.351-1.45 0-1.302-1.473-1.963-2.284-1.055"/>
		<path id="Vector_32" d="M74.651 78.786c-.958.957-.344 2.456 1.056 2.456.688 0 1.4-.787 1.4-1.523 0-.59-.859-1.424-1.473-1.424-.271 0-.713.22-.983.49"/>
		<path id="Vector_33" d="M26.275 83.968c-3.806 1.178-4.42 1.448-4.42 1.94 0 .367.442.614 2.038 1.13 1.768.588 2.406.688 5.206.688 3.34 0 4.862-.32 5.378-1.154.417-.663.025-.713-1.547-.172-1.743.564-5.255.638-7.269.122-1.203-.294-1.203-.319-.368-.368.467-.023 2.48-.123 4.494-.22 4.936-.197 4.69-.638-.368-.638h-3.88l1.302-.443c.688-.245 1.94-.49 2.75-.564 2.038-.198 2.21-.27 1.842-.713-.492-.591-2.555-.42-5.158.392"/>
		<path id="Vector_34" d="M63.183 83.354a.58.58 0 0 0-.319.49c0 .246.319.345 1.179.345.639 0 2.038.246 3.07.565l1.891.564-4.052-.025c-5.599 0-5.476.442.221.663 2.406.099 4.42.221 4.494.27.049.075-.663.27-1.596.418-2.136.393-5.722.197-7.023-.344-.712-.294-1.056-.319-1.228-.147-.196.197-.123.368.221.64.81.588 2.112.883 4.568 1.006 2.038.123 2.75.025 4.911-.516 4.125-1.055 4.076-1.572-.27-2.97-2.629-.862-5.355-1.28-6.067-.96"/>
	</g>
</svg>