<svg xmlns="http://www.w3.org/2000/svg" width="240" height="363" fill="none" viewBox="0 0 240 363">
  <g id="home_logo" fill="#000" clip-path="url(#clip0_2_14)">
    <path id="partners_name" d="M59.6484 126.587c-.6827 0-1.4294-.299-2.24-.896q-1.152-.897-1.344-1.92c-.0427-.256-.064-.512-.064-.768.0426-.299.064-.576.064-.832v-.448c.0426-.128.0853-.278.128-.448.0853-.171.192-.278.32-.32v-.064c-.0854-.086-.128-.214-.128-.384 0-.256.064-.491.192-.704.128-.214.192-.427.192-.64.2986-.384.576-.79.832-1.216.256-.427.384-.896.384-1.408l.448-.384h-.384c-.64 0-1.408-.15-2.304-.448-.8534-.342-1.28-.918-1.28-1.728 0-.342.192-.64.576-.896.384-.299.8106-.534 1.28-.704.512-.171.9173-.256 1.216-.256.2986-.171.6613-.256 1.088-.256v.064h-.064v.128q-.384.1275-1.152.576c-.512.298-.9814.64-1.408 1.024-.384.384-.576.746-.576 1.088h2.112c.128-.043.2133-.086.256-.128.3413-.086.6613-.171.96-.256.3413-.086.6613-.171.96-.256.256-.086.5546-.384.896-.896.384-.512.7893-1.003 1.216-1.472.4266-.47.8533-.683 1.28-.64v.064c0 .042-.0427.064-.128.064-.0854.128-.2774.362-.576.704-.2987.341-.576.682-.832 1.024q-.384.5115-.384.768l-.064.064 9.024-2.496q.12795-.0645.576-.192c.2986-.086.4693-.086.512 0l.064-.128c.6826-.086 1.3013-.214 1.856-.384.7253-.256 1.4506-.448 2.176-.576.768-.171 1.5146-.406 2.24-.704.3413-.128.6826-.491 1.024-1.088q.576-.96.96-1.344c.5546-.555 1.024-1.11 1.408-1.664.4266-.598.8533-1.216 1.28-1.856q1.152-1.536 2.688-3.264c1.024-1.195 1.8133-2.347 2.368-3.4564.0426-.0853.064-.1706.064-.256.0426-.0853.0853-.1493.128-.192l.896-1.088q.192.192.192.384c0 .1707-.0854.3414-.256.512-.128.128-.2347.256-.32.384-.128.2134-.256.448-.384.704-.0854.2134-.192.4267-.32.64q-.44805.768-.96 1.536c-.2987.512-.6187 1.0024-.96 1.4724-.4267.64-.8747 1.301-1.344 1.984q-.64005 1.023-1.344 1.92-.1281.192-.384.384c-.128.128-.2347.256-.32.384-.0854.085-.32.405-.704.96-.384.554-.7467 1.109-1.088 1.664-.3414.512-.5334.81-.576.896l2.496-.32.064-.064 2.368-.32c.1706-.768.4693-1.707.896-2.816.4693-1.11.96-2.219 1.472-3.328.512-1.152.9386-2.091 1.28-2.8164l1.024-2.112v-.384c0-.128.0213-.256.064-.384.0853-.384.2986-.832.64-1.344.384-.5546.8106-1.0666 1.28-1.536.4693-.512.832-.8746 1.088-1.088.256.0854.5973.1707 1.024.256.4266.0854.6613.2774.704.576l-.064.384c-.4267.2987-.9174.8747-1.472 1.728-.512.8534-.896 1.5147-1.152 1.984-.0854.1707-.1707.3627-.256.576q-.06405.3201-.192.576c-.0427.1707-.192.4907-.448.96-.2134.4267-.3627.6404-.448.6404-.512 1.109-1.0454 2.218-1.6 3.328q-.83205 1.599-1.344 3.456c-.0427.085-.1067.256-.192.512-.0854.256-.1067.426-.064.512h.32c.384 0 .768-.022 1.152-.064.384-.043.7893-.064 1.216-.064 1.7493 0 3.264.341 4.544 1.024q1.92 1.023 1.92 3.072c0 .554-.256 1.088-.768 1.6q-.768.768-1.728 1.344t-1.536.96v-.128h-.064v-.128c.3413-.256.7466-.662 1.216-1.216.512-.598.9386-1.216 1.28-1.856.384-.683.576-1.238.576-1.664 0-.64-.3627-1.088-1.088-1.344q-1.02405-.4485-2.304-.576c-.8534-.086-1.4934-.128-1.92-.128-.384 0-.8534.021-1.408.064q-.83205.063-1.344.192c-.3414.128-.64.533-.896 1.216-.256.682-.4907 1.45-.704 2.304-.1707.853-.32 1.6-.448 2.24-.0854.64-.1707.981-.256 1.024.0426.128.064.362.064.704 0 .426-.0214.874-.064 1.344v1.344c0 .597.0426 1.365.128 2.304.0853.896.32 1.706.704 2.432.384.682 1.0026 1.024 1.856 1.024.128-.086.4053-.235.832-.448.4266-.256.832-.512 1.216-.768s.576-.406.576-.448h.256v.448c0 .512-.3627.917-1.088 1.216-.6827.298-1.2374.448-1.664.448q-1.8561 0-2.88-1.152c-.64-.768-1.088-1.686-1.344-2.752-.2134-1.11-.32-2.155-.32-3.136 0-1.579.1493-3.115.448-4.608.3413-1.536.6613-3.051.96-4.544h-.128c-.4694.17-1.088.32-1.856.448-.768.085-1.5147.192-2.24.32-.7254.128-1.2587.341-1.6.64-.6827.554-1.28 1.237-1.792 2.048-.4694.768-1.0027 1.514-1.6 2.24-.1707.213-.448.554-.832 1.024-.3414.469-.704.938-1.088 1.408-.384.426-.6827.725-.896.896-.0854.085-.192.17-.32.256-.128.085-.2347.17-.32.256l-1.344 1.792-1.088.896c-.2987.256-.704.618-1.216 1.088-.4694.469-.9174.704-1.344.704-.1707.597-.704 1.152-1.6 1.664-.896.554-1.8774.981-2.944 1.28-1.024.298-1.8134.448-2.368.448m-.064-.64q.384 0 1.152-.384.768-.321 1.536-.768c.512-.299.8746-.512 1.088-.64 1.3653-.982 2.624-2.048 3.776-3.2 1.1946-1.195 2.368-2.39 3.52-3.584.4693-.512.9386-1.003 1.408-1.472.512-.512.9813-1.024 1.408-1.536.2133-.214.4053-.448.576-.704.1706-.299.3413-.534.512-.704.256-.342.5973-.683 1.024-1.024.4693-.342.7893-.683.96-1.024h-.064c-.0427 0-.4694.128-1.28.384-.8107.213-1.8134.512-3.008.896-1.152.384-2.3467.768-3.584 1.152-1.2374.384-2.3254.725-3.264 1.024-.896.298-1.4934.49-1.792.576-.5547.17-1.152.32-1.792.448-.64.085-1.1947.298-1.664.64-.4267.298-.832.96-1.216 1.984s-.704 2.09-.96 3.2c-.2134 1.066-.32 1.877-.32 2.432 0 .682.1493 1.237.448 1.664.2986.426.8106.64 1.536.64m54.0666 2.112c-.213 0-.426-.022-.64-.064-.17-.043-.362-.086-.576-.128l-.192.128q-1.023-.8325-1.344-2.304c-.17-.982-.256-1.878-.256-2.688 0-.854.022-1.707.064-2.56.086-.896.15-1.75.192-2.56.043-.598.128-1.195.256-1.792.171-.598.256-1.174.256-1.728 0-.256-.021-.427-.064-.512l-.128-.128-.128.064c-.341.17-.661.597-.96 1.28-.256.64-.469 1.13-.64 1.472-.128.256-.426.768-.896 1.536q-.639 1.0875-1.344 2.112c-.469.682-.81 1.109-1.024 1.28-.384.298-.768.448-1.152.448-.426 0-.832-.107-1.216-.32-.341-.214-.512-.576-.512-1.088 0-.171.107-.598.32-1.28.256-.683.555-1.451.896-2.304.342-.854.619-1.664.832-2.432.256-.811.384-1.43.384-1.856q0-.384-.192-.384c-.17 0-.533.234-1.088.704-.512.426-1.024.896-1.536 1.408q-.768.7035-.96.96l-.448.768c-.682.554-1.301 1.216-1.8556 1.984-.0427.042-.0854.106-.128.192-.0427.085-.0854.17-.128.256-.0854.128-.2987.405-.64.832q-.44805.576-.96 1.152c-.2987.341-.5334.554-.704.64-.128.298-.2987.576-.512.832-.1707.213-.384.448-.64.704q-.384.384-.96 1.536c-.3414.768-.576 1.322-.704 1.664-.0427.085-.2134.17-.512.256-.256.085-.448.128-.576.128-.1707 0-.384-.086-.64-.256-.2134-.171-.32-.342-.32-.512 0-.128.1493-.555.448-1.28q.51195-1.089 1.152-2.496.6399-1.4085 1.152-2.496c.384-.726.6186-1.131.704-1.216-.0427-.086-.0214-.171.064-.256q.12795-.129.192-.192 0-.321.384-.96c.256-.47.4266-.79.512-.96.384-.726.8106-1.6 1.28-2.624.512-1.024.9386-2.048 1.28-3.072.384-1.024.5756-1.92.5756-2.688-.2556 0-.5116.042-.7676.128-.256.085-.512.128-.768.128-.1707-.128-.256-.235-.256-.32 0-.256.2986-.384.896-.384.256.085.6186.128 1.0876.128.512-.043.982-.022 1.408.064.427.085.64.362.64.832 0 .213-.192.704-.576 1.472-.341.768-.768 1.664-1.28 2.688-.5116.981-1.0023 1.92-1.4716 2.816-.4267.896-.7254 1.557-.896 1.984-.0427.213-.1494.405-.32.576-.1707.128-.256.341-.256.64q-.192.063-.192.384v.192c.0426.085.064.17.064.256h.064c.0853-.171.3413-.512.768-1.024q.6399-.768 1.344-1.536c.4693-.555.7676-.918.8956-1.088h.128c.64-.726 1.28-1.408 1.92-2.048.683-.683 1.43-1.28 2.24-1.792.171-.086.278-.192.32-.32l.128.064c.086 0 .171-.022.256-.064.128-.043.256-.064.384-.064q.705 0 1.344.576c.427.384.64.832.64 1.344 0 .64-.213 1.301-.64 1.984-.384.64-.725 1.258-1.024 1.856-.17.341-.32.704-.448 1.088-.128.341-.277.682-.448 1.024-.042.17-.17.448-.384.832-.17.384-.256.661-.256.832v.128c.043 0 .064.021.064.064.342-.086.619-.256.832-.512.214-.299.427-.576.64-.832.427-.555.854-1.11 1.28-1.664.427-.555.854-1.11 1.28-1.664l.832-.96q.321-.513.768-1.152c.299-.427.598-.726.896-.896q.513-.192.96-.192c.342 0 .726.042 1.152.128.47.085.704.341.704.768 0 .64-.149 1.258-.448 1.856-.298.554-.533 1.13-.704 1.728-.085.298-.213.853-.384 1.664-.17.768-.32 1.557-.448 2.368-.128.768-.192 1.322-.192 1.664 0 .256.043.426.128.512-.042.042-.064.149-.064.32 0 .17.022.362.064.576q.129.255.192.576c0 .426.043.96.128 1.6.128.682.512 1.024 1.152 1.024v-.064l.064.064v-.064c.214-.086.47-.299.768-.64.342-.299.64-.64.896-1.024.299-.384.448-.662.448-.832h.064v.064c0 .042-.042.234-.128.576-.042.341-.106.682-.192 1.024-.042.384-.085.597-.128.64-.384.469-.896.704-1.536.704m5.402-3.456c-.597 0-1.259-.32-1.984-.96-.725-.683-1.088-1.344-1.088-1.984h-.064c.043-.171.085-.576.128-1.216s.149-.982.32-1.024v-.128c.043-.043.149-.214.32-.512.171-.299.341-.619.512-.96.213-.342.341-.555.384-.64.128-.214.469-.619 1.024-1.216.555-.64 1.131-1.238 1.728-1.792.597-.555.981-.832 1.152-.832.256-.384.725-.811 1.408-1.28.725-.47 1.451-.918 2.176-1.344.768-.427 1.301-.726 1.6-.896v-.064l.064.064h.064c.171-.171.491-.342.96-.512.512-.214.853-.342 1.024-.384.299-.128.597-.214.896-.256.299-.043.597-.086.896-.128.213.042.427.064.64.064.256 0 .491.021.704.064.427.085.896.32 1.408.704.512.341.768.768.768 1.28-.043.042-.085.106-.128.192q-.0645.1275 0 .192l-.256-.128c-.256-.47-.64-.747-1.152-.832-.512-.128-1.003-.192-1.472-.192-1.152 0-2.368.298-3.648.896-1.28.554-2.539 1.301-3.776 2.24-1.237.938-2.347 1.941-3.328 3.008q-1.4085 1.599-2.112 3.072l-.192.768c-.085.426-.213.832-.384 1.216s-.256.81-.256 1.28c0 .341.043.597.128.768.085.128.235.341.448.64l.128-.064v.064l.128-.128.256.064q.4485-.2565.96-.384c.341-.128.619-.299.832-.512l.128-.128c.256-.086.491-.235.704-.448q.3195-.321.576-.576c.64-.598 1.28-1.195 1.92-1.792.64-.598 1.237-1.216 1.792-1.856.299-.342.683-.768 1.152-1.28s.875-.875 1.216-1.088l.064-.256c.341-.128.661-.427.96-.896q.5115-.705.96-1.344c.341-.47.661-.704.96-.704l.256-.064c.341 0 .619.149.832.448.213.256.32.533.32.832 0 .341-.107.725-.32 1.152-.213.426-.363.81-.448 1.152-.213.896-.363 1.706-.448 2.432-.085.682-.128 1.472-.128 2.368 0 .554.085 1.024.256 1.408.213.384.512.789.896 1.216h.32c.597-.342 1.024-.704 1.28-1.088s.576-.79.96-1.216c.043 0 .085-.022.128-.064l.064-.064c.085 0 .128.042.128.128 0 .17-.043.341-.128.512-.043.128-.085.298-.128.512q-.1275.7035-.384 1.344c-.128.384-.533.576-1.216.576-.384 0-.811-.086-1.28-.256-.469-.171-.853-.406-1.152-.704-.64-.726-1.045-1.515-1.216-2.368-.128-.896-.192-1.814-.192-2.752v-2.048h-.128q-.2565.384-.576.768c-.213.256-.427.512-.64.768-.171.17-.384.362-.64.576-.213.17-.405.384-.576.64-.085 0-.256.149-.512.448-.213.256-.32.448-.32.576-.299.042-.64.298-1.024.768-.341.469-.576.704-.704.704-.043.128-.192.341-.448.64l-.576.576c-.299.042-.555.192-.768.448-.171.256-.341.49-.512.704-.384.17-.811.405-1.28.704q-.7035.384-1.344.384m18.529-.832c-.256 0-.554-.128-.896-.384-.298-.256-.448-.512-.448-.768 0-.811.214-1.792.64-2.944.427-1.152.939-2.347 1.536-3.584.64-1.238 1.259-2.411 1.856-3.52.64-1.11 1.174-2.027 1.6-2.752.214-.384.384-.79.512-1.216.171-.427.406-.811.704-1.152.342.042.726.149 1.152.32.47.17.704.49.704.96 0 .341-.213.725-.64 1.152-.384.384-.682.704-.896.96-.938 1.066-1.792 2.218-2.56 3.456-.725 1.237-1.386 2.496-1.984 3.776-.128.256-.234.512-.32.768-.085.213-.17.426-.256.64-.085.213-.192.426-.32.64q-.192.255-.192.576c0 .085.022.192.064.32.043.128.128.192.256.192.342-.342.875-.918 1.6-1.728.726-.854 1.515-1.728 2.368-2.624.854-.939 1.622-1.75 2.304-2.432.726-.683 1.216-1.088 1.472-1.216.086-.043.171-.064.256-.064.086-.043.171-.064.256-.064.683 0 1.216.32 1.6.96.384.597.576 1.194.576 1.792 0 .682-.064 1.344-.192 1.984q-.192.96-.192 1.92c0 .512.107 1.173.32 1.984.214.81.662 1.216 1.344 1.216.171-.086.363-.171.576-.256.214-.086.406-.128.576-.128.128 0 .192.085.192.256 0 .213-.128.384-.384.512q-.3195.192-.576.192c-.64 0-1.301-.278-1.984-.832-.682-.598-1.109-1.195-1.28-1.792q-.255-.96-.384-1.92c-.042-.683-.064-1.344-.064-1.984 0-.299.022-.726.064-1.28.086-.598.128-.982.128-1.152-.256 0-.597.192-1.024.576-.426.341-.832.725-1.216 1.152-.384.384-.661.682-.832.896-.085.085-.213.17-.384.256-.128.085-.256.192-.384.32q-.255.3195-.576.768c-.213.256-.426.49-.64.704-.085.085-.277.234-.576.448-.256.213-.426.384-.512.512-.213.426-.49.832-.832 1.216-.341.384-.661.789-.96 1.216-.085.128-.17.298-.256.512-.085.17-.192.298-.32.384-.128.17-.32.256-.576.256m24.895 6.656q-.6405 0-1.536-.768c-.555-.47-.896-.896-1.024-1.28-.128-.256-.235-.598-.32-1.024-.043-.384-.064-.726-.064-1.024 0-.299.021-.576.064-.832s.085-.534.128-.832c.213-.598.469-1.387.768-2.368.299-1.024.64-1.792 1.024-2.304v-.128h-.128v-.064c.085-.086.192-.192.32-.32.128-.171.213-.342.256-.512l-.256.064-.064-.128h-.064c-.256 0-.384.149-.384.448-.213.085-.491.362-.832.832-.299.469-.491.704-.576.704l-.128.064.064.192h-.064l-.384.192c-.085.085-.149.192-.192.32-.043.085-.171.128-.384.128v.064c-.341.64-.981 1.322-1.92 2.048-.896.725-1.749 1.088-2.56 1.088-.683 0-1.195-.171-1.536-.512-.341-.342-.661-.512-.96-.512l-.064-.064c-.128-.427-.299-.683-.512-.768-.213-.128-.32-.512-.32-1.152v-.512l.128-.32v-.064c0-.128.043-.342.128-.64.128-.342.277-.512.448-.512 0-.47.171-1.003.512-1.6.341-.64.725-1.238 1.152-1.792.469-.598.853-1.067 1.152-1.408.725-.854 1.515-1.536 2.368-2.048s1.749-1.046 2.688-1.6v.064c.469-.299.875-.448 1.216-.448.085-.043.213-.064.384-.064.341 0 .768.149 1.28.448.555.298.832.64.832 1.024v.448c0 .17-.043.277-.128.32l-.448.448c-.085.085-.213.298-.384.64-.171.341-.341.512-.512.512h-.064l.064-.512c.171-.214.256-.491.256-.832 0-.256-.064-.534-.192-.832-.085-.342-.299-.512-.64-.512-.299 0-.683.149-1.152.448-.469.256-.832.469-1.088.64-.171.128-.341.256-.512.384-.171.085-.363.192-.576.32-.683.554-1.451 1.344-2.304 2.368-.811.981-1.536 2.026-2.176 3.136-.597 1.109-.896 2.154-.896 3.136 0 .341.085.682.256 1.024.171.341.469.512.896.512.512 0 1.173-.32 1.984-.96.853-.683 1.749-1.536 2.688-2.56s1.877-2.091 2.816-3.2q1.4085-1.665 2.496-3.072 1.152-1.4085 1.728-2.112c.469-.64.939-1.28 1.408-1.92.469-.683.917-1.344 1.344-1.984.085-.128.213-.299.384-.512.213-.256.32-.448.32-.576.043 0 .213-.214.512-.64.299-.427.661-.918 1.088-1.472q.6405-.8325 1.152-1.536c.341-.47.555-.768.64-.896.213-.256.405-.491.576-.704.171-.256.341-.534.512-.832l.128-.192.064.064c.043-.128.213-.427.512-.896.341-.4697.576-.7257.704-.7684l-.064-.128c.427-.256.853-.704 1.28-1.344s.981-1.1093 1.664-1.408c.213.0427.405.0854.576.128q.3195.06405.576.192v.128c.085.0854.149.192.192.32.085.0854.128.192.128.32 0 .256-.149.5547-.448.896-.256.2987-.469.5547-.64.768-.427.5547-.96 1.1094-1.6 1.6644-.64.512-1.237 1.002-1.792 1.472-.213.213-.405.448-.576.704-.128.256-.299.49-.512.704-.128.17-.256.32-.384.448-.128.085-.256.192-.384.32-.213.298-.427.597-.64.896-.213.298-.448.576-.704.832q-.8325.8955-1.536 1.92c-.469.64-.939 1.322-1.408 2.048-.256.384-.491.746-.704 1.088-.171.341-.427.682-.768 1.024-.128.17-.256.448-.384.832-.128.341-.299.533-.512.576-.043.298-.256.768-.64 1.408s-.661 1.13-.832 1.472c-.085.17-.192.469-.32.896-.085.426-.235.682-.448.768v.064c0 .17-.064.341-.192.512-.128.128-.235.277-.32.448q-.4485.96-.96 2.496c-.299.981-.576 1.984-.832 3.008-.213 1.024-.32 1.877-.32 2.56 0 .426.043.853.128 1.28.128.469.384.81.768 1.024l.064-.064.064.064h.064c.341-.171.704-.32 1.088-.448.213-.086.384-.235.512-.448.128-.171.341-.256.64-.256-.043.17-.085.32-.128.448 0 .17-.043.32-.128.448-.043.213-.277.426-.704.64-.427.213-.747.32-.96.32m8.076-5.824c-.597 0-1.259-.32-1.984-.96-.725-.683-1.088-1.344-1.088-1.984h-.064c.043-.171.085-.576.128-1.216s.149-.982.32-1.024v-.128c.043-.043.149-.214.32-.512.171-.299.341-.619.512-.96.213-.342.341-.555.384-.64.128-.214.469-.619 1.024-1.216.555-.64 1.131-1.238 1.728-1.792.597-.555.981-.832 1.152-.832.256-.384.725-.811 1.408-1.28.725-.47 1.451-.918 2.176-1.344.768-.427 1.301-.726 1.6-.896v-.064l.064.064h.064c.171-.171.491-.342.96-.512.512-.214.853-.342 1.024-.384.299-.128.597-.214.896-.256.299-.043.597-.086.896-.128.213.042.427.064.64.064.256 0 .491.021.704.064.427.085.896.32 1.408.704.512.341.768.768.768 1.28-.043.042-.085.106-.128.192q-.0645.1275 0 .192l-.256-.128c-.256-.47-.64-.747-1.152-.832-.512-.128-1.003-.192-1.472-.192-1.152 0-2.368.298-3.648.896-1.28.554-2.539 1.301-3.776 2.24-1.237.938-2.347 1.941-3.328 3.008q-1.4085 1.599-2.112 3.072l-.192.768c-.085.426-.213.832-.384 1.216s-.256.81-.256 1.28c0 .341.043.597.128.768.085.128.235.341.448.64l.128-.064v.064l.128-.128.256.064q.4485-.2565.96-.384c.341-.128.619-.299.832-.512l.128-.128c.256-.086.491-.235.704-.448q.3195-.321.576-.576c.64-.598 1.28-1.195 1.92-1.792.64-.598 1.237-1.216 1.792-1.856.299-.342.683-.768 1.152-1.28s.875-.875 1.216-1.088l.064-.256c.341-.128.661-.427.96-.896q.5115-.705.96-1.344c.341-.47.661-.704.96-.704l.256-.064c.341 0 .619.149.832.448.213.256.32.533.32.832 0 .341-.107.725-.32 1.152-.213.426-.363.81-.448 1.152-.213.896-.363 1.706-.448 2.432-.085.682-.128 1.472-.128 2.368 0 .554.085 1.024.256 1.408.213.384.512.789.896 1.216h.32c.597-.342 1.024-.704 1.28-1.088s.576-.79.96-1.216c.043 0 .085-.022.128-.064l.064-.064c.085 0 .128.042.128.128 0 .17-.043.341-.128.512-.043.128-.085.298-.128.512q-.1275.7035-.384 1.344c-.128.384-.533.576-1.216.576-.384 0-.811-.086-1.28-.256-.469-.171-.853-.406-1.152-.704-.64-.726-1.045-1.515-1.216-2.368-.128-.896-.192-1.814-.192-2.752v-2.048h-.128q-.2565.384-.576.768c-.213.256-.427.512-.64.768-.171.17-.384.362-.64.576-.213.17-.405.384-.576.64-.085 0-.256.149-.512.448-.213.256-.32.448-.32.576-.299.042-.64.298-1.024.768-.341.469-.576.704-.704.704-.043.128-.192.341-.448.64l-.576.576c-.299.042-.555.192-.768.448-.171.256-.341.49-.512.704-.384.17-.811.405-1.28.704q-.7035.384-1.344.384m-41.754 73.776c-1.067 0-1.92-.427-2.56-1.28-.597-.811-1.088-1.664-1.472-2.56-.085-.299-.213-.576-.384-.832-.128-.256-.256-.534-.384-.832-.043-.086-.107-.299-.192-.64-.043-.342-.107-.512-.192-.512-.171 0-.405.128-.704.384-.256.256-.448.405-.576.448-.512.17-1.024.384-1.536.64-.469.256-.939.533-1.408.832-.171.085-.512.192-1.024.32-.512.085-1.024.17-1.536.256-.512.042-.875.064-1.088.064-1.067 0-2.005-.448-2.816-1.344s-1.216-1.856-1.216-2.88v-.512c.043-.086.107-.32.192-.704.085-.427.171-.832.256-1.216.128-.384.277-.576.448-.576v-.064l-.064-.192c.085-.086.235-.32.448-.704s.341-.598.384-.64c-.384.17-.725.341-1.024.512-.256.128-.405.213-.448.256l-1.088.384c0 .042-.021.064-.064.064h.128v.064c-.427.042-.96.32-1.6.832-.64.469-1.387.704-2.24.704-1.152 0-1.728-.598-1.728-1.792 0-.47.32-1.003.96-1.6.683-.64 1.259-.982 1.728-1.024.341-.384.96-.811 1.856-1.28.896-.47 1.621-.726 2.176-.768q.2565-.192.576-.192c.213 0 .405-.022.576-.064v.064c.043-.043.064-.043.064 0v.064c-.384.17-.768.32-1.152.448s-.747.277-1.088.448c-.768.384-1.621.917-2.56 1.6-.939.64-1.685 1.28-2.24 1.92q-.0645.063-.192.192c-.043.085-.064.17-.064.256 0 .128.085.213.256.256.213.042.363.064.448.064.341 0 1.003-.192 1.984-.576s2.005-.811 3.072-1.28c1.067-.47 1.92-.854 2.56-1.152l.32-.384q0-.321.192-.384 0-.129.192-.192c.128-.086.213-.15.256-.192.043-.043.085-.086.128-.128.085-.043.128-.043.128 0l.064-.064v-.128c0-.086.043-.192.128-.32.128-.171.256-.256.384-.256v-.192c.128-.171.299-.342.512-.512q.384-.2565.384-.576l.128-.256c.128-.043.32-.064.576-.064v-.256h.064l.192-.064-.128-.128h.064c.171-.256.341-.406.512-.448l-.128-.192h.192v-.128h.064v-.064h.32l-.064-.256.32-.384c.128 0 .213-.064.256-.192l.192-.064q.1275-.192.192-.192 0-.192.384-.384c.256-.171.384-.342.384-.512q.4485-.513 1.152-.96c.469-.299.789-.662.96-1.088q.192-.384.192-.768c0-.299.021-.598.064-.896.085-.512.256-1.216.512-2.112s.597-1.707 1.024-2.432q.7035-1.152 1.728-1.152c.043-.043.085-.064.128-.064.085-.043.128-.064.128-.064q.96 0 .96.96c0 .341-.021.704-.064 1.088-.043.341-.107.682-.192 1.024l.128.128c.469-.384.704-.854.704-1.408 0-.128-.021-.235-.064-.32-.043-.128-.064-.256-.064-.384.213.085.555.192 1.024.32.512.085.768.298.768.64 0 .341-.213.746-.64 1.216-.427.469-.896.917-1.408 1.344-.512.426-.875.789-1.088 1.088-.043.085-.128.341-.256.768-.128.426-.256.832-.384 1.216q-.192.576-.384.576v-.064c-.043 0-.064-.064-.064-.192 0-.171.021-.32.064-.448.085-.128.128-.256.128-.384l-.192-.064h.064l.064-.448c-.043 0-.107.042-.192.128-.085.042-.171.085-.256.128q-.192.384-.576.576c-.213.128-.32.362-.32.704v.448c.043.128.064.256.064.384v.064c-.043.042-.064.106-.064.192v.128c.043.042.064.106.064.192l-.256.128c.085.085.128.192.128.32.043.128.085.234.128.32l-.064.064-.32.128v.064h.128c-.043.042-.064.128-.064.256v1.088c0 .341.021.661.064.96q.768-.2565 1.536-.384.768-.192 1.536-.192c.213 0 .384.021.512.064h.128c.683-.043 1.301.17 1.856.64.555.426.939.96 1.152 1.6.384.554.576 1.109.576 1.664 0 .341-.064.64-.192.896l-1.152.96-.064.128c-.171 0-.277.064-.32.192 0 .128-.021.256-.064.384-.171.128-.299.298-.384.512-.043.17-.085.362-.128.576h-.064v.064l-.448-.192c-.128.298-.427.725-.896 1.28-.469.512-.896.768-1.28.768.043.042.043.064 0 .064-.043.17-.171.32-.384.448-.213.085-.341.234-.384.448-.043-.043-.149-.064-.32-.064h-.064c.213 1.066.491 2.09.832 3.072.341.981.747 1.962 1.216 2.944.128.298.448.597.96.896.512.298.939.448 1.28.448.128 0 .256-.022.384-.064h.32c.981-.47 1.835-1.088 2.56-1.856q1.0875-1.089 1.92-2.496c.085-.128.192-.384.32-.768.171-.427.32-.64.448-.64-.085.554-.256 1.13-.512 1.728-.213.597-.256 1.173-.128 1.728l-.704.96c-.256.384-.725.704-1.408.96-.64.298-1.323.512-2.048.64-.683.17-1.259.256-1.728.256m-4.736-24.384c.683-.726 1.173-1.238 1.472-1.536.299-.342.491-.704.576-1.088.085-.427.128-1.088.128-1.984 0-.384-.107-.683-.32-.896l-.448.384c-.256.64-.597 1.429-1.024 2.368-.384.938-.555 1.749-.512 2.432l.064.192zm-7.68 9.408c.597-.214 1.173-.427 1.728-.64.597-.214 1.173-.427 1.728-.64.085-.043.384-.15.896-.32.555-.214.832-.342.832-.384.341-.086.619-.171.832-.256v-.256c0-.64.021-1.28.064-1.92.085-.64.128-1.28.128-1.92 0-.128-.043-.214-.128-.256-.128.128-.427.426-.896.896-.427.426-.917.917-1.472 1.472-.512.512-.981 1.002-1.408 1.472q-.576.639-.576.768c-.171.085-.491.384-.96.896s-.725.874-.768 1.088m8.448 5.568.064-.256.192.064h.064c.043-.128.128-.256.256-.384.128-.171.277-.256.448-.256v-.064l.128-.064c0-.171.043-.278.128-.32.128-.043.192-.022.192.064.043-.086.107-.192.192-.32.128-.171.213-.256.256-.256.171-.299.32-.491.448-.576.128-.128.299-.278.512-.448l.064.064.064-.064v-.192l.128-.128h.064l-.064-.064.192-.384c.085-.171.192-.256.32-.256v-.192l.128-.064v-.192c.213-.214.32-.491.32-.832l.064-.064.384-.192c0-.043-.021-.064-.064-.064v-.064c0-.214.064-.448.192-.704.171-.256.256-.512.256-.768-.299-.256-.683-.427-1.152-.512-.427-.086-.853-.128-1.28-.128h-.576c-.171 0-.363.021-.576.064-.384.085-.768.17-1.152.256-.384.042-.747.17-1.088.384l.192 1.216-.128.192.128.256c-.128.042-.192.149-.192.32.043 0 .064.021.064.064h.128v.576c.043.213.085.341.128.384l-.192.256v.128c.085.042.171.298.256.768.085.469.171.96.256 1.472.085.469.128.789.128.96 0 .17.043.277.128.32m-9.728 4.48h.64c.256-.043.491-.064.704-.064.469-.256.96-.384 1.472-.384.213-.214.469-.384.768-.512.299-.171.597-.256.896-.256l.384-.256h.192c.085-.086.235-.171.448-.256q.384-.192.384-.384l.32-.128v.064c.085-.043.149-.086.192-.128.043-.043.085-.086.128-.128.171 0 .256-.043.256-.128.171.042.277-.022.32-.192l.064.064c.043 0 .085-.022.128-.064.043-.086.043-.128 0-.128.043-.043.128-.064.256-.064.171-.043.277-.086.32-.128v-.192l.32.064c-.085-.598-.192-1.195-.32-1.792q-.1275-.96-.192-1.92c-.043-.47-.085-.939-.128-1.408-.043-.512-.085-1.003-.128-1.472-.171 0-.256-.086-.256-.256.043-.171.064-.299.064-.384v-.384c.043-.086.064-.171.064-.256-.427.17-.896.341-1.408.512-.512.17-1.067.32-1.664.448-.341.042-.704.149-1.088.32-.341.128-.683.234-1.024.32 0 .042-.192.149-.576.32-.384.128-.619.213-.704.256l-.768.384c-.085.128-.171.256-.256.384q-.0645.192-.192.384c-.555.768-1.024 1.6-1.408 2.496-.341.896-.512 1.834-.512 2.816 0 .938.149 1.578.448 1.92.299.341.917.512 1.856.512m-24.6819 73.008c-.9386 0-1.6853-.448-2.24-1.344q-.768-1.281-.768-2.496c0-.896.1494-1.856.448-2.88.2987-1.067.6827-1.984 1.152-2.752h.064v-.384c0-.299.1494-.768.448-1.408.2987-.64.6187-1.302.96-1.984.3414-.726.6187-1.323.832-1.792q.3201-.768 0-.768c-.1706.17-.7466.405-1.728.704-.9813.256-2.0906.512-3.328.768-1.2373.256-2.3893.469-3.456.64-1.0666.17-1.7706.256-2.112.256-.4266 0-.768-.256-1.024-.768-.2133-.512-.32-.939-.32-1.28v-.192c.0427-.086.1067-.128.192-.128l-.064.128c.0854.085.2134.192.384.32.1707.085.32.128.448.128.2134 0 .5334-.043.96-.128q.576-.0645 1.152-.192c.4267-.128.832-.235 1.216-.32.9814-.214 1.9627-.448 2.944-.704.9814-.256 1.9414-.47 2.88-.64.7254-.171 1.344-.256 1.856-.256.5547-.043 1.1094-.32 1.664-.832.1707-.171.256-.256.256-.256v-.384c.7254-1.323 1.536-2.603 2.432-3.84.896-1.238 1.7494-2.475 2.56-3.712.2134-.086.256-.171.128-.256-.128-.128-.1706-.128-.128 0-.4266.256-.64.32-.64.192s.0214-.192.064-.192c.2134-.299.5974-.79 1.152-1.472q.8961-1.089 1.4079-1.536c-1.6212.384-3.4559.853-5.5039 1.408-2.0053.512-4.0533 1.002-6.144 1.472-2.048.469-3.9466.874-5.696 1.216-1.7493.298-3.1786.448-4.288.448-.5546 0-1.088-.086-1.6-.256-.512-.171-.9386-.491-1.28-.96-.1706-.256-.3413-.555-.512-.896-.1706-.384-.256-.747-.256-1.088 0-.555.32-1.152.96-1.792.6827-.64 1.4507-1.174 2.304-1.6.8534-.47 1.536-.662 2.048-.576.5974-.427 1.472-.854 2.624-1.28 1.152-.427 2.0694-.64 2.752-.64.3414 0 .6614-.043.96-.128.3414-.086.6614-.107.96-.064.0854-.086.192-.128.32-.128h.32c.0854 0 .32.021.704.064.384 0 .576.042.576.128.0854.085.0854.128 0 .128-.64.17-1.3013.32-1.984.448q-.96.1275-1.92.384c-1.4506.384-3.0293.981-4.736 1.792-1.664.81-3.0933 1.685-4.288 2.624q-.192.1275-.384.576c-.0853.256-.128.469-.128.64 0 .128.2347.256.704.384.4694.128.768.192.896.192q1.0881 0 1.92-.192c1.1947-.171 2.5174-.363 3.968-.576 1.4507-.214 2.8374-.448 4.16-.704 1.3227-.256 2.3467-.491 3.072-.704 2.432-.64 4.8854-1.11 7.36-1.408 2.4749-.342 4.9069-.811 7.2959-1.408.171-.043.32-.064.448-.064h1.344c.341-.043.704-.107 1.088-.192h6.272c.597 0 1.259.128 1.984.384.725.213 1.323.49 1.792.832.683.469 1.259 1.216 1.728 2.24s.704 1.941.704 2.752c0 1.066-.235 1.706-.704 1.92q-.6405.255-1.728.768-.4485.192-.96.576c-.341.256-.683.384-1.024.384l-.192-.064v-.064h-.064v-.064h.064c.469-.342 1.003-.747 1.6-1.216.64-.512 1.195-1.067 1.664-1.664.469-.598.704-1.195.704-1.792q0-1.089-.96-1.728c-.64-.47-1.429-.811-2.368-1.024-.896-.256-1.792-.427-2.688-.512-.896-.086-1.621-.128-2.176-.128-1.451 0-2.923.085-4.416.256-1.493.17-2.965.256-4.416.256-.085 0-.277.042-.576.128-.299.085-.448.149-.448.192.469.256.704.682.704 1.28 0 .085-.171.362-.512.832-.299.469-.661.96-1.088 1.472s-.768.896-1.024 1.152c-.2559.213-.3199.128-.1919-.256-.1706 0-.2773.064-.32.192 0 .128-.0213.277-.064.448h-.576c.0427.597-.192 1.109-.704 1.536-.4693.384-.704.874-.704 1.472-.256.042-.5546.298-.896.768-.3413.426-.64.896-.896 1.408-.2133.469-.32.832-.32 1.088.1707 0 .256.021.256.064 0 0 .064.042.192.128.4694-.043.9174-.086 1.344-.128.4694-.086.9387-.128 1.408-.128h2.3039c.555-.043 1.109-.064 1.664-.064.256 0 .683.064 1.28.192.64.085 1.301.234 1.984.448.725.17 1.344.384 1.856.64s.768.533.768.832v.128c-.811-.47-1.664-.768-2.56-.896q-1.344-.192-2.688-.192c-1.536 0-3.051.085-4.5439.256q-2.1759.255-4.032 1.344c-1.1946.682-2.176 1.813-2.944 3.392-.1706.384-.2986.789-.384 1.216-.0426.426-.1493.832-.32 1.216-.384.896-.7893 1.898-1.216 3.008-.4266 1.109-.64 2.154-.64 3.136v1.664c0 .554.1067 1.066.32 1.536h.256c.5547.042 1.024-.128 1.408-.512s.7254-.768 1.024-1.152c.2987-.384.576-.576.832-.576-.1706.554-.4693 1.216-.896 1.984q-.6399 1.152-1.728 1.152m23.3519-17.728c-.171 0-.384-.107-.64-.32q-.384-.321-.384-.576c0-.086.149-.278.448-.576q.447-.513.96-.96c.384-.342.618-.555.704-.64.341.085.512.277.512.576 0 .17-.107.469-.32.896-.171.384-.384.746-.64 1.088-.214.341-.427.512-.64.512m-6.784 16.576c-.128 0-.256-.043-.384-.128-.086-.086-.192-.15-.32-.192-.299-.256-.512-.47-.64-.64-.128-.171-.192-.47-.192-.896 0-1.366.32-2.667.96-3.904.64-1.28 1.237-2.496 1.792-3.648.085-.086.106-.171.064-.256-.043-.128-.064-.235-.064-.32 0-.384.149-.811.448-1.28.341-.512.725-1.003 1.152-1.472.426-.47.768-.811 1.024-1.024.256 0 .64.042 1.152.128q.768.063.768.576c0 .042-.214.298-.64.768-.427.469-.683.768-.768.896-.555.853-1.216 1.877-1.984 3.072-.726 1.152-1.366 2.346-1.92 3.584-.555 1.237-.832 2.41-.832 3.52.512-.086 1.045-.384 1.6-.896.597-.555 1.045-1.024 1.344-1.408h.064v.064c0 .17-.086.341-.256.512-.171.17-.299.32-.384.448-.171.298-.448.789-.832 1.472-.342.682-.726 1.024-1.152 1.024m10.067.384q-1.6635 0-2.496-.768c-.555-.512-.917-1.174-1.088-1.984-.171-.811-.256-1.643-.256-2.496 0-.683-.171-1.046-.512-1.088-.341-.086-.491-.235-.448-.448l1.344-1.024s.064-.235.192-.704c.171-.47.341-.96.512-1.472s.277-.811.32-.896c-.043-.128.064-.491.32-1.088.299-.598.619-1.259.96-1.984.384-.768.747-1.43 1.088-1.984.341-.598.555-.918.64-.96v-.064h-.064c.213-.342.384-.683.512-1.024.171-.342.405-.64.704-.896 0-.086.149-.342.448-.768.341-.47.555-.768.64-.896 1.109-1.494 2.389-3.115 3.84-4.864 1.493-1.792 3.051-3.158 4.672-4.096.213-.086.405-.171.576-.256.171-.128.341-.214.512-.256h.128c.043-.043.085-.064.128-.064.512 0 1.109.213 1.792.64.725.426 1.088.938 1.088 1.536 0 .426-.299 1.109-.896 2.048q-.8325 1.344-2.112 3.072c-.853 1.109-1.771 2.24-2.752 3.392-.939 1.109-1.792 2.09-2.56 2.944-.768.853-1.323 1.45-1.664 1.792-.128.128-.277.256-.448.384s-.341.277-.512.448c-.341.341-.683.704-1.024 1.088-.299.384-.64.746-1.024 1.088-.555.512-1.109 1.024-1.664 1.536-.512.512-1.045 1.002-1.6 1.472-.213.17-.448.362-.704.576-.213.213-.427.426-.64.64-.213.256-.363.725-.448 1.408-.085.682-.128 1.194-.128 1.536 0 .384.043.896.128 1.536.128.597.341 1.13.64 1.6.299.469.704.704 1.216.704.256 0 .469-.043.64-.128.213-.086.427-.192.64-.32q1.8555-1.0245 3.456-2.304c1.067-.896 2.069-1.835 3.008-2.816.341-.342.661-.683.96-1.024.341-.384.683-.747 1.024-1.088.085-.086.256-.256.512-.512s.469-.363.64-.32c-.043.298-.213.576-.512.832-.256.213-.469.448-.64.704-.256.384-.491.768-.704 1.152-.213.341-.427.725-.64 1.152-.085.17-.213.341-.384.512-.171.17-.32.341-.448.512q-.96 1.152-2.112 2.112c-.725.64-1.579 1.173-2.56 1.6-.384.17-.747.298-1.088.384q-.5115.192-1.152.192m-1.28-9.6c2.517-2.347 4.971-4.779 7.36-7.296q3.5835-3.84 6.336-8.256c.213-.342.491-.875.832-1.6.384-.768.576-1.323.576-1.664 0-.256-.064-.406-.192-.448-.512.17-.96.405-1.344.704-.384.298-.789.618-1.216.96-.085.085-.235.192-.448.32-.171.085-.299.17-.384.256-.299.341-.619.682-.96 1.024-.341.341-.683.682-1.024 1.024-.469.512-.917 1.045-1.344 1.6-.427.554-.853 1.109-1.28 1.664-.981 1.237-1.813 2.346-2.496 3.328-.64.981-1.387 2.154-2.24 3.52-.171.256-.448.725-.832 1.408-.384.64-.747 1.301-1.088 1.984-.299.64-.469 1.109-.512 1.408zm17.747-7.36c-.171 0-.384-.107-.64-.32q-.384-.321-.384-.576c0-.086.149-.278.448-.576q.447-.513.96-.96c.384-.342.618-.555.704-.64.341.085.512.277.512.576 0 .17-.107.469-.32.896-.171.384-.384.746-.64 1.088-.214.341-.427.512-.64.512m-6.784 16.576c-.128 0-.256-.043-.384-.128-.086-.086-.192-.15-.32-.192-.299-.256-.512-.47-.64-.64-.128-.171-.192-.47-.192-.896 0-1.366.32-2.667.96-3.904.64-1.28 1.237-2.496 1.792-3.648.085-.086.106-.171.064-.256-.043-.128-.064-.235-.064-.32 0-.384.149-.811.448-1.28.341-.512.725-1.003 1.152-1.472.426-.47.768-.811 1.024-1.024.256 0 .64.042 1.152.128q.768.063.768.576c0 .042-.214.298-.64.768-.427.469-.683.768-.768.896-.555.853-1.216 1.877-1.984 3.072-.726 1.152-1.366 2.346-1.92 3.584-.555 1.237-.832 2.41-.832 3.52.512-.086 1.045-.384 1.6-.896.597-.555 1.045-1.024 1.344-1.408h.064v.064c0 .17-.086.341-.256.512-.171.17-.299.32-.384.448-.171.298-.448.789-.832 1.472-.342.682-.726 1.024-1.152 1.024m4.947 15.296c-.043 0-.128-.022-.256-.064-.128 0-.213-.043-.256-.128-.555 0-.981-.235-1.28-.704-.299-.47-.512-1.003-.64-1.6q-.192-.897-.192-1.536c0-.342.043-.726.128-1.152.085-.384.149-.747.192-1.088.171-.214.299-.491.384-.832.043-.342.085-.64.128-.896.171-.555.363-1.088.576-1.6s.448-1.003.704-1.472c.085-.256.171-.427.256-.512v-.192c.213-.256.363-.534.448-.832.085-.299.192-.598.32-.896.213-.47.448-.939.704-1.408.256-.427.512-.854.768-1.28.341-.555.683-1.088 1.024-1.6.341-.555.661-1.11.96-1.664.171-.214.363-.448.576-.704.213-.299.363-.555.448-.768.384-.768.917-1.686 1.6-2.752.683-1.067 1.301-1.963 1.856-2.688l-.064-.128.192-.256q.1275-.513.576-1.344c.299-.555.448-.982.448-1.28v-.064h-.064c-.384 0-.96.149-1.728.448-.725.256-1.493.597-2.304 1.024-.811.426-1.493.874-2.048 1.344-.555.469-.832.896-.832 1.28 0 .256.085.469.256.64q.3195.192.576.384v.064c-.043 0-.064.021-.064.064-.384-.086-.939-.235-1.664-.448-.725-.256-1.088-.64-1.088-1.152 0-.384.32-.811.96-1.28.64-.512 1.408-1.003 2.304-1.472.896-.47 1.749-.854 2.56-1.152.811-.342 1.408-.534 1.792-.576.128-.043.384-.086.768-.128.427-.086.832-.15 1.216-.192.384-.086.576-.128.576-.128.341-.427.704-.832 1.088-1.216s.725-.79 1.024-1.216h.064l.064-.128.32.064.064-.064c.341 0 .704.192 1.088.576.427.384.64.746.64 1.088 0 .298-.192.512-.576.64s-.576.341-.576.64c0 .17.277.384.832.64s1.109.661 1.664 1.216c.555.512.832 1.301.832 2.368 0 .298-.043.597-.128.896-.043.256-.043.554 0 .896l-.128.128c.043 0 .064.021.064.064h.384c.171-.043.32-.064.448-.064.213 0 .576.085 1.088.256.512.128.853.256 1.024.384.128.085.213.213.256.384.085.128.192.234.32.32v.064l-.192.064c-.256-.086-.491-.171-.704-.256-.171-.128-.384-.192-.64-.192-.171 0-.363.042-.576.128-.171.042-.341.106-.512.192-.597.17-1.173.405-1.728.704q-.768.447-.96 1.536c-.171.128-.299.213-.384.256-.043.042-.085.192-.128.448q-.4485.447-.768.96c-.171.298-.384.597-.64.896-.256.298-.533.576-.832.832-.256.256-.512.533-.768.832-.171.17-.32.32-.448.448-.128.17-.256.341-.384.512-.128.17-.405.362-.832.576-.427.256-.875.469-1.344.64-.427.213-.747.32-.96.32-.384 0-.789-.214-1.216-.64-.384-.384-.576-.79-.576-1.216 0-.939.427-1.856 1.28-2.752.853-.939 1.835-1.771 2.944-2.496 1.152-.768 2.091-1.323 2.816-1.664.213-.086.64-.256 1.28-.512.683-.256 1.067-.427 1.152-.512.256-.256.427-.662.512-1.216.128-.555.192-1.024.192-1.408 0-.768-.171-1.451-.512-2.048-.341-.598-.981-.896-1.92-.896-.64 0-1.216.213-1.728.64-.213.17-.533.512-.96 1.024q-.576.7035-1.152 1.536c-.384.512-.683.917-.896 1.216-1.28 1.834-2.496 3.712-3.648 5.632-1.152 1.877-2.176 3.84-3.072 5.888-.043.042-.107.128-.192.256-.043.128-.107.213-.192.256 0 .042-.107.32-.32.832-.213.554-.427 1.109-.64 1.664-.213.554-.341.896-.384 1.024-.043.085-.107.17-.192.256-.043.085-.085.17-.128.256-.043.298-.128.576-.256.832-.085.256-.171.533-.256.832q-.2565 1.0875-.576 2.304c-.213.853-.32 1.664-.32 2.432 0 .213.021.448.064.704q.0645.447.192.768c.085.17.277.32.576.448s.448.234.448.32c0 .085-.064.128-.192.128m7.744-15.872c.171 0 .341-.086.512-.256.981-.598 1.771-1.088 2.368-1.472.597-.427 1.152-.896 1.664-1.408.555-.555 1.173-1.344 1.856-2.368.085-.086.171-.192.256-.32s.128-.256.128-.384c0-.086-.043-.171-.128-.256-.555.426-1.152.81-1.792 1.152-.597.341-1.173.746-1.728 1.216-.384.298-.747.661-1.088 1.088-.341.384-.725.725-1.152 1.024 0 .128-.171.448-.512.96s-.555.81-.64.896c.085.085.171.128.256.128m17.885.256c-1.067 0-2.133-.342-3.2-1.024-1.067-.683-1.6-1.622-1.6-2.816v-.64c.043-.214.064-.406.064-.576 0-.256-.192-.47-.576-.64-.384-.214-.576-.448-.576-.704.043-.043.107-.064.192-.064.171 0 .341.042.512.128.171.042.341.064.512.064.128 0 .277-.043.448-.128.085-.086.256-.47.512-1.152.299-.683.725-1.515 1.28-2.496.555-.982 1.259-1.92 2.112-2.816.853-.939 1.877-1.664 3.072-2.176.256-.086.512-.171.768-.256.299-.128.576-.192.832-.192.469 0 .96.192 1.472.576.555.341.832.768.832 1.28 0 .298-.064.576-.192.832-.128.213-.256.448-.384.704l-.32.192c-.128.213-.363.512-.704.896-.299.341-.448.597-.448.768h-.064v.064l-.256.064c-.256.17-.469.384-.64.64q-.2565.384-.576.576c-.811.554-1.621 1.088-2.432 1.6-.768.512-1.6.981-2.496 1.408q-.2565.1275-.576.192c-.213.042-.384.149-.512.32-.171.256-.299.554-.384.896-.043.341-.064.682-.064 1.024q0 .768.384 1.728c.256.597.704.896 1.344.896h.192c.085-.043.149-.064.192-.064.256 0 .491-.022.704-.064.256-.043.512-.086.768-.128l.384-.192h.064c.213 0 .619-.15 1.216-.448.64-.342 1.259-.683 1.856-1.024.597-.384.96-.64 1.088-.768q.1275-.0645.192-.192.1275-.129.192-.192c.725-.555 1.472-1.088 2.24-1.6s1.493-1.11 2.176-1.792v.064h.128c-.043.213-.213.426-.512.64-.256.213-.448.426-.576.64-.469.853-1.216 1.664-2.24 2.432s-1.963 1.429-2.816 1.984c-.299.213-.597.448-.896.704-.256.213-.555.384-.896.512-.64.213-1.237.32-1.792.32m-2.496-7.04q.5115 0 .96-.384c.341-.299.597-.47.768-.512l.064.064v-.064c.811-.384 1.579-.918 2.304-1.6.768-.683 1.472-1.344 2.112-1.984h.128c0-.256.192-.534.576-.832.384-.342.576-.619.576-.832.085-.086.171-.214.256-.384.085-.214.128-.363.128-.448-.128-.086-.32-.128-.576-.128-.213.085-.491.234-.832.448-.341.213-.64.32-.896.32 0 .042-.213.213-.64.512-.384.298-.789.618-1.216.96-.427.341-.704.576-.832.704-.213.213-.555.597-1.024 1.152-.469.554-.896 1.109-1.28 1.664-.384.554-.576.981-.576 1.28z"/>
    <path id="save_the_date" d="m46.0063 34.2266.12-1.2h.12c.52.4534 1.1067.8067 1.76 1.06.6534.2534 1.3.38 1.94.38.9067 0 1.64-.2466 2.2-.74.56-.5066.84-1.18.84-2.02 0-.4666-.1066-.9-.32-1.3-.2-.4-.54-.8066-1.02-1.22-.4666-.4133-1.1133-.86-1.94-1.34-.5733-.3333-1.12-.68-1.64-1.04-.52-.3733-.9466-.8-1.28-1.28-.3333-.4933-.5-1.08-.5-1.76 0-1.0133.3667-1.8266 1.1-2.44.7334-.6266 1.7-.94 2.9-.94.5334 0 1.1067.06 1.72.18.6134.1067 1.0867.2467 1.42.42l-.1 1.12h-.12c-.76-.8266-1.7333-1.24-2.92-1.24-.8533 0-1.54.22-2.06.66q-.78.64005-.78 1.74c0 .5467.14 1.02.42 1.42.2934.3867.6667.74 1.12 1.06.4534.3067.94.6067 1.46.9.6.3467 1.18.7134 1.74 1.1.5734.3867 1.04.8534 1.4 1.4.3734.5334.56 1.2067.56 2.02 0 .7467-.1733 1.4067-.52 1.98-.3466.56-.84 1-1.48 1.32-.6266.32-1.36.48-2.2.48-.5333 0-1.16-.0666-1.88-.2-.72-.1333-1.4066-.3066-2.06-.52m9.9994.44 5.38-14h1.24l5.38 14h-1.46l-2.48-6.56h-4.54l-2.06 6.56zm5.52-12.96-1.86 5.92h4.22l-2.24-5.92zm6.6703-1.04h1.5l5.46 12.44h.12l4.58-12.44h1.5l-6.36 14.28h-.44zm16.2764 14v-14h6.1v.98l-3.5-.46c-.6133-.08-1.0266-.12-1.24-.12v6.1c.1734 0 .5867-.02 1.24-.06l3.28-.2v.92l-3.28-.2c-.6533-.04-1.0666-.06-1.24-.06v6.7q.36 0 1.26-.12l3.54-.46v.98zm18.9426 0v-13.6c-.2 0-.614.04-1.24.12l-3.9204.5v-1.02h11.6804v1.02l-3.92-.5c-.627-.08-1.04-.12-1.24-.12v13.6zm9.768 0v-14h1.36v6.48h8.4v-6.48h1.36v14h-1.36v-7.04h-8.4v7.04zm16.328 0v-14h6.1v.98l-3.5-.46c-.613-.08-1.026-.12-1.24-.12v6.1c.174 0 .587-.02 1.24-.06l3.28-.2v.92l-3.28-.2c-.653-.04-1.066-.06-1.24-.06v6.7q.36 0 1.26-.12l3.54-.46v.98zm15.743 0v-14h4.4c1.546 0 2.893.2934 4.04.88 1.146.5867 2.04 1.4067 2.68 2.46q.96 1.56.96 3.66c0 1.4-.32 2.6267-.96 3.68-.64 1.04-1.534 1.8534-2.68 2.44-1.147.5867-2.494.88-4.04.88zm4.4-13.52h-3.04v13.04h3.04c1.933 0 3.44-.5733 4.52-1.72 1.093-1.1466 1.64-2.7466 1.64-4.8 0-2.0533-.547-3.6533-1.64-4.8-1.08-1.1466-2.587-1.72-4.52-1.72m9.613 13.52 5.38-14h1.24l5.38 14h-1.46l-2.48-6.56h-4.54l-2.06 6.56zm5.52-12.96-1.86 5.92h4.22l-2.24-5.92zm11.733 12.96v-13.6c-.2 0-.613.04-1.24.12l-3.92.5v-1.02h11.68v1.02l-3.92-.5c-.627-.08-1.04-.12-1.24-.12v13.6zm9.769 0v-14h6.1v.98l-3.5-.46c-.613-.08-1.027-.12-1.24-.12v6.1c.173 0 .587-.02 1.24-.06l3.28-.2v.92l-3.28-.2c-.653-.04-1.067-.06-1.24-.06v6.7q.36 0 1.26-.12l3.54-.46v.98z"/>
    <path id="date" d="M67.0111 340.667v-15.408l-3.48 1.632-.192-.384 4.824-2.976h.48v17.136zm17.3441-4.056q0 1.32-.672 2.304t-1.896 1.536q-1.2.552-2.832.552-2.448 0-3.936-1.128-1.464-1.128-1.464-2.976 0-1.632 1.152-2.952t3.12-1.968q-1.92-1.152-2.76-2.184t-.84-2.352q0-1.776 1.296-2.832 1.32-1.08 3.432-1.08 1.416 0 2.472.456t1.656 1.296q.6.816.6 1.896 0 1.32-.888 2.424t-2.496 1.824q1.584.96 2.448 1.824c.592.56 1.008 1.12 1.2481 1.68.2399.544.3599 1.104.3599 1.68m-8.688-9.696q0 .84.432 1.488t1.344 1.296q.912.624 2.352 1.44 1.104-.552 1.728-1.536.648-1.008.648-2.328 0-1.512-.864-2.328-.864-.84-2.352-.84-1.464 0-2.376.768t-.912 2.04m-.552 9.888q0 1.68 1.032 2.664 1.032.96 2.808.96 1.752 0 2.832-.888 1.08-.912 1.08-2.424 0-.84-.408-1.56-.408-.744-1.392-1.512t-2.688-1.752q-1.56.648-2.424 1.824-.84 1.152-.84 2.688m12.6694 2.856q0-.552.36-.888.36-.36.888-.36.552 0 .888.36.36.336.36.888 0 .528-.36.888-.336.36-.888.36-.528 0-.888-.36t-.36-.888m7.7968 1.008v-15.408l-3.48 1.632-.192-.384 4.824-2.976h.48v17.136zm6.6646-8.4q0-2.64.72-4.584.72-1.968 2.016-3.048 1.32-1.104 3.048-1.104 1.752 0 3.048 1.104 1.296 1.08 2.016 3.048.72 1.944.72 4.584 0 2.616-.72 4.584t-2.016 3.072q-1.296 1.08-3.048 1.08-1.728 0-3.048-1.08-1.296-1.104-2.016-3.072t-.72-4.584m1.776 0q0 3.912 1.056 6.048 1.056 2.112 2.952 2.112 1.92 0 2.952-2.112 1.056-2.136 1.056-6.048t-1.056-6.024q-1.056-2.136-2.952-2.136t-2.952 2.136q-1.056 2.112-1.056 6.024m13.153 7.392q0-.552.36-.888.36-.36.888-.36.552 0 .888.36.36.336.36.888 0 .528-.36.888-.336.36-.888.36-.528 0-.888-.36t-.36-.888m5.512 1.008v-.432l6.024-7.776q2.064-2.664 2.064-4.872 0-1.608-.864-2.544t-2.28-.936q-.984 0-2.016.48-1.032.456-1.848 1.272h-.144l-.12-1.296q.84-.48 1.92-.744 1.104-.288 2.208-.288 2.208 0 3.552 1.08 1.368 1.056 1.368 2.832 0 1.104-.672 2.448-.672 1.32-2.328 3.216l-5.328 6.12h8.784v1.44zm13.684-8.4q0-2.64.72-4.584.72-1.968 2.016-3.048 1.32-1.104 3.048-1.104 1.752 0 3.048 1.104 1.296 1.08 2.016 3.048.72 1.944.72 4.584 0 2.616-.72 4.584t-2.016 3.072q-1.296 1.08-3.048 1.08-1.728 0-3.048-1.08-1.296-1.104-2.016-3.072t-.72-4.584m1.776 0q0 3.912 1.056 6.048 1.056 2.112 2.952 2.112 1.92 0 2.952-2.112 1.056-2.136 1.056-6.048t-1.056-6.024q-1.056-2.136-2.952-2.136t-2.952 2.136q-1.056 2.112-1.056 6.024m12.197 8.4v-.432l6.024-7.776q2.064-2.664 2.064-4.872 0-1.608-.864-2.544t-2.28-.936q-.984 0-2.016.48-1.032.456-1.848 1.272h-.144l-.12-1.296q.84-.48 1.92-.744 1.104-.288 2.208-.288 2.208 0 3.552 1.08 1.368 1.056 1.368 2.832 0 1.104-.672 2.448-.672 1.32-2.328 3.216l-5.328 6.12h8.784v1.44zm19.251.336q-1.752 0-3.048-.84-1.272-.864-1.968-2.448t-.696-3.744q0-2.136.648-3.96t1.824-3.216q1.2-1.392 2.808-2.232 1.632-.864 3.552-1.032l.048.432q-2.04.24-3.648 1.536-1.608 1.272-2.544 3.408-.912 2.112-.912 4.944 0 3.048 1.056 4.824 1.08 1.752 2.88 1.752 1.512 0 2.448-1.2t.936-3.168q0-2.04-.936-3.24t-2.52-1.2q-1.176 0-2.328.6l-.216-.384q1.56-.888 3.144-.888 1.392 0 2.424.624 1.032.6 1.608 1.704.6 1.104.6 2.592 0 1.536-.648 2.688t-1.824 1.8q-1.152.648-2.688.648"/>
    <path id="heart_2" d="M32.2497 211.896c-.8176.651-1.4706 1.665-1.788 2.779-.1768.623-.2747 1.534-.2411 2.246.0719 1.572.5354 3.129 1.4384 4.834 1.5647 2.954 3.7435 4.397 7.3634 4.879.668.089 1.2681.143 2.5149.222 1.7164.108 2.3984.182 3.3525.361 2.1514.401 4.5376 1.296 5.7564 2.157.147.105.3014.221.3443.258l.0792.069-.0355-.145c-.2903-1.146-.0036-3.883.6642-6.378.2927-1.092.6075-1.952 1.356-3.699.8926-2.085 1.2084-3.005 1.4275-4.176.3327-1.769.168-3.254-.5422-4.889-.1775-.409-.9233-1.643-1.272-2.105-.8473-1.119-1.6256-1.894-2.585-2.566-.6771-.473-1.3624-.812-2.1086-1.04-1.3106-.4-2.5161-.367-3.731.101-.3116.122-1.1453.636-1.4035.865-1.4768 1.329-2.1854 3.262-2.0914 5.699.0116.326.0815.993.142 1.332l.044.26-.5106-.361c-.2803-.2-.6739-.458-.8755-.576-2.2233-1.296-4.4359-1.564-6.2708-.751-.2405.105-.8182.458-1.0276.624"/>
    <path id="heart_1" d="M205.282 136.165c-.973-.381-2.177-.438-3.3-.154-.628.159-1.466.531-2.065.918-1.324.85-2.439 2.032-3.462 3.668-1.771 2.834-1.927 5.443-.53 8.817.258.622.512 1.168 1.069 2.287.767 1.539 1.045 2.166 1.368 3.082.732 2.062 1.154 4.576 1.019 6.062-.016.18-.04.372-.051.427l-.019.103.107-.103c.847-.826 3.359-1.95 5.852-2.623 1.092-.294 1.993-.453 3.881-.681 2.251-.273 3.205-.461 4.328-.858 1.698-.599 2.901-1.486 3.959-2.921.265-.358.959-1.622 1.184-2.155.543-1.295.824-2.356.924-3.523.07-.823.019-1.586-.157-2.346-.311-1.335-.944-2.361-1.958-3.178-.261-.208-1.124-.672-1.452-.781-1.89-.611-3.918-.255-5.979 1.048-.277.173-.819.568-1.082.791l-.203.168.056-.623c.033-.343.059-.813.06-1.046.007-2.574-.87-4.623-2.493-5.803-.212-.155-.807-.478-1.056-.576"/>
  </g>
  <defs>
    <clipPath id="clip0_2_14">
      <path fill="#fff" d="M0 0h240v363H0z"/>
    </clipPath>
  </defs>
</svg>
