<?xml version="1.0" encoding="UTF-8"?>
<svg id="Camada_1" data-name="Camada 1" xmlns="http://www.w3.org/2000/svg" viewBox="0 0 238.99 231.51">
  <defs>
    <style>
      .cls-1 {
        fill: #3e3e2c;
        stroke: #3e3e2c;
        stroke-miterlimit: 10;
        stroke-width: .25px;
      }
    </style>
  </defs>
  <path class="cls-1" d="M231.28.12h-.54c1.08,3.91-4.21,4.69-8.12,4.69h-60.39c-.36,0-.8.03-1.2.03-32.3,1.2-44.58,54.88-54.45,104.93-10.88,55.4-23.94,115.71-63.76,120.16-23.1,2.53-36.52-11.83-36.52-31.62,0-14.2,8.97-26.62,22.02-26.62,8.66,0,16.72,4.61,16.72,15.2-.3,2.77-1.38,5.59-3.61,6.43l.24.54c4.21-1.38,5.6-5.59,5.6-8.36,0-11.67-11.43-14.74-18.95-14.74-16.42,0-28.2,12.11-28.2,26.91,0,20.57,17.38,35.71,42.94,33.48,21.72-1.92,35.68-13.58,44.58-32.46,10.05-21.47,18.94-64.68,22.8-91.98.6-2.23,1.68-2.69,3.37-2.69l44.27-.38c1.93,0,3.61,2.71,3.61,4.21v37.6c0,2.23-1.14,3.85-3.37,3.85h-2.47v.6h36.99v-.6h-5.83c-1.69,0-3.07-1.62-3.07-3.61v-73.75c0-4.21,1.69-5.75,5.6-5.75h27.01c3.31,0,10.53,2.39,10.53,7.98h.6v-17.26h-.6c0,5.53-7.22,7.98-10.53,7.98h-27.01c-3.91,0-5.6-1.6-5.6-5.75V9.41c0-1.93,1.38-3.23,3.07-3.23h34.53c10.83,0,16.72,10.66,16.72,10.66h.54L231.28.12ZM158.07,102.48h-43.19c-2.23,0-3.31-1.84-3.07-3.53l2.53-14.2c7.82-41.2,21.17-78.33,46.8-78.33v-.16l.54,92.39c0,1.99-1.68,3.83-3.61,3.83ZM177.8,145.69c0,1.98-1.38,3.61-3.07,3.61h-3.31c-1.98,0-3.37-1.62-3.37-3.85V9.95c0-2.23,1.38-3.53,3.37-3.53h3.25c1.14-.06,3.13,1.06,3.13,2.99v136.28Z"/>
</svg>